<?xml version="1.0" encoding="utf-8"?>
<!-- Generator: Adobe Illustrator 16.0.0, SVG Export Plug-In . SVG Version: 6.00 Build 0)  -->
<!DOCTYPE svg PUBLIC "-//W3C//DTD SVG 1.1//EN" "http://www.w3.org/Graphics/SVG/1.1/DTD/svg11.dtd">
<svg version="1.1" xmlns="http://www.w3.org/2000/svg" xmlns:xlink="http://www.w3.org/1999/xlink" x="0px" y="0px"
	 width="329.237px" height="390.085px" viewBox="0 0 329.237 390.085" enable-background="new 0 0 329.237 390.085"
	 xml:space="preserve">
<g id="Girl_x5F_6">
</g>
<g id="Girl_x5F_5">
</g>
<g id="Girl_x5F_4">
</g>
<g id="Girl_x5F_3">
</g>
<g id="Girl_x5F_2">
</g>
<g id="Girl_x5F_1">
</g>
<g id="Boy_x5F_6">
</g>
<g id="Boy_x5F_5">
</g>
<g id="Boy_x5F_4">
	<g>
		<g>
			<g>
				<linearGradient id="SVGID_1_" gradientUnits="userSpaceOnUse" x1="211.2163" y1="248.7773" x2="211.2163" y2="235.1724">
					<stop  offset="0" style="stop-color:#580107"/>
					<stop  offset="1" style="stop-color:#3A0003"/>
				</linearGradient>
				<circle fill="url(#SVGID_1_)" cx="211.217" cy="241.977" r="16.245"/>
				<linearGradient id="SVGID_2_" gradientUnits="userSpaceOnUse" x1="211.2168" y1="248.7769" x2="211.2168" y2="235.1719">
					<stop  offset="0" style="stop-color:#7C2314"/>
					<stop  offset="1" style="stop-color:#61170D"/>
				</linearGradient>
				<circle fill="url(#SVGID_2_)" cx="211.217" cy="241.977" r="13.812"/>
				<circle cx="211.217" cy="241.977" r="8.297"/>
				<linearGradient id="SVGID_3_" gradientUnits="userSpaceOnUse" x1="211.2168" y1="249.2285" x2="211.2168" y2="242.7627">
					<stop  offset="0" style="stop-color:#AC6363"/>
					<stop  offset="1" style="stop-color:#000000"/>
				</linearGradient>
				<circle fill="url(#SVGID_3_)" cx="211.217" cy="241.977" r="6.845"/>
				<linearGradient id="SVGID_4_" gradientUnits="userSpaceOnUse" x1="211.2168" y1="237.9473" x2="211.2168" y2="232.2886">
					<stop  offset="0" style="stop-color:#AC6363"/>
					<stop  offset="1" style="stop-color:#FFFFFF"/>
				</linearGradient>
				<circle fill="url(#SVGID_4_)" cx="211.217" cy="236.11" r="3.649"/>
				<circle fill="#FFFFFF" cx="211.217" cy="248.326" r="1.806"/>
				<linearGradient id="SVGID_5_" gradientUnits="userSpaceOnUse" x1="211.2168" y1="250.582" x2="211.2168" y2="255.9969">
					<stop  offset="0" style="stop-color:#AD4230"/>
					<stop  offset="0.9988" style="stop-color:#E5837E"/>
				</linearGradient>
				<path fill="url(#SVGID_5_)" d="M215.453,252.734c0,1.195-1.896,2.163-4.236,2.163s-4.236-0.968-4.236-2.163
					S215.453,251.54,215.453,252.734z"/>
			</g>
			<g>
				<linearGradient id="SVGID_6_" gradientUnits="userSpaceOnUse" x1="109.3481" y1="247.0737" x2="109.3481" y2="233.4688">
					<stop  offset="0" style="stop-color:#580107"/>
					<stop  offset="1" style="stop-color:#3A0003"/>
				</linearGradient>
				<circle fill="url(#SVGID_6_)" cx="109.348" cy="240.273" r="16.245"/>
				<linearGradient id="SVGID_7_" gradientUnits="userSpaceOnUse" x1="109.3481" y1="247.0737" x2="109.3481" y2="233.4685">
					<stop  offset="0" style="stop-color:#7C2314"/>
					<stop  offset="1" style="stop-color:#61170D"/>
				</linearGradient>
				<circle fill="url(#SVGID_7_)" cx="109.348" cy="240.273" r="13.812"/>
				<circle cx="109.348" cy="240.273" r="8.297"/>
				<linearGradient id="SVGID_8_" gradientUnits="userSpaceOnUse" x1="109.3481" y1="247.5249" x2="109.3481" y2="241.0591">
					<stop  offset="0" style="stop-color:#AC6363"/>
					<stop  offset="1" style="stop-color:#000000"/>
				</linearGradient>
				<circle fill="url(#SVGID_8_)" cx="109.348" cy="240.273" r="6.845"/>
				<linearGradient id="SVGID_9_" gradientUnits="userSpaceOnUse" x1="109.3481" y1="236.2437" x2="109.3481" y2="230.585">
					<stop  offset="0" style="stop-color:#AC6363"/>
					<stop  offset="1" style="stop-color:#FFFFFF"/>
				</linearGradient>
				<circle fill="url(#SVGID_9_)" cx="109.348" cy="234.407" r="3.65"/>
				<circle fill="#FFFFFF" cx="109.348" cy="246.622" r="1.806"/>
				<linearGradient id="SVGID_10_" gradientUnits="userSpaceOnUse" x1="109.3481" y1="248.8784" x2="109.3481" y2="254.2932">
					<stop  offset="0" style="stop-color:#AD4230"/>
					<stop  offset="0.9988" style="stop-color:#E5837E"/>
				</linearGradient>
				<path fill="url(#SVGID_10_)" d="M113.584,251.031c0,1.195-1.896,2.163-4.236,2.163s-4.236-0.968-4.236-2.163
					S113.584,249.836,113.584,251.031z"/>
			</g>
		</g>
	</g>
</g>
<g id="Boy_x5F_3">
</g>
<g id="Boy_x5F_2">
</g>
<g id="Boy_x5F_1">
</g>
</svg>
