<?xml version="1.0" encoding="utf-8"?>
<!-- Generator: Adobe Illustrator 16.0.0, SVG Export Plug-In . SVG Version: 6.00 Build 0)  -->
<!DOCTYPE svg PUBLIC "-//W3C//DTD SVG 1.1//EN" "http://www.w3.org/Graphics/SVG/1.1/DTD/svg11.dtd">
<svg version="1.1" xmlns="http://www.w3.org/2000/svg" xmlns:xlink="http://www.w3.org/1999/xlink" x="0px" y="0px"
	 width="329.237px" height="390.085px" viewBox="0 0 329.237 390.085" enable-background="new 0 0 329.237 390.085"
	 xml:space="preserve">
<g id="Girl_x5F_6">
</g>
<g id="Girl_x5F_5">
</g>
<g id="Girl_x5F_4">
</g>
<g id="Girl_x5F_3">
</g>
<g id="Girl_x5F_2">
</g>
<g id="Girl_x5F_1">
</g>
<g id="Boy_x5F_6">
</g>
<g id="Boy_x5F_5">
</g>
<g id="Boy_x5F_4">
	<g>
		<path fill="#FFFFFF" d="M259.85,235.312v12.184h12.184v-18.501L259.85,235.312z M46.409,246.141H57.69v-19.403l-11.281,4.061
			V246.141z"/>
		<g>
			<g>
				<path fill="#FFFFFF" d="M258.665,248.417c0.357-3.747,2.635-7.259,5.91-9.114s7.458-2.002,10.855-0.382
					c6.156,2.936,8.549,10.456,9.165,17.249c0.53,5.856,0.221,11.788-0.917,17.558c-0.454,2.301-1.066,4.639-2.438,6.541
					c-1.235,1.713-3,2.956-4.731,4.166c-4.083,2.854-8.167,5.708-12.25,8.562c-3.275,2.289-7.326,4.682-11.019,3.156
					c-2.61-1.079-4.15-3.917-4.48-6.723s0.338-5.622,1.002-8.367c1.902-7.871,3.804-15.742,5.706-23.613L258.665,248.417z"/>
				<path fill="#FFFFFF" d="M275.43,238.921c-3.397-1.62-7.581-1.473-10.855,0.382s-5.552,5.367-5.91,9.114l-1.002,2.832
					l4.524,3.016c0,0,4.512-8.574,13.086-6.317c5.549,1.46,8.261,6.51,9.485,10.504c-0.041-0.761-0.094-1.522-0.163-2.281
					C283.979,249.377,281.585,241.857,275.43,238.921z"/>
				<path fill="#FFFFFF" d="M277.528,279.985c0,0,6.769-12.635,3.61-21.66c-3.159-9.025-10.378-4.062-17.147,5.866
					c-6.769,9.927-10.83,15.793-10.83,15.793l-0.451,6.317c0,0,8.574-2.708,11.732-2.256
					C267.601,284.497,273.467,284.949,277.528,279.985z"/>
				<path fill="#FFFFFF" d="M281.138,258.325c-3.159-9.025-10.378-4.062-17.147,5.866c-6.769,9.927-10.83,15.793-10.83,15.793
					l-0.451,6.317c0,0,8.239-2.601,11.538-2.277c0.542-2.777-0.257-6.295-0.257-7.199l-0.902-4.062c0-0.198-0.053-0.322-0.142-0.399
					c0.637-1.382,1.318-2.768,2.03-4.107c0.901,0.073,9.224,1.026,6.234,11.275c0,0,3.159-4.061,1.805-9.025
					c-0.869-3.188-3.593-5.438-5.436-6.646c1.314-1.955,2.689-3.591,4.083-4.636c6.337-4.753,10.24,0.924,9.879,9.097
					C282.135,265.008,282.232,261.45,281.138,258.325z"/>
				<path fill="#FFFFFF" d="M258.823,248.46c1.133-5.68,5.667-9.924,11.646-9.775c5.644,0.14,9.505,4.451,11.334,9.425
					c1.678,4.564,2.022,9.53,2.006,14.353c-0.018,5.293-0.078,12.35-2.979,16.988c-2.784,4.45-9.083,7.555-13.283,10.563
					c-4.356,3.12-11.802,9.733-16.271,3.14c-3.501-5.168-0.672-12.31,0.588-17.808c1.356-5.918,2.874-11.818,4.013-17.783
					c0.103-0.536-0.668-0.763-0.826-0.228c-1.898,6.468-3.377,13.068-5.043,19.598c-1.218,4.773-3.58,10.657-1.563,15.533
					c4.402,10.645,16.731,0.535,22.236-3.241c3.921-2.689,9.214-5.222,11.792-9.394c2.59-4.194,3.007-10.052,3.299-14.85
					c0.513-8.441-0.127-19.852-7.527-25.477c-7.838-5.958-18.988-0.763-19.744,8.912C258.486,248.6,258.787,248.642,258.823,248.46
					L258.823,248.46z"/>
			</g>
			<g>
				<path fill="#FFFFFF" d="M62.306,248.417c-0.357-3.747-2.634-7.259-5.909-9.114s-7.458-2.002-10.855-0.382
					c-6.156,2.936-8.549,10.456-9.165,17.249c-0.53,5.856-0.221,11.788,0.917,17.558c0.454,2.301,1.066,4.639,2.438,6.541
					c1.235,1.713,3,2.956,4.731,4.166c4.083,2.854,8.167,5.708,12.25,8.562c3.276,2.289,7.326,4.682,11.02,3.156
					c2.61-1.079,4.15-3.917,4.48-6.723s-0.338-5.622-1.002-8.367c-1.902-7.871-3.804-15.742-5.706-23.613L62.306,248.417z"/>
				<path fill="#FFFFFF" d="M45.541,238.921c3.397-1.62,7.581-1.473,10.855,0.382s5.552,5.367,5.909,9.114l1.003,2.832l-4.524,3.016
					c0,0-4.513-8.574-13.086-6.317c-5.549,1.46-8.261,6.51-9.485,10.504c0.041-0.761,0.094-1.522,0.163-2.281
					C36.992,249.377,39.385,241.857,45.541,238.921z"/>
				<path fill="#FFFFFF" d="M43.442,279.985c0,0-6.769-12.635-3.61-21.66c3.159-9.025,10.378-4.062,17.147,5.866
					c6.769,9.927,10.83,15.793,10.83,15.793l0.451,6.317c0,0-8.574-2.708-11.732-2.256S47.503,284.949,43.442,279.985z"/>
				<path fill="#FFFFFF" d="M39.833,258.325c3.159-9.025,10.378-4.062,17.147,5.866c6.769,9.927,10.83,15.793,10.83,15.793
					l0.451,6.317c0,0-8.239-2.601-11.538-2.277c-0.542-2.777,0.257-6.295,0.257-7.199l0.902-4.062c0-0.198,0.053-0.322,0.142-0.399
					c-0.638-1.382-1.318-2.768-2.03-4.107c-0.901,0.073-9.224,1.026-6.234,11.275c0,0-3.159-4.061-1.805-9.025
					c0.87-3.188,3.594-5.438,5.437-6.646c-1.314-1.955-2.689-3.591-4.083-4.636c-6.337-4.753-10.24,0.924-9.879,9.097
					C38.836,265.008,38.739,261.45,39.833,258.325z"/>
				<path fill="#FFFFFF" d="M62.148,248.46c-1.133-5.68-5.667-9.924-11.646-9.775c-5.644,0.14-9.505,4.451-11.334,9.425
					c-1.679,4.564-2.022,9.53-2.006,14.353c0.018,5.293,0.078,12.35,2.979,16.988c2.784,4.45,9.083,7.555,13.283,10.563
					c4.356,3.12,11.802,9.733,16.27,3.14c3.502-5.168,0.672-12.31-0.588-17.808c-1.356-5.918-2.874-11.818-4.014-17.783
					c-0.102-0.536,0.669-0.763,0.826-0.228c1.898,6.468,3.377,13.068,5.043,19.598c1.217,4.773,3.58,10.657,1.563,15.533
					c-4.402,10.645-16.732,0.535-22.236-3.241c-3.921-2.689-9.214-5.222-11.792-9.394c-2.59-4.194-3.008-10.052-3.299-14.85
					c-0.513-8.441,0.126-19.852,7.526-25.477c7.838-5.958,18.988-0.763,19.745,8.912C62.484,248.6,62.184,248.642,62.148,248.46
					L62.148,248.46z"/>
			</g>
		</g>
		<g>
			<path fill="#FFFFFF" d="M155.181,350.363c-0.035,0-0.07-0.001-0.104-0.004c-34.515-2.668-65.115-26.973-80.831-46.976
				c-14.625-18.613-9.664-44.301-9.097-46.972l-2.02-35.69c-0.003-0.048-0.003-0.097-0.001-0.146
				c0.702-13.566,2.029-39.641,2.029-41.219c0-0.965,0-1.877,23.13-22.418c11.214-9.959,22.575-19.796,22.688-19.895
				c0.188-0.162,0.416-0.27,0.661-0.312l42.191-7.123v-0.341c0-0.398,0.175-0.776,0.48-1.034c0.246-0.208,0.556-0.32,0.874-0.32
				c0.075,0,0.15,0.006,0.225,0.019l4.173,0.704l4.173-0.704c0.075-0.013,0.15-0.019,0.226-0.019c0.317,0,0.627,0.112,0.874,0.32
				c0.305,0.257,0.48,0.635,0.48,1.034v0.341l42.191,7.123c0.245,0.042,0.473,0.149,0.661,0.312
				c0.113,0.098,11.474,9.936,22.688,19.895c23.13,20.541,23.13,21.453,23.13,22.418c0,1.579,1.327,27.653,2.029,41.219
				c0.002,0.049,0.002,0.098,0,0.146l-2.021,35.69c0.568,2.67,5.528,28.358-9.097,46.972
				c-15.716,20.003-46.315,44.308-80.831,46.976c-0.035,0.003-0.07,0.004-0.104,0.004H155.181z"/>
			<path fill="#FFFFFF" d="M254.679,220.645c0,0-2.031-39.259-2.031-41.29c0-2.03-45.35-41.289-45.35-41.289l-43.32-7.313v-1.486
				l-4.398,0.743l-4.399-0.743v1.486l-43.32,7.313c0,0-45.35,39.259-45.35,41.289c0,2.031-2.031,41.29-2.031,41.29l2.031,35.874
				c0,0-6.092,27.075,8.799,46.027c14.088,17.93,44.532,43.731,79.871,46.463h8.797c35.339-2.732,65.783-28.533,79.871-46.463
				c14.891-18.953,8.799-46.027,8.799-46.027L254.679,220.645z"/>
			<path fill="#FFFFFF" d="M210.238,299.49c0,11.287-22.63,20.363-50.546,20.272c-27.916-0.091-50.546-9.315-50.546-20.603
				s22.63-20.363,50.546-20.271C187.607,278.979,210.238,288.203,210.238,299.49z"/>
			<path fill="#FFFFFF" d="M243.849,302.546c14.891-18.953,8.799-46.027,8.799-46.027l1.15-20.323
				c-9.989,4.563-20.29,13.772-28.214,26.254c-14.895,23.462-15.753,49.603-1.917,58.387c0.463,0.294,0.939,0.562,1.423,0.81
				C232.832,315.161,239.226,308.431,243.849,302.546z"/>
			<path fill="#FFFFFF" d="M96.663,262.45c-8.764-13.805-20.434-23.6-31.375-27.541l1.223,21.609c0,0-6.092,27.075,8.799,46.027
				c4.832,6.15,11.589,13.225,19.807,19.979c1.206-0.441,2.367-0.992,3.462-1.688C112.416,312.053,111.558,285.913,96.663,262.45z"
				/>
			<path fill="#FFFFFF" d="M252.648,256.519l0.135-2.381c-1.595,0.509-2.84,1.027-2.84,1.027c2.273,28.792-7.964,48.252-17.42,59.81
				c4.462-4.302,8.279-8.55,11.326-12.429C258.74,283.594,252.648,256.519,252.648,256.519z M69.999,255.166
				c0,0-1.679-0.699-3.636-1.271l0.149,2.625c0,0-6.092,27.075,8.799,46.027c3.957,5.036,9.203,10.692,15.486,16.283
				C80.626,307.997,67.45,287.446,69.999,255.166z"/>
			<path fill="#FFFFFF" d="M239.552,166.529c-13.883,25.2-44.03,42.663-78.978,42.663c-35.501,0-66.042-18.019-79.627-43.868
				c13.273-11.987,30.913-27.258,30.913-27.258l43.32-7.317v-1.482l4.4,0.745l4.399-0.745v1.482l43.32,7.317
				C207.299,138.066,226.157,154.393,239.552,166.529z"/>
			
				<ellipse transform="matrix(-0.8886 0.4586 -0.4586 -0.8886 367.1526 434.7062)" fill="#FFFFFF" cx="130.792" cy="261.934" rx="11.272" ry="10.381"/>
			
				<ellipse transform="matrix(0.8886 0.4586 -0.4586 0.8886 141.3348 -58.1317)" fill="#FFFFFF" cx="190.357" cy="261.934" rx="11.272" ry="10.381"/>
			<g>
				<g>
					<path fill="#FFFFFF" d="M183.633,260.678c0,0-9.859-48.156,6.386-77.261c0,0,43.079,2.964,51.442,17.599s1.239,34.685,0,45.012
						l-14.62,6.985L183.633,260.678z"/>
					<g>
						<path fill="#FFFFFF" d="M240.915,244.85c0.213-10.868-4.825-24.264-14.434-31.559c-6.505-4.938-15.207-4.792-21.648-2.353
							c-9.865,3.736-17.003,12.68-18.691,23.179c0,0-2.915,13.652-1.803,26.811c0,0,19.857-7.769,19.045-6.381
							C202.576,255.931,240.915,244.85,240.915,244.85z"/>
						<path fill="#FFFFFF" d="M186.221,234.141c2.958-13.806,15.062-25.872,30.623-23.75c16.015,2.184,22.355,21.295,23.44,34.439
							c0.056,0.677,1.181,0.932,1.249,0.205c1.278-13.653-7.875-33.746-23.579-36.328c-16.282-2.676-29.771,10.65-31.891,25.386
							C186.048,234.194,186.2,234.238,186.221,234.141L186.221,234.141z"/>
					</g>
					<path fill="#FFFFFF" d="M187.104,250.167c0,0-2.789-29.434,22.043-36.175c0,0,24.582-5.55,31.679,31.813
						c0,0-0.317,6.506-12.923,15.431c-10.755,7.614-31.603,2.257-34.569-0.341C190.915,258.775,187.104,250.167,187.104,250.167z"/>
					<g>
						<path fill="#FFFFFF" d="M237.202,245.781c-2.843-13.829-6.764-26.393-21.538-29.243c-7.698-1.485-14.911,2.058-19.615,7.038
							c-8.026,8.498-9.401,22.097-9.94,33.832c0,0-2.206,4.13-0.208,4.885l4.057-1.065c0,0,13.372,4.16,26.399,3.176
							c12.924-0.976,20.671-16.483,20.671-16.483L237.202,245.781z"/>
					</g>
					<path fill="#FFFFFF" d="M186.157,257.421c1.065-15.442,3.816-35.389,21.009-39.878c7.598-1.984,16.745,1.124,21.809,8.083
						c4.385,6.027,5.827,13.388,7.355,20.143c0.244,1.078,1.955,1.139,1.744,0.026c-1.382-7.278-3.206-15.41-8.21-21.713
						c-4.915-6.192-13.001-9.377-20.303-8.406c-19.947,2.653-23.049,25.146-23.499,41.721
						C186.061,257.453,186.153,257.48,186.157,257.421L186.157,257.421z"/>
					<path fill="#FFFFFF" d="M236.176,251.049c0,0,1.541-9.631-6.717-24.985c0,0,5.916,6.148,9.076,22.12L236.176,251.049z"/>
				</g>
			</g>
			<g>
				<g>
					<path fill="#FFFFFF" d="M136.01,260.678c0,0,7.98-50.421-4.02-83.087c0,0-15.228,12.226-31.333,18
						c-8.341,2.99-20.48-2.994-23.333,2c-8.363,14.635-0.38,38.11,0.859,48.437l14.62,6.985L136.01,260.678z"/>
					<g>
						<path fill="#FFFFFF" d="M78.729,244.85c-0.213-10.868,4.825-24.264,14.434-31.559c6.505-4.938,15.207-4.792,21.647-2.353
							c9.865,3.736,17.003,12.68,18.691,23.179c0,0,2.915,13.652,1.803,26.811c0,0-19.857-7.769-19.045-6.381
							C117.068,255.931,78.729,244.85,78.729,244.85z"/>
						<path fill="#FFFFFF" d="M133.423,234.141c-2.958-13.806-15.062-25.872-30.623-23.75c-16.015,2.184-22.355,21.295-23.44,34.439
							c-0.056,0.677-1.181,0.932-1.249,0.205c-1.278-13.653,7.875-33.746,23.578-36.328c16.282-2.676,29.771,10.65,31.891,25.386
							C133.595,234.194,133.444,234.238,133.423,234.141L133.423,234.141z"/>
					</g>
					<path fill="#FFFFFF" d="M132.54,250.167c0,0,2.789-29.434-22.043-36.175c0,0-24.582-5.55-31.679,31.813
						c0,0,0.317,6.506,12.923,15.431c10.755,7.614,31.603,2.257,34.569-0.341C128.729,258.775,132.54,250.167,132.54,250.167z"/>
					<g>
						<path fill="#FFFFFF" d="M82.441,245.781c2.843-13.829,6.764-26.393,21.538-29.243c7.698-1.485,14.911,2.058,19.615,7.038
							c8.026,8.498,9.401,22.097,9.94,33.832c0,0,2.206,4.13,0.208,4.885l-4.057-1.065c0,0-13.372,4.16-26.399,3.176
							c-12.924-0.976-20.671-16.483-20.671-16.483L82.441,245.781z"/>
					</g>
					<path fill="#FFFFFF" d="M133.487,257.421c-1.065-15.442-3.817-35.389-21.009-39.878c-7.598-1.984-16.745,1.124-21.809,8.083
						c-4.386,6.027-5.828,13.388-7.355,20.143c-0.244,1.078-1.955,1.139-1.744,0.026c1.382-7.278,3.206-15.41,8.209-21.713
						c4.916-6.192,13.001-9.377,20.303-8.406c19.947,2.653,23.049,25.146,23.499,41.721
						C133.583,257.453,133.491,257.48,133.487,257.421L133.487,257.421z"/>
					<path fill="#FFFFFF" d="M83.467,251.049c0,0-1.541-9.631,6.717-24.985c0,0-5.916,6.148-9.076,22.12L83.467,251.049z"/>
				</g>
			</g>
			<path fill="#FFFFFF" d="M252.648,256.519l2.031-35.874c0,0-2.031-39.259-2.031-41.29c0-2.03-45.35-41.289-45.35-41.289
				l-43.32-7.313v-1.486l-4.398,0.743l-4.399-0.743v1.486l-43.32,7.313c0,0-45.35,39.259-45.35,41.289
				c0,2.031-2.031,41.29-2.031,41.29l2.031,35.874c0,0-1.517,6.743-1.187,15.854c0.464-1.499,0.87-3.018,1.2-4.561
				c0.301,2.2,0.414,4.401,0.345,6.661c-0.02,0.67,1.004,0.81,1.169,0.158c2.687-10.613,2.646-21.616-0.405-32.111
				c1.054,0.774,2.108,1.548,3.163,2.322c0.384,0.282,0.977-0.188,0.816-0.628c-3.107-8.549-4.924-17.578-4.217-26.701
				c0.727-9.371,4.079-18.305,8.248-26.653c0.064-0.127,0.002-0.247-0.092-0.302l0.094-0.181
				c21.706-11.034,41.768-26.472,50.635-49.627l-0.964,9.644c-0.034-0.004-0.071,0.009-0.084,0.051
				c-2.833,9.074-7.889,17.524-15.042,23.85c-0.366,0.323,0.029,0.855,0.446,0.767c14.56-3.096,27.91-16.385,32.24-30.691
				l-0.01,7.374c-0.061,0.003-0.12,0.048-0.103,0.125c1.009,4.445,2.027,8.888,3.054,13.329c0.076,0.328,0.642,0.358,0.695,0
				c0.545-3.668,1.054-7.341,1.579-11.012c6.085,24.806,28.229,41.684,51.54,49.665c0.514,0.176,0.979-0.582,0.546-0.938
				c-16.775-13.766-27.227-32.966-32.181-53.702c10.824,14.331,28.142,24.67,44.853,30.161c7.732,2.541,15.752,4.108,23.826,4.662
				c1.56,1.992,3.287,3.805,5.116,5.511l1.469,1.737c-0.071,0.062-0.111,0.163-0.057,0.272c4.101,8.252,7.451,17.041,8.168,26.298
				c0.698,9.01-1.21,17.935-4.297,26.361c-0.16,0.436,0.43,0.909,0.815,0.627c1.057-0.774,2.113-1.548,3.17-2.322
				c-3.079,10.488-3.153,21.489-0.492,32.112c0.162,0.647,1.188,0.518,1.169-0.158c-0.063-2.26,0.056-4.462,0.363-6.662
				c0.435,2.053,0.992,4.065,1.663,6.04C254.331,264.001,252.648,256.519,252.648,256.519z"/>
			<path fill="#FFFFFF" d="M209.517,172.52c0,0-15.647-4.59-23.186,2.039c0.449-1.906,0.882-3.257,0.882-3.257
				c-5.525,4.886-5.183,15.722,9.695,15.932c14.877,0.211,40.519,10.954,47.353,18.722
				C244.261,205.956,239.125,183.319,209.517,172.52z"/>
			<path fill="#FFFFFF" d="M119.913,195.008c0,0,14.372-7.475,15.891-16.977c0.833,1.574,1.34,2.768,1.34,2.768
				c1.096-6.982-5.784-13.982-16.91-4.103c-11.125,9.879-36.647,19.98-46.449,19.399C73.785,196.096,91.424,207.743,119.913,195.008
				z"/>
			<g>
				<circle fill="#FFFFFF" cx="208.028" cy="242.725" r="16.245"/>
				<circle fill="#FFFFFF" cx="208.028" cy="242.725" r="13.812"/>
				<circle fill="#FFFFFF" cx="208.028" cy="242.725" r="8.297"/>
				<circle fill="#FFFFFF" cx="208.028" cy="242.725" r="6.845"/>
				<circle fill="#FFFFFF" cx="208.028" cy="236.858" r="3.649"/>
				<circle fill="#FFFFFF" cx="208.029" cy="249.074" r="1.806"/>
				<path fill="#FFFFFF" d="M212.264,253.482c0,1.195-1.896,2.163-4.236,2.163s-4.236-0.968-4.236-2.163
					S212.264,252.287,212.264,253.482z"/>
			</g>
			<g>
				<circle fill="#FFFFFF" cx="111.348" cy="242.273" r="16.245"/>
				<circle fill="#FFFFFF" cx="111.348" cy="242.273" r="13.812"/>
				<circle fill="#FFFFFF" cx="111.348" cy="242.273" r="8.297"/>
				<circle fill="#FFFFFF" cx="111.348" cy="242.273" r="6.845"/>
				<circle fill="#FFFFFF" cx="111.348" cy="236.407" r="3.65"/>
				<circle fill="#FFFFFF" cx="111.348" cy="248.622" r="1.806"/>
				<path fill="#FFFFFF" d="M115.584,253.031c0,1.195-1.896,2.163-4.236,2.163s-4.236-0.968-4.236-2.163
					S115.584,251.836,115.584,253.031z"/>
			</g>
			<g>
				<path fill="#FFFFFF" d="M182.858,270.719c0,0-13.347-9.609-13.928-15.827c-0.58-6.218,0.581-20.914,0.581-20.914
					S180.537,249.239,182.858,270.719z"/>
				<path fill="#FFFFFF" d="M138.306,270.719c0,0,13.347-9.609,13.927-15.827c0.581-6.218-0.58-20.914-0.58-20.914
					S140.627,249.239,138.306,270.719z"/>
				<path fill="#FFFFFF" d="M179.376,269.587c-2.872-2.397-7.294-5.169-16.539-5.48v-0.031h-4.353v0.031
					c-9.245,0.311-13.667,3.083-16.539,5.48c-3.046,2.543-6.093,8.903-6.093,8.903l1.741,6.359l12.622,1.696l8.27,1.667v0.877
					l2.176-0.438l2.176,0.438v-0.877l8.27-1.667l12.622-1.696l1.741-6.359C185.469,278.49,182.423,272.131,179.376,269.587z"/>
				<path fill="#FFFFFF" d="M168.841,266.203l0.089-0.007c0,0-5.223-6.783-5.658-32.219c0,0,0.259-1.041-1.306-1.49v-0.206h-3.917
					v0.206c-1.565,0.45-1.306,1.49-1.306,1.49c-0.436,25.436-5.658,32.219-5.658,32.219l0.089,0.007
					c-1.155,1.389-1.83,3.064-1.83,4.869c0,4.799,4.774,8.69,10.664,8.69s10.663-3.891,10.663-8.69
					C170.671,269.267,169.996,267.592,168.841,266.203z"/>
				<ellipse fill="#FFFFFF" cx="160.008" cy="267.68" rx="4.845" ry="2.682"/>
				<g>
					<path fill="#FFFFFF" d="M178.653,278.984c-2.712-0.848-9.644,0-12.055,2.261c-2.411,2.261-4.52,2.543-6.328,2.543h-0.335
						c-1.741,0-3.772-0.282-6.094-2.543s-8.995-3.109-11.606-2.261c-2.612,0.848-5.803-0.282-5.803-0.282l0.29,4.875
						c5.692,11.812,19.714,12.527,23.376,12.419c3.802,0.108,17.163-0.394,23.075-12.208l1.506-5.087
						C184.68,278.702,181.366,279.833,178.653,278.984z"/>
					<path fill="#FFFFFF" d="M178.653,281.74c-2.712-0.848-9.644,0-12.055,2.261c-2.411,2.261-4.52,2.544-6.328,2.544h-0.335
						c-1.741,0-3.772-0.283-6.094-2.544c-2.321-2.261-8.995-3.109-11.606-2.261c-2.612,0.848-5.803-0.283-5.803-0.283l1.451,5.087
						c5.692,11.812,18.553,12.314,22.215,12.207c3.802,0.108,17.163-0.394,23.075-12.207l1.506-5.087
						C184.68,281.458,181.366,282.588,178.653,281.74z"/>
					<path fill="#FFFFFF" d="M170.295,288.24c4.512,0.424,6.542-1.907,6.542-1.907C173.228,285.909,170.295,288.24,170.295,288.24z
						 M143.903,286.333c0,0,2.03,2.332,6.542,1.907C150.445,288.24,147.513,285.909,143.903,286.333z"/>
					<path fill="#FFFFFF" d="M178.068,285.424c-2.709-0.08-6.516,0.3-8.644,2.117c-1.071,0.915-1.405,2.287-2.23,3.386
						c-1.739,2.315-4.358,2.892-7.153,2.807c-0.003,0-0.004,0.002-0.007,0.002c-2.195-0.02-4.412-0.498-5.983-2.122
						c-1.179-1.218-1.445-2.973-2.733-4.073c-2.132-1.82-5.933-2.196-8.644-2.117c-0.473,0.014-0.631,0.775-0.117,0.846
						c2.836,0.389,6.855,0.404,8.785,2.903c0.915,1.184,1.138,2.42,2.345,3.443c1.881,1.595,4.327,2.2,6.685,1.519
						c2.355,0.68,4.805,0.075,6.685-1.519c1.187-1.006,1.38-2.363,2.345-3.443c2.147-2.403,5.801-2.494,8.786-2.903
						C178.694,286.2,178.546,285.438,178.068,285.424z M182.727,274.312c-0.267-0.268-0.779,0.091-0.545,0.409
						c3.749,5.107,1.527,15.086-6.419,14.054c-0.137-0.018-0.166,0.204-0.033,0.234c3.585,0.805,7.573-0.25,9.5-3.527
						C187.548,281.538,185.7,277.291,182.727,274.312z M144.979,288.775c-7.94,1.031-10.167-8.947-6.419-14.054
						c0.231-0.315-0.275-0.68-0.545-0.409c-2.974,2.979-4.821,7.227-2.503,11.17c1.928,3.279,5.915,4.333,9.5,3.527
						C145.142,288.979,145.117,288.757,144.979,288.775z"/>
				</g>
			</g>
			<g>
				<path fill="#FFFFFF" d="M155.178,338.456c0,0,6.604,1.539,11.185-0.77c0,0-2.4,4.104-5.793,4.104
					C160.569,341.79,157.725,342.303,155.178,338.456z"/>
				<g>
					<g>
						<path fill="#FFFFFF" d="M176.674,308.428c-2.121-3.6-7.712-6.063-11.183-5.494c-2.667,0.437-4.3,1.427-4.917,1.865
							c-0.617-0.438-2.25-1.428-4.917-1.865c-3.471-0.568-9.062,1.895-11.183,5.494s-3.664,7.388-3.664,7.388
							s2.506,4.736,4.435,10.419c1.841,5.427,4.754,9.807,14.076,10.192v0.038h1.157c0.033,0,0.063-0.003,0.096-0.003
							s0.063,0.003,0.096,0.003h1.157v-0.038c9.322-0.386,12.234-4.766,14.076-10.192c1.928-5.683,4.435-10.419,4.435-10.419
							S178.795,312.027,176.674,308.428z"/>
						<path fill="#FFFFFF" d="M177.252,317.142c0,0-2.314,6.441-3.856,8.714s-7.134,5.305-12.726,5.305h-0.192
							c-5.592,0-11.184-3.031-12.726-5.305s-3.856-8.714-3.856-8.714l-1.735-0.189l4.049,9.283
							c3.278,9.662,13.497,9.473,13.497,9.473h1.735c0,0,10.219,0.189,13.497-9.473l4.049-9.283L177.252,317.142z"/>
						<ellipse fill="#FFFFFF" cx="160.574" cy="333.529" rx="6.204" ry="1.9"/>
						<g>
							<path fill="#FFFFFF" d="M173.043,308.581c-1.871-1.5-4.636-2.186-6.734-1.013c-0.749,0.418-1.381,1.049-2.197,1.322
								c-0.928,0.311-1.979,0.128-2.891,0.467l-1.13-0.171l-0.011,0.038c-0.788-0.153-1.637-0.077-2.404-0.333
								c-0.815-0.272-1.448-0.903-2.197-1.322c-2.098-1.173-4.863-0.487-6.734,1.013c-1.871,1.5-3.047,3.656-4.174,5.753l0.02,1.003
								c1.775,2.313,2.153,5.371,3.514,7.938c2.329,4.394,6.67,5.765,12.673,5.96l0,0.01c0.04-0.001,0.077-0.004,0.116-0.005
								c0.039,0.001,0.077,0.004,0.116,0.005l0.009-0.01c5.998-0.197,10.336-1.568,12.664-5.96c1.361-2.568,1.739-5.626,3.514-7.938
								l0.02-1.003C176.09,312.236,174.914,310.08,173.043,308.581z"/>
							<path fill="#FFFFFF" d="M168.181,308.238l-3.856,2.084l-3.659,0.855l-3.659-0.855l-3.856-2.084
								c-4.242,3.41-3.856,7.767-3.856,7.767c2.699-0.947,6.749-0.758,7.713,0.189c0.964,0.947,2.506,1.516,2.506,1.516h2.305
								c0,0,1.542-0.568,2.507-1.516c0.964-0.947,5.013-1.137,7.712-0.189C172.037,316.005,172.423,311.648,168.181,308.238z"/>
							<path fill="#FFFFFF" d="M174.36,317.142c-5.591-1.895-8.291-0.379-10.026,0.568s-3.278,0.568-3.278,0.568h-0.193
								c0,0-1.542,0.379-3.278-0.568s-4.435-2.463-10.026-0.568c0,0,2.432,7.821,12.537,8.119l-0.004,0.027h1.735l-0.004-0.027
								C171.928,324.963,174.36,317.142,174.36,317.142z"/>
							<path fill="#FFFFFF" d="M159.899,312.954v0.02h0.771c0.033,0.001,0.063-0.002,0.097-0.002c0.033,0,0.063,0.003,0.096,0.002
								h0.771v-0.02c6.347-0.294,10.026-5.095,10.026-5.095l-5.785,0.189l-2.699,0.947l-2.41,0.279l-2.41-0.279l-2.7-0.947
								l-5.784-0.189C149.873,307.859,153.552,312.66,159.899,312.954z M160.863,326.425h-0.193c-7.134,0-12.726-3.979-12.726-3.979
								l0.579,1.326c3.277,6.063,10.604,5.115,10.604,5.115l0.579,0.041v0.149l1.061-0.074l1.061,0.074v-0.149l0.578-0.041
								c0,0,7.327,0.947,10.605-5.115l0.579-1.326C173.589,322.446,167.997,326.425,160.863,326.425z"/>
							<path fill="#FFFFFF" d="M177.076,315.218c-2.725,2.63-2.559,6.875-5.116,9.667c-2.724,2.973-7.267,3.358-11.065,3.78
								c-3.826-0.425-8.305-0.821-11.066-3.78c-2.586-2.772-2.388-7.033-5.116-9.667c-0.113-0.109-0.355,0-0.287,0.165
								c1.588,3.822,2.504,8.417,5.692,11.341c2.889,2.649,6.983,3.205,10.776,3.091c3.792,0.113,7.887-0.442,10.776-3.091
								c3.188-2.923,4.104-7.519,5.692-11.341C177.431,315.219,177.189,315.109,177.076,315.218z M144.681,314.397
								c2.085-3.165,5.155-7.991,9.604-6.329c1.178,0.44,1.904,1.208,3.043,1.633c1.007,0.375,2.298,0.332,3.345,0.448
								c0.083,0.009,0.151-0.005,0.22-0.017c0.07,0.012,0.138,0.026,0.223,0.017c1.026-0.113,2.247-0.06,3.237-0.403
								c1.18-0.408,1.956-1.231,3.151-1.678c4.432-1.656,7.519,3.164,9.604,6.329c0.091,0.138,0.281,0.019,0.219-0.125
								c-1.364-3.127-3.002-6.373-6.531-7.523c-1.242-0.405-2.571-0.462-3.834-0.113c-0.649,0.179-1.15,0.512-1.768,0.739
								c-1.401,0.517-2.877,0.749-4.285,1.274c-0.005,0.002-0.009,0.007-0.015,0.009c-0.005-0.002-0.009-0.007-0.015-0.009
								c-1.851-0.69-3.764-1.224-5.638-1.863c-1.413-0.481-2.827-0.484-4.249-0.037c-3.525,1.107-5.18,4.425-6.531,7.523
								C144.4,314.416,144.59,314.535,144.681,314.397z"/>
						</g>
					</g>
					<ellipse fill="#FFFFFF" cx="160.574" cy="334.37" rx="1.832" ry="0.841"/>
				</g>
			</g>
		</g>
		<g>
			<path fill="#FFFFFF" d="M279.772,157.263c8.298,12.448,14.356,28.266,10.221,42.589c-0.927-5.429-2.924-10.688-5.821-15.324
				l-3.54-8.177c3.208,14.851,2.437,30.622-2.254,44.985c-1.942,5.95-4.535,12.542-2.01,18.492l-0.623,0.277
				c-2.308-1.374-4.616-2.741-6.918-4.109c0.447-1.117,0.589-2.375,0.406-3.594c-2.876,0.575-4.684,4.88-6.031,7.655
				c-5.415,11.155-7.263,24.496-5.124,37.35c-3.086-5.408-5.13-11.459-5.983-17.639c-0.778,3.222-1.104,6.593-0.955,9.963
				c-2.897-11.08-2.538-22.932,0.961-33.417c-1.496,1.097-2.992,2.2-4.488,3.303c7.297-19.663,5.523-34.771-4.217-52.918
				l-1.821-2.152c0,0-1.178-1.211-2.484-2.856c-0.921-0.961-1.834-1.963-2.742-3.053l0.582-0.027
				c-0.006-0.014-0.013-0.021-0.02-0.034c-26.832-1.712-53.284-14.884-70.388-36.564c4.19,21.85,16.124,42.393,33.262,56.56
				c-11.974-4.197-23.447-10.329-32.815-19.115c-9.313-8.731-16.441-20.177-18.979-32.821c-0.609,4.563-1.218,9.138-1.827,13.727
				c-1.104-4.434-2.2-8.854-3.297-13.26l0.014-10.105c-4.535,15.541-17.192,28.449-32.368,32.882
				c7.005-6.437,12.197-14.938,14.796-24.151l1.13-11.304c-0.027,0.021-0.061,0.041-0.095,0.054
				c-5.618,14.621-16.137,27.048-28.449,36.667c-6.863,5.367-14.269,9.902-21.951,13.923l-0.494,0.941
				c-9.788,18.133-11.622,33.945-4.373,53.608c-1.496-1.103-2.992-2.207-4.481-3.303c3.472,10.485,3.797,22.337,0.866,33.417
				c0.163-3.371-0.149-6.741-0.927-9.963c-0.866,6.18-2.931,12.231-6.031,17.639c2.173-12.854,0.365-26.195-5.022-37.35
				c-1.333-2.775-3.134-7.08-6.011-7.655c-0.189,1.218-0.047,2.477,0.399,3.594c-2.308,1.368-4.616,2.735-6.931,4.109l0.034-2.484
				c3.919-19.663-7.222-39.164-3.283-58.312c-2.294,4.792-3.628,10.085-3.885,15.405c-2.674-16.658-4.826-35.38,5.049-48.917
				c-4.535,3.54-7.852,8.799-9.138,14.519c0.156-12.481,1.868-25.18,7.27-36.354c4.176-8.651,10.823-16.327,18.986-20.733
				c2.308-1.259,4.731-2.248,7.263-2.924l-0.02-2.362c-8.38-0.142-16.908,3.547-22.858,9.91
				c7.784-10.823,17.023-20.678,28.124-27.515c11.046-6.803,24.137-10.485,36.68-8.671c-5.686-6.518-15.636-8.738-23.697-5.307
				c11.446-8.867,27.718-10.606,40.409-4.346l0.616-2.132c-0.9-3.919-1.462-8.305,0.636-11.75c1.34-2.2,3.574-3.662,5.537-5.313
				c3.202-2.701,5.821-6.078,7.635-9.835c-1.001,4.203-2.003,8.461-1.99,12.8c0.014,4.345,1.157,8.847,4.007,12.109
				c-1.083-4.285,1.584-8.779,5.117-11.418c3.527-2.626,7.818-3.913,11.832-5.659c6.539-2.836,12.434-6.944,17.91-11.446
				c-6.491,8.657-12.969,17.402-19.446,26.243l2.741,0.67c5.49-6.552,14.16-9.517,22.581-10.458c8.42-0.94,16.956-0.155,25.417-0.67
				c8.454-0.514,17.186-2.524,23.426-8.122c-8.792,11.872-18.079,24.211-31.258,31.278l1.212,0.515
				c45.817-7.012,59.084,14.857,59.084,14.857c-10.343-7.486-25.586-6.504-34.493,2.228c10.126,2.612,20.509,5.34,29.274,11.364
				c10.525,7.243,17.748,18.54,24.604,29.715c0.007,0,0.007,0.007,0.007,0.007c0.224,0.365,0.454,0.737,0.677,1.103
				c-4.616-3.716-9.978-6.41-15.588-7.838l-1.841,0.562c16.962,12.793,29.424,32.402,34.114,53.926
				C290.812,168.472,285.485,162.617,279.772,157.263z"/>
			<path fill="#FFFFFF" d="M278.689,183.755c-2.708,23.352-9.476,34.182-9.138,38.243s3.723,11.845,3.723,11.845
				c-0.677-3.046,1.354-11.168,1.354-11.168C280.72,206.092,278.689,183.755,278.689,183.755z M44.83,200.339
				c0,0-1.354,7.784,0,12.184c1.354,4.399,1.692,18.952,1.692,18.952s1.692-3.046,3.384-2.707c1.692,0.338,8.799,9.814,8.799,9.814
				c-0.677-3.384-8.122-20.983-10.491-25.383C45.845,208.8,44.83,200.339,44.83,200.339z"/>
			<path fill="#FFFFFF" d="M253.997,134.235c18.485,14.892,21.193,31.583,21.193,31.583c-15.792-21.207-55.05-32.49-55.05-32.49
				c4.061,32.943,32.49,40.612,32.49,40.612l-9.93-0.454c-48.735-1.354-79.417-55.503-79.417-55.503l-0.9,11.283
				c-1.354,35.651,20.306,58.211,20.306,58.211c-12.306-6.837-23.826-22.574-28.591-35.529c-2.511-6.809-4.46-14.092-5.252-21.328
				l-2.261,4.061l-2.708-17.145c-5.327,27.088-18.093,37.14-18.492,37.444c7.215-14.438,3.154-46.474,3.154-46.474
				s-6.769,27.528-29.782,52.349c-23.014,24.814-56.411,32.937-56.411,32.937c2.708-3.608,6.322-11.73,6.322-11.73
				c5.415-19.853,13.984-37.905,13.984-37.905c-13.984,7.669-20.306,21.207-20.306,21.207c4.062-26.168,27.075-42.866,27.075-42.866
				c-15.338,2.708-29.329,13.991-29.329,13.991c1.597-16.772,14.857-30.364,17.883-33.261c2.308-1.259,4.731-2.248,7.263-2.924
				l-0.02-2.362c-8.38-0.142-16.908,3.547-22.858,9.91c3.317-4.616,6.904-9.05,10.789-13.152c0,0,0.007,0,0.007-0.007
				c5.212-5.523,10.958-10.437,17.328-14.356c3.581-2.207,7.378-4.088,11.304-5.55c8.177-3.06,16.901-4.346,25.376-3.121
				c-5.686-6.518-15.636-8.738-23.697-5.307c3.587-2.775,7.648-4.853,11.919-6.207c7.784-2.464,16.266-2.518,23.914,0
				c0.007,0,0.007,0,0.007,0c1.563,0.515,3.093,1.13,4.569,1.861l0.616-2.132c-0.9-3.919-1.462-8.305,0.636-11.75
				c0.948-1.557,2.342-2.741,3.777-3.892c0.588-0.474,1.184-0.941,1.76-1.421c3.202-2.701,5.821-6.078,7.635-9.835
				c-1.001,4.203-2.003,8.461-1.99,12.8c0.014,4.345,1.157,8.847,4.007,12.109c-1.083-4.285,1.584-8.779,5.117-11.418
				c3.527-2.626,7.818-3.913,11.832-5.659c6.539-2.836,12.434-6.944,17.91-11.446c-0.609,0.813-1.218,1.625-1.821,2.437
				c-5.882,7.858-11.757,15.791-17.625,23.806l2.741,0.67c5.49-6.552,14.16-9.517,22.581-10.458
				c6.274-0.704,12.617-0.446,18.939-0.48c0,0,0,0,0.007,0c2.159-0.007,4.312-0.054,6.471-0.189
				c8.454-0.514,17.186-2.524,23.426-8.122c-2.172,2.931-4.372,5.896-6.653,8.799c-6.965,8.847-14.682,17.159-24.604,22.479
				l1.212,0.515c18.16-2.782,31.21-1.015,40.341,2.119c0.014,0,0.021,0,0.027,0.007c13.889,4.771,18.715,12.731,18.715,12.731
				c-5.835-4.223-13.219-5.753-20.157-4.717c-5.361,0.798-10.451,3.134-14.336,6.945c10.126,2.612,20.509,5.34,29.274,11.364
				c1.11,0.765,2.187,1.57,3.222,2.423c4.766,3.892,8.833,8.63,12.529,13.741c3.147,4.345,6.031,8.961,8.853,13.551
				c-0.135-0.136-0.277-0.277-0.419-0.427c-13.537-13.991-32.937-11.73-32.937-11.73c25.721,12.63,35.644,36.551,35.644,36.551
				C269.504,138.94,254.464,134.371,253.997,134.235z"/>
			<path fill="#FFFFFF" d="M212.017,47.366c-4.738,1.354-19.629,3.384-19.629,3.384c-29.782,6.092-35.874,21.66-35.874,21.66
				c6.092-9.477,27.075-12.86,34.521-16.245C198.48,52.781,212.017,47.366,212.017,47.366z M143.653,53.458
				c-2.708,6.769,2.03,11.507,2.03,11.507c0-2.031,0-12.86,8.123-18.952C153.806,46.012,147.252,44.459,143.653,53.458z
				 M133.5,44.884c0,0-3.61,6.317-3.61,10.83s1.805,11.281,1.805,11.281s3.61-9.928,2.708-13.086
				C133.5,50.75,133.5,44.884,133.5,44.884z M112.292,62.482c0,0,12.184,7.22,15.342,12.635
				C127.634,75.118,128.987,66.093,112.292,62.482z M67.618,86.399c0,0,29.332-8.123,51.442-2.708c0,0-6.769-6.769-25.27-6.769
				C77.149,76.923,67.618,86.399,67.618,86.399z M55.434,118.889c0,0,24.368-17.147,49.186-20.757
				C104.62,98.131,76.191,93.619,55.434,118.889z M241.348,75.118c0,0-8.123-4.964-23.014-2.256s-26.624,8.574-26.624,8.574
				S227.359,73.313,241.348,75.118z M224.652,97.229c0,0,25.721,4.062,36.1,11.281C260.752,108.51,259.398,94.07,224.652,97.229z
				 M183.137,113.022c0,0,18.501,15.342,22.111,21.208c3.61,5.866,14.44,25.27,21.66,31.136c0,0-9.927-14.892-13.538-27.075
				C209.761,126.108,191.711,117.083,183.137,113.022z M118.609,103.546c-24.367,36.551-40.161,53.699-40.161,53.699
				C111.84,132.877,118.609,103.546,118.609,103.546z"/>
			<path fill="#FFFFFF" d="M280.604,151.381c0,0-9.923-23.921-35.644-36.551c0,0,19.399-2.261,32.937,11.73
				c0.142,0.149,0.284,0.291,0.419,0.427c-2.822-4.589-5.706-9.206-8.853-13.551c-17.267-7.365-41.878-2.444-41.878-2.444
				c29.105,8.799,40.612,27.075,40.612,27.075c-6.66-5.997-27.102-13.964-27.738-14.208c9.32,7.337,16.678,20.557,16.901,20.97
				c-12.19-9.476-43.99-23.684-43.99-23.684c3.385,35.198,22.337,49.412,22.337,49.412c-14.891-2.031-45.35-32.49-54.827-46.027
				c-9.476-13.538-25.721-25.721-25.721-25.721c4.738,14.214,1.354,28.429,1.354,28.429c-2.031-11.507-17.599-37.228-17.599-37.228
				c4.738,26.398-5.415,43.997-5.415,43.997c0.677-21.66-7.446-35.874-7.446-35.874c-17.599,59.564-69.717,75.81-69.717,75.81
				c4.061-22.337,18.275-40.612,18.275-40.612c-9.328,1.997-19.968,11.216-20.299,11.5c10.83-19.623,36.544-31.806,36.544-31.806
				c-20.306,0-46.027,14.891-46.027,14.891c12.184-25.721,55.503-38.582,55.503-38.582c-17.477-6.992-40.971,2.565-47.178,5.36
				c0,0.007-0.007,0.007-0.007,0.007c-3.885,4.102-7.472,8.536-10.789,13.152c5.95-6.363,14.478-10.051,22.858-9.91l0.02,2.362
				c-2.531,0.677-4.955,1.666-7.263,2.924c-3.025,2.897-16.286,16.489-17.883,33.261c0,0,13.991-11.283,29.329-13.991
				c0,0-23.013,16.698-27.075,42.866c0,0,6.322-13.537,20.306-21.207c0,0-8.569,18.053-13.984,37.905c0,0-3.615,8.122-6.322,11.73
				c0,0,33.397-8.123,56.411-32.937c23.014-24.821,29.782-52.349,29.782-52.349s4.061,32.036-3.154,46.474
				c0.399-0.305,13.165-10.356,18.492-37.444l2.708,17.145l2.261-4.061c0.792,7.236,2.741,14.519,5.252,21.328
				c4.765,12.955,16.286,28.692,28.591,35.529c0,0-21.66-22.561-20.306-58.211l0.9-11.283c0,0,30.683,54.15,79.417,55.503
				l9.93,0.454c0,0-28.429-7.669-32.49-40.612c0,0,39.258,11.283,55.05,32.49c0,0-2.708-16.691-21.193-31.583
				C254.464,134.371,269.504,138.94,280.604,151.381z M81.787,74.786c7.791-0.941,32.293-2.843,43.59,8.454
				c0,0-1.259-17.037-29.992-23.088c-4.271,1.354-8.332,3.432-11.919,6.207c8.062-3.432,18.011-1.211,23.697,5.307
				C98.688,70.44,89.964,71.727,81.787,74.786z M119.306,60.152c3.134,2.552,5.713,5.55,9.206,7.635
				c-1.313-6.092-2.762-16.651,0.393-23.548c-1.435,1.151-2.83,2.335-3.777,3.892c-2.098,3.445-1.536,7.831-0.636,11.75
				l-0.616,2.132C122.399,61.282,120.87,60.667,119.306,60.152z M196.192,46.33c1.252-0.332,2.518-0.649,3.797-0.988
				c-6.322,0.034-12.665-0.223-18.939,0.48c-8.42,0.941-17.091,3.906-22.581,10.458l-2.741-0.67
				c5.869-8.015,11.744-15.947,17.625-23.806c-12.109,10.85-29.417,22.303-22.086,41.072
				C159.472,55.901,180.001,50.595,196.192,46.33z M182.153,79.632c7.453-9.713,28.416-8.035,39.36-8.563
				c6.119-0.291,12.319-1.34,18.424-0.183c0.081,0.013,0.169,0.034,0.25,0.054c-9.131-3.134-22.181-4.9-40.341-2.119l-1.212-0.515
				c9.923-5.32,17.639-13.632,24.604-22.479l-0.393,0.183c-6.688,4.819-12.441,10.938-19.684,15.229
				C195.705,65.668,185.233,70.786,182.153,79.632z M238.774,78.962l-2.39-1.137c-9.774,0.142-19.751,9.727-26.141,16.292
				c10.674-5.069,32.673-1.658,46.69,5.578c-1.035-0.853-2.112-1.658-3.222-2.423c-8.766-6.024-19.148-8.752-29.274-11.364
				C228.323,82.096,233.413,79.761,238.774,78.962z"/>
			<path fill="#FFFFFF" d="M126.058,133.934c-12.763,30.135-40.736,47.208-69.476,60.006c-0.13,0.058-0.036,0.286,0.098,0.232
				c28.689-11.522,59.335-28.966,70.249-59.872C127.105,133.799,126.269,133.436,126.058,133.934z M142.229,136.818
				c-2.875,7.521-6.491,14.344-12.167,20.159c-5.114,5.239-11.08,8.799-17.688,11.634c6.131-6.555,10.607-14.11,13.012-22.865
				c0.027-0.099-0.123-0.14-0.153-0.042c-2.833,9.074-7.889,17.524-15.042,23.85c-0.366,0.323,0.029,0.855,0.446,0.767
				c15.389-3.272,29.433-17.93,32.897-33.142C143.731,136.315,142.537,136.015,142.229,136.818z M263.284,200.104
				c-2.078-7.214-4.042-14.479-6.337-21.628c4.434-0.675,8.828-1.669,13.14-3.025c0.751-0.236,0.923-1.573,0-1.702
				c-22.469-3.15-40.995-19.614-49.073-40.475c-0.296-0.764-1.514-0.467-1.254,0.346c6.62,20.739,25.001,36.876,46.226,41.205
				c-17.121,4.683-35.381,4.016-52.322-1.297c-9.009-2.826-17.6-6.936-25.45-12.183c-7.842-5.242-14.243-11.661-20.589-18.502
				c-0.598-2.667-1.111-5.356-1.531-8.061c-0.114-0.737-1.371-0.571-1.309,0.177c1.992,23.905,14.706,46.066,32.289,61.967
				c-22.855-9.111-42.845-25.422-48.595-50.425c-0.138-0.6-0.931-0.391-0.993,0.134c-0.469,3.951-0.973,7.898-1.448,11.849
				c-1.016-3.805-2.036-7.609-3.066-11.411c-0.036-0.131-0.234-0.076-0.204,0.057c1.009,4.445,2.027,8.887,3.054,13.328
				c0.076,0.329,0.642,0.358,0.695,0c0.545-3.668,1.054-7.341,1.579-11.012c6.085,24.806,28.229,41.684,51.54,49.666
				c0.514,0.176,0.979-0.582,0.546-0.938c-16.775-13.766-27.227-32.966-32.181-53.702c10.824,14.331,28.142,24.67,44.853,30.161
				c7.732,2.541,15.752,4.108,23.826,4.662c6.934,8.854,17.062,14.319,25.633,21.378
				C262.733,201.02,263.457,200.706,263.284,200.104z M237.255,179.337c6.241,0.39,12.51,0.171,18.706-0.702
				c1.723,6.716,3.738,13.365,5.685,20.021C253.451,192.183,244.652,186.803,237.255,179.337z M75.262,185.895
				c-4.54,8.023-7.979,16.569-8.898,25.815c-0.9,9.05,0.72,17.862,3.6,26.396c-1.027-0.762-2.054-1.524-3.081-2.286
				c-0.405-0.3-0.979,0.197-0.838,0.645c2.913,9.205,3.481,18.83,1.866,28.262c-0.156-1.711-0.42-3.411-0.797-5.117
				c-0.121-0.546-1.057-0.587-1.146,0c-0.772,5.068-2.243,9.875-4.417,14.459c0.889-8.134,0.377-16.375-1.79-24.302
				c-1.092-3.991-2.627-7.804-4.436-11.521c-1.277-2.624-2.709-5.534-5.676-6.471c-0.427-0.135-0.797,0.224-0.824,0.627
				c-0.122,1.832,0.443,2.719-1.035,4.02c-1.415,1.245-3.582,2.107-5.189,3.098c-0.74,0.456-0.077,1.602,0.684,1.169
				c2.333-1.329,4.637-2.709,6.931-4.105c0.249-0.152,0.403-0.479,0.312-0.767c-0.33-0.811-0.486-1.635-0.477-2.472
				c2.642,1.352,3.959,5.028,5.14,7.555c1.72,3.684,3.05,7.532,3.981,11.489c1.92,8.156,2.082,16.603,0.767,24.862
				c-0.099,0.62,0.731,1.088,1.083,0.456c2.573-4.619,4.404-9.506,5.504-14.636c0.301,2.2,0.414,4.402,0.345,6.661
				c-0.02,0.67,1.004,0.81,1.169,0.158c2.687-10.613,2.646-21.616-0.405-32.111c1.054,0.774,2.108,1.548,3.163,2.322
				c0.384,0.282,0.977-0.188,0.816-0.628c-3.107-8.549-4.924-17.578-4.217-26.7c0.727-9.372,4.079-18.305,8.248-26.653
				C75.772,185.866,75.404,185.644,75.262,185.895z M280.177,176.476c1.919,11.695,2.085,23.439-0.357,35.079
				c-1.939,9.245-7.629,18.544-3.773,27.94c-1.609-0.985-3.748-1.842-5.139-3.073c-1.466-1.298-0.901-2.117-1.023-4.02
				c-0.025-0.403-0.397-0.762-0.823-0.627c-2.831,0.893-4.242,3.573-5.498,6.073c-1.919,3.821-3.529,7.791-4.661,11.918
				c-2.174,7.935-2.721,16.162-1.853,24.305c-2.164-4.586-3.623-9.395-4.381-14.463c-0.088-0.588-1.024-0.545-1.146,0
				c-0.381,1.707-0.65,3.407-0.811,5.118c-1.591-9.438-0.995-19.064,1.94-28.263c0.142-0.444-0.431-0.943-0.836-0.643
				c-1.028,0.762-2.057,1.524-3.085,2.286c2.868-8.405,4.575-17.105,3.68-26.036c-0.916-9.138-4.35-17.545-8.821-25.481
				c-0.142-0.251-0.51-0.03-0.384,0.225c4.101,8.252,7.451,17.041,8.168,26.298c0.698,9.01-1.21,17.935-4.297,26.361
				c-0.16,0.436,0.43,0.909,0.815,0.626c1.057-0.774,2.113-1.548,3.17-2.322c-3.079,10.489-3.153,21.489-0.492,32.112
				c0.162,0.647,1.188,0.518,1.169-0.158c-0.063-2.26,0.056-4.462,0.363-6.662c1.086,5.129,2.905,10.016,5.466,14.636
				c0.348,0.629,1.18,0.168,1.083-0.456c-1.293-8.264-1.106-16.71,0.834-24.862c0.896-3.766,2.15-7.444,3.763-10.964
				c1.216-2.654,2.635-6.66,5.409-8.079c0.006,0.837-0.151,1.661-0.483,2.471c-0.092,0.289,0.063,0.614,0.312,0.766
				c2.29,1.396,4.59,2.776,6.92,4.105c0.557,0.317,1.059-0.215,0.996-0.701c0.089-0.024,0.168-0.104,0.136-0.208
				c-1.728-5.718,0.82-11.565,2.586-17.015c1.642-5.063,2.878-10.213,3.581-15.493c1.372-10.31,0.942-20.949-1.619-31.045
				C280.933,175.627,280.081,175.89,280.177,176.476z M296.087,174.634c-4.573-21.5-16.764-40.906-34.288-54.204
				c-0.462-0.351-0.905,0.429-0.454,0.776c16.719,12.872,28.291,31.474,33.492,51.829c-4.593-5.662-9.554-10.97-14.908-15.932
				c-0.177-0.164-0.495,0.051-0.348,0.269c7.865,11.694,13.358,26.401,10.419,40.535c-1.149-4.809-3.037-9.224-5.698-13.452
				c-0.101-0.161-0.352-0.016-0.255,0.149c2.775,4.773,4.59,9.931,5.53,15.362c0.075,0.433,0.72,0.382,0.826,0
				c2.863-10.252,0.737-20.795-3.463-30.365c-1.155-2.632-2.46-5.198-3.935-7.666c-0.422-0.707-1.131-2.365-1.853-3.288
				c0.516,0.58,1.171,1.431,1.546,1.813c4.523,4.596,8.742,9.483,12.694,14.577C295.668,175.394,296.164,174.996,296.087,174.634z
				 M199.749,68.458c-0.417,0.073-0.326,0.801,0.101,0.748c15.449-1.904,32.167-2.321,46.414,4.941
				c3.378,1.722,7.077,4.039,9.82,6.983c-10.371-5.361-23.576-4.017-32.262,4.157c-0.477,0.449-0.239,1.297,0.385,1.458
				c11.798,3.052,23.864,6.334,33.382,14.338c8.323,6.999,14.274,16.261,19.954,25.433c-4.289-3.02-8.922-5.171-14.081-6.442
				c-0.238-0.059-0.336,0.298-0.101,0.367c5.605,1.647,10.766,4.333,15.351,7.945c0.34,0.268,0.905-0.066,0.643-0.496
				c-6.167-10.143-12.515-20.679-21.68-28.438c-9.02-7.635-20.205-11.041-31.426-13.979c9.132-7.578,22.528-7.92,32.323-1.18
				c0.594,0.409,1.334-0.388,0.973-0.972c-2.854-4.608-8.199-7.997-12.909-10.346C232.335,65.844,215.164,65.776,199.749,68.458z
				 M42.858,237.59c-0.025,0.152,0.203,0.22,0.234,0.064c1.88-9.299,1.199-18.053-0.492-27.327
				c-1.863-10.217-4.121-20.461-2.33-30.861c0.106-0.613-0.795-1.133-1.098-0.463c-1.827,4.041-2.877,8.062-3.437,12.319
				c-2.197-15.266-3.687-32.045,5.525-45.291c0.326-0.469-0.355-0.886-0.738-0.57c-3.813,3.151-6.425,7-8.148,11.448
				c1.596-22.492,9.231-48.439,33.042-55.97c0.809-0.255,0.478-1.484-0.352-1.274c-26.26,6.642-34.1,37.034-33.793,60.65
				c0.007,0.493,0.774,0.63,0.885,0.12c0.971-4.492,3.225-8.531,6.345-11.824c-7.916,13.842-5.671,31.065-3.1,46.213
				c0.083,0.492,0.808,0.341,0.832-0.113c0.194-3.601,0.973-7.167,2.155-10.584C36.795,202.068,45.851,219.665,42.858,237.59z
				 M42.656,108.146c6.091-6.12,13.921-9.67,22.564-10.054c0.19-0.008,0.191-0.288,0-0.296c-7.206-0.3-14.082,2.149-19.637,6.541
				c15.022-18.82,36.419-34.451,61.581-32.075c0.549,0.052,0.743-0.671,0.423-1.021c-5.257-5.73-13.083-8.102-20.514-6.586
				c11.034-6.696,24.614-7.511,36.578-2.262c0.505,0.222,0.955-0.495,0.443-0.758c-13.063-6.711-29.355-4.502-40.938,4.193
				c-0.501,0.376-0.235,1.404,0.474,1.124c7.51-2.971,15.941-1.517,21.838,3.874c-26.883-3.476-48.947,16.353-63.464,36.817
				C41.726,108.034,42.33,108.474,42.656,108.146z M124.647,59.837c-0.561-2.9-0.962-6.207-0.097-9.099
				c0.941-3.144,3.253-4.875,5.644-6.84c2.673-2.198,4.916-4.659,6.762-7.479c-1.574,7.523-2.309,15.544,3.049,21.785
				c0.312,0.363,0.805-0.037,0.734-0.427c-1.788-9.756,9.329-13.377,16.259-16.344c5.711-2.445,10.844-5.849,15.748-9.601
				c-5.905,7.771-11.752,15.596-17.398,23.555c-0.335,0.472,0.429,0.895,0.767,0.448c6.565-8.683,12.994-17.475,19.449-26.24
				c0.324-0.44-0.342-0.845-0.706-0.544c-3.928,3.246-8.066,6.241-12.52,8.729c-3.83,2.14-7.921,3.567-11.914,5.346
				c-5.455,2.43-10.87,6.836-10.721,13.087c-4.273-6.999-2.708-15.393-0.867-23.081c0.142-0.593-0.725-1.018-1.022-0.431
				c-1.532,3.025-3.427,5.799-5.849,8.189c-2.097,2.069-4.778,3.614-6.571,5.981c-2.967,3.916-2.132,8.62-1.063,13.053
				C124.381,60.131,124.687,60.042,124.647,59.837z M158.388,56.195c-0.093,0.113,0.061,0.276,0.165,0.165
				c17.739-19.028,47.43-3.434,67.902-15.936c-8.058,10.627-16.54,20.255-28.027,27.524c-0.46,0.291-0.06,0.949,0.422,0.721
				c13.537-6.402,22.974-19.606,31.668-31.272c0.522-0.7-0.555-1.377-1.139-0.879C209.273,53.665,176.264,34.501,158.388,56.195z"/>
		</g>
	</g>
</g>
<g id="Boy_x5F_3">
</g>
<g id="Boy_x5F_2">
</g>
<g id="Boy_x5F_1">
</g>
</svg>
