<svg version="1.1"
      xmlns="http://www.w3.org/2000/svg"
      xmlns:xlink="http://www.w3.org/1999/xlink"  id="snapshot-65536" width="250" height="250" viewBox="0 0 250 250"><desc>This image was made on Patterninja.com</desc><defs>
<!-- image 41751 -->
<g id="transformed-41751" data-image="41751" transform="translate(-42.04759208325728, -20.51922493662956) rotate(357, 42.04759208325728, 20.51922493662956)"><g><svg version="1.1" width="84.09518416651456px" height="41.03844987325912px" viewBox="0 0 84.09518416651456 41.03844987325912"><g id="original-41751"><svg xmlns="http://www.w3.org/2000/svg" viewBox="0 0 112.166 55.063" xmlns:xlink="http://www.w3.org/1999/xlink" version="1.1" preserveAspectRatio="xMidYMid meet">
  <path stroke-miterlimit="10" d="M58.947 1.23c0 .679.551 1.23 1.23 1.23h11.618a1.23 1.23 0 1 0 0-2.46H60.177a1.23 1.23 0 0 0-1.23 1.23z" fill="rgba(2, 2, 2, 1)" stroke="rgba(0, 0, 0, 1)"/>
  <path stroke-miterlimit="10" d="M4.188 28.401l.072 16.344a3.576 3.576 0 0 0 2.569 3.411l1.471.432.547.164 19.094-.087 43.102-.191 12.457-.056 19.001-.082.64-.202 3.826-1.208a2.746 2.746 0 0 0 1.635-1.432c.169-.355.262-.754.262-1.17l-.017-3.099-.005-1.274v-.596l-.006-1.273-.005-.591-.006-1.279-.005-1.356a7.43 7.43 0 0 0-2.018-5.062l-5.193-5.516a4.405 4.405 0 0 1-.584-.776h-6.686a2.325 2.325 0 0 1-2.323-2.323V8.121c0-.864.7-1.563 1.563-1.563h1.962c-2.176-5.242-5.346-5.248-15.005-5.231l-65.946.317A5.2 5.2 0 0 0 9.6 5.465l-4.586 16.71a22.903 22.903 0 0 0-.59 2.842 22.982 22.982 0 0 0-.236 3.384z" fill="rgba(2, 2, 2, 1)" stroke="rgba(0, 0, 0, 1)"/>
  <path stroke-miterlimit="10" d="M4.188 28.401l.072 16.344a3.576 3.576 0 0 0 2.569 3.411l1.471.432.547.164 19.094-.087 43.102-.191 1.602-.055c.655-15.771-21.265-23.85-68.22-23.402a22.846 22.846 0 0 0-.237 3.384z" fill="rgba(2, 2, 2, 1)" stroke="rgba(0, 0, 0, 1)"/>
  <path stroke-miterlimit="10" d="M7.288 45.051c0 .53.039 1.055.115 1.569.088.618.23 1.219.422 1.798h.514l19-.082.64-.202.58-.18c.235-.836.366-1.717.383-2.624.011-.093.011-.186.011-.279 0-5.98-4.849-10.829-10.833-10.829-5.984.001-10.832 4.849-10.832 10.829z" fill="rgba(2, 2, 2, 1)" stroke="rgba(0, 0, 0, 1)"/>
  <path stroke-miterlimit="10" d="M82.45 45.051c0 .53.038 1.055.115 1.569.087.618.229 1.219.421 1.798h.514l19.001-.082.64-.202.579-.18c.235-.836.366-1.717.383-2.624.011-.093.011-.186.011-.279 0-5.98-4.849-10.829-10.834-10.829-5.981.001-10.83 4.849-10.83 10.829z" fill="rgba(2, 2, 2, 1)" stroke="rgba(0, 0, 0, 1)"/>
  <path stroke-miterlimit="10" d="M94.339 22.957z" fill="rgba(2, 2, 2, 1)" stroke="rgba(0, 0, 0, 1)"/>
  <path stroke-miterlimit="10" d="M94.339 22.957a1.779 1.779 0 0 1-1.776-1.776V8.121c0-.561.456-1.017 1.017-1.017h1.591c2.187 5.109 3.821 10.402 4.974 15.852h-5.806z" fill="rgba(2, 2, 2, 1)" stroke="rgba(0, 0, 0, 1)"/>
  <path stroke-miterlimit="10" d="M92.016 21.18V8.121c0-.864.7-1.563 1.563-1.563h1.962l-.37.547H93.58c-.561 0-1.017.456-1.017 1.017V21.18c0 .979.797 1.776 1.776 1.776H100.146l.879.547h-6.686a2.325 2.325 0 0 1-2.323-2.323z" fill="rgba(2, 2, 2, 1)" stroke="rgba(0, 0, 0, 1)"/>
  <path stroke-miterlimit="10" d="M4.276 45.051a3.576 3.576 0 0 0 2.553 3.105l1.471.432.547.164 19.094-.087 55.045-.246h.514l19.001-.082.64-.202.579-.18 3.247-1.028a2.746 2.746 0 0 0 1.635-1.432v-.443l-4.499.279L83.5 46.62h-.935l-54.625.038-23.664-1.607z" fill="rgba(2, 2, 2, 1)" stroke="rgba(0, 0, 0, 1)"/>
  <path stroke-miterlimit="10" d="M83.5 46.134v2.285l19.001-.082.64-.202v-1.968c0-5.396-4.379-9.774-9.78-9.774h-.12c-5.379 0-9.741 4.362-9.741 9.741z" fill="rgba(2, 2, 2, 1)" stroke="rgba(0, 0, 0, 1)"/>
  <path stroke-miterlimit="10" d="M8.3 46.134v2.454l.547.164 19.094-.087v-2.498c0-5.396-4.378-9.774-9.779-9.774h-.121c-5.38 0-9.741 4.362-9.741 9.741z" fill="rgba(2, 2, 2, 1)" stroke="rgba(0, 0, 0, 1)"/>
  <circle cx="93.281" cy="46.092" r="4.803" stroke-miterlimit="10" fill="rgba(2, 2, 2, 1)" stroke="rgba(0, 0, 0, 1)"/>
  <path stroke-miterlimit="10" d="M84.311 46.1a8.971 8.971 0 0 0 8.979 8.963 8.97 8.97 0 0 0 8.963-8.979 8.972 8.972 0 0 0-17.942.016zm3.448-.003a5.522 5.522 0 1 1 11.045-.009 5.522 5.522 0 0 1-11.045.009z" fill="rgba(2, 2, 2, 1)" stroke="rgba(0, 0, 0, 1)"/>
  <path stroke-miterlimit="10" d="M86.928 46.098a6.353 6.353 0 1 0 12.707-.01 6.353 6.353 0 0 0-12.707.01zm.688-.001a5.667 5.667 0 0 1 11.332-.01 5.665 5.665 0 0 1-5.661 5.67 5.664 5.664 0 0 1-5.671-5.66z" fill="rgba(2, 2, 2, 1)" stroke="rgba(0, 0, 0, 1)"/>
  <path stroke-miterlimit="10" d="M89.387 46.096a3.895 3.895 0 1 0 7.79-.008 3.895 3.895 0 0 0-7.79.008zm1.446-.002a2.448 2.448 0 1 1 4.896-.004 2.448 2.448 0 0 1-4.896.004z" fill="rgba(2, 2, 2, 1)" stroke="rgba(0, 0, 0, 1)"/>
  <path stroke-miterlimit="10" d="M90.833 46.094a2.448 2.448 0 1 0 4.896-.004 2.448 2.448 0 0 0-4.896.004zm1.511-.938a.35.35 0 1 1-.495-.493.35.35 0 0 1 .495.493zm1.14-.569a.204.204 0 1 1-.408 0 .204.204 0 1 1 .408 0zm1.228.567a.35.35 0 1 1-.495-.493.35.35 0 0 1 .495.493zm.074 1.141a.204.204 0 1 1 0-.408c.113 0 .204.091.205.204a.205.205 0 0 1-.205.204zm-.567.733a.35.35 0 1 1 .495.493.35.35 0 0 1-.495-.493zm-1.14.569a.204.204 0 1 1 .408 0 .204.204 0 0 1-.204.205.206.206 0 0 1-.204-.205zm-.727-1.504a.93.93 0 1 1 1.86 0 .93.93 0 0 1-1.86 0zm-.501.937a.35.35 0 1 1 .495.493.35.35 0 0 1-.495-.493zm-.278-.936a.204.204 0 1 1 .204.203.203.203 0 0 1-.204-.203z" fill="rgba(2, 2, 2, 1)" stroke="rgba(0, 0, 0, 1)"/>
  <path stroke-miterlimit="10" d="M87.616 46.097a5.666 5.666 0 1 0 11.333-.01 5.666 5.666 0 0 0-11.333.01zm2.062-2.081c-.148.256-.51.324-.81.151-.299-.173-.422-.521-.275-.776.147-.256.51-.324.81-.152.3.173.423.521.275.777zm3.6-1.818a3.893 3.893 0 1 1 .007 7.787 3.893 3.893 0 0 1-.007-7.787zm-2.079.295c-.256.148-.604.025-.777-.274-.173-.299-.106-.662.15-.81.256-.148.604-.025.777.274.173.299.106.661-.15.81zm2.614-1.186c0 .346-.239.626-.535.626-.296 0-.536-.28-.536-.625 0-.346.239-.626.535-.626.295-.001.536.279.536.625zm2.321.907c-.173.299-.521.423-.776.275-.256-.147-.324-.51-.152-.81.173-.3.521-.423.777-.275.256.148.324.51.151.81zm1.557 1.946c-.299.173-.662.106-.811-.15-.148-.256-.025-.604.274-.777.299-.173.662-.106.81.15.149.256.027.604-.273.777zm.375 2.464c-.346 0-.626-.239-.626-.535 0-.295.28-.536.626-.536s.626.239.626.535-.279.535-.626.536zm-1.181 1.544c.147-.256.51-.324.81-.151.299.172.422.52.275.776-.148.256-.51.324-.81.151-.3-.172-.423-.519-.275-.776zm-1.521 1.524c.256-.148.604-.025.777.274.173.299.106.662-.15.81-.256.148-.604.025-.777-.274-.173-.299-.106-.662.15-.81zm-2.614 1.185c0-.346.239-.626.535-.626.295 0 .536.28.536.625 0 .346-.239.626-.535.626-.296.001-.536-.279-.536-.625zm-2.321-.906c.172-.3.521-.423.776-.275.256.148.324.51.152.81-.173.299-.521.423-.777.275-.256-.148-.324-.511-.151-.81zm-1.557-1.947c.299-.173.662-.106.81.15.148.256.026.604-.273.777s-.662.106-.811-.15c-.148-.256-.026-.603.274-.777zm-1.001-1.927c0-.295.28-.536.625-.536.346 0 .626.239.626.535 0 .296-.28.536-.625.536s-.626-.239-.626-.535z" fill="rgba(2, 2, 2, 1)" stroke="rgba(0, 0, 0, 1)"/>
  <circle cx="18.119" cy="46.092" r="4.804" stroke-miterlimit="10" fill="rgba(2, 2, 2, 1)" stroke="rgba(0, 0, 0, 1)"/>
  <path stroke-miterlimit="10" d="M9.147 46.1c.006 4.954 4.025 8.967 8.979 8.963a8.97 8.97 0 0 0 8.963-8.979 8.97 8.97 0 1 0-17.942.016zm3.45-.003a5.522 5.522 0 1 1 11.045-.009 5.522 5.522 0 0 1-11.045.009z" fill="rgba(2, 2, 2, 1)" stroke="rgba(0, 0, 0, 1)"/>
  <path stroke-miterlimit="10" d="M11.765 46.098a6.355 6.355 0 0 0 12.708-.011 6.352 6.352 0 0 0-6.357-6.347 6.353 6.353 0 0 0-6.351 6.358zm.687-.001a5.667 5.667 0 1 1 11.333-.009 5.667 5.667 0 0 1-11.333.009z" fill="rgba(2, 2, 2, 1)" stroke="rgba(0, 0, 0, 1)"/>
  <path stroke-miterlimit="10" d="M14.223 46.096a3.894 3.894 0 1 0 7.79-.006 3.894 3.894 0 0 0-7.79.006zm1.448-.002a2.447 2.447 0 1 1 4.897-.004 2.45 2.45 0 0 1-4.897.004z" fill="rgba(2, 2, 2, 1)" stroke="rgba(0, 0, 0, 1)"/>
  <path stroke-miterlimit="10" d="M15.671 46.094a2.448 2.448 0 1 0 4.896-.004 2.448 2.448 0 0 0-4.896.004zm1.51-.938a.35.35 0 1 1-.495-.495.35.35 0 0 1 .495.495zm1.141-.569a.204.204 0 1 1-.203-.204c.111 0 .203.092.203.204zm1.228.567a.35.35 0 1 1-.495-.495.35.35 0 0 1 .495.495zm.075 1.141a.204.204 0 1 1 0-.408.204.204 0 0 1 0 .408zm-.567.733a.35.35 0 1 1 .495.495.35.35 0 0 1-.495-.495zm-1.141.569a.204.204 0 1 1 .203.205.206.206 0 0 1-.203-.205zm-.728-1.504a.93.93 0 1 1 1.86 0 .93.93 0 0 1-1.86 0zm-.5.937a.35.35 0 1 1 .495.495.35.35 0 0 1-.495-.495zm-.277-.936a.204.204 0 1 1 .408-.002.204.204 0 0 1-.408.002z" fill="rgba(2, 2, 2, 1)" stroke="rgba(0, 0, 0, 1)"/>
  <path stroke-miterlimit="10" d="M12.452 46.097a5.667 5.667 0 0 0 11.332-.009 5.665 5.665 0 1 0-11.332.009zm2.062-2.081c-.146.256-.509.324-.808.151-.301-.173-.424-.521-.275-.776.146-.256.51-.324.808-.152.301.173.424.521.275.777zm3.603-1.818c2.15-.002 3.894 1.74 3.896 3.891s-1.74 3.896-3.89 3.897-3.897-1.74-3.899-3.891a3.894 3.894 0 0 1 3.893-3.897zm-2.08.295c-.256.148-.604.025-.778-.274-.174-.299-.105-.662.15-.81s.604-.025.778.274.105.661-.15.81zm2.613-1.186c.002.346-.238.626-.533.626-.297 0-.537-.28-.537-.625 0-.346.24-.626.535-.626.295-.001.535.279.535.625zm2.322.907c-.172.299-.519.423-.777.275-.256-.147-.322-.51-.15-.81.172-.3.519-.423.777-.275.255.148.322.51.15.81zm1.557 1.946c-.3.173-.663.106-.812-.15-.146-.256-.025-.604.275-.777.299-.173.662-.106.81.15.148.256.026.604-.273.777zm.375 2.464c-.346 0-.626-.239-.626-.535 0-.295.279-.536.625-.536s.626.239.627.535c0 .295-.28.535-.626.536zm-1.182 1.544c.148-.256.512-.324.811-.151.3.172.423.52.275.776-.148.256-.51.324-.811.151-.299-.172-.422-.519-.275-.776zm-1.519 1.524c.256-.148.603-.025.777.274.172.299.105.662-.15.81-.256.148-.603.025-.777-.274s-.106-.662.15-.81zm-2.616 1.185c0-.346.24-.626.535-.626.297 0 .537.28.537.625s-.24.626-.535.626c-.296.001-.535-.279-.537-.625zm-2.32-.906c.172-.3.52-.423.776-.275.258.148.324.51.152.81-.174.299-.522.423-.778.275-.256-.148-.325-.511-.15-.81zm-1.559-1.947c.301-.173.662-.106.81.15.148.256.025.604-.273.777-.298.173-.662.106-.81-.15-.149-.256-.026-.603.273-.777zm-1-1.927c0-.295.279-.536.625-.536s.627.239.627.535-.279.536-.625.536-.627-.239-.627-.535z" fill="rgba(2, 2, 2, 1)" stroke="rgba(0, 0, 0, 1)"/>
  <ellipse cx="109.73" cy="31.587" rx=".262" ry="3.202" stroke-miterlimit="10" fill="rgba(2, 2, 2, 1)" stroke="rgba(0, 0, 0, 1)"/>
  <path d="M93.651 31.57c.01 2.271 6.647 4.164 11.483 4.143 2.087-.009 3.404-.331 3.933-.905.696-.757.214-1.934.208-3.224-.005-1.277.44-2.497-.236-3.248-.526-.584-1.825-.854-3.941-.844-4.835.021-11.457 1.807-11.447 4.078z" stroke-miterlimit="10" fill="rgba(2, 2, 2, 1)" stroke="rgba(0, 0, 0, 1)"/>
  <path d="M109.784 28.334c1.649-.09 1.654 6.461.029 6.472-.163-1.213-.18-5.257-.029-6.472z" stroke-miterlimit="10" fill="rgba(2, 2, 2, 1)" stroke="rgba(0, 0, 0, 1)"/>
  <path d="M108.943 28.336l.303-.001.644-.002c-.039 0-.071.12-.099.318-.15 1.096-.135 4.742.026 5.836.029.198.063.318.101.318l-.644.003-.303.001c-.228-2.263-.253-4.427-.028-6.473z" stroke-miterlimit="10" fill="rgba(2, 2, 2, 1)" stroke="rgba(0, 0, 0, 1)"/>
  <path stroke-miterlimit="10" d="M37.439 29.603c-.032 2.271-13.752 4.196-23.741 4.197-4.311 0-8.746-.314-9.836-.887-1.434-.753-1.313-5.718.09-6.473 1.09-.586 5.49-.862 9.861-.863 9.988-.001 23.658 1.755 23.626 4.026z" fill="rgba(2, 2, 2, 1)" stroke="rgba(0, 0, 0, 1)"/>
  <path stroke-miterlimit="10" d="M9.978 36.774c-.006 1.131-1.625 2.075-4.107 2.065-1.07-.004-2.174-.167-2.445-.453-.357-.377-.332-2.851.016-3.225.271-.291 1.363-.424 2.449-.419 2.481.01 4.092.901 4.087 2.032z" fill="rgba(2, 2, 2, 1)" stroke="rgba(0, 0, 0, 1)"/>
  <path d="M109.039 45.28c0 .826.669 1.496 1.495 1.496 2.112.001 2.239-5.185 0-5.186-.826 0-1.495.669-1.495 1.495v2.195z" stroke-miterlimit="10" fill="rgba(2, 2, 2, 1)" stroke="rgba(0, 0, 0, 1)"/>
  <path d="M105.036 44.183a1.73 1.73 0 0 0 1.73 1.731h2.873a1.73 1.73 0 1 0 0-3.462h-2.873a1.73 1.73 0 0 0-1.73 1.731z" stroke-miterlimit="10" fill="rgba(2, 2, 2, 1)" stroke="rgba(0, 0, 0, 1)"/>
  <path d="M3.384 45.889c0 .826-.725 1.496-1.617 1.496-2.287.001-2.424-5.185 0-5.186.893 0 1.617.669 1.617 1.495v2.195z" stroke-miterlimit="10" fill="rgba(2, 2, 2, 1)" stroke="rgba(0, 0, 0, 1)"/>
  <path d="M7.716 44.791a1.73 1.73 0 0 1-1.729 1.731H3.116a1.73 1.73 0 1 1 0-3.462h2.871a1.73 1.73 0 0 1 1.729 1.731z" stroke-miterlimit="10" fill="rgba(2, 2, 2, 1)" stroke="rgba(0, 0, 0, 1)"/>
  <path d="M77.942 22.957h10.156c1.233 0 2.232-1 2.232-2.232V9.336a2.232 2.232 0 0 0-2.232-2.232H77.942a2.232 2.232 0 0 0-2.232 2.232v11.388c0 1.233.999 2.233 2.232 2.233z" stroke-miterlimit="10" fill="rgba(2, 2, 2, 1)" stroke="rgba(0, 0, 0, 1)"/>
  <path d="M77.942 7.104h10.156c1.233 0 2.232.999 2.232 2.232v11.388a2.232 2.232 0 0 1-2.232 2.232H77.942c-1.233 0-2.232-1-2.232-2.232V9.336c0-1.232.999-2.232 2.232-2.232zm0-.546a2.783 2.783 0 0 0-2.779 2.779v11.388a2.783 2.783 0 0 0 2.779 2.779h10.156a2.783 2.783 0 0 0 2.779-2.779V9.336a2.783 2.783 0 0 0-2.779-2.779H77.942v.001z" stroke-miterlimit="10" fill="rgba(2, 2, 2, 1)" stroke="rgba(0, 0, 0, 1)"/>
  <path d="M61.179 22.957h10.156c1.233 0 2.232-1 2.232-2.232V9.336a2.232 2.232 0 0 0-2.232-2.232H61.179a2.232 2.232 0 0 0-2.232 2.232v11.388c0 1.233.999 2.233 2.232 2.233z" stroke-miterlimit="10" fill="rgba(2, 2, 2, 1)" stroke="rgba(0, 0, 0, 1)"/>
  <path d="M61.179 7.104h10.156c1.233 0 2.232.999 2.232 2.232v11.388a2.232 2.232 0 0 1-2.232 2.232H61.179c-1.233 0-2.232-1-2.232-2.232V9.336c0-1.232.999-2.232 2.232-2.232zm0-.546A2.783 2.783 0 0 0 58.4 9.337v11.388a2.783 2.783 0 0 0 2.779 2.779h10.156a2.783 2.783 0 0 0 2.779-2.779V9.336a2.783 2.783 0 0 0-2.779-2.779H61.179v.001z" stroke-miterlimit="10" fill="rgba(2, 2, 2, 1)" stroke="rgba(0, 0, 0, 1)"/>
  <path d="M44.416 22.957h10.156c1.232 0 2.232-1 2.232-2.232V9.336c0-1.233-1-2.232-2.232-2.232H44.416a2.232 2.232 0 0 0-2.232 2.232v11.388c0 1.233.999 2.233 2.232 2.233z" stroke-miterlimit="10" fill="rgba(2, 2, 2, 1)" stroke="rgba(0, 0, 0, 1)"/>
  <path d="M44.416 7.104h10.156c1.232 0 2.232.999 2.232 2.232v11.388c0 1.232-1 2.232-2.232 2.232H44.416c-1.233 0-2.232-1-2.232-2.232V9.336c0-1.232.999-2.232 2.232-2.232zm0-.546a2.783 2.783 0 0 0-2.779 2.779v11.388a2.783 2.783 0 0 0 2.779 2.779h10.156a2.783 2.783 0 0 0 2.779-2.779V9.336a2.783 2.783 0 0 0-2.779-2.779H44.416v.001z" stroke-miterlimit="10" fill="rgba(2, 2, 2, 1)" stroke="rgba(0, 0, 0, 1)"/>
  <path d="M27.653 22.957h10.156c1.232 0 2.232-1 2.232-2.232V9.336c0-1.233-1-2.232-2.232-2.232H27.653a2.232 2.232 0 0 0-2.232 2.232v11.388a2.232 2.232 0 0 0 2.232 2.233z" stroke-miterlimit="10" fill="rgba(2, 2, 2, 1)" stroke="rgba(0, 0, 0, 1)"/>
  <path d="M27.653 7.104h10.156c1.232 0 2.232.999 2.232 2.232v11.388c0 1.232-1 2.232-2.232 2.232H27.653c-1.233 0-2.232-1-2.232-2.232V9.336a2.232 2.232 0 0 1 2.232-2.232zm0-.546a2.783 2.783 0 0 0-2.779 2.779v11.388a2.783 2.783 0 0 0 2.779 2.779h10.156a2.782 2.782 0 0 0 2.778-2.779V9.336a2.782 2.782 0 0 0-2.778-2.779H27.653v.001z" stroke-miterlimit="10" fill="rgba(2, 2, 2, 1)" stroke="rgba(0, 0, 0, 1)"/>
  <path d="M9.913 22.957H20.87c1.33 0 2.408-1.315 2.408-2.863V8.826c0-.967-.802-1.722-1.791-1.722h-8.148c-.988 0-1.982.755-2.229 1.722L8.235 20.094c-.394 1.547.348 2.863 1.678 2.863z" stroke-miterlimit="10" fill="rgba(2, 2, 2, 1)" stroke="rgba(0, 0, 0, 1)"/>
  <path d="M13.339 7.104h8.148c.988 0 1.791.755 1.791 1.722v11.268c0 1.547-1.078 2.863-2.408 2.863H9.913c-1.33 0-2.072-1.315-1.678-2.863L11.11 8.826c.246-.967 1.241-1.722 2.229-1.722zm0-.546c-1.242 0-2.453.937-2.76 2.133L7.706 19.958c-.26 1.022-.104 2.003.43 2.69a2.202 2.202 0 0 0 1.777.855H20.87c1.629 0 2.954-1.53 2.954-3.41V8.826c0-1.251-1.048-2.269-2.337-2.269h-8.148v.001z" stroke-miterlimit="10" fill="rgba(2, 2, 2, 1)" stroke="rgba(0, 0, 0, 1)"/>
  <path stroke-miterlimit="10" d="M11.765 4.692c0 .377.309.683.689.683h79.421c.38 0 .688-.306.688-.683a.686.686 0 0 0-.688-.683H12.454a.685.685 0 0 0-.689.683z" fill="rgba(2, 2, 2, 1)" stroke="rgba(0, 0, 0, 1)"/>
  <path stroke-miterlimit="10" d="M74.366 43.685V9.042a3.33 3.33 0 0 1 3.325-3.325h10.841a3.146 3.146 0 0 1 3.142 3.142v23.052c0 .999-.669 1.893-1.627 2.173-1.711.5-7.351 2.678-8.106 9.709a2.65 2.65 0 0 1-2.641 2.37h-2.456a2.48 2.48 0 0 1-2.478-2.478zm3.325-37.468a2.828 2.828 0 0 0-2.825 2.825v34.643c0 1.091.888 1.979 1.979 1.979H79.3a2.151 2.151 0 0 0 2.144-1.924c.626-5.832 4.782-9.06 8.462-10.135a1.774 1.774 0 0 0 1.268-1.694V8.859a2.645 2.645 0 0 0-2.642-2.642H77.691z" fill="rgba(2, 2, 2, 1)" stroke="rgba(0, 0, 0, 1)"/>
  <path stroke-miterlimit="10" d="M43.489 46.094a2.653 2.653 0 0 1-2.649-2.651V10.69c0-2.742 1.492-4.973 3.326-4.973h10.841c1.732 0 3.142 2.104 3.142 4.692l-.069 33.127a2.576 2.576 0 0 1-2.572 2.567h-.002l-12.017-.009zm.676-39.877c-1.558 0-2.826 2.006-2.826 4.473v32.753c0 1.186.964 2.15 2.149 2.151l12.018.009.002.25v-.25c1.14 0 2.069-.928 2.072-2.068l.068-33.126c0-2.311-1.185-4.191-2.642-4.191H44.165z" fill="rgba(2, 2, 2, 1)" stroke="rgba(0, 0, 0, 1)"/>
  <path stroke-miterlimit="10" d="M91.528 26.475c.018-.002.033-.011.052-.011h.009c.236 0 .427.191.427.428v2.601a.428.428 0 0 1-.427.428h-.009c-.019 0-.034-.008-.052-.011v-3.435z" fill="rgba(2, 2, 2, 1)" stroke="rgba(0, 0, 0, 1)"/>
  <path stroke-miterlimit="10" d="M57.913 26.475c.018-.002.033-.011.052-.011h.008c.236 0 .428.191.428.428v2.601a.428.428 0 0 1-.428.428h-.008c-.019 0-.034-.008-.052-.011v-3.435z" fill="rgba(2, 2, 2, 1)" stroke="rgba(0, 0, 0, 1)"/>
  <path stroke-miterlimit="10" d="M57.913 37.843c.018-.002.033-.01.052-.01h.008c.236 0 .428.191.428.427v2.601a.428.428 0 0 1-.428.428h-.008c-.019 0-.034-.008-.052-.01v-3.436z" fill="rgba(2, 2, 2, 1)" stroke="rgba(0, 0, 0, 1)"/>
  <g>
    <path d="M77.409 27.491h2.206a.947.947 0 0 0 .947-.947v-.019a.947.947 0 0 0-.947-.947h-2.206a.947.947 0 0 0-.947.947v.019c0 .523.424.947.947.947z" stroke-miterlimit="10" fill="rgba(2, 2, 2, 1)" stroke="rgba(0, 0, 0, 1)"/>
    <ellipse cx="79.354" cy="26.512" rx="2.141" ry=".364" stroke-miterlimit="10" fill="rgba(2, 2, 2, 1)" stroke="rgba(0, 0, 0, 1)"/>
  </g>
  <g>
    <path d="M43.677 27.491h2.206a.947.947 0 0 0 .947-.947v-.019a.947.947 0 0 0-.947-.947h-2.206a.947.947 0 0 0-.947.947v.019c0 .523.424.947.947.947z" stroke-miterlimit="10" fill="rgba(2, 2, 2, 1)" stroke="rgba(0, 0, 0, 1)"/>
    <ellipse cx="45.623" cy="26.512" rx="2.141" ry=".364" stroke-miterlimit="10" fill="rgba(2, 2, 2, 1)" stroke="rgba(0, 0, 0, 1)"/>
  </g>
  <g>
    <path d="M2.817 26.733c-1.506-.082-1.51 5.901-.025 5.911.148-1.108.164-4.801.025-5.911z" stroke-miterlimit="10" fill="rgba(2, 2, 2, 1)" stroke="rgba(0, 0, 0, 1)"/>
    <path d="M3.585 26.735l-.275-.001-.588-.002c.035 0 .064.11.09.291.137 1.001.123 4.331-.023 5.33-.027.181-.057.29-.092.29l.588.002.275.001c.209-2.066.232-4.043.025-5.911z" stroke-miterlimit="10" fill="rgba(2, 2, 2, 1)" stroke="rgba(0, 0, 0, 1)"/>
  </g>
  <g>
    <path d="M3.163 35.039c-.883-.049-.885 3.456-.016 3.461.086-.648.096-2.812.016-3.461z" stroke-miterlimit="10" fill="rgba(2, 2, 2, 1)" stroke="rgba(0, 0, 0, 1)"/>
    <path d="M3.612 35.04l-.162-.001-.344-.001c.02 0 .037.064.053.17.08.586.072 2.537-.014 3.122-.015.106-.033.17-.054.17l.344.002h.162c.123-1.21.136-2.368.015-3.462z" stroke-miterlimit="10" fill="rgba(2, 2, 2, 1)" stroke="rgba(0, 0, 0, 1)"/>
  </g>
  <path stroke-miterlimit="10" d="M104.862 36.852c0 .35.29.64.64.64h3.329l-.006-1.279h-3.323a.643.643 0 0 0-.64.639z" fill="rgba(2, 2, 2, 1)" stroke="rgba(0, 0, 0, 1)"/>
  <path stroke-miterlimit="10" d="M104.862 38.721c0 .35.29.634.64.634h3.34l-.006-1.273h-3.334a.64.64 0 0 0-.64.639z" fill="rgba(2, 2, 2, 1)" stroke="rgba(0, 0, 0, 1)"/>
  <path stroke-miterlimit="10" d="M104.862 40.585c0 .355.29.64.64.64h3.345l-.005-1.274h-3.34a.64.64 0 0 0-.64.634z" fill="rgba(2, 2, 2, 1)" stroke="rgba(0, 0, 0, 1)"/>
  <path stroke-miterlimit="10" d="M95.412 29.92c7.083-2.125 12.869-.129 12.96-1.268.033-.422-.943-1.159-4.875-.725-3.143.348-6.377 1.295-8.085 1.993z" fill="rgba(2, 2, 2, 0.7)" stroke="rgba(0, 0, 0, 0.7)"/>
  <path stroke-miterlimit="10" d="M34.918 28.271c-11.995-2.124-30.901-.131-30.897-1.267 0-.43 1.139-.92 12.483-.857 9.094.05 14.98 1.367 18.414 2.124z" fill="rgba(2, 2, 2, 0.7)" stroke="rgba(0, 0, 0, 0.7)"/>
  <path stroke-miterlimit="10" d="M9.728 36.318c-2.274-1.276-5.858-.078-5.858-.761 0-.258.217-.553 2.367-.515 1.723.03 2.84.821 3.491 1.276z" fill="rgba(2, 2, 2, 0.7)" stroke="rgba(0, 0, 0, 0.7)"/>
  <path stroke-miterlimit="10" d="M110.08 29.29c1.065-.058 1.068 4.173.019 4.18.388-.77.429-3.38-.019-4.18z" fill="rgba(2, 2, 2, 0.7)" stroke="rgba(0, 0, 0, 0.7)"/>
  <path stroke-miterlimit="10" d="M92.944 8.436c.016-.561.39-1.063.817-1.058h1.172c2.187 5.11 3.676 9.731 4.83 15.182L92.944 8.436z" fill="rgba(2, 2, 2, 0.7)" stroke="rgba(0, 0, 0, 0.7)"/>
  <path stroke-miterlimit="10" d="M89.817 21.271V9.883c0-1.232-1-2.232-2.232-2.232H77.429c9.18 5.149 10.82 9.829 12.388 13.62z" fill="rgba(2, 2, 2, 0.7)" stroke="rgba(0, 0, 0, 0.7)"/>
  <path stroke-miterlimit="10" d="M73.024 21.271V9.883a2.232 2.232 0 0 0-2.232-2.232H60.636c9.18 5.149 10.82 9.829 12.388 13.62z" fill="rgba(2, 2, 2, 0.7)" stroke="rgba(0, 0, 0, 0.7)"/>
  <path stroke-miterlimit="10" d="M56.231 21.271V9.883a2.232 2.232 0 0 0-2.232-2.232H43.843c9.18 5.149 10.82 9.829 12.388 13.62z" fill="rgba(2, 2, 2, 0.7)" stroke="rgba(0, 0, 0, 0.7)"/>
  <path stroke-miterlimit="10" d="M39.438 21.271V9.883a2.232 2.232 0 0 0-2.232-2.232H27.05c9.18 5.149 10.82 9.829 12.388 13.62z" fill="rgba(2, 2, 2, 0.7)" stroke="rgba(0, 0, 0, 0.7)"/>
  <path stroke-miterlimit="10" d="M22.646 21.271V9.883c0-1.232-1-2.232-2.232-2.232h-8.25c9.181 5.149 8.913 9.829 10.482 13.62z" fill="rgba(2, 2, 2, 0.7)" stroke="rgba(0, 0, 0, 0.7)"/>
  <circle cx="95.412" cy="25.199" r=".51" fill="rgba(2, 2, 2, 1)" stroke="none"/>
  <circle cx="95.412" cy="28.606" r=".51" fill="rgba(2, 2, 2, 1)" stroke="none"/>
  <path d="M88.885 22.753c0 .305.247.552.552.552h1.781c.309 0 .559-.25.559-.559v-6.982a.838.838 0 0 0-.838-.838h-1.278a.775.775 0 0 0-.776.776v7.051z" fill="rgba(2, 2, 2, 1)" stroke="none"/>
  <path d="M95.223 25.315c.234.061.342-.042.378-.238l-4.534-7.187c-.186-.026-.312.053-.378.238l4.534 7.187z" fill="rgba(2, 2, 2, 1)" stroke="none"/>
  <path d="M95.215 28.729c.195.083.331.024.393-.214l-4.534-8.318c-.228-.096-.359-.024-.393.214l4.534 8.318z" fill="rgba(2, 2, 2, 1)" stroke="none"/>
</svg>
</g></svg></g></g>
<!-- /image 41751 -->

<!-- image 12166 -->
<g id="transformed-12166" data-image="12166" transform="translate(205.9880969248, 225.49819129930242) rotate(358, 42.01190307520001, 20.50180870069759)"><g><svg version="1.1" width="84.02380615040002px" height="41.00361740139518px" viewBox="0 0 84.02380615040002 41.00361740139518"><g id="original-12166"><svg xmlns="http://www.w3.org/2000/svg" viewBox="0 0 112.166 55.063" xmlns:xlink="http://www.w3.org/1999/xlink" version="1.1" preserveAspectRatio="xMidYMid meet">
  <path d="M58.947 1.23c0 .679.551 1.23 1.23 1.23h11.618a1.23 1.23 0 1 0 0-2.46H60.177a1.23 1.23 0 0 0-1.23 1.23z" fill="rgba(179, 107, 0, 1)" stroke="none"/>
  <path d="M4.188 28.401l.072 16.344a3.576 3.576 0 0 0 2.569 3.411l1.471.432.547.164 19.094-.087 43.102-.191 12.457-.056 19.001-.082.64-.202 3.826-1.208a2.746 2.746 0 0 0 1.635-1.432c.169-.355.262-.754.262-1.17l-.017-3.099-.005-1.274v-.596l-.006-1.273-.005-.591-.006-1.279-.005-1.356a7.43 7.43 0 0 0-2.018-5.062l-5.193-5.516a4.405 4.405 0 0 1-.584-.776h-6.686a2.325 2.325 0 0 1-2.323-2.323V8.121c0-.864.7-1.563 1.563-1.563h1.962c-2.176-5.242-5.346-5.248-15.005-5.231l-65.946.317A5.2 5.2 0 0 0 9.6 5.465l-4.586 16.71a22.903 22.903 0 0 0-.59 2.842 22.982 22.982 0 0 0-.236 3.384z" fill="rgba(255, 153, 0, 1)" stroke="none"/>
  <path d="M4.188 28.401l.072 16.344a3.576 3.576 0 0 0 2.569 3.411l1.471.432.547.164 19.094-.087 43.102-.191 1.602-.055c.655-15.771-21.265-23.85-68.22-23.402a22.846 22.846 0 0 0-.237 3.384z" fill="rgba(237, 142, 0, 1)" stroke="none"/>
  <path d="M7.288 45.051c0 .53.039 1.055.115 1.569.088.618.23 1.219.422 1.798h.514l19-.082.64-.202.58-.18c.235-.836.366-1.717.383-2.624.011-.093.011-.186.011-.279 0-5.98-4.849-10.829-10.833-10.829-5.984.001-10.832 4.849-10.832 10.829z" fill="rgba(179, 107, 0, 1)" stroke="none"/>
  <path d="M82.45 45.051c0 .53.038 1.055.115 1.569.087.618.229 1.219.421 1.798h.514l19.001-.082.64-.202.579-.18c.235-.836.366-1.717.383-2.624.011-.093.011-.186.011-.279 0-5.98-4.849-10.829-10.834-10.829-5.981.001-10.83 4.849-10.83 10.829z" fill="rgba(179, 107, 0, 1)" stroke="none"/>
  <path d="M94.339 22.957z" fill="rgba(243, 146, 0, 1)" stroke="none"/>
  <path d="M94.339 22.957a1.779 1.779 0 0 1-1.776-1.776V8.121c0-.561.456-1.017 1.017-1.017h1.591c2.187 5.109 3.821 10.402 4.974 15.852h-5.806z" fill="rgba(191, 233, 230, 1)" stroke="none"/>
  <path d="M92.016 21.18V8.121c0-.864.7-1.563 1.563-1.563h1.962l-.37.547H93.58c-.561 0-1.017.456-1.017 1.017V21.18c0 .979.797 1.776 1.776 1.776H100.146l.879.547h-6.686a2.325 2.325 0 0 1-2.323-2.323z" fill="rgba(60, 60, 59, 1)" stroke="none"/>
  <path d="M4.276 45.051a3.576 3.576 0 0 0 2.553 3.105l1.471.432.547.164 19.094-.087 55.045-.246h.514l19.001-.082.64-.202.579-.18 3.247-1.028a2.746 2.746 0 0 0 1.635-1.432v-.443l-4.499.279L83.5 46.62h-.935l-54.625.038-23.664-1.607z" fill="rgba(179, 107, 0, 1)" stroke="none"/>
  <path d="M83.5 46.134v2.285l19.001-.082.64-.202v-1.968c0-5.396-4.379-9.774-9.78-9.774h-.12c-5.379 0-9.741 4.362-9.741 9.741z" fill="rgba(29, 29, 27, 1)" stroke="none"/>
  <path d="M8.3 46.134v2.454l.547.164 19.094-.087v-2.498c0-5.396-4.378-9.774-9.779-9.774h-.121c-5.38 0-9.741 4.362-9.741 9.741z" fill="rgba(29, 29, 27, 1)" stroke="none"/>
  <circle cx="93.281" cy="46.092" r="4.803" fill="rgba(60, 60, 59, 1)" stroke="none"/>
  <path d="M84.311 46.1a8.971 8.971 0 0 0 8.979 8.963 8.97 8.97 0 0 0 8.963-8.979 8.972 8.972 0 0 0-17.942.016zm3.448-.003a5.522 5.522 0 1 1 11.045-.009 5.522 5.522 0 0 1-11.045.009z" fill="rgba(87, 87, 86, 1)" stroke="none"/>
  <path d="M86.928 46.098a6.353 6.353 0 1 0 12.707-.01 6.353 6.353 0 0 0-12.707.01zm.688-.001a5.667 5.667 0 0 1 11.332-.01 5.665 5.665 0 0 1-5.661 5.67 5.664 5.664 0 0 1-5.671-5.66z" fill="rgba(218, 218, 218, 1)" stroke="none"/>
  <path d="M89.387 46.096a3.895 3.895 0 1 0 7.79-.008 3.895 3.895 0 0 0-7.79.008zm1.446-.002a2.448 2.448 0 1 1 4.896-.004 2.448 2.448 0 0 1-4.896.004z" fill="rgba(237, 237, 237, 1)" stroke="none"/>
  <path d="M90.833 46.094a2.448 2.448 0 1 0 4.896-.004 2.448 2.448 0 0 0-4.896.004zm1.511-.938a.35.35 0 1 1-.495-.493.35.35 0 0 1 .495.493zm1.14-.569a.204.204 0 1 1-.408 0 .204.204 0 1 1 .408 0zm1.228.567a.35.35 0 1 1-.495-.493.35.35 0 0 1 .495.493zm.074 1.141a.204.204 0 1 1 0-.408c.113 0 .204.091.205.204a.205.205 0 0 1-.205.204zm-.567.733a.35.35 0 1 1 .495.493.35.35 0 0 1-.495-.493zm-1.14.569a.204.204 0 1 1 .408 0 .204.204 0 0 1-.204.205.206.206 0 0 1-.204-.205zm-.727-1.504a.93.93 0 1 1 1.86 0 .93.93 0 0 1-1.86 0zm-.501.937a.35.35 0 1 1 .495.493.35.35 0 0 1-.495-.493zm-.278-.936a.204.204 0 1 1 .204.203.203.203 0 0 1-.204-.203z" fill="rgba(198, 198, 198, 1)" stroke="none"/>
  <path d="M87.616 46.097a5.666 5.666 0 1 0 11.333-.01 5.666 5.666 0 0 0-11.333.01zm2.062-2.081c-.148.256-.51.324-.81.151-.299-.173-.422-.521-.275-.776.147-.256.51-.324.81-.152.3.173.423.521.275.777zm3.6-1.818a3.893 3.893 0 1 1 .007 7.787 3.893 3.893 0 0 1-.007-7.787zm-2.079.295c-.256.148-.604.025-.777-.274-.173-.299-.106-.662.15-.81.256-.148.604-.025.777.274.173.299.106.661-.15.81zm2.614-1.186c0 .346-.239.626-.535.626-.296 0-.536-.28-.536-.625 0-.346.239-.626.535-.626.295-.001.536.279.536.625zm2.321.907c-.173.299-.521.423-.776.275-.256-.147-.324-.51-.152-.81.173-.3.521-.423.777-.275.256.148.324.51.151.81zm1.557 1.946c-.299.173-.662.106-.811-.15-.148-.256-.025-.604.274-.777.299-.173.662-.106.81.15.149.256.027.604-.273.777zm.375 2.464c-.346 0-.626-.239-.626-.535 0-.295.28-.536.626-.536s.626.239.626.535-.279.535-.626.536zm-1.181 1.544c.147-.256.51-.324.81-.151.299.172.422.52.275.776-.148.256-.51.324-.81.151-.3-.172-.423-.519-.275-.776zm-1.521 1.524c.256-.148.604-.025.777.274.173.299.106.662-.15.81-.256.148-.604.025-.777-.274-.173-.299-.106-.662.15-.81zm-2.614 1.185c0-.346.239-.626.535-.626.295 0 .536.28.536.625 0 .346-.239.626-.535.626-.296.001-.536-.279-.536-.625zm-2.321-.906c.172-.3.521-.423.776-.275.256.148.324.51.152.81-.173.299-.521.423-.777.275-.256-.148-.324-.511-.151-.81zm-1.557-1.947c.299-.173.662-.106.81.15.148.256.026.604-.273.777s-.662.106-.811-.15c-.148-.256-.026-.603.274-.777zm-1.001-1.927c0-.295.28-.536.625-.536.346 0 .626.239.626.535 0 .296-.28.536-.625.536s-.626-.239-.626-.535z" fill="rgba(198, 198, 198, 1)" stroke="none"/>
  <circle cx="18.119" cy="46.092" r="4.804" fill="rgba(60, 60, 59, 1)" stroke="none"/>
  <path d="M9.147 46.1c.006 4.954 4.025 8.967 8.979 8.963a8.97 8.97 0 0 0 8.963-8.979 8.97 8.97 0 1 0-17.942.016zm3.45-.003a5.522 5.522 0 1 1 11.045-.009 5.522 5.522 0 0 1-11.045.009z" fill="rgba(87, 87, 86, 1)" stroke="none"/>
  <path d="M11.765 46.098a6.355 6.355 0 0 0 12.708-.011 6.352 6.352 0 0 0-6.357-6.347 6.353 6.353 0 0 0-6.351 6.358zm.687-.001a5.667 5.667 0 1 1 11.333-.009 5.667 5.667 0 0 1-11.333.009z" fill="rgba(218, 218, 218, 1)" stroke="none"/>
  <path d="M14.223 46.096a3.894 3.894 0 1 0 7.79-.006 3.894 3.894 0 0 0-7.79.006zm1.448-.002a2.447 2.447 0 1 1 4.897-.004 2.45 2.45 0 0 1-4.897.004z" fill="rgba(237, 237, 237, 1)" stroke="none"/>
  <path d="M15.671 46.094a2.448 2.448 0 1 0 4.896-.004 2.448 2.448 0 0 0-4.896.004zm1.51-.938a.35.35 0 1 1-.495-.495.35.35 0 0 1 .495.495zm1.141-.569a.204.204 0 1 1-.203-.204c.111 0 .203.092.203.204zm1.228.567a.35.35 0 1 1-.495-.495.35.35 0 0 1 .495.495zm.075 1.141a.204.204 0 1 1 0-.408.204.204 0 0 1 0 .408zm-.567.733a.35.35 0 1 1 .495.495.35.35 0 0 1-.495-.495zm-1.141.569a.204.204 0 1 1 .203.205.206.206 0 0 1-.203-.205zm-.728-1.504a.93.93 0 1 1 1.86 0 .93.93 0 0 1-1.86 0zm-.5.937a.35.35 0 1 1 .495.495.35.35 0 0 1-.495-.495zm-.277-.936a.204.204 0 1 1 .408-.002.204.204 0 0 1-.408.002z" fill="rgba(198, 198, 198, 1)" stroke="none"/>
  <path d="M12.452 46.097a5.667 5.667 0 0 0 11.332-.009 5.665 5.665 0 1 0-11.332.009zm2.062-2.081c-.146.256-.509.324-.808.151-.301-.173-.424-.521-.275-.776.146-.256.51-.324.808-.152.301.173.424.521.275.777zm3.603-1.818c2.15-.002 3.894 1.74 3.896 3.891s-1.74 3.896-3.89 3.897-3.897-1.74-3.899-3.891a3.894 3.894 0 0 1 3.893-3.897zm-2.08.295c-.256.148-.604.025-.778-.274-.174-.299-.105-.662.15-.81s.604-.025.778.274.105.661-.15.81zm2.613-1.186c.002.346-.238.626-.533.626-.297 0-.537-.28-.537-.625 0-.346.24-.626.535-.626.295-.001.535.279.535.625zm2.322.907c-.172.299-.519.423-.777.275-.256-.147-.322-.51-.15-.81.172-.3.519-.423.777-.275.255.148.322.51.15.81zm1.557 1.946c-.3.173-.663.106-.812-.15-.146-.256-.025-.604.275-.777.299-.173.662-.106.81.15.148.256.026.604-.273.777zm.375 2.464c-.346 0-.626-.239-.626-.535 0-.295.279-.536.625-.536s.626.239.627.535c0 .295-.28.535-.626.536zm-1.182 1.544c.148-.256.512-.324.811-.151.3.172.423.52.275.776-.148.256-.51.324-.811.151-.299-.172-.422-.519-.275-.776zm-1.519 1.524c.256-.148.603-.025.777.274.172.299.105.662-.15.81-.256.148-.603.025-.777-.274s-.106-.662.15-.81zm-2.616 1.185c0-.346.24-.626.535-.626.297 0 .537.28.537.625s-.24.626-.535.626c-.296.001-.535-.279-.537-.625zm-2.32-.906c.172-.3.52-.423.776-.275.258.148.324.51.152.81-.174.299-.522.423-.778.275-.256-.148-.325-.511-.15-.81zm-1.559-1.947c.301-.173.662-.106.81.15.148.256.025.604-.273.777-.298.173-.662.106-.81-.15-.149-.256-.026-.603.273-.777zm-1-1.927c0-.295.279-.536.625-.536s.627.239.627.535-.279.536-.625.536-.627-.239-.627-.535z" fill="rgba(198, 198, 198, 1)" stroke="none"/>
  <ellipse cx="109.73" cy="31.587" rx=".262" ry="3.202" fill="rgba(60, 60, 59, 1)" stroke="none"/>
  <path d="M93.651 31.57c.01 2.271 6.647 4.164 11.483 4.143 2.087-.009 3.404-.331 3.933-.905.696-.757.214-1.934.208-3.224-.005-1.277.44-2.497-.236-3.248-.526-.584-1.825-.854-3.941-.844-4.835.021-11.457 1.807-11.447 4.078z" fill="rgba(179, 107, 0, 1)" stroke="none"/>
  <path d="M109.784 28.334c1.649-.09 1.654 6.461.029 6.472-.163-1.213-.18-5.257-.029-6.472z" fill="rgba(255, 230, 151, 1)" stroke="none"/>
  <path d="M108.943 28.336l.303-.001.644-.002c-.039 0-.071.12-.099.318-.15 1.096-.135 4.742.026 5.836.029.198.063.318.101.318l-.644.003-.303.001c-.228-2.263-.253-4.427-.028-6.473z" fill="rgba(198, 198, 198, 1)" stroke="none"/>
  <path d="M37.439 29.603c-.032 2.271-13.752 4.196-23.741 4.197-4.311 0-8.746-.314-9.836-.887-1.434-.753-1.313-5.718.09-6.473 1.09-.586 5.49-.862 9.861-.863 9.988-.001 23.658 1.755 23.626 4.026z" fill="rgba(179, 107, 0, 1)" stroke="none"/>
  <path d="M9.978 36.774c-.006 1.131-1.625 2.075-4.107 2.065-1.07-.004-2.174-.167-2.445-.453-.357-.377-.332-2.851.016-3.225.271-.291 1.363-.424 2.449-.419 2.481.01 4.092.901 4.087 2.032z" fill="rgba(179, 107, 0, 1)" stroke="none"/>
  <path d="M109.039 45.28c0 .826.669 1.496 1.495 1.496 2.112.001 2.239-5.185 0-5.186-.826 0-1.495.669-1.495 1.495v2.195z" fill="rgba(60, 60, 59, 1)" stroke="none"/>
  <path d="M105.036 44.183a1.73 1.73 0 0 0 1.73 1.731h2.873a1.73 1.73 0 1 0 0-3.462h-2.873a1.73 1.73 0 0 0-1.73 1.731z" fill="rgba(237, 237, 237, 1)" stroke="none"/>
  <path d="M3.384 45.889c0 .826-.725 1.496-1.617 1.496-2.287.001-2.424-5.185 0-5.186.893 0 1.617.669 1.617 1.495v2.195z" fill="rgba(60, 60, 59, 1)" stroke="none"/>
  <path d="M7.716 44.791a1.73 1.73 0 0 1-1.729 1.731H3.116a1.73 1.73 0 1 1 0-3.462h2.871a1.73 1.73 0 0 1 1.729 1.731z" fill="rgba(237, 237, 237, 1)" stroke="none"/>
  <path d="M77.942 22.957h10.156c1.233 0 2.232-1 2.232-2.232V9.336a2.232 2.232 0 0 0-2.232-2.232H77.942a2.232 2.232 0 0 0-2.232 2.232v11.388c0 1.233.999 2.233 2.232 2.233z" fill="rgba(191, 233, 230, 1)" stroke="none"/>
  <path d="M77.942 7.104h10.156c1.233 0 2.232.999 2.232 2.232v11.388a2.232 2.232 0 0 1-2.232 2.232H77.942c-1.233 0-2.232-1-2.232-2.232V9.336c0-1.232.999-2.232 2.232-2.232zm0-.546a2.783 2.783 0 0 0-2.779 2.779v11.388a2.783 2.783 0 0 0 2.779 2.779h10.156a2.783 2.783 0 0 0 2.779-2.779V9.336a2.783 2.783 0 0 0-2.779-2.779H77.942v.001z" fill="rgba(60, 60, 59, 1)" stroke="none"/>
  <path d="M61.179 22.957h10.156c1.233 0 2.232-1 2.232-2.232V9.336a2.232 2.232 0 0 0-2.232-2.232H61.179a2.232 2.232 0 0 0-2.232 2.232v11.388c0 1.233.999 2.233 2.232 2.233z" fill="rgba(191, 233, 230, 1)" stroke="none"/>
  <path d="M61.179 7.104h10.156c1.233 0 2.232.999 2.232 2.232v11.388a2.232 2.232 0 0 1-2.232 2.232H61.179c-1.233 0-2.232-1-2.232-2.232V9.336c0-1.232.999-2.232 2.232-2.232zm0-.546A2.783 2.783 0 0 0 58.4 9.337v11.388a2.783 2.783 0 0 0 2.779 2.779h10.156a2.783 2.783 0 0 0 2.779-2.779V9.336a2.783 2.783 0 0 0-2.779-2.779H61.179v.001z" fill="rgba(60, 60, 59, 1)" stroke="none"/>
  <path d="M44.416 22.957h10.156c1.232 0 2.232-1 2.232-2.232V9.336c0-1.233-1-2.232-2.232-2.232H44.416a2.232 2.232 0 0 0-2.232 2.232v11.388c0 1.233.999 2.233 2.232 2.233z" fill="rgba(191, 233, 230, 1)" stroke="none"/>
  <path d="M44.416 7.104h10.156c1.232 0 2.232.999 2.232 2.232v11.388c0 1.232-1 2.232-2.232 2.232H44.416c-1.233 0-2.232-1-2.232-2.232V9.336c0-1.232.999-2.232 2.232-2.232zm0-.546a2.783 2.783 0 0 0-2.779 2.779v11.388a2.783 2.783 0 0 0 2.779 2.779h10.156a2.783 2.783 0 0 0 2.779-2.779V9.336a2.783 2.783 0 0 0-2.779-2.779H44.416v.001z" fill="rgba(60, 60, 59, 1)" stroke="none"/>
  <path d="M27.653 22.957h10.156c1.232 0 2.232-1 2.232-2.232V9.336c0-1.233-1-2.232-2.232-2.232H27.653a2.232 2.232 0 0 0-2.232 2.232v11.388a2.232 2.232 0 0 0 2.232 2.233z" fill="rgba(191, 233, 230, 1)" stroke="none"/>
  <path d="M27.653 7.104h10.156c1.232 0 2.232.999 2.232 2.232v11.388c0 1.232-1 2.232-2.232 2.232H27.653c-1.233 0-2.232-1-2.232-2.232V9.336a2.232 2.232 0 0 1 2.232-2.232zm0-.546a2.783 2.783 0 0 0-2.779 2.779v11.388a2.783 2.783 0 0 0 2.779 2.779h10.156a2.782 2.782 0 0 0 2.778-2.779V9.336a2.782 2.782 0 0 0-2.778-2.779H27.653v.001z" fill="rgba(60, 60, 59, 1)" stroke="none"/>
  <path d="M9.913 22.957H20.87c1.33 0 2.408-1.315 2.408-2.863V8.826c0-.967-.802-1.722-1.791-1.722h-8.148c-.988 0-1.982.755-2.229 1.722L8.235 20.094c-.394 1.547.348 2.863 1.678 2.863z" fill="rgba(191, 233, 230, 1)" stroke="none"/>
  <path d="M13.339 7.104h8.148c.988 0 1.791.755 1.791 1.722v11.268c0 1.547-1.078 2.863-2.408 2.863H9.913c-1.33 0-2.072-1.315-1.678-2.863L11.11 8.826c.246-.967 1.241-1.722 2.229-1.722zm0-.546c-1.242 0-2.453.937-2.76 2.133L7.706 19.958c-.26 1.022-.104 2.003.43 2.69a2.202 2.202 0 0 0 1.777.855H20.87c1.629 0 2.954-1.53 2.954-3.41V8.826c0-1.251-1.048-2.269-2.337-2.269h-8.148v.001z" fill="rgba(60, 60, 59, 1)" stroke="none"/>
  <path d="M11.765 4.692c0 .377.309.683.689.683h79.421c.38 0 .688-.306.688-.683a.686.686 0 0 0-.688-.683H12.454a.685.685 0 0 0-.689.683z" fill="rgba(179, 107, 0, 1)" stroke="none"/>
  <path d="M74.366 43.685V9.042a3.33 3.33 0 0 1 3.325-3.325h10.841a3.146 3.146 0 0 1 3.142 3.142v23.052c0 .999-.669 1.893-1.627 2.173-1.711.5-7.351 2.678-8.106 9.709a2.65 2.65 0 0 1-2.641 2.37h-2.456a2.48 2.48 0 0 1-2.478-2.478zm3.325-37.468a2.828 2.828 0 0 0-2.825 2.825v34.643c0 1.091.888 1.979 1.979 1.979H79.3a2.151 2.151 0 0 0 2.144-1.924c.626-5.832 4.782-9.06 8.462-10.135a1.774 1.774 0 0 0 1.268-1.694V8.859a2.645 2.645 0 0 0-2.642-2.642H77.691z" fill="rgba(179, 107, 0, 1)" stroke="none"/>
  <path d="M43.489 46.094a2.653 2.653 0 0 1-2.649-2.651V10.69c0-2.742 1.492-4.973 3.326-4.973h10.841c1.732 0 3.142 2.104 3.142 4.692l-.069 33.127a2.576 2.576 0 0 1-2.572 2.567h-.002l-12.017-.009zm.676-39.877c-1.558 0-2.826 2.006-2.826 4.473v32.753c0 1.186.964 2.15 2.149 2.151l12.018.009.002.25v-.25c1.14 0 2.069-.928 2.072-2.068l.068-33.126c0-2.311-1.185-4.191-2.642-4.191H44.165z" fill="rgba(179, 107, 0, 1)" stroke="none"/>
  <path d="M91.528 26.475c.018-.002.033-.011.052-.011h.009c.236 0 .427.191.427.428v2.601a.428.428 0 0 1-.427.428h-.009c-.019 0-.034-.008-.052-.011v-3.435z" fill="rgba(179, 107, 0, 1)" stroke="none"/>
  <path d="M57.913 26.475c.018-.002.033-.011.052-.011h.008c.236 0 .428.191.428.428v2.601a.428.428 0 0 1-.428.428h-.008c-.019 0-.034-.008-.052-.011v-3.435z" fill="rgba(179, 107, 0, 1)" stroke="none"/>
  <path d="M57.913 37.843c.018-.002.033-.01.052-.01h.008c.236 0 .428.191.428.427v2.601a.428.428 0 0 1-.428.428h-.008c-.019 0-.034-.008-.052-.01v-3.436z" fill="rgba(179, 107, 0, 1)" stroke="none"/>
  <g>
    <path d="M77.409 27.491h2.206a.947.947 0 0 0 .947-.947v-.019a.947.947 0 0 0-.947-.947h-2.206a.947.947 0 0 0-.947.947v.019c0 .523.424.947.947.947z" fill="rgba(179, 107, 0, 1)" stroke="none"/>
    <ellipse cx="79.354" cy="26.512" rx="2.141" ry=".364" fill="rgba(237, 237, 237, 1)" stroke="none"/>
  </g>
  <g>
    <path d="M43.677 27.491h2.206a.947.947 0 0 0 .947-.947v-.019a.947.947 0 0 0-.947-.947h-2.206a.947.947 0 0 0-.947.947v.019c0 .523.424.947.947.947z" fill="rgba(179, 107, 0, 1)" stroke="none"/>
    <ellipse cx="45.623" cy="26.512" rx="2.141" ry=".364" fill="rgba(237, 237, 237, 1)" stroke="none"/>
  </g>
  <g>
    <path d="M2.817 26.733c-1.506-.082-1.51 5.901-.025 5.911.148-1.108.164-4.801.025-5.911z" fill="rgba(255, 69, 21, 1)" stroke="none"/>
    <path d="M3.585 26.735l-.275-.001-.588-.002c.035 0 .064.11.09.291.137 1.001.123 4.331-.023 5.33-.027.181-.057.29-.092.29l.588.002.275.001c.209-2.066.232-4.043.025-5.911z" fill="rgba(198, 198, 198, 1)" stroke="none"/>
  </g>
  <g>
    <path d="M3.163 35.039c-.883-.049-.885 3.456-.016 3.461.086-.648.096-2.812.016-3.461z" fill="rgba(255, 230, 151, 1)" stroke="none"/>
    <path d="M3.612 35.04l-.162-.001-.344-.001c.02 0 .037.064.053.17.08.586.072 2.537-.014 3.122-.015.106-.033.17-.054.17l.344.002h.162c.123-1.21.136-2.368.015-3.462z" fill="rgba(198, 198, 198, 1)" stroke="none"/>
  </g>
  <path d="M104.862 36.852c0 .35.29.64.64.64h3.329l-.006-1.279h-3.323a.643.643 0 0 0-.64.639z" fill="rgba(179, 107, 0, 1)" stroke="none"/>
  <path d="M104.862 38.721c0 .35.29.634.64.634h3.34l-.006-1.273h-3.334a.64.64 0 0 0-.64.639z" fill="rgba(179, 107, 0, 1)" stroke="none"/>
  <path d="M104.862 40.585c0 .355.29.64.64.64h3.345l-.005-1.274h-3.34a.64.64 0 0 0-.64.634z" fill="rgba(179, 107, 0, 1)" stroke="none"/>
  <path d="M95.412 29.92c7.083-2.125 12.869-.129 12.96-1.268.033-.422-.943-1.159-4.875-.725-3.143.348-6.377 1.295-8.085 1.993z" fill="rgba(255, 255, 255, 0.7)" stroke="none"/>
  <path d="M34.918 28.271c-11.995-2.124-30.901-.131-30.897-1.267 0-.43 1.139-.92 12.483-.857 9.094.05 14.98 1.367 18.414 2.124z" fill="rgba(255, 255, 255, 0.7)" stroke="none"/>
  <path d="M9.728 36.318c-2.274-1.276-5.858-.078-5.858-.761 0-.258.217-.553 2.367-.515 1.723.03 2.84.821 3.491 1.276z" fill="rgba(255, 255, 255, 0.7)" stroke="none"/>
  <path d="M110.08 29.29c1.065-.058 1.068 4.173.019 4.18.388-.77.429-3.38-.019-4.18z" fill="rgba(255, 255, 255, 0.7)" stroke="none"/>
  <path d="M92.944 8.436c.016-.561.39-1.063.817-1.058h1.172c2.187 5.11 3.676 9.731 4.83 15.182L92.944 8.436z" fill="rgba(255, 255, 255, 0.7)" stroke="none"/>
  <path d="M89.817 21.271V9.883c0-1.232-1-2.232-2.232-2.232H77.429c9.18 5.149 10.82 9.829 12.388 13.62z" fill="rgba(255, 255, 255, 0.7)" stroke="none"/>
  <path d="M73.024 21.271V9.883a2.232 2.232 0 0 0-2.232-2.232H60.636c9.18 5.149 10.82 9.829 12.388 13.62z" fill="rgba(255, 255, 255, 0.7)" stroke="none"/>
  <path d="M56.231 21.271V9.883a2.232 2.232 0 0 0-2.232-2.232H43.843c9.18 5.149 10.82 9.829 12.388 13.62z" fill="rgba(255, 255, 255, 0.7)" stroke="none"/>
  <path d="M39.438 21.271V9.883a2.232 2.232 0 0 0-2.232-2.232H27.05c9.18 5.149 10.82 9.829 12.388 13.62z" fill="rgba(255, 255, 255, 0.7)" stroke="none"/>
  <path d="M22.646 21.271V9.883c0-1.232-1-2.232-2.232-2.232h-8.25c9.181 5.149 8.913 9.829 10.482 13.62z" fill="rgba(255, 255, 255, 0.7)" stroke="none"/>
  <circle cx="95.412" cy="25.199" r=".51" fill="rgba(87, 87, 86, 1)" stroke="none"/>
  <circle cx="95.412" cy="28.606" r=".51" fill="rgba(87, 87, 86, 1)" stroke="none"/>
  <path d="M88.885 22.753c0 .305.247.552.552.552h1.781c.309 0 .559-.25.559-.559v-6.982a.838.838 0 0 0-.838-.838h-1.278a.775.775 0 0 0-.776.776v7.051z" fill="rgba(87, 87, 86, 1)" stroke="none"/>
  <path d="M95.223 25.315c.234.061.342-.042.378-.238l-4.534-7.187c-.186-.026-.312.053-.378.238l4.534 7.187z" fill="rgba(60, 60, 59, 1)" stroke="none"/>
  <path d="M95.215 28.729c.195.083.331.024.393-.214l-4.534-8.318c-.228-.096-.359-.024-.393.214l4.534 8.318z" fill="rgba(60, 60, 59, 1)" stroke="none"/>
</svg>
</g></svg></g></g>
<!-- /image 12166 -->

<!-- image 69991 -->
<g id="transformed-69991" data-image="69991" transform="translate(100.83974431934256, 104.48556465997771) rotate(16, 28.160255680657446, 21.514435340022285)"><g><svg version="1.1" width="56.32051136131489px" height="43.02887068004457px" viewBox="0 0 56.32051136131489 43.02887068004457"><g id="original-69991"><svg xmlns="http://www.w3.org/2000/svg" viewBox="0 0 68 52" xmlns:xlink="http://www.w3.org/1999/xlink" version="1.1" preserveAspectRatio="xMidYMid meet">
  <circle cx="52" cy="42" r="10" fill-rule="evenodd" fill="rgba(51, 51, 51, 1)" stroke="none"/>
  <circle cx="52" cy="42" r="5" fill-rule="evenodd" fill="rgba(198, 150, 106, 1)" stroke="none"/>
  <circle cx="16" cy="42" r="10" fill-rule="evenodd" fill="rgba(51, 51, 51, 1)" stroke="none"/>
  <circle cx="16" cy="42" r="5" fill-rule="evenodd" fill="rgba(198, 150, 106, 1)" stroke="none"/>
  <path fill-rule="evenodd" d="M62.9 36a11.983 11.983 0 0 0-21.8 0H26.9a11.983 11.983 0 0 0-21.8 0H2V10C2 4.477 6.477 0 12 0h27l10 14h7c5.523 0 10 4.477 10 10v12h-3.1z" fill="rgba(34, 34, 34, 1)" stroke="none"/>
  <path fill-rule="evenodd" d="M65.95 23c.033.329.05.663.05 1v5h-4.002A2 2 0 0 1 60 27.002v-2.004c0-1.104.887-1.998 1.998-1.998h3.953z" fill="rgba(255, 176, 0, 1)" stroke="none"/>
  <path fill-rule="evenodd" d="M41.857 4L49 14h.5H26V4h15.857z" fill="rgba(125, 219, 237, 1)" stroke="none"/>
  <path fill-rule="evenodd" d="M15 14H8V9.5C8 7.738 10 4 13 4h9v10h-7z" fill="rgba(128, 219, 236, 1)" stroke="none"/>
  <path fill-rule="evenodd" d="M2 46a2 2 0 0 1-2-2v-6a2 2 0 0 1 2-2h3.1A11.926 11.926 0 0 0 4 41v5H2z" fill="rgba(153, 153, 153, 1)" stroke="none"/>
  <path fill-rule="evenodd" d="M28 46a48.59 48.59 0 0 0 0-5c0-1.727-.376-3.433-1.1-5h14.2a11.926 11.926 0 0 0-1.1 5v5H28z" fill="rgba(153, 153, 153, 1)" stroke="none"/>
  <path fill-rule="evenodd" d="M68 44a2 2 0 0 1-2 2h-2v-5c0-1.727-.376-3.433-1.1-5H66a2 2 0 0 1 2 2v6z" fill="rgba(153, 153, 153, 1)" stroke="none"/>
</svg>
</g></svg></g></g>
<!-- /image 69991 -->
</defs><rect x="0" y="0" width="250" height="250" fill="rgba(81, 119, 52, 1)"></rect><use xlink:href="#transformed-41751" transform="translate(-250, -250)"></use><use xlink:href="#transformed-41751" transform="translate(0, -250)"></use><use xlink:href="#transformed-41751" transform="translate(250, -250)"></use><use xlink:href="#transformed-41751" transform="translate(-250, 0)"></use><use xlink:href="#transformed-41751" transform="translate(0, 0)"></use><use xlink:href="#transformed-41751" transform="translate(250, 0)"></use><use xlink:href="#transformed-41751" transform="translate(-250, 250)"></use><use xlink:href="#transformed-41751" transform="translate(0, 250)"></use><use xlink:href="#transformed-41751" transform="translate(250, 250)"></use><use xlink:href="#transformed-12166" transform="translate(-250, -250)"></use><use xlink:href="#transformed-12166" transform="translate(0, -250)"></use><use xlink:href="#transformed-12166" transform="translate(250, -250)"></use><use xlink:href="#transformed-12166" transform="translate(-250, 0)"></use><use xlink:href="#transformed-12166" transform="translate(0, 0)"></use><use xlink:href="#transformed-12166" transform="translate(250, 0)"></use><use xlink:href="#transformed-12166" transform="translate(-250, 250)"></use><use xlink:href="#transformed-12166" transform="translate(0, 250)"></use><use xlink:href="#transformed-12166" transform="translate(250, 250)"></use><use xlink:href="#transformed-69991" transform="translate(-250, -250)"></use><use xlink:href="#transformed-69991" transform="translate(0, -250)"></use><use xlink:href="#transformed-69991" transform="translate(250, -250)"></use><use xlink:href="#transformed-69991" transform="translate(-250, 0)"></use><use xlink:href="#transformed-69991" transform="translate(0, 0)"></use><use xlink:href="#transformed-69991" transform="translate(250, 0)"></use><use xlink:href="#transformed-69991" transform="translate(-250, 250)"></use><use xlink:href="#transformed-69991" transform="translate(0, 250)"></use><use xlink:href="#transformed-69991" transform="translate(250, 250)"></use></svg>