<?xml version="1.0" encoding="utf-8"?>
<!-- Generator: Adobe Illustrator 16.0.0, SVG Export Plug-In . SVG Version: 6.00 Build 0)  -->
<!DOCTYPE svg PUBLIC "-//W3C//DTD SVG 1.1//EN" "http://www.w3.org/Graphics/SVG/1.1/DTD/svg11.dtd">
<svg version="1.1" id="Layer_3" xmlns="http://www.w3.org/2000/svg" xmlns:xlink="http://www.w3.org/1999/xlink" x="0px" y="0px"
	 width="112.166px" height="55.063px" viewBox="0 0 112.166 55.063" enable-background="new 0 0 112.166 55.063"
	 xml:space="preserve">
<g>
	<g>
		<path fill="#B36B00" d="M58.947,1.23c0,0.679,0.551,1.23,1.23,1.23h11.618c0.68,0,1.23-0.551,1.23-1.23l0,0
			c0-0.679-0.55-1.23-1.23-1.23H60.177C59.498,0,58.947,0.551,58.947,1.23L58.947,1.23z"/>
		<path fill="#FF9900" d="M4.188,28.401l0.072,16.344c0,0.104,0.006,0.202,0.016,0.306c0.131,1.449,1.137,2.689,2.553,3.105
			L8.3,48.588l0.547,0.164l19.094-0.087l43.102-0.191L83.5,48.418l19.001-0.082l0.64-0.202l3.826-1.208
			c0.732-0.235,1.317-0.765,1.635-1.432c0.169-0.355,0.262-0.754,0.262-1.17l-0.017-3.099l-0.005-1.274v-0.596l-0.006-1.273
			l-0.005-0.591l-0.006-1.279l-0.005-1.356c-0.006-1.88-0.728-3.689-2.018-5.062l-5.193-5.516c-0.224-0.24-0.421-0.498-0.584-0.776
			h-6.686c-1.279,0-2.323-1.039-2.323-2.323V8.121c0-0.864,0.7-1.563,1.563-1.563h1.962c-2.176-5.242-5.346-5.248-15.005-5.231
			L14.59,1.644c-2.333,0.011-4.373,1.574-4.99,3.821l-4.586,16.71c-0.258,0.935-0.453,1.886-0.59,2.842
			C4.261,26.132,4.185,27.264,4.188,28.401z"/>
		<path fill="#ED8E00" d="M4.188,28.401l0.072,16.344c0,0.104,0.006,0.202,0.016,0.306c0.131,1.449,1.137,2.689,2.553,3.105
			L8.3,48.588l0.547,0.164l19.094-0.087l43.102-0.191l1.602-0.055C73.3,32.648,51.38,24.569,4.425,25.017
			C4.261,26.132,4.185,27.264,4.188,28.401z"/>
		<path fill="#B36B00" d="M7.288,45.051c0,0.53,0.039,1.055,0.115,1.569c0.088,0.618,0.23,1.219,0.422,1.798h0.514l19-0.082
			l0.64-0.202l0.58-0.18c0.235-0.836,0.366-1.717,0.383-2.624c0.011-0.093,0.011-0.186,0.011-0.279
			c0-5.98-4.849-10.829-10.833-10.829C12.136,34.223,7.288,39.071,7.288,45.051z"/>
		<path fill="#B36B00" d="M82.45,45.051c0,0.53,0.038,1.055,0.115,1.569c0.087,0.618,0.229,1.219,0.421,1.798H83.5l19.001-0.082
			l0.64-0.202l0.579-0.18c0.235-0.836,0.366-1.717,0.383-2.624c0.011-0.093,0.011-0.186,0.011-0.279
			c0-5.98-4.849-10.829-10.834-10.829C87.299,34.223,82.45,39.071,82.45,45.051z"/>
		<path fill="#F39200" d="M94.339,22.957c-0.979,0-1.776-0.797-1.776-1.776C92.563,22.159,93.361,22.957,94.339,22.957z"/>
		<path fill="#BFE9E6" d="M94.339,22.957c-0.979,0-1.776-0.798-1.776-1.776V8.121c0-0.561,0.456-1.017,1.017-1.017h1.591
			c2.187,5.109,3.821,10.402,4.974,15.852H94.339z"/>
		<path fill="#3C3C3B" d="M92.016,21.18V8.121c0-0.864,0.7-1.563,1.563-1.563h1.962l-0.37,0.547H95.17H93.58
			c-0.561,0-1.017,0.456-1.017,1.017V21.18c0,0.979,0.797,1.776,1.776,1.776h5.805h0.002l0.879,0.547h-6.686
			C93.061,23.503,92.016,22.465,92.016,21.18z"/>
		<path fill="#B36B00" d="M4.276,45.051c0.131,1.449,1.137,2.689,2.553,3.105L8.3,48.588l0.547,0.164l19.094-0.087l55.045-0.246
			H83.5l19.001-0.082l0.64-0.202l0.579-0.18l3.247-1.028c0.732-0.235,1.317-0.765,1.635-1.432v-0.443l-4.499,0.279L83.5,46.62
			h-0.935L27.94,46.658L4.276,45.051z"/>
		<path fill="#1D1D1B" d="M83.5,46.134v2.285l19.001-0.082l0.64-0.202v-1.968c0-5.396-4.379-9.774-9.78-9.774h-0.12
			C87.862,36.393,83.5,40.755,83.5,46.134z"/>
		<path fill="#1D1D1B" d="M8.3,46.134v2.454l0.547,0.164l19.094-0.087v-2.498c0-5.396-4.378-9.774-9.779-9.774h-0.121
			C12.661,36.393,8.3,40.755,8.3,46.134z"/>
		<g>
			<circle fill="#3C3C3B" cx="93.281" cy="46.092" r="4.803"/>
			<path fill="#575756" d="M84.311,46.1c0.004,4.954,4.024,8.967,8.979,8.963c4.955-0.004,8.968-4.024,8.963-8.979
				c-0.004-4.955-4.023-8.967-8.979-8.963C88.319,37.126,84.307,41.146,84.311,46.1z M87.759,46.097
				c-0.002-3.05,2.468-5.525,5.518-5.527c3.05-0.003,5.525,2.468,5.527,5.518c0.003,3.05-2.467,5.524-5.518,5.527
				C90.236,51.617,87.762,49.147,87.759,46.097z"/>
			<g>
				<path fill="#DADADA" d="M86.928,46.098c0.003,3.509,2.85,6.351,6.359,6.348s6.351-2.85,6.348-6.359
					c-0.003-3.508-2.85-6.351-6.359-6.347C89.767,39.742,86.925,42.589,86.928,46.098z M87.616,46.097
					c-0.002-3.129,2.532-5.668,5.661-5.671c3.129-0.002,5.668,2.532,5.671,5.661c0.003,3.129-2.532,5.667-5.661,5.67
					C90.157,51.761,87.619,49.226,87.616,46.097z"/>
				<path fill="#EDEDED" d="M89.387,46.096c0.002,2.15,1.747,3.893,3.897,3.891c2.151-0.002,3.893-1.747,3.891-3.897
					s-1.747-3.893-3.897-3.891C91.127,42.2,89.385,43.945,89.387,46.096z M90.833,46.094c-0.001-1.352,1.094-2.449,2.446-2.45
					s2.449,1.094,2.45,2.446s-1.094,2.449-2.446,2.451C91.932,48.542,90.834,47.446,90.833,46.094z"/>
				<g>
					<path fill="#C6C6C6" d="M90.833,46.094c0.001,1.352,1.098,2.447,2.45,2.446c1.352-0.001,2.447-1.098,2.446-2.45
						s-1.098-2.447-2.45-2.446S90.832,44.742,90.833,46.094z M92.344,45.156c-0.137,0.137-0.358,0.137-0.495,0
						c-0.137-0.136-0.137-0.358,0-0.495c0.136-0.137,0.358-0.137,0.495,0C92.48,44.798,92.48,45.02,92.344,45.156z M93.484,44.587
						c0,0.113-0.091,0.204-0.204,0.204c-0.113,0-0.204-0.091-0.204-0.204s0.091-0.204,0.204-0.204
						C93.393,44.383,93.484,44.475,93.484,44.587z M94.712,45.154c-0.137,0.137-0.358,0.137-0.495,0
						c-0.137-0.136-0.137-0.358,0-0.495c0.136-0.137,0.358-0.137,0.495,0S94.849,45.017,94.712,45.154z M94.786,46.295
						c-0.113,0-0.204-0.091-0.204-0.204c0-0.112,0.091-0.204,0.204-0.204s0.204,0.091,0.205,0.204
						C94.99,46.204,94.899,46.295,94.786,46.295z M94.219,47.028c0.136-0.137,0.358-0.137,0.495,0c0.137,0.137,0.137,0.358,0,0.495
						c-0.136,0.137-0.358,0.137-0.495,0C94.083,47.387,94.083,47.165,94.219,47.028z M93.079,47.597
						c0-0.113,0.091-0.204,0.204-0.204s0.204,0.091,0.204,0.204c0,0.113-0.091,0.205-0.204,0.205
						C93.17,47.801,93.079,47.709,93.079,47.597z M92.352,46.093c0-0.513,0.416-0.93,0.929-0.93c0.513,0,0.93,0.416,0.931,0.929
						c0,0.514-0.416,0.93-0.929,0.931S92.352,46.606,92.352,46.093z M91.851,47.03c0.137-0.137,0.358-0.137,0.495,0
						c0.137,0.137,0.137,0.358,0,0.495c-0.137,0.137-0.358,0.137-0.495,0C91.714,47.389,91.714,47.167,91.851,47.03z M91.573,46.094
						c0-0.113,0.091-0.204,0.204-0.205c0.113,0,0.204,0.091,0.204,0.204s-0.091,0.204-0.204,0.204
						C91.665,46.297,91.573,46.207,91.573,46.094z"/>
				</g>
				<path fill="#C6C6C6" d="M87.616,46.097c0.003,3.129,2.542,5.664,5.671,5.661c3.129-0.003,5.664-2.542,5.661-5.67
					c-0.003-3.129-2.542-5.664-5.671-5.661C90.147,40.429,87.613,42.968,87.616,46.097z M89.678,44.016
					c-0.148,0.256-0.51,0.324-0.81,0.151c-0.299-0.173-0.422-0.521-0.275-0.776c0.147-0.256,0.51-0.324,0.81-0.152
					C89.703,43.412,89.826,43.76,89.678,44.016z M93.278,42.198c2.15-0.002,3.896,1.74,3.897,3.891s-1.74,3.896-3.891,3.897
					c-2.15,0.002-3.896-1.74-3.897-3.891C89.385,43.945,91.127,42.2,93.278,42.198z M91.199,42.493
					c-0.256,0.148-0.604,0.025-0.777-0.274c-0.173-0.299-0.106-0.662,0.15-0.81c0.256-0.148,0.604-0.025,0.777,0.274
					C91.522,41.982,91.455,42.344,91.199,42.493z M93.813,41.307c0,0.346-0.239,0.626-0.535,0.626c-0.296,0-0.536-0.28-0.536-0.625
					c0-0.346,0.239-0.626,0.535-0.626C93.572,40.681,93.813,40.961,93.813,41.307z M96.134,42.214
					c-0.173,0.299-0.521,0.423-0.776,0.275c-0.256-0.147-0.324-0.51-0.152-0.81c0.173-0.3,0.521-0.423,0.777-0.275
					C96.239,41.552,96.307,41.914,96.134,42.214z M97.691,44.16c-0.299,0.173-0.662,0.106-0.811-0.15
					c-0.148-0.256-0.025-0.604,0.274-0.777c0.299-0.173,0.662-0.106,0.81,0.15C98.113,43.639,97.991,43.987,97.691,44.16z
					 M98.066,46.624c-0.346,0-0.626-0.239-0.626-0.535c0-0.295,0.28-0.536,0.626-0.536c0.346,0,0.626,0.239,0.626,0.535
					S98.413,46.623,98.066,46.624z M96.885,48.168c0.147-0.256,0.51-0.324,0.81-0.151c0.299,0.172,0.422,0.52,0.275,0.776
					c-0.148,0.256-0.51,0.324-0.81,0.151C96.86,48.772,96.737,48.425,96.885,48.168z M95.364,49.692
					c0.256-0.148,0.604-0.025,0.777,0.274c0.173,0.299,0.106,0.662-0.15,0.81c-0.256,0.148-0.604,0.025-0.777-0.274
					C95.041,50.203,95.108,49.84,95.364,49.692z M92.75,50.877c0-0.346,0.239-0.626,0.535-0.626c0.295,0,0.536,0.28,0.536,0.625
					c0,0.346-0.239,0.626-0.535,0.626C92.99,51.503,92.75,51.223,92.75,50.877z M90.429,49.971c0.172-0.3,0.521-0.423,0.776-0.275
					c0.256,0.148,0.324,0.51,0.152,0.81c-0.173,0.299-0.521,0.423-0.777,0.275C90.324,50.633,90.256,50.27,90.429,49.971z
					 M88.872,48.024c0.299-0.173,0.662-0.106,0.81,0.15c0.148,0.256,0.026,0.604-0.273,0.777s-0.662,0.106-0.811-0.15
					C88.45,48.545,88.572,48.198,88.872,48.024z M87.871,46.097c0-0.295,0.28-0.536,0.625-0.536c0.346,0,0.626,0.239,0.626,0.535
					c0,0.296-0.28,0.536-0.625,0.536S87.871,46.393,87.871,46.097z"/>
			</g>
		</g>
		<g>
			<circle fill="#3C3C3B" cx="18.119" cy="46.092" r="4.804"/>
			<path fill="#575756" d="M9.147,46.1c0.006,4.954,4.025,8.967,8.979,8.963c4.955-0.004,8.968-4.024,8.963-8.979
				c-0.004-4.955-4.024-8.967-8.979-8.963C13.157,37.126,9.144,41.146,9.147,46.1z M12.597,46.097
				c-0.004-3.05,2.466-5.525,5.518-5.527c3.05-0.003,5.524,2.468,5.527,5.518c0.003,3.05-2.467,5.524-5.517,5.527
				C15.073,51.617,12.599,49.147,12.597,46.097z"/>
			<g>
				<path fill="#DADADA" d="M11.765,46.098c0.004,3.509,2.851,6.351,6.36,6.348c3.509-0.003,6.351-2.85,6.348-6.359
					c-0.003-3.508-2.85-6.351-6.357-6.347C14.604,39.742,11.763,42.589,11.765,46.098z M12.452,46.097
					c-0.002-3.129,2.533-5.668,5.663-5.671c3.128-0.002,5.667,2.532,5.67,5.661c0.003,3.129-2.532,5.667-5.66,5.67
					C14.995,51.761,12.456,49.226,12.452,46.097z"/>
				<path fill="#EDEDED" d="M14.223,46.096c0.002,2.15,1.749,3.893,3.899,3.891s3.892-1.747,3.89-3.897s-1.746-3.893-3.896-3.891
					C15.964,42.2,14.221,43.945,14.223,46.096z M15.671,46.094c-0.002-1.352,1.094-2.449,2.446-2.45
					c1.354-0.001,2.449,1.094,2.451,2.446c0,1.352-1.093,2.449-2.445,2.451C16.769,48.542,15.671,47.446,15.671,46.094z"/>
				<g>
					<path fill="#C6C6C6" d="M15.671,46.094c0,1.352,1.098,2.447,2.452,2.446c1.352-0.001,2.445-1.098,2.445-2.45
						c-0.002-1.352-1.097-2.447-2.451-2.446C16.765,43.645,15.669,44.742,15.671,46.094z M17.181,45.156
						c-0.137,0.137-0.357,0.137-0.494,0c-0.137-0.136-0.137-0.358,0-0.495s0.357-0.137,0.494,0
						C17.318,44.798,17.318,45.02,17.181,45.156z M18.322,44.587c0,0.113-0.09,0.204-0.203,0.204c-0.113,0-0.205-0.091-0.205-0.204
						s0.092-0.204,0.205-0.204C18.23,44.383,18.322,44.475,18.322,44.587z M19.55,45.154c-0.137,0.137-0.357,0.137-0.494,0
						c-0.137-0.136-0.137-0.358,0-0.495c0.135-0.137,0.357-0.137,0.494,0S19.687,45.017,19.55,45.154z M19.625,46.295
						c-0.113,0-0.205-0.091-0.205-0.204c0-0.112,0.092-0.204,0.205-0.204c0.111,0,0.203,0.091,0.203,0.204
						S19.738,46.295,19.625,46.295z M19.058,47.028c0.135-0.137,0.357-0.137,0.494,0c0.137,0.137,0.137,0.358,0,0.495
						s-0.357,0.137-0.494,0C18.921,47.387,18.921,47.165,19.058,47.028z M17.917,47.597c0-0.113,0.09-0.204,0.203-0.204
						s0.205,0.091,0.205,0.204c0,0.113-0.092,0.205-0.205,0.205C18.009,47.801,17.917,47.709,17.917,47.597z M17.189,46.093
						c0-0.513,0.416-0.93,0.93-0.93s0.93,0.416,0.93,0.929c0.002,0.514-0.414,0.93-0.928,0.931S17.191,46.606,17.189,46.093z
						 M16.689,47.03c0.137-0.137,0.357-0.137,0.494,0c0.137,0.137,0.137,0.358,0,0.495c-0.137,0.137-0.357,0.137-0.494,0
						C16.552,47.389,16.552,47.167,16.689,47.03z M16.412,46.094c0-0.113,0.09-0.204,0.203-0.205c0.113,0,0.205,0.091,0.205,0.204
						s-0.092,0.204-0.205,0.204C16.503,46.297,16.412,46.207,16.412,46.094z"/>
				</g>
				<path fill="#C6C6C6" d="M12.452,46.097c0.004,3.129,2.542,5.664,5.672,5.661c3.128-0.003,5.663-2.542,5.66-5.67
					c-0.002-3.129-2.542-5.664-5.67-5.661C14.985,40.429,12.45,42.968,12.452,46.097z M14.514,44.016
					c-0.146,0.256-0.509,0.324-0.808,0.151c-0.301-0.173-0.424-0.521-0.275-0.776c0.146-0.256,0.51-0.324,0.808-0.152
					C14.54,43.412,14.663,43.76,14.514,44.016z M18.117,42.198c2.15-0.002,3.894,1.74,3.896,3.891s-1.74,3.896-3.89,3.897
					s-3.897-1.74-3.899-3.891C14.221,43.945,15.964,42.2,18.117,42.198z M16.037,42.493c-0.256,0.148-0.604,0.025-0.778-0.274
					c-0.174-0.299-0.105-0.662,0.15-0.81s0.604-0.025,0.778,0.274S16.292,42.344,16.037,42.493z M18.65,41.307
					c0.002,0.346-0.238,0.626-0.533,0.626c-0.297,0-0.537-0.28-0.537-0.625c0-0.346,0.24-0.626,0.535-0.626
					C18.41,40.681,18.65,40.961,18.65,41.307z M20.972,42.214c-0.172,0.299-0.519,0.423-0.777,0.275
					c-0.256-0.147-0.322-0.51-0.15-0.81c0.172-0.3,0.519-0.423,0.777-0.275C21.077,41.552,21.144,41.914,20.972,42.214z
					 M22.529,44.16c-0.3,0.173-0.663,0.106-0.812-0.15c-0.146-0.256-0.025-0.604,0.275-0.777c0.299-0.173,0.662-0.106,0.81,0.15
					C22.95,43.639,22.828,43.987,22.529,44.16z M22.904,46.624c-0.346,0-0.626-0.239-0.626-0.535c0-0.295,0.279-0.536,0.625-0.536
					c0.346,0,0.626,0.239,0.627,0.535C23.53,46.383,23.25,46.623,22.904,46.624z M21.722,48.168
					c0.148-0.256,0.512-0.324,0.811-0.151c0.3,0.172,0.423,0.52,0.275,0.776c-0.148,0.256-0.51,0.324-0.811,0.151
					C21.698,48.772,21.575,48.425,21.722,48.168z M20.203,49.692c0.256-0.148,0.603-0.025,0.777,0.274
					c0.172,0.299,0.105,0.662-0.15,0.81c-0.256,0.148-0.603,0.025-0.777-0.274S19.947,49.84,20.203,49.692z M17.587,50.877
					c0-0.346,0.24-0.626,0.535-0.626c0.297,0,0.537,0.28,0.537,0.625s-0.24,0.626-0.535,0.626
					C17.828,51.503,17.589,51.223,17.587,50.877z M15.267,49.971c0.172-0.3,0.52-0.423,0.776-0.275
					c0.258,0.148,0.324,0.51,0.152,0.81c-0.174,0.299-0.522,0.423-0.778,0.275C15.161,50.633,15.092,50.27,15.267,49.971z
					 M13.708,48.024c0.301-0.173,0.662-0.106,0.81,0.15c0.148,0.256,0.025,0.604-0.273,0.777c-0.298,0.173-0.662,0.106-0.81-0.15
					C13.286,48.545,13.409,48.198,13.708,48.024z M12.708,46.097c0-0.295,0.279-0.536,0.625-0.536c0.346,0,0.627,0.239,0.627,0.535
					s-0.279,0.536-0.625,0.536S12.708,46.393,12.708,46.097z"/>
			</g>
		</g>
		<g>
			<ellipse fill="#3C3C3B" cx="109.73" cy="31.587" rx="0.262" ry="3.202"/>
			<path fill="#B36B00" d="M93.651,31.57c0.01,2.271,6.647,4.164,11.483,4.143c2.087-0.009,3.404-0.331,3.933-0.905
				c0.696-0.757,0.214-1.934,0.208-3.224c-0.005-1.277,0.44-2.497-0.236-3.248c-0.526-0.584-1.825-0.854-3.941-0.844
				C100.263,27.513,93.641,29.299,93.651,31.57z"/>
			<g>
				<path fill="#FFE697" d="M109.784,28.334c1.649-0.09,1.654,6.461,0.029,6.472C109.65,33.593,109.633,29.549,109.784,28.334z"/>
				<path fill="#C6C6C6" d="M108.943,28.336l0.303-0.001l0.644-0.002c-0.039,0-0.071,0.12-0.099,0.318
					c-0.15,1.096-0.135,4.742,0.026,5.836c0.029,0.198,0.063,0.318,0.101,0.318l-0.644,0.003l-0.303,0.001
					C108.743,32.546,108.718,30.382,108.943,28.336z"/>
			</g>
		</g>
		<g>
			<path fill="#B36B00" d="M37.439,29.603c-0.032,2.271-13.752,4.196-23.741,4.197c-4.311,0-8.746-0.314-9.836-0.887
				c-1.434-0.753-1.313-5.718,0.09-6.473c1.09-0.586,5.49-0.862,9.861-0.863C23.801,25.576,37.471,27.332,37.439,29.603z"/>
		</g>
		<g>
			<path fill="#B36B00" d="M9.978,36.774c-0.006,1.131-1.625,2.075-4.107,2.065c-1.07-0.004-2.174-0.167-2.445-0.453
				c-0.357-0.377-0.332-2.851,0.016-3.225c0.271-0.291,1.363-0.424,2.449-0.419C8.372,34.752,9.983,35.643,9.978,36.774z"/>
		</g>
		<g>
			<path fill="#3C3C3B" d="M109.039,45.28c0,0.826,0.669,1.496,1.495,1.496l0,0c2.112,0.001,2.239-5.185,0-5.186l0,0
				c-0.826,0-1.495,0.669-1.495,1.495V45.28z"/>
			<path fill="#EDEDED" d="M105.036,44.183c0,0.956,0.774,1.731,1.73,1.731h2.873c0.956,0,1.73-0.775,1.73-1.731l0,0
				c0-0.956-0.774-1.731-1.73-1.731h-2.873C105.811,42.451,105.036,43.227,105.036,44.183L105.036,44.183z"/>
		</g>
		<g>
			<path fill="#3C3C3B" d="M3.384,45.889c0,0.826-0.725,1.496-1.617,1.496l0,0c-2.287,0.001-2.424-5.185,0-5.186l0,0
				c0.893,0,1.617,0.669,1.617,1.495V45.889z"/>
			<path fill="#EDEDED" d="M7.716,44.791c0,0.956-0.773,1.731-1.729,1.731H3.116c-0.955,0-1.73-0.775-1.73-1.731l0,0
				c0-0.956,0.775-1.731,1.73-1.731h2.871C6.942,43.06,7.716,43.835,7.716,44.791L7.716,44.791z"/>
		</g>
		<g>
			<path fill="#BFE9E6" d="M77.942,22.957h10.156c1.233,0,2.232-1,2.232-2.232V9.336c0-1.233-0.999-2.232-2.232-2.232H77.942
				c-1.233,0-2.232,0.999-2.232,2.232v11.388C75.71,21.957,76.709,22.957,77.942,22.957z"/>
			<path fill="#3C3C3B" d="M77.942,7.104h10.156c1.233,0,2.232,0.999,2.232,2.232v11.388c0,1.232-0.999,2.232-2.232,2.232H77.942
				c-1.233,0-2.232-1-2.232-2.232V9.336C75.71,8.104,76.709,7.104,77.942,7.104L77.942,7.104z M77.942,6.558
				c-1.532,0-2.779,1.247-2.779,2.779v11.388c0,1.532,1.247,2.779,2.779,2.779h10.156c1.532,0,2.779-1.247,2.779-2.779V9.336
				c0-1.532-1.247-2.779-2.779-2.779H77.942L77.942,6.558z"/>
		</g>
		<g>
			<path fill="#BFE9E6" d="M61.179,22.957h10.156c1.233,0,2.232-1,2.232-2.232V9.336c0-1.233-0.999-2.232-2.232-2.232H61.179
				c-1.233,0-2.232,0.999-2.232,2.232v11.388C58.947,21.957,59.946,22.957,61.179,22.957z"/>
			<path fill="#3C3C3B" d="M61.179,7.104h10.156c1.233,0,2.232,0.999,2.232,2.232v11.388c0,1.232-0.999,2.232-2.232,2.232H61.179
				c-1.233,0-2.232-1-2.232-2.232V9.336C58.947,8.104,59.946,7.104,61.179,7.104L61.179,7.104z M61.179,6.558
				c-1.532,0-2.779,1.247-2.779,2.779v11.388c0,1.532,1.247,2.779,2.779,2.779h10.156c1.532,0,2.779-1.247,2.779-2.779V9.336
				c0-1.532-1.247-2.779-2.779-2.779H61.179L61.179,6.558z"/>
		</g>
		<g>
			<path fill="#BFE9E6" d="M44.416,22.957h10.156c1.232,0,2.232-1,2.232-2.232V9.336c0-1.233-1-2.232-2.232-2.232H44.416
				c-1.233,0-2.232,0.999-2.232,2.232v11.388C42.184,21.957,43.183,22.957,44.416,22.957z"/>
			<path fill="#3C3C3B" d="M44.416,7.104h10.156c1.232,0,2.232,0.999,2.232,2.232v11.388c0,1.232-1,2.232-2.232,2.232H44.416
				c-1.233,0-2.232-1-2.232-2.232V9.336C42.184,8.104,43.183,7.104,44.416,7.104L44.416,7.104z M44.416,6.558
				c-1.532,0-2.779,1.247-2.779,2.779v11.388c0,1.532,1.247,2.779,2.779,2.779h10.156c1.532,0,2.779-1.247,2.779-2.779V9.336
				c0-1.532-1.247-2.779-2.779-2.779H44.416L44.416,6.558z"/>
		</g>
		<g>
			<path fill="#BFE9E6" d="M27.653,22.957h10.156c1.232,0,2.232-1,2.232-2.232V9.336c0-1.233-1-2.232-2.232-2.232H27.653
				c-1.233,0-2.232,0.999-2.232,2.232v11.388C25.42,21.957,26.42,22.957,27.653,22.957z"/>
			<path fill="#3C3C3B" d="M27.653,7.104h10.156c1.232,0,2.232,0.999,2.232,2.232v11.388c0,1.232-1,2.232-2.232,2.232H27.653
				c-1.233,0-2.232-1-2.232-2.232V9.336C25.42,8.104,26.42,7.104,27.653,7.104L27.653,7.104z M27.653,6.558
				c-1.532,0-2.779,1.247-2.779,2.779v11.388c0,1.532,1.247,2.779,2.779,2.779h10.156c1.532,0,2.778-1.247,2.778-2.779V9.336
				c0-1.532-1.246-2.779-2.778-2.779H27.653L27.653,6.558z"/>
		</g>
		<g>
			<path fill="#BFE9E6" d="M9.913,22.957H20.87c1.33,0,2.408-1.315,2.408-2.863V8.826c0-0.967-0.802-1.722-1.791-1.722h-8.148
				c-0.988,0-1.982,0.755-2.229,1.722L8.235,20.094C7.841,21.641,8.583,22.957,9.913,22.957z"/>
			<path fill="#3C3C3B" d="M13.339,7.104h8.148c0.988,0,1.791,0.755,1.791,1.722v11.268c0,1.547-1.078,2.863-2.408,2.863H9.913
				c-1.33,0-2.072-1.315-1.678-2.863L11.11,8.826C11.356,7.859,12.351,7.104,13.339,7.104L13.339,7.104z M13.339,6.558
				c-1.242,0-2.453,0.937-2.76,2.133L7.706,19.958c-0.26,1.022-0.104,2.003,0.43,2.69c0.428,0.551,1.061,0.855,1.777,0.855H20.87
				c1.629,0,2.954-1.53,2.954-3.41V8.826c0-1.251-1.048-2.269-2.337-2.269H13.339L13.339,6.558z"/>
		</g>
		<path fill="#B36B00" d="M11.765,4.692c0,0.377,0.309,0.683,0.689,0.683h79.421c0.38,0,0.688-0.306,0.688-0.683l0,0
			c0-0.377-0.308-0.683-0.688-0.683H12.454C12.073,4.009,11.765,4.314,11.765,4.692L11.765,4.692z"/>
		<path fill="#B36B00" d="M74.366,43.685V9.042c0-1.833,1.492-3.325,3.325-3.325h10.841c1.732,0,3.142,1.41,3.142,3.142v23.052
			c0,0.999-0.669,1.893-1.627,2.173c-1.711,0.5-7.351,2.678-8.106,9.709c-0.145,1.351-1.28,2.37-2.641,2.37h-2.456
			C75.478,46.164,74.366,45.052,74.366,43.685z M77.691,6.217c-1.558,0-2.825,1.268-2.825,2.825v34.643
			c0,1.091,0.888,1.979,1.979,1.979H79.3c1.105,0,2.026-0.827,2.144-1.924c0.626-5.832,4.782-9.06,8.462-10.135
			c0.747-0.219,1.268-0.915,1.268-1.694V8.859c0-1.457-1.185-2.642-2.642-2.642H77.691z"/>
		<path fill="#B36B00" d="M43.489,46.094c-1.461,0-2.649-1.19-2.649-2.651V10.69c0-2.742,1.492-4.973,3.326-4.973h10.841
			c1.732,0,3.142,2.104,3.142,4.692L58.08,43.536c-0.003,1.416-1.157,2.567-2.572,2.567h-0.002L43.489,46.094z M44.165,6.217
			c-1.558,0-2.826,2.006-2.826,4.473v32.753c0,1.186,0.964,2.15,2.149,2.151l12.018,0.009l0.002,0.25v-0.25
			c1.14,0,2.069-0.928,2.072-2.068l0.068-33.126c0-2.311-1.185-4.191-2.642-4.191H44.165z"/>
		<path fill="#B36B00" d="M91.528,26.475c0.018-0.002,0.033-0.011,0.052-0.011h0.009c0.236,0,0.427,0.191,0.427,0.428v2.601
			c0,0.236-0.191,0.428-0.427,0.428H91.58c-0.019,0-0.034-0.008-0.052-0.011V26.475z"/>
		<path fill="#B36B00" d="M57.913,26.475c0.018-0.002,0.033-0.011,0.052-0.011h0.008c0.236,0,0.428,0.191,0.428,0.428v2.601
			c0,0.236-0.191,0.428-0.428,0.428h-0.008c-0.019,0-0.034-0.008-0.052-0.011V26.475z"/>
		<path fill="#B36B00" d="M57.913,37.843c0.018-0.002,0.033-0.01,0.052-0.01h0.008c0.236,0,0.428,0.191,0.428,0.427v2.601
			c0,0.236-0.191,0.428-0.428,0.428h-0.008c-0.019,0-0.034-0.008-0.052-0.01V37.843z"/>
		<g>
			<path fill="#B36B00" d="M77.409,27.491h2.206c0.523,0,0.947-0.424,0.947-0.947v-0.019c0-0.523-0.424-0.947-0.947-0.947h-2.206
				c-0.523,0-0.947,0.424-0.947,0.947v0.019C76.462,27.067,76.886,27.491,77.409,27.491z"/>
			<ellipse fill="#EDEDED" cx="79.354" cy="26.512" rx="2.141" ry="0.364"/>
		</g>
		<g>
			<path fill="#B36B00" d="M43.677,27.491h2.206c0.523,0,0.947-0.424,0.947-0.947v-0.019c0-0.523-0.424-0.947-0.947-0.947h-2.206
				c-0.523,0-0.947,0.424-0.947,0.947v0.019C42.73,27.067,43.154,27.491,43.677,27.491z"/>
			<ellipse fill="#EDEDED" cx="45.623" cy="26.512" rx="2.141" ry="0.364"/>
		</g>
		<g>
			<path fill="#FF4515" d="M2.817,26.733c-1.506-0.082-1.51,5.901-0.025,5.911C2.94,31.536,2.956,27.843,2.817,26.733z"/>
			<path fill="#C6C6C6" d="M3.585,26.735L3.31,26.734l-0.588-0.002c0.035,0,0.064,0.11,0.09,0.291
				c0.137,1.001,0.123,4.331-0.023,5.33c-0.027,0.181-0.057,0.29-0.092,0.29l0.588,0.002l0.275,0.001
				C3.769,30.58,3.792,28.603,3.585,26.735z"/>
		</g>
		<g>
			<path fill="#FFE697" d="M3.163,35.039C2.28,34.99,2.278,38.495,3.147,38.5C3.233,37.852,3.243,35.688,3.163,35.039z"/>
			<path fill="#C6C6C6" d="M3.612,35.04L3.45,35.039l-0.344-0.001c0.02,0,0.037,0.064,0.053,0.17
				c0.08,0.586,0.072,2.537-0.014,3.122C3.13,38.436,3.112,38.5,3.091,38.5l0.344,0.002l0.162,0
				C3.72,37.292,3.733,36.134,3.612,35.04z"/>
		</g>
		<path fill="#B36B00" d="M104.862,36.852c0,0.35,0.29,0.64,0.64,0.64h3.329l-0.006-1.279h-3.323
			C105.152,36.212,104.862,36.502,104.862,36.852z"/>
		<path fill="#B36B00" d="M104.862,38.721c0,0.35,0.29,0.634,0.64,0.634h3.34l-0.006-1.273h-3.334
			C105.152,38.082,104.862,38.366,104.862,38.721z"/>
		<path fill="#B36B00" d="M104.862,40.585c0,0.355,0.29,0.64,0.64,0.64h3.345l-0.005-1.274h-3.34
			C105.152,39.951,104.862,40.235,104.862,40.585z"/>
		<path opacity="0.7" fill="#FFFFFF" d="M95.412,29.92c7.083-2.125,12.869-0.129,12.96-1.268c0.033-0.422-0.943-1.159-4.875-0.725
			C100.354,28.275,97.12,29.222,95.412,29.92z"/>
		<path opacity="0.7" fill="#FFFFFF" d="M34.918,28.271C22.923,26.147,4.017,28.14,4.021,27.004c0-0.43,1.139-0.92,12.483-0.857
			C25.598,26.197,31.484,27.514,34.918,28.271z"/>
		<path opacity="0.7" fill="#FFFFFF" d="M9.728,36.318C7.454,35.042,3.87,36.24,3.87,35.557c0-0.258,0.217-0.553,2.367-0.515
			C7.96,35.072,9.077,35.863,9.728,36.318z"/>
		<path opacity="0.7" fill="#FFFFFF" d="M110.08,29.29c1.065-0.058,1.068,4.173,0.019,4.18C110.487,32.7,110.528,30.09,110.08,29.29
			z"/>
		<path opacity="0.7" fill="#FFFFFF" d="M92.944,8.436c0.016-0.561,0.39-1.063,0.817-1.058h1.172
			c2.187,5.11,3.676,9.731,4.83,15.182L92.944,8.436z"/>
		<path opacity="0.7" fill="#FFFFFF" d="M89.817,21.271V9.883c0-1.232-1-2.232-2.232-2.232H77.429
			C86.609,12.8,88.249,17.48,89.817,21.271z"/>
		<path opacity="0.7" fill="#FFFFFF" d="M73.024,21.271V9.883c0-1.232-0.999-2.232-2.232-2.232H60.636
			C69.816,12.8,71.456,17.48,73.024,21.271z"/>
		<path opacity="0.7" fill="#FFFFFF" d="M56.231,21.271V9.883c0-1.232-0.999-2.232-2.232-2.232H43.843
			C53.023,12.8,54.663,17.48,56.231,21.271z"/>
		<path opacity="0.7" fill="#FFFFFF" d="M39.438,21.271V9.883c0-1.232-0.999-2.232-2.232-2.232H27.05
			C36.23,12.8,37.87,17.48,39.438,21.271z"/>
		<path opacity="0.7" fill="#FFFFFF" d="M22.646,21.271V9.883c0-1.232-1-2.232-2.232-2.232h-8.25
			C21.345,12.8,21.077,17.48,22.646,21.271z"/>
	</g>
	<circle fill="#575756" cx="95.412" cy="25.199" r="0.51"/>
	<circle fill="#575756" cx="95.412" cy="28.606" r="0.51"/>
	<path fill="#575756" d="M88.885,22.753c0,0.305,0.247,0.552,0.552,0.552h1.781c0.309,0,0.559-0.25,0.559-0.559v-6.982
		c0-0.463-0.375-0.838-0.838-0.838h-1.278c-0.429,0-0.776,0.347-0.776,0.776V22.753z"/>
	<path fill="#3C3C3B" d="M95.223,25.315c0.234,0.061,0.342-0.042,0.378-0.238l-4.534-7.187c-0.186-0.026-0.312,0.053-0.378,0.238
		L95.223,25.315z"/>
	<path fill="#3C3C3B" d="M95.215,28.729c0.195,0.083,0.331,0.024,0.393-0.214l-4.534-8.318c-0.228-0.096-0.359-0.024-0.393,0.214
		L95.215,28.729z"/>
</g>
</svg>
