<?xml version="1.0" encoding="utf-8"?>
<!-- Generator: Adobe Illustrator 16.0.0, SVG Export Plug-In . SVG Version: 6.00 Build 0)  -->
<!DOCTYPE svg PUBLIC "-//W3C//DTD SVG 1.1//EN" "http://www.w3.org/Graphics/SVG/1.1/DTD/svg11.dtd">
<svg version="1.1" id="Space" xmlns="http://www.w3.org/2000/svg" xmlns:xlink="http://www.w3.org/1999/xlink" x="0px" y="0px"
	 width="99.822px" height="132.325px" viewBox="0 0 99.822 132.325" enable-background="new 0 0 99.822 132.325"
	 xml:space="preserve">
<g id="Rocket">
	<g id="Rocket_1_">
		<g id="Rocket_2_">
			<g>
				<path fill="#111110" d="M55.749,119.534c0,3.051-2.473,12.791-5.522,12.791s-5.523-9.74-5.523-12.791
					c0-3.049,2.474-5.521,5.523-5.521S55.749,116.485,55.749,119.534z"/>
				<path fill="#111110" d="M54.112,118.659c0,2.146-1.74,9-3.886,9c-2.146,0-3.886-6.854-3.886-9s1.739-3.885,3.886-3.885
					C52.372,114.774,54.112,116.512,54.112,118.659z"/>
			</g>
			<g>
				<polygon fill="#111110" points="91.153,105.315 64.94,105.315 64.94,69.258 96.808,86.651 				"/>
				<polygon fill="#111110" points="8.669,105.315 34.882,105.315 34.882,69.258 3.015,86.651 				"/>
				<rect x="30.659" y="26.78" fill="#111110" width="39.134" height="82.552"/>
				<path fill="#111110" d="M50.227,0c0,0-19.567,6.077-19.567,26.78c13.073,0,19.567,0,19.567,0s6.494,0,19.566,0
					C69.793,6.077,50.227,0,50.227,0z"/>
				<rect x="33.753" y="109.333" fill="#111110" width="32.946" height="7.281"/>
				<rect y="83.229" fill="#111110" width="11.205" height="23.637"/>
				<path fill="#111110" d="M5.603,75.561c0,0-5.603,1.74-5.603,7.668c3.743,0,5.603,0,5.603,0s1.859,0,5.603,0
					C11.205,77.3,5.603,75.561,5.603,75.561z"/>
				<rect x="0.886" y="106.866" fill="#111110" width="9.434" height="2.086"/>
				<rect x="88.617" y="83.229" fill="#111110" width="11.205" height="23.637"/>
				<path fill="#111110" d="M94.22,75.561c0,0-5.603,1.74-5.603,7.668c3.743,0,5.603,0,5.603,0s1.859,0,5.603,0
					C99.822,77.3,94.22,75.561,94.22,75.561z"/>
				<rect x="89.503" y="106.866" fill="#111110" width="9.434" height="2.086"/>
				<circle fill="#111110" cx="50.226" cy="45.707" r="11.617"/>
				<circle fill="#111110" cx="50.227" cy="45.707" r="9.554"/>
				<circle fill="#111110" cx="47.417" cy="41.247" r="2.27"/>
				<path opacity="0.1" fill="#111110" d="M66.699,116.614v-7.281h3.094v-4.018h18.824v1.551h0.886v2.086h9.434v-2.086h0.886V83.229
					c0,0-3.743,0,0,0c0-5.929-5.603-7.668-5.603-7.668s-4.953,1.54-5.544,6.652L69.793,71.907V26.78C69.793,6.077,50.227,0,50.227,0
					v116.614H66.699z"/>
			</g>
		</g>
	</g>
</g>
</svg>
