<?xml version="1.0" encoding="utf-8"?>
<!-- Generator: Adobe Illustrator 16.0.0, SVG Export Plug-In . SVG Version: 6.00 Build 0)  -->
<!DOCTYPE svg PUBLIC "-//W3C//DTD SVG 1.1//EN" "http://www.w3.org/Graphics/SVG/1.1/DTD/svg11.dtd">
<svg version="1.1" id="Space" xmlns="http://www.w3.org/2000/svg" xmlns:xlink="http://www.w3.org/1999/xlink" x="0px" y="0px"
	 width="106px" height="139px" viewBox="0 0 106 139" enable-background="new 0 0 106 139" xml:space="preserve">
<g id="Rocket">
	<g id="Rocket_1_">
		<g id="Rocket_2_">
			<g>
				<path fill="#FFDF3C" d="M59.433,123.924c0,3.051-2.473,12.791-5.522,12.791s-5.523-9.74-5.523-12.791
					c0-3.049,2.474-5.521,5.523-5.521S59.433,120.875,59.433,123.924z"/>
				<path fill="#FF8948" d="M57.796,123.049c0,2.146-1.74,9-3.886,9c-2.146,0-3.886-6.854-3.886-9s1.739-3.885,3.886-3.885
					C56.056,119.164,57.796,120.902,57.796,123.049z"/>
			</g>
			<g>
				<polygon fill="#E03643" points="94.837,109.705 68.624,109.705 68.624,73.648 100.491,91.042 				"/>
				<polygon fill="#E03643" points="12.353,109.705 38.565,109.705 38.565,73.648 6.698,91.042 				"/>
				<rect x="34.343" y="31.17" fill="#FFFFFF" width="39.134" height="82.552"/>
				<path fill="#FF4F54" d="M53.91,4.39c0,0-19.567,6.077-19.567,26.78c13.073,0,19.567,0,19.567,0s6.494,0,19.566,0
					C73.477,10.467,53.91,4.39,53.91,4.39z"/>
				<rect x="37.437" y="113.723" fill="#002C40" width="32.946" height="7.281"/>
				<rect x="3.684" y="87.619" fill="#EDEDED" width="11.205" height="23.637"/>
				<path fill="#FF4F54" d="M9.286,79.951c0,0-5.603,1.74-5.603,7.668c3.743,0,5.603,0,5.603,0s1.859,0,5.603,0
					C14.889,81.69,9.286,79.951,9.286,79.951z"/>
				<rect x="4.569" y="111.256" fill="#002C40" width="9.434" height="2.086"/>
				<rect x="92.301" y="87.619" fill="#EDEDED" width="11.205" height="23.637"/>
				<path fill="#FF4F54" d="M97.903,79.951c0,0-5.603,1.74-5.603,7.668c3.743,0,5.603,0,5.603,0s1.859,0,5.603,0
					C103.506,81.69,97.903,79.951,97.903,79.951z"/>
				<rect x="93.187" y="111.256" fill="#002C40" width="9.434" height="2.086"/>
				<circle fill="#FF4F54" cx="53.91" cy="50.097" r="11.617"/>
				<circle fill="#BAE3FF" cx="53.91" cy="50.097" r="9.554"/>
				<circle fill="#FFFFFF" cx="51.101" cy="45.637" r="2.27"/>
				<path opacity="0.1" d="M70.383,121.004v-7.281h3.094v-4.018h18.824v1.551h0.886v2.086h9.434v-2.086h0.886V87.619
					c0,0-3.743,0,0,0c0-5.929-5.603-7.668-5.603-7.668s-4.953,1.54-5.544,6.652L73.477,76.297V31.17
					c0-20.703-19.566-26.78-19.566-26.78v116.614H70.383z"/>
			</g>
		</g>
	</g>
</g>
</svg>
