<?xml version="1.0" encoding="utf-8"?>
<!-- Generator: Adobe Illustrator 16.0.0, SVG Export Plug-In . SVG Version: 6.00 Build 0)  -->
<!DOCTYPE svg PUBLIC "-//W3C//DTD SVG 1.1//EN" "http://www.w3.org/Graphics/SVG/1.1/DTD/svg11.dtd">
<svg version="1.1" xmlns="http://www.w3.org/2000/svg" xmlns:xlink="http://www.w3.org/1999/xlink" x="0px" y="0px"
	 width="102.155px" height="107.735px" viewBox="0 0 102.155 107.735" enable-background="new 0 0 102.155 107.735"
	 xml:space="preserve">
<g id="background">
</g>
<g id="objects">
	<g>
		<g>
			<path fill-rule="evenodd" clip-rule="evenodd" fill="#F48120" d="M49.961,106.028L49.961,106.028L49.961,106.028L49.961,106.028
				c6.628-13.779,8.147-17.785,8.298-30.68l-8.49,0.053l0,0l-8.489,0.053C41.592,88.344,43.161,92.333,49.961,106.028
				L49.961,106.028z"/>
			<path fill-rule="evenodd" clip-rule="evenodd" fill="#F05A22" d="M55.826,75.364c-0.444,9.635-1.677,12.859-5.924,21.111
				l-0.001,0.002l0,0l0,0h0c-4.349-8.201-5.624-11.41-6.188-21.038l6.057-0.038l0,0L55.826,75.364z"/>
			<path fill-rule="evenodd" clip-rule="evenodd" fill="#EC1C24" d="M53.607,75.377c-0.526,4.823-1.696,11.961-3.736,16.307l0,0l0,0
				l0,0l0,0c-2.094-4.322-3.354-11.442-3.94-16.26l3.838-0.023l0,0L53.607,75.377z"/>
		</g>
		<g>
			<path fill-rule="evenodd" clip-rule="evenodd" fill="#5782CE" d="M56.446,51.524c16.845,3.145,27.295,11.258,19.602,34.916
				c-3.154-12.455-6.565-19.11-14.719-19.576L56.446,51.524z"/>
			<path fill-rule="evenodd" clip-rule="evenodd" fill="#343882" d="M76.048,86.44c-3.154-12.455-6.565-19.11-14.719-19.576
				l-2.05-6.438C74.157,61.49,76.239,77.397,76.048,86.44z"/>
			<path fill-rule="evenodd" clip-rule="evenodd" fill="#4E83D1" d="M42.95,51.706c-16.756,3.592-26.984,11.98-18.664,35.426
				c2.821-12.535,6.052-19.279,14.191-19.963L42.95,51.706z"/>
			<path fill-rule="evenodd" clip-rule="evenodd" fill="#233D9B" d="M24.286,87.131c2.821-12.535,6.052-19.279,14.191-19.963
				l1.877-6.489C25.511,62.138,23.854,78.096,24.286,87.131z"/>
			<polygon fill-rule="evenodd" clip-rule="evenodd" fill="#4D5052" points="57.181,70.067 59.529,76.575 50.032,76.702 
				40.536,76.829 42.71,70.26 			"/>
			<polygon fill-rule="evenodd" clip-rule="evenodd" fill="#808184" points="58.548,73.856 59.026,75.18 41.002,75.42 
				41.443,74.084 			"/>
			<path fill-rule="evenodd" clip-rule="evenodd" fill="#CED0D1" d="M49.036,2C29.67,15.451,25.855,57.333,40.559,72.995
				l9.423-0.125l9.422-0.126C73.685,56.694,68.753,14.929,49.036,2z"/>
			<path fill-rule="evenodd" clip-rule="evenodd" fill="#4A72E5" d="M49.036,2c-4.972,3.454-8.916,8.784-11.788,15.061l23.973-0.32
				C58.183,10.542,54.098,5.319,49.036,2z"/>
			<path fill-rule="evenodd" clip-rule="evenodd" fill="#6D6E70" d="M39.098,14.388c-0.077,0-0.141-0.061-0.142-0.139
				c-0.001-0.077,0.061-0.141,0.138-0.142l0.28-0.004c0.078-0.001,0.142,0.061,0.142,0.138c0.001,0.078-0.061,0.141-0.138,0.142
				L39.098,14.388L39.098,14.388z M40.218,14.373c-0.077,0.001-0.141-0.061-0.142-0.138c-0.001-0.077,0.061-0.141,0.138-0.142
				l0.28-0.004c0.078-0.001,0.141,0.061,0.142,0.138c0.001,0.077-0.061,0.141-0.138,0.142L40.218,14.373L40.218,14.373z
				 M41.338,14.358c-0.077,0.001-0.141-0.061-0.142-0.138c-0.001-0.077,0.061-0.141,0.138-0.142l0.28-0.003
				c0.078-0.001,0.141,0.061,0.143,0.138c0,0.078-0.062,0.141-0.139,0.142L41.338,14.358L41.338,14.358z M42.458,14.343
				c-0.077,0-0.141-0.061-0.142-0.138c0-0.078,0.061-0.141,0.138-0.142l0.28-0.003c0.077-0.001,0.141,0.061,0.142,0.138
				c0.001,0.078-0.061,0.141-0.138,0.142L42.458,14.343L42.458,14.343z M43.579,14.328c-0.077,0.001-0.141-0.061-0.142-0.138
				c-0.001-0.077,0.061-0.141,0.138-0.142l0.28-0.004c0.077-0.001,0.141,0.062,0.142,0.138c0.001,0.077-0.061,0.141-0.138,0.143
				L43.579,14.328L43.579,14.328z M44.7,14.313c-0.078,0.001-0.142-0.062-0.142-0.139c-0.001-0.077,0.061-0.141,0.138-0.142
				l0.28-0.004c0.077-0.001,0.141,0.061,0.142,0.139c0.001,0.077-0.061,0.141-0.138,0.142L44.7,14.313L44.7,14.313z M45.82,14.298
				c-0.078,0.001-0.141-0.061-0.142-0.138c-0.001-0.078,0.061-0.141,0.138-0.142l0.28-0.003c0.077-0.001,0.141,0.061,0.142,0.138
				c0,0.078-0.061,0.141-0.138,0.143L45.82,14.298L45.82,14.298z M46.94,14.283c-0.077,0.001-0.141-0.061-0.142-0.138
				c-0.001-0.077,0.061-0.141,0.138-0.142L47.216,14c0.077,0,0.141,0.061,0.142,0.138c0.001,0.078-0.061,0.141-0.138,0.142
				L46.94,14.283L46.94,14.283z M48.06,14.268c-0.077,0.001-0.141-0.061-0.142-0.138c-0.001-0.077,0.061-0.141,0.138-0.142
				l0.281-0.003c0.077-0.001,0.141,0.061,0.142,0.138c0.001,0.077-0.061,0.141-0.138,0.142L48.06,14.268L48.06,14.268z
				 M49.181,14.254c-0.078,0-0.141-0.062-0.142-0.139c-0.001-0.078,0.061-0.141,0.139-0.142l0.28-0.003
				c0.077-0.001,0.141,0.061,0.142,0.138c0.001,0.078-0.061,0.142-0.138,0.142L49.181,14.254L49.181,14.254z M50.301,14.238
				c-0.077,0.001-0.141-0.061-0.142-0.138c0-0.077,0.061-0.141,0.138-0.142l0.28-0.004c0.077-0.001,0.141,0.062,0.142,0.138
				c0.001,0.078-0.061,0.141-0.138,0.142L50.301,14.238L50.301,14.238z M51.421,14.224c-0.077,0.001-0.141-0.061-0.142-0.138
				s0.061-0.141,0.138-0.142l0.28-0.004c0.078-0.001,0.141,0.061,0.142,0.139c0.001,0.077-0.061,0.141-0.139,0.142L51.421,14.224
				L51.421,14.224z M52.542,14.208c-0.078,0.001-0.141-0.061-0.142-0.138c-0.001-0.077,0.061-0.141,0.138-0.142l0.281-0.004
				c0.077-0.001,0.14,0.061,0.142,0.138c0.001,0.078-0.061,0.141-0.138,0.142L52.542,14.208L52.542,14.208z M53.662,14.193
				c-0.077,0.001-0.141-0.061-0.142-0.138c-0.001-0.078,0.061-0.141,0.138-0.142l0.28-0.004c0.077-0.001,0.141,0.061,0.142,0.138
				c0.001,0.078-0.061,0.141-0.138,0.142L53.662,14.193L53.662,14.193z M54.782,14.178c-0.078,0.001-0.141-0.061-0.142-0.138
				c0-0.077,0.061-0.14,0.138-0.142l0.28-0.003c0.077-0.001,0.141,0.061,0.142,0.138c0.001,0.077-0.061,0.141-0.138,0.142
				L54.782,14.178L54.782,14.178z M55.902,14.164c-0.077,0.001-0.141-0.061-0.142-0.139c-0.001-0.077,0.061-0.141,0.138-0.142
				l0.28-0.004c0.078-0.001,0.141,0.061,0.142,0.138c0.001,0.077-0.061,0.141-0.138,0.142L55.902,14.164L55.902,14.164z
				 M57.022,14.149c-0.077,0.001-0.141-0.061-0.142-0.138c0-0.078,0.061-0.141,0.138-0.142l0.28-0.003
				c0.078-0.001,0.141,0.061,0.142,0.138c0.001,0.077-0.061,0.141-0.138,0.142L57.022,14.149L57.022,14.149z M58.143,14.134
				c-0.078,0.001-0.141-0.061-0.142-0.138c-0.001-0.078,0.061-0.141,0.138-0.142l0.28-0.003c0.077-0.001,0.141,0.061,0.142,0.138
				c0.001,0.077-0.061,0.141-0.139,0.142L58.143,14.134L58.143,14.134z M59.263,14.119c-0.077,0-0.141-0.061-0.142-0.138
				s0.061-0.141,0.138-0.142l0.28-0.004c0.077-0.001,0.141,0.061,0.142,0.138c0.001,0.078-0.061,0.142-0.138,0.143L59.263,14.119
				L59.263,14.119z M54.256,6.622c0.077-0.001,0.141,0.061,0.142,0.138c0.001,0.077-0.061,0.141-0.138,0.142l-0.28,0.003
				c-0.077,0.001-0.141-0.061-0.142-0.138c-0.001-0.078,0.062-0.141,0.138-0.143L54.256,6.622L54.256,6.622z M53.136,6.637
				c0.078-0.001,0.141,0.061,0.142,0.138c0.001,0.077-0.061,0.141-0.138,0.142l-0.28,0.004c-0.077,0.001-0.141-0.061-0.142-0.138
				c-0.001-0.078,0.061-0.141,0.138-0.142L53.136,6.637L53.136,6.637z M52.016,6.651c0.078-0.001,0.141,0.061,0.142,0.138
				c0.001,0.078-0.061,0.141-0.138,0.142l-0.28,0.004c-0.078,0.001-0.142-0.061-0.143-0.138c-0.001-0.078,0.061-0.142,0.139-0.142
				L52.016,6.651L52.016,6.651z M50.895,6.666c0.078,0,0.141,0.061,0.142,0.139c0.001,0.077-0.061,0.141-0.138,0.142l-0.28,0.004
				c-0.078,0-0.141-0.061-0.142-0.139c-0.001-0.077,0.061-0.141,0.138-0.142L50.895,6.666L50.895,6.666z M49.775,6.681
				c0.077-0.001,0.141,0.061,0.142,0.138c0,0.078-0.061,0.141-0.138,0.142l-0.28,0.004c-0.078,0.001-0.141-0.061-0.142-0.139
				c-0.001-0.077,0.061-0.141,0.139-0.142L49.775,6.681L49.775,6.681z M48.655,6.696c0.077-0.001,0.141,0.061,0.142,0.138
				c0.001,0.078-0.061,0.141-0.138,0.142l-0.28,0.003c-0.077,0.001-0.141-0.061-0.142-0.138c-0.001-0.078,0.061-0.142,0.138-0.142
				L48.655,6.696L48.655,6.696z M47.534,6.711c0.078-0.001,0.141,0.061,0.142,0.139c0.001,0.077-0.061,0.141-0.138,0.142
				l-0.28,0.004c-0.077,0.001-0.141-0.061-0.142-0.138c-0.001-0.077,0.061-0.141,0.139-0.142L47.534,6.711L47.534,6.711z
				 M46.414,6.727c0.078-0.001,0.142,0.061,0.143,0.138c0.001,0.077-0.062,0.141-0.138,0.142l-0.28,0.004
				c-0.077,0.001-0.141-0.061-0.142-0.139c0-0.077,0.061-0.141,0.139-0.142L46.414,6.727L46.414,6.727z M45.294,6.741
				c0.077-0.001,0.141,0.061,0.142,0.138c0.001,0.077-0.061,0.141-0.138,0.142l-0.28,0.004c-0.078,0-0.141-0.061-0.142-0.139
				c-0.001-0.077,0.061-0.141,0.138-0.142L45.294,6.741L45.294,6.741z M44.173,6.756c0.077-0.001,0.141,0.061,0.142,0.138
				c0,0.077-0.062,0.141-0.138,0.142L43.897,7.04c-0.077,0.001-0.141-0.061-0.142-0.139c-0.001-0.077,0.061-0.14,0.138-0.142
				L44.173,6.756z"/>
			<path fill-rule="evenodd" clip-rule="evenodd" fill="#27417C" d="M32.176,35.363c-0.173,1.35-0.305,2.704-0.398,4.058
				l35.51-0.474c-0.13-1.35-0.299-2.7-0.507-4.045L32.176,35.363z"/>
			<path fill-rule="evenodd" clip-rule="evenodd" fill="#6D6E70" d="M31.847,38.502c-0.009,0.093-0.015,0.187-0.023,0.28
				l0.165-0.002c0.078-0.001,0.139-0.064,0.138-0.142c0-0.078-0.064-0.139-0.142-0.139L31.847,38.502L31.847,38.502z M66.932,35.93
				c-0.013-0.088-0.024-0.175-0.037-0.262c-0.046,0.023-0.077,0.071-0.077,0.125C66.819,35.861,66.868,35.917,66.932,35.93
				L66.932,35.93z M32.828,38.769c-0.077,0.001-0.14-0.061-0.142-0.138c0-0.077,0.061-0.14,0.138-0.142l0.28-0.003
				c0.078-0.001,0.142,0.06,0.143,0.138c0.001,0.077-0.061,0.14-0.138,0.142L32.828,38.769L32.828,38.769z M33.948,38.754
				c-0.077,0-0.141-0.061-0.142-0.138c-0.001-0.077,0.061-0.141,0.139-0.143l0.28-0.003c0.078-0.001,0.141,0.061,0.142,0.138
				c0.001,0.077-0.061,0.141-0.138,0.142L33.948,38.754L33.948,38.754z M35.069,38.739c-0.077,0.001-0.141-0.061-0.143-0.138
				c0-0.078,0.062-0.142,0.139-0.143l0.28-0.003c0.078-0.001,0.141,0.061,0.143,0.138c0.001,0.078-0.061,0.142-0.138,0.142
				L35.069,38.739L35.069,38.739z M36.189,38.724c-0.077,0.001-0.141-0.061-0.143-0.138c-0.001-0.078,0.062-0.142,0.139-0.142
				l0.28-0.004c0.077-0.001,0.142,0.06,0.143,0.138c0,0.078-0.062,0.142-0.139,0.143L36.189,38.724L36.189,38.724z M37.31,38.709
				c-0.078,0.001-0.142-0.06-0.143-0.137c-0.001-0.078,0.061-0.141,0.138-0.142l0.281-0.004c0.077-0.001,0.141,0.061,0.143,0.138
				c0,0.077-0.062,0.142-0.139,0.142L37.31,38.709L37.31,38.709z M38.43,38.694c-0.077,0.001-0.141-0.061-0.142-0.138
				c-0.001-0.077,0.061-0.141,0.138-0.142l0.28-0.004c0.077-0.001,0.141,0.061,0.142,0.138c0.001,0.077-0.061,0.141-0.139,0.142
				L38.43,38.694L38.43,38.694z M39.55,38.68c-0.077,0-0.14-0.061-0.142-0.139c0-0.077,0.061-0.141,0.138-0.142l0.28-0.004
				c0.077-0.001,0.141,0.061,0.142,0.138c0.001,0.078-0.061,0.141-0.138,0.142L39.55,38.68L39.55,38.68z M40.671,38.665
				c-0.078,0-0.142-0.062-0.142-0.139c-0.001-0.077,0.061-0.141,0.138-0.142l0.28-0.004c0.077-0.001,0.141,0.062,0.142,0.139
				c0,0.076-0.061,0.14-0.139,0.141L40.671,38.665L40.671,38.665z M41.791,38.65c-0.077,0-0.141-0.061-0.142-0.138
				c-0.001-0.078,0.06-0.142,0.138-0.143l0.28-0.003c0.078-0.001,0.142,0.061,0.143,0.139c0.001,0.077-0.062,0.14-0.139,0.141
				L41.791,38.65L41.791,38.65z M42.911,38.635c-0.078,0-0.141-0.061-0.142-0.138c-0.001-0.077,0.061-0.141,0.138-0.143l0.281-0.003
				c0.077-0.001,0.14,0.061,0.142,0.138c0.001,0.078-0.062,0.141-0.138,0.142L42.911,38.635L42.911,38.635z M44.031,38.62
				c-0.077,0-0.141-0.061-0.142-0.138c-0.001-0.078,0.061-0.142,0.138-0.142l0.28-0.004c0.078,0,0.141,0.061,0.142,0.138
				c0.001,0.077-0.061,0.141-0.137,0.142L44.031,38.62L44.031,38.62z M45.152,38.604c-0.078,0.001-0.141-0.061-0.142-0.138
				c-0.001-0.077,0.062-0.14,0.138-0.142l0.281-0.003c0.077,0,0.14,0.061,0.142,0.138c0,0.078-0.061,0.141-0.139,0.142
				L45.152,38.604L45.152,38.604z M46.272,38.589c-0.077,0.001-0.141-0.061-0.142-0.138c-0.001-0.077,0.061-0.141,0.138-0.142
				l0.28-0.004c0.078,0,0.141,0.061,0.142,0.138c0.001,0.078-0.061,0.141-0.138,0.143L46.272,38.589L46.272,38.589z M47.393,38.575
				c-0.078,0-0.142-0.062-0.143-0.139c-0.001-0.077,0.062-0.141,0.139-0.142l0.28-0.004c0.077,0,0.14,0.061,0.142,0.138
				c0.001,0.077-0.06,0.142-0.138,0.143L47.393,38.575L47.393,38.575z M48.512,38.56c-0.076,0.002-0.141-0.061-0.142-0.138
				c-0.001-0.078,0.061-0.14,0.139-0.141l0.28-0.004c0.078-0.001,0.141,0.061,0.142,0.139c0,0.076-0.061,0.141-0.138,0.142
				L48.512,38.56L48.512,38.56z M49.633,38.545c-0.078,0-0.141-0.061-0.142-0.138c-0.001-0.079,0.061-0.142,0.138-0.143l0.28-0.004
				c0.078-0.001,0.141,0.061,0.143,0.138c0.001,0.078-0.061,0.142-0.139,0.142L49.633,38.545L49.633,38.545z M50.753,38.53
				c-0.077,0.001-0.141-0.061-0.143-0.139c-0.001-0.077,0.062-0.14,0.139-0.141l0.28-0.003c0.077-0.002,0.141,0.061,0.142,0.138
				s-0.061,0.141-0.139,0.142L50.753,38.53L50.753,38.53z M51.874,38.516c-0.077,0-0.141-0.062-0.143-0.139
				c0-0.078,0.061-0.141,0.139-0.142l0.28-0.003c0.077-0.001,0.141,0.061,0.142,0.138c0.001,0.078-0.061,0.141-0.138,0.142
				L51.874,38.516L51.874,38.516z M52.995,38.5c-0.078,0.001-0.142-0.062-0.143-0.139c0-0.077,0.061-0.141,0.138-0.142l0.28-0.004
				c0.077-0.001,0.142,0.062,0.142,0.139c0.001,0.077-0.062,0.14-0.139,0.141L52.995,38.5L52.995,38.5z M54.115,38.485
				c-0.078,0.001-0.141-0.061-0.142-0.137c-0.001-0.078,0.06-0.142,0.138-0.143l0.28-0.004c0.077-0.001,0.142,0.062,0.143,0.139
				c0,0.077-0.062,0.14-0.139,0.142L54.115,38.485L54.115,38.485z M55.235,38.47c-0.078,0-0.141-0.061-0.142-0.138
				c-0.001-0.077,0.06-0.142,0.138-0.142l0.281-0.003c0.077-0.001,0.141,0.061,0.142,0.138c0.001,0.077-0.062,0.14-0.138,0.142
				L55.235,38.47L55.235,38.47z M56.355,38.455c-0.077,0-0.141-0.061-0.142-0.138c-0.001-0.078,0.06-0.142,0.138-0.143l0.28-0.003
				c0.078-0.002,0.141,0.061,0.142,0.138s-0.062,0.141-0.138,0.142L56.355,38.455L56.355,38.455z M57.475,38.44
				c-0.078,0.001-0.141-0.061-0.142-0.138c-0.001-0.077,0.061-0.141,0.138-0.142l0.281-0.003c0.077-0.002,0.14,0.061,0.142,0.138
				c0.001,0.078-0.061,0.141-0.138,0.142L57.475,38.44L57.475,38.44z M58.596,38.425c-0.077,0.001-0.141-0.061-0.142-0.138
				c-0.001-0.078,0.061-0.141,0.139-0.142l0.28-0.003c0.078-0.001,0.141,0.061,0.142,0.138c0.001,0.078-0.061,0.142-0.138,0.143
				L58.596,38.425L58.596,38.425z M59.715,38.41c-0.077,0.001-0.14-0.061-0.142-0.138c-0.001-0.077,0.062-0.14,0.139-0.142
				l0.28-0.003c0.078,0,0.141,0.061,0.142,0.138c0,0.078-0.061,0.141-0.138,0.143L59.715,38.41L59.715,38.41z M60.836,38.395
				c-0.077,0.001-0.141-0.061-0.142-0.138s0.061-0.14,0.138-0.142l0.28-0.004c0.078-0.001,0.141,0.061,0.142,0.138
				c0.001,0.077-0.061,0.141-0.138,0.143L60.836,38.395L60.836,38.395z M61.957,38.38c-0.078,0.001-0.141-0.061-0.143-0.139
				c-0.001-0.077,0.062-0.14,0.139-0.141l0.28-0.005c0.077,0,0.141,0.061,0.142,0.138c0.001,0.078-0.06,0.142-0.138,0.143
				L61.957,38.38L61.957,38.38z M63.077,38.365c-0.077,0.002-0.142-0.062-0.143-0.139c0-0.076,0.062-0.14,0.139-0.141l0.28-0.005
				c0.077,0,0.141,0.062,0.143,0.139c0,0.077-0.061,0.141-0.139,0.142L63.077,38.365L63.077,38.365z M64.197,38.35
				c-0.077,0.001-0.141-0.061-0.142-0.138c-0.001-0.077,0.061-0.141,0.139-0.142l0.279-0.004c0.078,0,0.141,0.062,0.142,0.139
				c0.001,0.077-0.061,0.141-0.138,0.142L64.197,38.35L64.197,38.35z M65.318,38.336c-0.078,0.001-0.142-0.061-0.142-0.139
				c-0.001-0.077,0.061-0.141,0.138-0.142l0.28-0.003c0.077-0.002,0.141,0.061,0.143,0.139c0.001,0.077-0.062,0.141-0.139,0.141
				L65.318,38.336L65.318,38.336z M66.438,38.321c-0.078,0.001-0.141-0.061-0.142-0.138c-0.001-0.078,0.06-0.142,0.138-0.143
				l0.28-0.004c0.077,0,0.141,0.062,0.143,0.139c0,0.078-0.062,0.14-0.139,0.142L66.438,38.321L66.438,38.321z M66.116,35.663
				c0.077-0.001,0.14,0.061,0.142,0.138c0.001,0.078-0.061,0.142-0.138,0.143l-0.28,0.004c-0.077,0-0.141-0.062-0.143-0.139
				c0-0.078,0.062-0.14,0.139-0.141L66.116,35.663L66.116,35.663z M64.996,35.678c0.078-0.001,0.141,0.061,0.142,0.138
				c0.001,0.077-0.061,0.141-0.137,0.142l-0.281,0.003c-0.077,0.001-0.141-0.061-0.142-0.138c-0.001-0.077,0.061-0.14,0.138-0.142
				L64.996,35.678L64.996,35.678z M63.875,35.693c0.077,0,0.141,0.061,0.142,0.138c0.001,0.077-0.061,0.141-0.137,0.143
				l-0.281,0.003c-0.077,0.002-0.141-0.061-0.142-0.138s0.062-0.14,0.138-0.142L63.875,35.693L63.875,35.693z M62.755,35.708
				c0.078-0.001,0.141,0.061,0.142,0.138c0.001,0.078-0.061,0.141-0.138,0.143l-0.281,0.003c-0.077,0.002-0.141-0.061-0.142-0.138
				c-0.001-0.077,0.061-0.141,0.138-0.142L62.755,35.708L62.755,35.708z M61.635,35.724c0.077-0.001,0.141,0.061,0.142,0.138
				c0.001,0.078-0.061,0.141-0.138,0.142l-0.28,0.003c-0.078,0.001-0.141-0.061-0.142-0.138c-0.001-0.078,0.061-0.142,0.138-0.143
				L61.635,35.724L61.635,35.724z M60.515,35.738c0.077-0.001,0.141,0.061,0.142,0.138c0.001,0.077-0.062,0.14-0.139,0.142
				l-0.28,0.004c-0.078,0-0.141-0.061-0.142-0.138c-0.001-0.078,0.061-0.141,0.138-0.143L60.515,35.738L60.515,35.738z
				 M59.395,35.753c0.077-0.001,0.141,0.061,0.142,0.138c0,0.077-0.062,0.14-0.139,0.142l-0.28,0.004
				c-0.078,0.001-0.141-0.061-0.142-0.138c-0.001-0.078,0.06-0.142,0.138-0.143L59.395,35.753L59.395,35.753z M58.273,35.768
				c0.078-0.001,0.141,0.061,0.143,0.139c0.001,0.077-0.062,0.14-0.138,0.142l-0.28,0.004c-0.078,0.001-0.141-0.061-0.142-0.138
				c-0.001-0.077,0.06-0.142,0.138-0.143L58.273,35.768L58.273,35.768z M57.154,35.783c0.077-0.001,0.141,0.062,0.142,0.139
				s-0.061,0.14-0.139,0.141l-0.279,0.005c-0.078,0-0.142-0.062-0.143-0.139c0-0.077,0.061-0.141,0.138-0.142L57.154,35.783
				L57.154,35.783z M56.033,35.797c0.078,0,0.142,0.062,0.142,0.139c0.001,0.077-0.061,0.141-0.138,0.142l-0.279,0.005
				c-0.078,0-0.141-0.062-0.142-0.139c-0.001-0.077,0.061-0.141,0.138-0.142L56.033,35.797L56.033,35.797z M54.913,35.813
				c0.077-0.001,0.141,0.061,0.142,0.138c0.001,0.078-0.061,0.141-0.138,0.142l-0.28,0.003c-0.077,0.001-0.141-0.061-0.142-0.138
				c-0.001-0.078,0.061-0.142,0.138-0.142L54.913,35.813L54.913,35.813z M53.792,35.828c0.077-0.001,0.141,0.061,0.142,0.138
				c0.001,0.078-0.06,0.142-0.138,0.142l-0.28,0.004c-0.078,0.001-0.141-0.061-0.142-0.138c-0.001-0.079,0.061-0.141,0.138-0.143
				L53.792,35.828L53.792,35.828z M52.672,35.843c0.078-0.001,0.141,0.061,0.143,0.139c0,0.077-0.062,0.14-0.138,0.142l-0.281,0.003
				c-0.077,0.002-0.141-0.061-0.142-0.138c-0.001-0.077,0.062-0.141,0.138-0.142L52.672,35.843L52.672,35.843z M51.552,35.857
				c0.078,0,0.141,0.061,0.142,0.138c0.001,0.077-0.06,0.142-0.138,0.143l-0.281,0.003c-0.077,0.001-0.14-0.061-0.142-0.138
				c0-0.078,0.062-0.141,0.139-0.142L51.552,35.857L51.552,35.857z M50.432,35.873c0.078,0,0.141,0.061,0.142,0.138
				s-0.061,0.141-0.138,0.143l-0.28,0.003c-0.077,0.001-0.141-0.061-0.142-0.138c-0.001-0.077,0.061-0.141,0.138-0.142
				L50.432,35.873L50.432,35.873z M49.312,35.888c0.077-0.002,0.141,0.061,0.142,0.138c0.001,0.077-0.061,0.141-0.138,0.142
				l-0.28,0.004c-0.077,0-0.141-0.061-0.142-0.138s0.061-0.141,0.138-0.142L49.312,35.888L49.312,35.888z M48.191,35.903
				c0.078,0,0.141,0.061,0.142,0.138s-0.062,0.14-0.138,0.142l-0.281,0.003c-0.078,0-0.141-0.061-0.142-0.138
				c-0.001-0.077,0.061-0.141,0.138-0.143L48.191,35.903L48.191,35.903z M47.071,35.918c0.077-0.001,0.141,0.061,0.142,0.138
				c0.001,0.078-0.062,0.141-0.139,0.142l-0.28,0.004c-0.078,0-0.141-0.061-0.142-0.138s0.061-0.141,0.137-0.143L47.071,35.918
				L47.071,35.918z M45.95,35.932c0.078,0,0.142,0.062,0.143,0.139c0.001,0.077-0.062,0.14-0.139,0.141l-0.279,0.004
				c-0.078,0.001-0.141-0.061-0.142-0.138c-0.001-0.077,0.061-0.142,0.138-0.143L45.95,35.932L45.95,35.932z M44.83,35.947
				c0.077-0.001,0.142,0.062,0.143,0.139c0,0.077-0.062,0.141-0.139,0.141l-0.279,0.004c-0.078,0.001-0.142-0.061-0.143-0.138
				c0-0.078,0.061-0.141,0.139-0.142L44.83,35.947L44.83,35.947z M43.709,35.963c0.078-0.001,0.141,0.061,0.142,0.138
				c0.002,0.078-0.061,0.141-0.139,0.142l-0.279,0.005c-0.078,0-0.141-0.061-0.142-0.139c-0.001-0.077,0.061-0.141,0.138-0.142
				L43.709,35.963L43.709,35.963z M42.59,35.978c0.077-0.001,0.14,0.061,0.142,0.138c0.001,0.078-0.061,0.141-0.138,0.142
				l-0.28,0.004c-0.077,0.001-0.141-0.061-0.142-0.138c0-0.077,0.061-0.141,0.139-0.142L42.59,35.978L42.59,35.978z M41.469,35.992
				c0.078-0.001,0.142,0.061,0.142,0.139c0.001,0.077-0.061,0.141-0.138,0.142l-0.28,0.004c-0.077,0.001-0.142-0.062-0.142-0.138
				c-0.002-0.078,0.061-0.141,0.138-0.142L41.469,35.992L41.469,35.992z M40.348,36.007c0.078-0.001,0.141,0.061,0.143,0.138
				c0,0.077-0.061,0.141-0.138,0.142l-0.28,0.004c-0.078,0.001-0.141-0.061-0.143-0.138c0-0.078,0.061-0.141,0.138-0.142
				L40.348,36.007L40.348,36.007z M39.229,36.022c0.077-0.001,0.141,0.061,0.142,0.139c0.001,0.077-0.061,0.141-0.138,0.142
				l-0.28,0.004c-0.078,0.001-0.141-0.061-0.143-0.138c0-0.077,0.062-0.141,0.139-0.142L39.229,36.022L39.229,36.022z
				 M38.108,36.037c0.077-0.001,0.141,0.061,0.142,0.138s-0.061,0.141-0.138,0.142l-0.28,0.003
				c-0.078,0.001-0.141-0.061-0.142-0.138c-0.001-0.077,0.061-0.141,0.138-0.142L38.108,36.037L38.108,36.037z M36.988,36.052
				c0.077-0.001,0.141,0.061,0.142,0.138s-0.061,0.14-0.139,0.142l-0.28,0.003c-0.077,0.001-0.141-0.061-0.142-0.138
				s0.061-0.141,0.139-0.142L36.988,36.052L36.988,36.052z M35.867,36.067c0.078-0.001,0.142,0.061,0.143,0.138
				c0,0.078-0.061,0.141-0.138,0.142l-0.281,0.004c-0.077,0.001-0.141-0.061-0.142-0.138c-0.001-0.077,0.062-0.142,0.138-0.142
				L35.867,36.067L35.867,36.067z M34.747,36.083c0.078-0.002,0.142,0.061,0.143,0.138s-0.061,0.141-0.138,0.142l-0.28,0.004
				c-0.077,0.001-0.14-0.062-0.142-0.139c0-0.078,0.061-0.141,0.139-0.142L34.747,36.083L34.747,36.083z M33.627,36.097
				c0.077-0.001,0.141,0.061,0.142,0.138c0,0.078-0.061,0.141-0.138,0.142l-0.28,0.004c-0.077,0-0.14-0.062-0.141-0.139
				c-0.001-0.077,0.061-0.141,0.138-0.142L33.627,36.097L33.627,36.097z M32.506,36.112c0.078-0.001,0.141,0.061,0.142,0.138
				c0.001,0.077-0.061,0.141-0.138,0.142l-0.281,0.003c-0.076,0-0.14-0.061-0.141-0.139c-0.001-0.077,0.061-0.14,0.138-0.142
				L32.506,36.112z"/>
			<path fill-rule="evenodd" clip-rule="evenodd" fill="#5464B2" d="M31.657,41.631c-0.273,7.188,0.506,14.239,2.535,20.246
				l31.298-0.418c1.867-6.059,2.442-13.128,1.976-20.307L31.657,41.631z"/>
			<path fill-rule="evenodd" clip-rule="evenodd" fill="#6D6E70" d="M33.178,58.38c0.019,0.077,0.038,0.155,0.058,0.233
				c0.013,0.004,0.028,0.006,0.042,0.006l0.28-0.004c0.078-0.002,0.14-0.064,0.138-0.143c-0.001-0.077-0.065-0.139-0.143-0.139
				l-0.28,0.005C33.237,58.339,33.203,58.356,33.178,58.38L33.178,58.38z M34.399,58.604c-0.077,0.002-0.141-0.061-0.142-0.139
				c-0.001-0.076,0.061-0.141,0.138-0.141l0.28-0.004c0.077-0.002,0.142,0.061,0.142,0.137c0.001,0.078-0.061,0.142-0.138,0.143
				L34.399,58.604L34.399,58.604z M35.52,58.589c-0.078,0.001-0.142-0.062-0.142-0.138c-0.002-0.078,0.06-0.143,0.137-0.143
				l0.28-0.004c0.078,0,0.142,0.062,0.143,0.139c0.001,0.078-0.062,0.141-0.139,0.142L35.52,58.589L35.52,58.589z M36.64,58.575
				c-0.077,0-0.141-0.061-0.142-0.138c-0.001-0.077,0.06-0.142,0.137-0.143l0.281-0.003c0.077-0.002,0.141,0.061,0.143,0.137
				c0,0.078-0.062,0.141-0.139,0.143L36.64,58.575L36.64,58.575z M37.759,58.559c-0.077,0.002-0.141-0.061-0.142-0.138
				c0-0.077,0.061-0.141,0.138-0.142l0.281-0.004c0.077-0.001,0.141,0.061,0.142,0.139c0.001,0.076-0.062,0.14-0.139,0.142
				L37.759,58.559L37.759,58.559z M38.88,58.543c-0.078,0.002-0.142-0.06-0.142-0.137c-0.001-0.078,0.061-0.141,0.137-0.143
				l0.281-0.004c0.077-0.001,0.14,0.062,0.142,0.139c0.001,0.077-0.062,0.141-0.139,0.143L38.88,58.543L38.88,58.543z M40,58.53
				c-0.077,0-0.141-0.061-0.142-0.139c0-0.078,0.061-0.141,0.138-0.142l0.281-0.004c0.077-0.001,0.14,0.062,0.141,0.139
				c0.001,0.077-0.061,0.141-0.138,0.142L40,58.53L40,58.53z M41.12,58.514c-0.076,0.002-0.14-0.061-0.141-0.139
				c-0.001-0.077,0.061-0.14,0.138-0.141l0.279-0.004c0.079-0.002,0.141,0.061,0.142,0.139c0.002,0.076-0.06,0.141-0.137,0.142
				L41.12,58.514L41.12,58.514z M42.24,58.5c-0.077,0.001-0.14-0.062-0.141-0.139c-0.001-0.077,0.062-0.14,0.139-0.142l0.279-0.004
				c0.078,0,0.141,0.061,0.142,0.139c0.001,0.076-0.06,0.142-0.138,0.143L42.24,58.5L42.24,58.5z M43.361,58.485
				c-0.078,0.001-0.141-0.063-0.143-0.139c0-0.078,0.062-0.141,0.139-0.143l0.279-0.003c0.078-0.001,0.141,0.061,0.142,0.138
				c0.001,0.078-0.06,0.142-0.137,0.143L43.361,58.485L43.361,58.485z M44.481,58.469c-0.077,0.002-0.14-0.061-0.142-0.139
				c-0.001-0.076,0.061-0.14,0.139-0.141l0.279-0.005c0.077,0,0.142,0.062,0.142,0.138c0.001,0.079-0.06,0.143-0.138,0.143
				L44.481,58.469L44.481,58.469z M45.603,58.456c-0.078,0-0.142-0.063-0.143-0.139c-0.001-0.077,0.062-0.141,0.139-0.143
				l0.279-0.004c0.078,0,0.142,0.061,0.143,0.139c0,0.077-0.061,0.141-0.139,0.143L45.603,58.456L45.603,58.456z M46.723,58.44
				c-0.077,0.001-0.141-0.061-0.143-0.139c-0.001-0.076,0.061-0.141,0.138-0.141l0.281-0.004c0.077-0.002,0.142,0.061,0.143,0.138
				c0,0.077-0.062,0.14-0.139,0.142L46.723,58.44L46.723,58.44z M47.843,58.424c-0.078,0.002-0.142-0.059-0.143-0.138
				c-0.001-0.077,0.061-0.141,0.138-0.142l0.28-0.004c0.078-0.001,0.141,0.061,0.142,0.139c0.002,0.077-0.061,0.141-0.138,0.141
				L47.843,58.424L47.843,58.424z M48.963,58.41c-0.078,0.001-0.142-0.06-0.142-0.138c-0.001-0.078,0.06-0.141,0.137-0.143
				l0.281-0.003c0.077-0.001,0.14,0.062,0.142,0.138c0.001,0.078-0.061,0.141-0.138,0.143L48.963,58.41L48.963,58.41z
				 M50.083,58.395c-0.078,0.001-0.141-0.061-0.142-0.139c0-0.076,0.06-0.141,0.138-0.142l0.281-0.003
				c0.077-0.002,0.14,0.061,0.142,0.138c0.001,0.077-0.062,0.141-0.139,0.142L50.083,58.395L50.083,58.395z M51.204,58.379
				c-0.078,0.002-0.141-0.061-0.142-0.138c-0.001-0.077,0.061-0.141,0.137-0.142l0.281-0.004c0.077-0.002,0.14,0.061,0.142,0.139
				c0.001,0.077-0.062,0.141-0.139,0.142L51.204,58.379L51.204,58.379z M52.324,58.365c-0.078,0.001-0.141-0.061-0.142-0.138
				c-0.001-0.077,0.061-0.141,0.138-0.143l0.28-0.004c0.078,0,0.14,0.062,0.141,0.139c0.001,0.077-0.061,0.141-0.138,0.143
				L52.324,58.365L52.324,58.365z M53.444,58.35c-0.079,0.001-0.141-0.061-0.142-0.139c-0.001-0.076,0.061-0.141,0.138-0.142
				l0.279-0.003c0.078-0.002,0.141,0.061,0.142,0.138c0.001,0.077-0.061,0.141-0.137,0.142L53.444,58.35L53.444,58.35z
				 M54.564,58.334c-0.077,0.002-0.14-0.061-0.141-0.139c-0.001-0.076,0.062-0.14,0.138-0.141l0.28-0.004
				c0.078-0.001,0.141,0.061,0.142,0.139c0,0.076-0.061,0.141-0.138,0.142L54.564,58.334L54.564,58.334z M55.685,58.321
				c-0.078,0-0.141-0.063-0.143-0.139c-0.001-0.078,0.062-0.141,0.138-0.143l0.28-0.004c0.078,0,0.141,0.061,0.142,0.139
				c0.001,0.077-0.06,0.142-0.137,0.143L55.685,58.321L55.685,58.321z M56.805,58.305c-0.077,0.002-0.142-0.061-0.142-0.139
				c-0.001-0.077,0.061-0.141,0.139-0.141l0.279-0.005c0.078-0.001,0.141,0.061,0.143,0.139c0,0.077-0.061,0.142-0.138,0.142
				L56.805,58.305L56.805,58.305z M57.925,58.291c-0.077,0.001-0.141-0.062-0.142-0.138c-0.001-0.078,0.061-0.142,0.138-0.143
				l0.28-0.004c0.077-0.002,0.141,0.061,0.143,0.139c0,0.076-0.062,0.141-0.139,0.141L57.925,58.291L57.925,58.291z M59.045,58.276
				c-0.077,0.001-0.141-0.061-0.142-0.139c-0.001-0.077,0.061-0.141,0.139-0.143l0.28-0.003c0.077-0.002,0.141,0.061,0.142,0.138
				c0.001,0.077-0.061,0.141-0.138,0.143L59.045,58.276L59.045,58.276z M60.167,58.26c-0.078,0.002-0.141-0.061-0.143-0.139
				c-0.001-0.076,0.061-0.141,0.139-0.141l0.28-0.004c0.078-0.002,0.141,0.061,0.142,0.138c0.002,0.077-0.061,0.141-0.138,0.142
				L60.167,58.26L60.167,58.26z M61.287,58.246c-0.078,0.001-0.141-0.061-0.143-0.139c0-0.076,0.061-0.142,0.139-0.142l0.28-0.004
				c0.077-0.002,0.141,0.062,0.142,0.139c0.001,0.078-0.061,0.141-0.139,0.141L61.287,58.246L61.287,58.246z M62.407,58.231
				c-0.078,0-0.14-0.061-0.142-0.139c-0.001-0.077,0.06-0.141,0.138-0.143l0.28-0.004c0.078,0,0.142,0.063,0.143,0.14
				c0.001,0.077-0.062,0.14-0.138,0.142L62.407,58.231L62.407,58.231z M63.527,58.215c-0.078,0.001-0.141-0.061-0.142-0.139
				c-0.001-0.076,0.061-0.141,0.137-0.142l0.281-0.003c0.077-0.002,0.141,0.061,0.142,0.139c0.001,0.076-0.061,0.141-0.138,0.141
				L63.527,58.215L63.527,58.215z M64.647,58.201c-0.077,0.001-0.14-0.062-0.142-0.138c0-0.078,0.061-0.142,0.138-0.143l0.28-0.004
				c0.078,0,0.141,0.061,0.142,0.139c0.001,0.076-0.062,0.141-0.138,0.143L64.647,58.201L64.647,58.201z M65.768,58.186
				c-0.078,0-0.141-0.061-0.142-0.139c-0.001-0.077,0.061-0.141,0.137-0.143l0.281-0.003c0.077-0.001,0.141,0.062,0.142,0.138
				c0.001,0.078-0.061,0.141-0.138,0.143L65.768,58.186L65.768,58.186z M67.41,48.594c0.077,0,0.141,0.061,0.142,0.139
				c0.001,0.077-0.06,0.141-0.137,0.143l-0.28,0.003c-0.078,0.001-0.142-0.062-0.143-0.138c-0.001-0.078,0.062-0.141,0.139-0.143
				L67.41,48.594L67.41,48.594z M66.29,48.61c0.078-0.001,0.141,0.061,0.142,0.138s-0.061,0.142-0.138,0.143l-0.281,0.003
				c-0.077,0.002-0.141-0.061-0.142-0.138s0.061-0.142,0.138-0.142L66.29,48.61L66.29,48.61z M65.169,48.625
				c0.078-0.002,0.141,0.061,0.142,0.137c0.001,0.078-0.061,0.142-0.138,0.143l-0.28,0.004c-0.078,0-0.141-0.062-0.142-0.139
				s0.061-0.141,0.138-0.142L65.169,48.625L65.169,48.625z M64.049,48.639c0.077,0,0.141,0.061,0.142,0.139
				c0.001,0.077-0.061,0.141-0.138,0.143l-0.281,0.003c-0.077,0.001-0.14-0.061-0.142-0.138c-0.001-0.078,0.061-0.142,0.138-0.143
				L64.049,48.639L64.049,48.639z M62.929,48.655c0.077-0.002,0.141,0.061,0.142,0.138c0,0.077-0.061,0.142-0.139,0.142l-0.28,0.004
				c-0.078,0.001-0.141-0.061-0.142-0.137c-0.001-0.078,0.061-0.143,0.138-0.144L62.929,48.655L62.929,48.655z M61.809,48.67
				c0.077-0.002,0.141,0.061,0.142,0.137c0.001,0.078-0.062,0.141-0.138,0.143l-0.28,0.004c-0.078,0-0.141-0.061-0.142-0.139
				c-0.001-0.076,0.06-0.141,0.138-0.142L61.809,48.67L61.809,48.67z M60.688,48.685c0.077-0.001,0.141,0.062,0.142,0.138
				c0.001,0.078-0.062,0.141-0.138,0.143l-0.28,0.003c-0.077,0.001-0.141-0.061-0.142-0.138c-0.001-0.078,0.06-0.142,0.137-0.143
				L60.688,48.685L60.688,48.685z M59.567,48.7c0.077-0.002,0.141,0.061,0.142,0.138c0.002,0.078-0.061,0.142-0.138,0.142
				l-0.279,0.005c-0.078,0.001-0.141-0.062-0.142-0.14c-0.001-0.076,0.061-0.141,0.138-0.141L59.567,48.7L59.567,48.7z
				 M58.447,48.714c0.077-0.001,0.141,0.062,0.143,0.139c0,0.077-0.062,0.14-0.139,0.142l-0.28,0.004
				C58.094,49,58.03,48.937,58.029,48.86c-0.001-0.077,0.061-0.141,0.138-0.142L58.447,48.714L58.447,48.714z M57.327,48.729
				c0.077-0.001,0.141,0.061,0.142,0.139c0.001,0.077-0.061,0.141-0.138,0.142l-0.279,0.005c-0.078,0-0.142-0.062-0.143-0.139
				c-0.001-0.078,0.061-0.142,0.138-0.143L57.327,48.729L57.327,48.729z M56.206,48.745c0.078-0.002,0.142,0.061,0.143,0.138
				s-0.061,0.142-0.138,0.142l-0.28,0.004c-0.077,0.002-0.141-0.061-0.142-0.139c-0.001-0.077,0.062-0.141,0.139-0.141
				L56.206,48.745L56.206,48.745z M55.086,48.758c0.078,0,0.141,0.062,0.142,0.139c0.002,0.078-0.06,0.142-0.137,0.143l-0.281,0.004
				c-0.077,0-0.141-0.062-0.142-0.139c0-0.078,0.061-0.141,0.139-0.143L55.086,48.758L55.086,48.758z M53.966,48.774
				c0.078,0,0.141,0.061,0.142,0.139c0.001,0.076-0.061,0.141-0.138,0.143l-0.281,0.002c-0.077,0.002-0.141-0.061-0.142-0.138
				s0.062-0.14,0.139-0.142L53.966,48.774L53.966,48.774z M52.845,48.79c0.078-0.001,0.141,0.061,0.142,0.138
				s-0.06,0.142-0.137,0.142l-0.281,0.004c-0.077,0.001-0.141-0.061-0.142-0.139c-0.001-0.077,0.061-0.14,0.138-0.141L52.845,48.79
				L52.845,48.79z M51.726,48.804c0.077-0.001,0.141,0.061,0.142,0.138c0.001,0.078-0.061,0.141-0.138,0.143l-0.281,0.004
				c-0.078,0-0.141-0.061-0.142-0.139c0-0.077,0.061-0.141,0.139-0.142L51.726,48.804L51.726,48.804z M50.605,48.819
				c0.077-0.001,0.141,0.061,0.142,0.139c0,0.077-0.062,0.141-0.139,0.142l-0.28,0.003c-0.077,0.002-0.141-0.061-0.142-0.137
				c-0.001-0.078,0.061-0.142,0.137-0.143L50.605,48.819L50.605,48.819z M49.485,48.834c0.077-0.002,0.141,0.061,0.142,0.138
				c0.001,0.077-0.061,0.14-0.138,0.142l-0.28,0.004c-0.078,0.001-0.141-0.061-0.142-0.138s0.061-0.142,0.138-0.143L49.485,48.834
				L49.485,48.834z M48.365,48.85c0.077-0.002,0.141,0.061,0.142,0.137c0,0.078-0.062,0.141-0.139,0.143l-0.28,0.004
				c-0.077,0-0.14-0.061-0.142-0.139s0.061-0.141,0.138-0.143L48.365,48.85L48.365,48.85z M47.244,48.864
				c0.078-0.001,0.141,0.061,0.142,0.139c0.002,0.077-0.061,0.141-0.139,0.141l-0.279,0.005c-0.079,0.001-0.141-0.061-0.142-0.138
				c-0.002-0.078,0.06-0.143,0.137-0.143L47.244,48.864L47.244,48.864z M46.124,48.878c0.077-0.001,0.14,0.062,0.142,0.14
				c0.001,0.076-0.061,0.141-0.139,0.141l-0.279,0.004c-0.078,0.002-0.142-0.061-0.142-0.139c-0.001-0.077,0.061-0.141,0.138-0.141
				L46.124,48.878L46.124,48.878z M45.004,48.893c0.077-0.001,0.14,0.063,0.141,0.139c0.002,0.077-0.061,0.142-0.138,0.143
				l-0.279,0.004c-0.078,0.001-0.142-0.061-0.143-0.139c0-0.078,0.061-0.141,0.138-0.142L45.004,48.893L45.004,48.893z
				 M43.883,48.909c0.078-0.002,0.141,0.062,0.142,0.138c0.001,0.078-0.06,0.142-0.138,0.142l-0.28,0.004
				c-0.077,0.002-0.141-0.06-0.143-0.139c-0.001-0.076,0.061-0.14,0.139-0.141L43.883,48.909L43.883,48.909z M42.762,48.923
				c0.078-0.001,0.141,0.061,0.143,0.139c0.001,0.077-0.061,0.142-0.138,0.142l-0.28,0.003c-0.077,0.001-0.142-0.06-0.143-0.138
				c0-0.077,0.062-0.14,0.139-0.141L42.762,48.923L42.762,48.923z M41.642,48.938c0.078,0,0.141,0.061,0.142,0.139
				c0.001,0.077-0.06,0.141-0.138,0.143l-0.28,0.002c-0.077,0.002-0.141-0.061-0.142-0.137c-0.001-0.078,0.062-0.141,0.139-0.141
				L41.642,48.938L41.642,48.938z M40.521,48.954c0.078,0,0.142,0.061,0.143,0.138c0,0.077-0.061,0.141-0.138,0.144l-0.28,0.002
				c-0.077,0.002-0.141-0.061-0.143-0.137c0-0.078,0.062-0.141,0.139-0.143L40.521,48.954L40.521,48.954z M39.401,48.969
				c0.078-0.001,0.142,0.06,0.142,0.137c0.001,0.078-0.061,0.141-0.138,0.143l-0.281,0.004c-0.078,0-0.14-0.062-0.142-0.139
				c-0.001-0.076,0.061-0.141,0.139-0.143L39.401,48.969L39.401,48.969z M38.281,48.985c0.079-0.002,0.142,0.059,0.143,0.137
				c0,0.078-0.061,0.141-0.138,0.143l-0.281,0.004c-0.078,0-0.14-0.063-0.142-0.139c-0.001-0.078,0.061-0.141,0.137-0.143
				L38.281,48.985L38.281,48.985z M37.161,48.999c0.078,0,0.141,0.061,0.142,0.139c0.001,0.077-0.061,0.141-0.138,0.141
				l-0.281,0.005c-0.078,0.001-0.14-0.062-0.141-0.139c-0.001-0.077,0.061-0.142,0.137-0.143L37.161,48.999L37.161,48.999z
				 M36.041,49.014c0.077-0.002,0.141,0.061,0.142,0.138s-0.061,0.14-0.138,0.142l-0.28,0.004c-0.077,0-0.14-0.061-0.141-0.139
				c-0.001-0.076,0.06-0.141,0.138-0.143L36.041,49.014L36.041,49.014z M34.921,49.028c0.077-0.002,0.141,0.063,0.142,0.14
				c0.001,0.077-0.062,0.14-0.139,0.141l-0.279,0.005c-0.078,0-0.142-0.063-0.142-0.139c-0.001-0.077,0.06-0.142,0.137-0.143
				L34.921,49.028L34.921,49.028z M33.8,49.043c0.077-0.002,0.141,0.062,0.142,0.138c0.001,0.077-0.061,0.142-0.139,0.142
				l-0.278,0.004c-0.079,0.002-0.142-0.06-0.143-0.139c-0.001-0.076,0.061-0.141,0.138-0.141L33.8,49.043L33.8,49.043z
				 M32.68,49.058c0.077-0.001,0.141,0.061,0.142,0.138c0.001,0.078-0.061,0.142-0.139,0.143l-0.279,0.004
				c-0.078,0.002-0.142-0.061-0.142-0.139c-0.001-0.077,0.061-0.141,0.138-0.141L32.68,49.058z"/>
			<path fill-rule="evenodd" clip-rule="evenodd" fill="#58595B" d="M38.956,34.985c-0.038-2.831,0.644-5.718,2.121-8.148
				c1.335-2.198,3.336-4.011,5.845-4.727c0.707-0.201,1.435-0.309,2.17-0.319c0.733-0.01,1.465,0.078,2.176,0.261
				c2.528,0.648,4.576,2.407,5.97,4.568c1.542,2.39,2.301,5.259,2.338,8.09s-0.645,5.719-2.122,8.149
				c-1.335,2.198-3.336,4.011-5.845,4.727c-0.707,0.201-1.434,0.309-2.168,0.318c-0.734,0.01-1.466-0.078-2.177-0.261
				c-2.529-0.647-4.576-2.407-5.97-4.569C39.752,40.685,38.994,37.817,38.956,34.985z"/>
			<path fill-rule="evenodd" clip-rule="evenodd" fill="#9FBECF" d="M49.417,46.19c4.734-0.063,8.526-5.211,8.443-11.457
				c-0.083-6.247-4.012-11.289-8.746-11.226c-4.733,0.063-8.526,5.208-8.443,11.455C40.754,41.209,44.683,46.252,49.417,46.19z"/>
			<path fill-rule="evenodd" clip-rule="evenodd" fill="#AED2E2" d="M54.367,25.781c-1.469-1.449-3.292-2.301-5.253-2.274
				c-4.733,0.063-8.526,5.208-8.443,11.455c0.03,2.232,0.55,4.309,1.423,6.056c1.469,1.449,3.292,2.301,5.253,2.274
				c4.733-0.063,8.526-5.209,8.443-11.456C55.76,29.605,55.239,27.527,54.367,25.781z"/>
			<path fill-rule="evenodd" clip-rule="evenodd" fill="#E4732B" d="M49.71,52.532c-2.854,12.992-0.774,20.686,0.458,34.254
				C51.036,73.19,52.91,65.445,49.71,52.532z"/>
			<path fill-rule="evenodd" clip-rule="evenodd" fill="#C76428" d="M50.168,86.786c0.868-13.596,2.742-21.341-0.458-34.254
				L50.168,86.786z"/>
			<path fill-rule="evenodd" clip-rule="evenodd" fill="#C5DFED" d="M44.691,34.58c1.623,0.474,3.457-0.886,4.083-3.027
				c0.626-2.142-0.187-4.275-1.81-4.75c-1.623-0.475-3.457,0.885-4.083,3.026C42.255,31.972,43.069,34.106,44.691,34.58z"/>
			<circle fill-rule="evenodd" clip-rule="evenodd" fill="#929497" cx="48.955" cy="22.769" r="0.56"/>
			<circle fill-rule="evenodd" clip-rule="evenodd" fill="#929497" cx="40.829" cy="29.198" r="0.56"/>
			<circle fill-rule="evenodd" clip-rule="evenodd" fill="#929497" cx="57.6" cy="28.974" r="0.56"/>
			<circle fill-rule="evenodd" clip-rule="evenodd" fill="#929497" cx="49.429" cy="47.119" r="0.56"/>
			<circle fill-rule="evenodd" clip-rule="evenodd" fill="#929497" cx="41.108" cy="40.909" r="0.561"/>
			<circle fill-rule="evenodd" clip-rule="evenodd" fill="#929497" cx="57.577" cy="40.689" r="0.56"/>
		</g>
	</g>
</g>
</svg>
