<?xml version="1.0" encoding="utf-8"?>
<!-- Generator: Adobe Illustrator 16.0.0, SVG Export Plug-In . SVG Version: 6.00 Build 0)  -->
<!DOCTYPE svg PUBLIC "-//W3C//DTD SVG 1.1//EN" "http://www.w3.org/Graphics/SVG/1.1/DTD/svg11.dtd">
<svg version="1.1" xmlns="http://www.w3.org/2000/svg" xmlns:xlink="http://www.w3.org/1999/xlink" x="0px" y="0px"
	 width="370.481px" height="364.482px" viewBox="0 0 370.481 364.482" enable-background="new 0 0 370.481 364.482"
	 xml:space="preserve">
<g id="background">
</g>
<g id="object">
	<g>
		<g>
			<g>
				<g>
					<g>
						<g>
							<g>
								<g>
									<circle fill="#DDD137" cx="184.532" cy="182.591" r="173.01"/>
								</g>
							</g>
							<g opacity="0.08">
								<g>
									<path d="M266.681,30.111c18.7,25.897,30.458,57.271,32.37,91.53c5.323,95.403-67.701,177.059-163.104,182.382
										c-33.133,1.848-64.604-5.761-91.8-20.468c33.375,46.216,88.87,74.985,150.012,71.573
										c95.401-5.323,168.426-86.979,163.104-182.381C353.789,110.478,317.791,57.75,266.681,30.111z"/>
								</g>
							</g>
							<g opacity="0.2">
								<g>
									<path fill="#FFFFFF" d="M36.284,209.144C31.343,120.567,99.14,44.756,187.716,39.814
										c51.773-2.89,99.179,19.082,130.625,55.52c-30.377-46.532-84.089-76.003-143.558-72.686
										c-88.575,4.943-156.374,80.755-151.431,169.33c2.053,36.803,16.35,70.01,38.703,95.911
										C47.187,265.114,37.909,238.25,36.284,209.144z"/>
								</g>
							</g>
						</g>
						<g>
							<g>
								<path fill="#292949" d="M113.084,222.037c6.219,36.639,39.093,63.554,77.076,61.434
									c37.985-2.119,67.66-32.523,69.765-69.627L113.084,222.037z"/>
							</g>
							<g>
								<path fill="#D67086" d="M138.318,266.119c13.932,11.765,32.197,18.448,51.842,17.353c18.798-1.05,35.555-9.033,47.948-21.32
									l-0.768-1.551C186.694,239.31,138.972,265.754,138.318,266.119z"/>
							</g>
						</g>
					</g>
					<g>
						<g>
							<path fill="#292949" d="M225.855,151.721c4.207-12.493,15.432-21.04,28.591-21.775c12.878-0.718,24.877,6.303,30.563,17.884
								c1.089,2.218,0.475,4.824-1.489,6.336c-1.965,1.514-4.643,1.44-6.512-0.18c-10.102-8.76-25.672-15.373-42.474,2.875
								c-0.947,1.031-2.209,1.602-3.51,1.674c-0.991,0.055-2.003-0.181-2.918-0.722
								C225.992,156.559,225.065,154.054,225.855,151.721z"/>
						</g>
						<g>
							<path fill="#292949" d="M77.443,160.001c4.208-12.492,15.431-21.04,28.591-21.773c12.88-0.719,24.876,6.301,30.561,17.881
								c1.092,2.216,0.481,4.822-1.482,6.337c-1.964,1.517-4.646,1.442-6.517-0.179c-10.102-8.76-25.669-15.374-42.472,2.874
								c-0.948,1.03-2.209,1.602-3.509,1.674c-0.992,0.056-2.004-0.179-2.919-0.722C77.581,164.84,76.656,162.335,77.443,160.001z"
								/>
						</g>
					</g>
				</g>
				<g>
					<circle fill="#D9EA78" cx="85.535" cy="210.512" r="30.206"/>
				</g>
				<g>
					<path fill="#D9EA78" d="M321.988,202.748c0.93,16.657-11.816,30.914-28.473,31.842c-16.659,0.93-30.914-11.819-31.844-28.476
						c-0.93-16.656,11.82-30.912,28.476-31.842C306.804,173.342,321.063,186.091,321.988,202.748z"/>
				</g>
			</g>
		</g>
	</g>
</g>
</svg>
