<?xml version="1.0" encoding="utf-8"?>
<!-- Generator: Adobe Illustrator 16.0.0, SVG Export Plug-In . SVG Version: 6.00 Build 0)  -->
<!DOCTYPE svg PUBLIC "-//W3C//DTD SVG 1.1//EN" "http://www.w3.org/Graphics/SVG/1.1/DTD/svg11.dtd">
<svg version="1.1" xmlns="http://www.w3.org/2000/svg" xmlns:xlink="http://www.w3.org/1999/xlink" x="0px" y="0px"
	 width="370.481px" height="364.482px" viewBox="0 0 370.481 364.482" enable-background="new 0 0 370.481 364.482"
	 xml:space="preserve">
<g id="background">
</g>
<g id="object">
	<g>
		<g>
			<g>
				<g>
					<g>
						<g>
							<g>
								<g>
									<g>
										<circle fill="#020202" cx="184.532" cy="182.591" r="173.01"/>
										<path fill="#020202" d="M184.379,356.107c-91.933,0-167.963-71.972-173.088-163.85
											c-2.583-46.274,13.01-90.785,43.905-125.332c30.896-34.547,73.395-54.995,119.669-57.577
											c3.262-0.182,6.567-0.274,9.822-0.274c91.931,0,167.959,71.971,173.085,163.85
											c5.33,95.524-68.049,177.576-163.574,182.908C190.937,356.014,187.634,356.107,184.379,356.107z M184.687,10.075
											c-3.236,0-6.522,0.092-9.766,0.272c-46.008,2.567-88.262,22.897-118.979,57.245
											c-30.717,34.348-46.22,78.602-43.653,124.609c5.096,91.349,80.688,162.905,172.09,162.905
											c3.236,0,6.521-0.092,9.763-0.272c94.975-5.302,167.931-86.881,162.632-181.854
											C351.677,81.631,276.087,10.075,184.687,10.075z"/>
									</g>
								</g>
							</g>
							<g opacity="0.08">
								<g>
									<g>
										<path fill="#020202" d="M266.681,30.111c18.7,25.897,30.458,57.271,32.37,91.53
											c5.323,95.403-67.701,177.059-163.104,182.382c-33.133,1.848-64.604-5.761-91.8-20.468
											c33.375,46.216,88.87,74.985,150.012,71.573c95.401-5.323,168.426-86.979,163.104-182.381
											C353.789,110.478,317.791,57.75,266.681,30.111z"/>
										<path fill="#020202" d="M184.372,355.902c-0.002,0-0.004,0-0.007,0c-55.474-0.002-108.043-26.938-140.624-72.054
											l-1.28-1.772l1.923,1.04c27.86,15.065,59.781,22.181,91.534,20.408c46.008-2.567,88.262-22.897,118.979-57.245
											c30.717-34.348,46.221-78.602,43.653-124.61c-1.843-33.018-13.004-64.577-32.276-91.266l-1.28-1.772l1.923,1.04
											c25.613,13.851,47.514,34.08,63.336,58.5c16.314,25.18,25.826,54.416,27.507,84.549
											c5.329,95.526-68.05,177.578-163.575,182.908C190.925,355.81,187.623,355.902,184.372,355.902z M45.841,285.024
											c32.48,43.793,84.098,69.876,138.524,69.878c0.002,0,0.004,0,0.006,0c3.232,0,6.516-0.092,9.759-0.272
											c94.974-5.3,167.93-86.879,162.632-181.854c-3.323-59.566-36.317-112.178-88.408-141.175
											c18.605,26.462,29.381,57.536,31.194,90.013c2.582,46.274-13.011,90.785-43.906,125.332
											c-30.895,34.547-73.395,54.995-119.669,57.577C104.769,306.264,73.401,299.474,45.841,285.024z"/>
									</g>
								</g>
							</g>
							<g opacity="0.2">
								<g>
									<g>
										<path fill="#020202" d="M36.284,209.144C31.343,120.567,99.14,44.756,187.716,39.814
											c51.773-2.89,99.179,19.082,130.625,55.52c-30.377-46.532-84.089-76.003-143.558-72.686
											c-88.575,4.943-156.374,80.755-151.431,169.33c2.053,36.803,16.35,70.01,38.703,95.911
											C47.187,265.114,37.909,238.25,36.284,209.144z"/>
										<path fill="#020202" d="M61.676,288.216c-23.4-27.114-36.825-60.383-38.823-96.21
											C17.902,103.297,86.046,27.099,174.755,22.149c3.028-0.169,6.097-0.255,9.119-0.255
											c54.553,0,104.977,27.352,134.886,73.166l-0.798,0.6c-30.494-35.334-74.653-55.6-121.155-55.6
											c-3.004,0-6.053,0.085-9.063,0.253c-88.158,4.919-155.878,80.644-150.96,168.803c1.563,28.004,10.447,55.149,25.69,78.5
											L61.676,288.216z M183.874,22.894c-3.003,0-6.053,0.085-9.063,0.253c-88.159,4.92-155.879,80.645-150.96,168.803
											c1.848,33.125,13.525,64.05,33.869,89.896c-12.945-22.015-20.501-46.985-21.935-72.674
											c-4.949-88.71,63.194-164.907,151.903-169.857c3.029-0.169,6.097-0.255,9.119-0.255
											c44.305,0,86.495,18.279,116.902,50.403C283.598,47.643,235.603,22.894,183.874,22.894z"/>
									</g>
								</g>
							</g>
						</g>
						<g>
							<g>
								<g>
									<path fill="#020202" d="M113.084,222.037c6.219,36.639,39.093,63.554,77.076,61.434
										c37.985-2.119,67.66-32.523,69.765-69.627L113.084,222.037z"/>
									<path fill="#020202" d="M185.973,284.087c-0.001,0-0.002,0-0.003,0c-36.425-0.001-67.285-26.063-73.379-61.967
										l-0.093-0.552l0.559-0.031l147.399-8.225l-0.032,0.559c-2.146,37.848-32.341,67.983-70.236,70.098
										C188.787,284.047,187.369,284.087,185.973,284.087z M113.673,222.504c6.232,35.138,36.548,60.582,72.297,60.583
										c0.001,0,0.002,0,0.003,0c1.377,0,2.777-0.039,4.159-0.116c37.199-2.075,66.877-31.521,69.259-68.598L113.673,222.504z"/>
								</g>
							</g>
							<g>
								<g>
									<path fill="#020202" d="M138.318,266.119c13.932,11.765,32.197,18.448,51.842,17.353
										c18.798-1.05,35.555-9.033,47.948-21.32l-0.768-1.551C186.694,239.31,138.972,265.754,138.318,266.119z"/>
									<path fill="#020202" d="M185.985,284.088c-0.001,0-0.001,0-0.002,0c-17.516,0-34.558-6.246-47.987-17.587l-0.552-0.466
										l0.631-0.352c1.014-0.566,25.201-13.862,57.5-13.862c14.71,0,28.827,2.799,41.959,8.32l0.171,0.072l1.011,2.041
										l-0.256,0.254c-12.936,12.826-30.08,20.449-48.272,21.464C188.792,284.049,187.377,284.088,185.985,284.088z
										 M139.205,266.208c13.161,10.89,29.743,16.88,46.778,16.88c0,0,0.001,0,0.002,0c1.374,0,2.77-0.039,4.147-0.115
										c17.828-0.996,34.635-8.424,47.367-20.923l-0.525-1.06c-12.96-5.421-26.889-8.17-41.4-8.17
										C166.022,252.82,143.339,264.027,139.205,266.208z"/>
								</g>
							</g>
						</g>
					</g>
					<g>
						<g>
							<g>
								<path fill="#020202" d="M225.855,151.721c4.207-12.493,15.432-21.04,28.591-21.775c12.878-0.718,24.877,6.303,30.563,17.884
									c1.089,2.218,0.475,4.824-1.489,6.336c-1.965,1.514-4.643,1.44-6.512-0.18c-10.102-8.76-25.672-15.373-42.474,2.875
									c-0.947,1.031-2.209,1.602-3.51,1.674c-0.991,0.055-2.003-0.181-2.918-0.722
									C225.992,156.559,225.065,154.054,225.855,151.721z"/>
								<path fill="#020202" d="M230.745,159.042c-1.008,0-2.009-0.276-2.892-0.799c-2.321-1.376-3.337-4.124-2.472-6.683
									c4.272-12.687,15.669-21.368,29.037-22.114c13.213-0.737,25.256,6.382,31.04,18.163c1.195,2.434,0.523,5.292-1.632,6.952
									c-2.099,1.616-5.149,1.531-7.145-0.198c-6.592-5.717-13.279-8.616-19.873-8.616c-7.539,0-14.909,3.853-21.906,11.452
									c-1.012,1.101-2.379,1.753-3.85,1.834C230.951,159.04,230.848,159.042,230.745,159.042z M256.249,130.396
									c-0.589,0-1.181,0.017-1.775,0.049c-12.957,0.724-24.004,9.138-28.146,21.436c-0.713,2.107,0.124,4.37,2.034,5.502
									c0.804,0.476,1.73,0.702,2.636,0.653c1.208-0.067,2.334-0.605,3.169-1.514c7.194-7.813,14.812-11.774,22.642-11.774
									c6.841,0,13.748,2.981,20.528,8.86c1.646,1.426,4.148,1.496,5.879,0.162c1.774-1.366,2.328-3.718,1.345-5.72
									C279.214,137.161,268.366,130.396,256.249,130.396z"/>
							</g>
						</g>
						<g>
							<g>
								<path fill="#020202" d="M77.443,160.001c4.208-12.492,15.431-21.04,28.591-21.773c12.88-0.719,24.876,6.301,30.561,17.881
									c1.092,2.216,0.481,4.822-1.482,6.337c-1.964,1.517-4.646,1.442-6.517-0.179c-10.102-8.76-25.669-15.374-42.472,2.874
									c-0.948,1.03-2.209,1.602-3.509,1.674c-0.992,0.056-2.004-0.179-2.919-0.722C77.581,164.84,76.656,162.335,77.443,160.001z"
									/>
								<path fill="#020202" d="M82.331,167.323c-1.008,0-2.007-0.276-2.889-0.799c-2.319-1.374-3.335-4.122-2.472-6.682
									c4.274-12.688,15.671-21.368,29.037-22.113c13.19-0.748,25.254,6.379,31.037,18.16c1.198,2.431,0.53,5.291-1.626,6.953
									c-2.096,1.618-5.151,1.534-7.149-0.197c-6.593-5.718-13.279-8.617-19.872-8.617c-7.538,0-14.907,3.853-21.904,11.452
									c-1.013,1.101-2.38,1.752-3.849,1.834C82.539,167.32,82.435,167.323,82.331,167.323z M107.841,138.678
									c-0.59,0-1.185,0.016-1.779,0.049c-12.955,0.722-24.002,9.135-28.145,21.434c-0.711,2.108,0.125,4.371,2.034,5.502
									c0.803,0.476,1.724,0.7,2.636,0.653c1.207-0.067,2.333-0.604,3.169-1.513c7.194-7.813,14.811-11.774,22.64-11.774
									c6.841,0,13.747,2.981,20.527,8.861c1.647,1.428,4.155,1.497,5.883,0.161c1.774-1.369,2.325-3.721,1.339-5.72
									C130.801,145.441,119.955,138.678,107.841,138.678z"/>
							</g>
						</g>
					</g>
				</g>
				<g>
					<g>
						<circle fill="#020202" cx="85.535" cy="210.512" r="30.206"/>
						<path fill="#020202" d="M85.508,241.22c-16.27,0-29.725-12.737-30.631-28.997c-0.458-8.189,2.301-16.066,7.769-22.18
							s12.988-9.732,21.178-10.188c17.012-0.952,31.43,12.111,32.37,28.946c0.943,16.906-12.043,31.427-28.948,32.37
							C86.664,241.204,86.084,241.22,85.508,241.22z M85.562,180.806c-0.557,0-1.12,0.016-1.683,0.047
							c-7.922,0.442-15.199,3.942-20.488,9.857s-7.958,13.535-7.516,21.458c0.908,16.287,14.85,28.921,31.314,28.005
							c16.354-0.913,28.917-14.961,28.005-31.316C114.317,193.127,101.3,180.806,85.562,180.806z"/>
					</g>
				</g>
				<g>
					<g>
						<path fill="#020202" d="M321.988,202.748c0.93,16.657-11.816,30.914-28.473,31.842c-16.659,0.93-30.914-11.819-31.844-28.476
							c-0.93-16.656,11.82-30.912,28.476-31.842C306.804,173.342,321.063,186.091,321.988,202.748z"/>
						<path fill="#020202" d="M291.805,235.137c-16.27,0-29.725-12.737-30.632-28.996c-0.944-16.904,12.042-31.425,28.947-32.369
							c17.021-0.961,31.432,12.113,32.367,28.948c0.457,8.189-2.302,16.066-7.768,22.18c-5.467,6.114-12.987,9.732-21.176,10.188
							C292.962,235.121,292.381,235.137,291.805,235.137z M291.856,174.723c-0.557,0-1.118,0.016-1.681,0.047
							c-16.354,0.914-28.917,14.962-28.005,31.315c0.909,16.287,14.837,28.913,31.317,28.005c7.922-0.442,15.198-3.942,20.486-9.857
							c5.289-5.915,7.958-13.535,7.516-21.458C320.615,187.045,307.599,174.723,291.856,174.723z"/>
					</g>
				</g>
			</g>
		</g>
	</g>
</g>
</svg>
