<?xml version="1.0" encoding="utf-8"?>
<!-- Generator: Adobe Illustrator 16.0.0, SVG Export Plug-In . SVG Version: 6.00 Build 0)  -->
<!DOCTYPE svg PUBLIC "-//W3C//DTD SVG 1.1//EN" "http://www.w3.org/Graphics/SVG/1.1/DTD/svg11.dtd">
<svg version="1.1" xmlns="http://www.w3.org/2000/svg" xmlns:xlink="http://www.w3.org/1999/xlink" x="0px" y="0px" width="300.5px"
	 height="800px" viewBox="0 0 300.5 800" enable-background="new 0 0 300.5 800" xml:space="preserve">
<g id="Background" display="none">
	<g display="inline">
		<radialGradient id="SVGID_1_" cx="400" cy="400" r="400.2954" gradientUnits="userSpaceOnUse">
			<stop  offset="0" style="stop-color:#FFFFFF"/>
			<stop  offset="0.1539" style="stop-color:#F6F6F6"/>
			<stop  offset="0.6838" style="stop-color:#DCDDDD"/>
			<stop  offset="1" style="stop-color:#D2D4D4"/>
		</radialGradient>
		<rect x="-0.394" y="-0.197" fill="url(#SVGID_1_)" width="800.787" height="800.395"/>
		<g>
			<path fill="#999999" d="M400.311,767.28h0.715v-0.902c0-0.941,0.117-1.688,0.355-2.244c0.234-0.555,0.642-0.956,1.21-1.21
				c0.569-0.25,1.352-0.378,2.339-0.378c1.76,0,2.629,0.425,2.629,1.292c0,0.272-0.092,0.518-0.276,0.711
				c-0.178,0.199-0.397,0.297-0.646,0.297c-0.115,0-0.322-0.02-0.613-0.066c-0.271-0.042-0.523-0.07-0.719-0.07
				c-0.542,0-0.887,0.162-1.048,0.484c-0.147,0.313-0.228,0.769-0.228,1.371v0.716h0.733c1.146,0,1.714,0.34,1.714,1.036
				c0,0.484-0.146,0.797-0.453,0.934c-0.302,0.13-0.723,0.197-1.261,0.197h-0.733v7.954c0,0.594-0.137,1.041-0.43,1.35
				c-0.275,0.318-0.64,0.472-1.09,0.472c-0.425,0-0.774-0.153-1.063-0.472c-0.28-0.309-0.422-0.756-0.422-1.35v-7.954h-0.826
				c-0.451,0-0.791-0.099-1.037-0.303c-0.242-0.196-0.358-0.463-0.358-0.792C398.804,767.638,399.303,767.28,400.311,767.28
				L400.311,767.28z"/>
			<path fill="#999999" d="M410.14,774.892v2.51c0,0.608-0.155,1.062-0.435,1.366c-0.285,0.307-0.645,0.455-1.084,0.455
				c-0.443,0-0.794-0.148-1.071-0.465c-0.273-0.302-0.417-0.755-0.417-1.356v-8.361c0-1.35,0.485-2.029,1.463-2.029
				c0.5,0,0.855,0.159,1.078,0.471c0.215,0.323,0.339,0.788,0.366,1.401c0.358-0.613,0.724-1.078,1.1-1.401
				c0.381-0.312,0.884-0.471,1.517-0.471c0.635,0,1.24,0.159,1.835,0.471c0.596,0.323,0.892,0.744,0.892,1.258
				c0,0.368-0.131,0.673-0.376,0.908c-0.259,0.239-0.529,0.36-0.818,0.36c-0.118,0-0.386-0.071-0.803-0.207
				c-0.423-0.133-0.794-0.199-1.114-0.199c-0.441,0-0.8,0.113-1.075,0.344c-0.283,0.231-0.502,0.576-0.657,1.029
				c-0.15,0.455-0.251,0.998-0.314,1.621C410.164,773.228,410.14,773.989,410.14,774.892L410.14,774.892z"/>
			<path fill="#999999" d="M423.945,773.855h-5.874c0.009,0.686,0.14,1.292,0.409,1.806c0.27,0.52,0.625,0.912,1.069,1.178
				c0.446,0.268,0.933,0.397,1.468,0.397c0.36,0,0.688-0.043,0.987-0.13c0.29-0.081,0.582-0.216,0.86-0.397
				c0.28-0.18,0.535-0.368,0.768-0.577c0.236-0.203,0.542-0.482,0.914-0.836c0.159-0.13,0.377-0.198,0.658-0.198
				c0.313,0,0.562,0.085,0.756,0.257c0.191,0.169,0.281,0.404,0.281,0.716c0,0.271-0.104,0.585-0.313,0.952
				c-0.217,0.364-0.535,0.704-0.965,1.042c-0.436,0.332-0.973,0.615-1.621,0.835c-0.648,0.218-1.395,0.323-2.237,0.323
				c-1.935,0-3.433-0.543-4.499-1.646c-1.068-1.103-1.608-2.594-1.608-4.475c0-0.885,0.134-1.714,0.4-2.473
				c0.259-0.768,0.647-1.407,1.155-1.958c0.505-0.537,1.125-0.956,1.867-1.245c0.741-0.287,1.564-0.432,2.466-0.432
				c1.171,0,2.176,0.245,3.021,0.742c0.832,0.497,1.47,1.134,1.881,1.918c0.419,0.784,0.628,1.587,0.628,2.404
				c0,0.748-0.219,1.237-0.651,1.462C425.335,773.745,424.73,773.855,423.945,773.855L423.945,773.855z M418.071,772.151h5.444
				c-0.076-1.023-0.35-1.794-0.83-2.305c-0.483-0.505-1.111-0.758-1.9-0.758c-0.748,0-1.361,0.253-1.841,0.767
				C418.463,770.379,418.17,771.143,418.071,772.151L418.071,772.151z"/>
			<path fill="#999999" d="M436.434,773.855h-5.873c0.005,0.686,0.146,1.292,0.408,1.806c0.266,0.52,0.628,0.912,1.068,1.178
				c0.443,0.268,0.933,0.397,1.472,0.397c0.356,0,0.687-0.043,0.979-0.13c0.299-0.081,0.586-0.216,0.865-0.397
				c0.281-0.18,0.537-0.368,0.771-0.577c0.231-0.203,0.542-0.482,0.913-0.836c0.157-0.13,0.378-0.198,0.66-0.198
				c0.311,0,0.56,0.085,0.754,0.257c0.188,0.169,0.275,0.404,0.275,0.716c0,0.271-0.104,0.585-0.316,0.952
				c-0.202,0.364-0.527,0.704-0.961,1.042c-0.428,0.332-0.969,0.615-1.614,0.835c-0.646,0.218-1.399,0.323-2.241,0.323
				c-1.932,0-3.426-0.543-4.503-1.646c-1.066-1.103-1.604-2.594-1.604-4.475c0-0.885,0.133-1.714,0.4-2.473
				c0.262-0.768,0.646-1.407,1.154-1.958c0.502-0.537,1.127-0.956,1.869-1.245c0.74-0.287,1.562-0.432,2.465-0.432
				c1.168,0,2.175,0.245,3.027,0.742c0.835,0.497,1.465,1.134,1.877,1.918c0.414,0.784,0.629,1.587,0.629,2.404
				c0,0.748-0.219,1.237-0.647,1.462C437.826,773.745,437.22,773.855,436.434,773.855L436.434,773.855z M430.561,772.151h5.444
				c-0.075-1.023-0.354-1.794-0.831-2.305c-0.485-0.505-1.11-0.758-1.9-0.758c-0.745,0-1.358,0.253-1.844,0.767
				C430.953,770.379,430.66,771.143,430.561,772.151L430.561,772.151z"/>
			<path fill="#999999" d="M443.011,768.702v0.357c0.565-0.69,1.155-1.201,1.769-1.535c0.596-0.321,1.291-0.491,2.059-0.491
				c0.924,0,1.781,0.24,2.558,0.718c0.78,0.482,1.387,1.173,1.838,2.095c0.452,0.916,0.681,1.999,0.681,3.256
				c0,0.92-0.129,1.768-0.387,2.548c-0.262,0.772-0.625,1.421-1.076,1.941c-0.455,0.521-0.99,0.933-1.611,1.211
				c-0.625,0.283-1.285,0.421-2.002,0.421c-0.854,0-1.577-0.169-2.154-0.518c-0.585-0.335-1.14-0.85-1.673-1.512v4.51
				c0,1.316-0.485,1.978-1.438,1.978c-0.568,0-0.936-0.169-1.125-0.507c-0.179-0.347-0.271-0.838-0.271-1.494v-12.962
				c0-0.57,0.123-0.997,0.371-1.282c0.249-0.274,0.592-0.425,1.025-0.425c0.426,0,0.771,0.15,1.035,0.435
				C442.883,767.741,443.011,768.152,443.011,768.702L443.011,768.702z M448.898,773.063c0-0.792-0.123-1.471-0.367-2.036
				c-0.241-0.575-0.576-1.004-1.002-1.313c-0.425-0.303-0.903-0.453-1.428-0.453c-0.824,0-1.522,0.323-2.09,0.978
				c-0.57,0.653-0.855,1.611-0.855,2.883c0,1.19,0.281,2.12,0.848,2.793c0.568,0.658,1.266,0.99,2.098,0.99
				c0.501,0,0.964-0.149,1.389-0.432c0.43-0.293,0.771-0.726,1.023-1.308C448.771,774.589,448.898,773.882,448.898,773.063
				L448.898,773.063z"/>
			<path fill="#999999" d="M454.938,765.613c-0.418,0-0.775-0.131-1.066-0.38c-0.297-0.269-0.451-0.623-0.451-1.089
				c0-0.427,0.154-0.777,0.457-1.052c0.307-0.275,0.661-0.417,1.061-0.417c0.395,0,0.735,0.127,1.037,0.372
				c0.297,0.257,0.451,0.618,0.451,1.097c0,0.46-0.148,0.82-0.436,1.083C455.694,765.482,455.348,765.613,454.938,765.613
				L454.938,765.613z M456.426,768.718v8.684c0,0.602-0.142,1.055-0.431,1.356c-0.289,0.316-0.647,0.465-1.09,0.465
				c-0.444,0-0.79-0.153-1.073-0.472c-0.27-0.317-0.412-0.766-0.412-1.35v-8.601c0-0.584,0.143-1.033,0.412-1.33
				c0.283-0.31,0.629-0.46,1.073-0.46c0.442,0,0.801,0.15,1.09,0.46C456.284,767.768,456.426,768.19,456.426,768.718
				L456.426,768.718z"/>
			<path fill="#999999" d="M466.105,777.855l-2.646-4.362l-1.629,1.54v2.391c0,0.579-0.152,1.019-0.464,1.327
				c-0.293,0.318-0.651,0.472-1.046,0.472c-0.463,0-0.825-0.148-1.09-0.465c-0.263-0.302-0.395-0.755-0.395-1.356v-12.81
				c0-0.666,0.128-1.173,0.379-1.521c0.264-0.353,0.634-0.525,1.105-0.525c0.46,0,0.828,0.157,1.099,0.479
				c0.274,0.311,0.411,0.777,0.411,1.393v7.285l3.375-3.544c0.42-0.438,0.736-0.742,0.96-0.903c0.221-0.158,0.483-0.244,0.798-0.244
				c0.379,0,0.688,0.122,0.945,0.358c0.245,0.24,0.368,0.535,0.368,0.9c0,0.433-0.407,1.028-1.218,1.758l-1.596,1.459l3.077,4.846
				c0.225,0.36,0.392,0.633,0.489,0.819c0.103,0.184,0.15,0.369,0.15,0.535c0,0.479-0.127,0.851-0.395,1.131
				c-0.259,0.27-0.604,0.405-1.022,0.405c-0.366,0-0.651-0.091-0.851-0.295C466.715,778.727,466.441,778.37,466.105,777.855
				L466.105,777.855z"/>
			<path fill="#999999" d="M472.63,779.223c-0.456,0-0.842-0.143-1.174-0.439c-0.327-0.287-0.497-0.702-0.497-1.231
				c0-0.445,0.163-0.832,0.476-1.153c0.317-0.322,0.706-0.479,1.166-0.479s0.859,0.157,1.186,0.472
				c0.325,0.318,0.492,0.71,0.492,1.161c0,0.526-0.167,0.934-0.492,1.226C473.46,779.08,473.067,779.223,472.63,779.223
				L472.63,779.223z"/>
			<path fill="#999999" d="M487.566,775.506c0,0.379-0.11,0.774-0.338,1.198c-0.221,0.431-0.563,0.829-1.028,1.221
				c-0.452,0.383-1.025,0.69-1.727,0.929c-0.698,0.231-1.482,0.354-2.352,0.354c-1.858,0-3.309-0.544-4.351-1.625
				c-1.035-1.086-1.562-2.533-1.562-4.351c0-1.239,0.235-2.323,0.722-3.274c0.473-0.939,1.161-1.674,2.063-2.19
				c0.9-0.522,1.982-0.773,3.231-0.773c0.779,0,1.494,0.115,2.149,0.343c0.647,0.22,1.193,0.521,1.65,0.874
				c0.443,0.366,0.794,0.746,1.027,1.146c0.239,0.413,0.359,0.79,0.359,1.146c0,0.355-0.134,0.663-0.4,0.908
				c-0.273,0.252-0.598,0.38-0.975,0.38c-0.251,0-0.458-0.067-0.624-0.196c-0.167-0.13-0.352-0.334-0.558-0.621
				c-0.363-0.558-0.743-0.978-1.147-1.254c-0.397-0.284-0.906-0.418-1.522-0.418c-0.883,0-1.604,0.345-2.146,1.04
				c-0.542,0.688-0.817,1.648-0.817,2.841c0,0.562,0.079,1.09,0.214,1.559c0.135,0.472,0.34,0.877,0.604,1.211
				c0.268,0.331,0.582,0.583,0.955,0.756c0.377,0.182,0.788,0.267,1.23,0.267c0.608,0,1.121-0.145,1.55-0.425
				c0.438-0.28,0.812-0.703,1.146-1.274c0.179-0.334,0.372-0.601,0.582-0.789c0.214-0.188,0.474-0.289,0.782-0.289
				c0.372,0,0.675,0.144,0.912,0.42C487.442,774.892,487.566,775.196,487.566,775.506L487.566,775.506z"/>
			<path fill="#999999" d="M500.526,773.122c0,0.895-0.146,1.717-0.41,2.474c-0.288,0.756-0.687,1.411-1.22,1.945
				c-0.522,0.547-1.161,0.96-1.886,1.249c-0.744,0.29-1.566,0.433-2.482,0.433c-0.906,0-1.727-0.143-2.45-0.439
				c-0.725-0.287-1.359-0.711-1.888-1.253c-0.534-0.55-0.935-1.198-1.215-1.939c-0.267-0.746-0.406-1.569-0.406-2.469
				c0-0.909,0.146-1.747,0.411-2.501c0.282-0.76,0.683-1.399,1.205-1.932c0.524-0.537,1.147-0.953,1.893-1.244
				c0.741-0.284,1.561-0.435,2.45-0.435c0.911,0,1.736,0.15,2.482,0.439c0.734,0.295,1.366,0.717,1.899,1.252
				c0.529,0.554,0.93,1.193,1.206,1.941C500.387,771.394,500.526,772.218,500.526,773.122L500.526,773.122z M497.508,773.122
				c0-1.225-0.269-2.172-0.805-2.858c-0.542-0.687-1.264-1.028-2.175-1.028c-0.587,0-1.102,0.149-1.548,0.455
				c-0.452,0.307-0.79,0.754-1.034,1.352c-0.242,0.592-0.363,1.285-0.363,2.08c0,0.791,0.114,1.467,0.354,2.055
				c0.246,0.584,0.582,1.039,1.028,1.351c0.448,0.309,0.966,0.468,1.563,0.468c0.911,0,1.633-0.343,2.175-1.031
				C497.239,775.276,497.508,774.329,497.508,773.122L497.508,773.122z"/>
			<path fill="#999999" d="M511.978,773.341v3.994c0,0.632-0.134,1.099-0.424,1.416c-0.291,0.318-0.661,0.472-1.137,0.472
				c-0.451,0-0.824-0.153-1.098-0.472c-0.287-0.317-0.433-0.784-0.433-1.416v-4.786c0-0.757-0.024-1.346-0.071-1.768
				c-0.053-0.406-0.195-0.754-0.42-1.025c-0.229-0.266-0.592-0.402-1.081-0.402c-0.986,0-1.628,0.337-1.938,1.021
				c-0.311,0.667-0.472,1.64-0.472,2.904v4.056c0,0.622-0.146,1.091-0.419,1.413c-0.288,0.321-0.659,0.475-1.118,0.475
				c-0.456,0-0.83-0.153-1.121-0.475c-0.29-0.322-0.435-0.791-0.435-1.413v-8.596c0-0.559,0.131-0.994,0.391-1.289
				c0.265-0.289,0.606-0.439,1.028-0.439c0.413,0,0.756,0.146,1.032,0.415c0.276,0.271,0.407,0.651,0.407,1.139v0.284
				c0.528-0.615,1.085-1.081,1.676-1.37c0.602-0.299,1.249-0.445,1.986-0.445c0.752,0,1.4,0.152,1.94,0.448
				c0.543,0.309,0.989,0.765,1.345,1.367c0.509-0.609,1.051-1.073,1.629-1.37c0.581-0.293,1.224-0.445,1.926-0.445
				c0.819,0,1.534,0.17,2.125,0.487c0.591,0.32,1.033,0.791,1.329,1.379c0.254,0.548,0.38,1.405,0.38,2.572v5.863
				c0,0.632-0.141,1.099-0.427,1.416c-0.278,0.318-0.659,0.472-1.133,0.472c-0.453,0-0.826-0.153-1.113-0.475
				c-0.292-0.322-0.437-0.791-0.437-1.413v-5.055c0-0.646-0.031-1.16-0.081-1.55c-0.055-0.388-0.199-0.714-0.443-0.979
				c-0.245-0.262-0.613-0.398-1.101-0.398c-0.4,0-0.773,0.127-1.132,0.358c-0.354,0.233-0.632,0.552-0.832,0.939
				C512.091,771.165,511.978,772.057,511.978,773.341L511.978,773.341z"/>
			<path fill-rule="evenodd" clip-rule="evenodd" fill="#999999" d="M379.516,780.277c0,0-1.643-0.263-3.242-2.012
				c-1.611-1.769-1.882-3.633-1.882-3.633s2.042,0.481,3.511,0.644c2.587,0.296,4.916,0.132,6.016,0.011
				c2.373-0.265,3.641-0.698,4.154-0.824c3.033-0.733,5.953-2.695,5.953-2.695s0.371,2.279-1.342,4.813
				c-0.672,0.986-2.003,2.117-3.537,2.901C383.885,781.727,379.516,780.277,379.516,780.277L379.516,780.277z"/>
			<path fill-rule="evenodd" clip-rule="evenodd" fill="#999999" d="M391.928,767.31c-0.563-0.683-2.447-3.905-6.252-4.375
				c-0.977-0.117-6.123,0.085-9.213,2.94c-0.303,0.291-1.873,1.666-2.393,4.23c-0.406,1.982,0.256,4.213,0.256,4.213
				s3.428,0.715,6.008,0.648c4.092-0.104,6.152-0.466,8.291-1.111c3.152-0.953,5.385-2.552,5.385-2.552S392.494,768,391.928,767.31
				L391.928,767.31z M380.117,772.218c-1.732,0.109-3.221-1.19-3.328-2.915c-0.105-1.718,1.21-3.209,2.941-3.313
				c1.73-0.12,3.225,1.19,3.325,2.907C383.168,770.621,381.846,772.11,380.117,772.218L380.117,772.218z M388.957,769.997
				c-1.09,0.063-2.023-0.754-2.094-1.839c-0.067-1.081,0.764-2.02,1.85-2.086c1.086-0.073,2.031,0.755,2.098,1.831
				C390.879,768.99,390.045,769.926,388.957,769.997L388.957,769.997z"/>
			<path fill-rule="evenodd" clip-rule="evenodd" fill="#999999" d="M390.447,765.078l0.994-1.194c0,0,1.375,0.683,2.259,1.951
				c0.878,1.269,1.454,2.429,1.454,2.429l-1.644,0.998c0,0-0.513-1.227-1.274-2.208
				C391.475,766.078,390.447,765.078,390.447,765.078L390.447,765.078z"/>
			<path fill-rule="evenodd" clip-rule="evenodd" fill="#999999" d="M393.57,765.909c0.255-0.153,0.689-0.18,0.664-0.542
				c-0.02-0.366-0.264-1.079,0.451-1.323c0.725-0.242,0.316,0.216,0.07,0.529c-0.25,0.316-0.171,0.511-0.14,0.972
				c0.023,0.457-0.297,0.615-0.782,0.844C393.348,766.615,393.307,766.061,393.57,765.909L393.57,765.909z"/>
			<path fill-rule="evenodd" clip-rule="evenodd" fill="#999999" d="M375.324,766.643c0,0-1.148,1.335-1.443,2.543
				c-0.289,1.216-0.232,2.674-0.232,2.674l-1.702-0.588c0,0-0.099-1.675,0.675-3.031c0.861-1.502,1.969-2.175,1.969-2.175
				L375.324,766.643z"/>
			<path fill-rule="evenodd" clip-rule="evenodd" fill="#999999" d="M372.816,768.163c-0.276-0.181-0.305-0.612-0.521-0.894
				c-0.219-0.289-0.275-0.113-0.777-0.113c-0.498,0-0.512-0.239-0.652-0.36c-0.143-0.129-0.209,0.379-0.209,0.379
				s0.09,0.427,0.627,0.457c0.535,0.031,0.518-0.229,0.752,0.249c0.229,0.488,0.686,0.854,0.686,0.854
				S373.099,768.348,372.816,768.163L372.816,768.163z"/>
			<path fill-rule="evenodd" clip-rule="evenodd" fill="#999999" d="M381.865,761.815c2.797-0.703,4.545,0.104,4.545,0.104
				l-0.147,0.804c0,0-2.044-0.136-3.665,0.105c-1.62,0.234-2.358,0.744-2.358,0.744l-0.348-0.802
				C379.892,762.771,380.656,762.118,381.865,761.815L381.865,761.815z"/>
			<polygon fill-rule="evenodd" clip-rule="evenodd" fill="#999999" points="382.701,760.666 383.1,760.521 383.617,761.915 
				383.226,762.064 			"/>
			<path fill-rule="evenodd" clip-rule="evenodd" fill="#999999" d="M395.023,763.256c0.396-0.022,0.731,0.279,0.756,0.67
				c0.029,0.396-0.271,0.731-0.666,0.759c-0.396,0.024-0.738-0.276-0.762-0.664C394.327,763.622,394.626,763.286,395.023,763.256
				L395.023,763.256z"/>
			<path fill-rule="evenodd" clip-rule="evenodd" fill="#999999" d="M370.461,765.962c0.395-0.027,0.734,0.271,0.762,0.665
				c0.023,0.394-0.277,0.726-0.674,0.751c-0.391,0.026-0.73-0.269-0.758-0.663C369.766,766.325,370.068,765.989,370.461,765.962
				L370.461,765.962z"/>
			<path fill-rule="evenodd" clip-rule="evenodd" fill="#999999" d="M383.046,758.884c0.628-0.037,1.171,0.432,1.21,1.062
				c0.035,0.621-0.441,1.162-1.07,1.205c-0.629,0.041-1.168-0.432-1.207-1.062C381.936,759.461,382.417,758.919,383.046,758.884
				L383.046,758.884z"/>
			<path fill="#999999" d="M293.699,777.573c0,0.701-0.442,1.163-1.054,1.163c-0.579,0-0.916-0.313-1.049-0.874
				c-0.394,0.643-1.208,0.958-1.922,0.958c-2.114,0-3.453-1.957-3.453-3.941c0-2.049,1.12-4.158,3.382-4.158
				c0.728,0,1.439,0.254,1.993,0.73v-2.86c0-0.696,0.438-1.158,1.049-1.158c0.611,0,1.054,0.462,1.054,1.158V777.573z
				 M289.951,772.649c-1.092,0-1.634,1.144-1.634,2.135c0,0.977,0.542,2.121,1.634,2.121c1.149,0,1.646-1.168,1.646-2.193
				C291.597,773.695,291.074,772.649,289.951,772.649L289.951,772.649z"/>
			<path fill="#999999" d="M296.58,775.475c0.151,1.029,1.007,1.519,1.99,1.519c1.072,0,1.814-0.844,2.373-0.844
				c0.451,0,0.854,0.446,0.854,0.903c0,0.904-1.859,1.768-3.422,1.768c-2.361,0-3.934-1.714-3.934-4.036
				c0-2.127,1.543-4.063,3.758-4.063c2.273,0,3.774,2.063,3.774,3.82c0,0.625-0.276,0.934-0.917,0.934H296.58z M299.877,774.072
				c-0.113-0.92-0.7-1.6-1.678-1.6c-0.932,0-1.561,0.711-1.66,1.6H299.877z"/>
			<path fill="#999999" d="M307.137,773.173c-0.394,0-1.195-0.619-1.882-0.619c-0.378,0-0.713,0.176-0.713,0.592
				c0,0.974,3.644,0.827,3.644,3.216c0,1.397-1.179,2.459-2.99,2.459c-1.18,0-2.929-0.666-2.929-1.613
				c0-0.316,0.32-0.927,0.903-0.927c0.815,0,1.18,0.713,2.168,0.713c0.645,0,0.835-0.21,0.835-0.603
				c0-0.964-3.643-0.813-3.643-3.218c0-1.457,1.182-2.452,2.843-2.452c1.032,0,2.621,0.482,2.621,1.521
				C307.994,772.717,307.633,773.173,307.137,773.173L307.137,773.173z"/>
			<path fill="#999999" d="M311.128,768.811c0,0.659-0.522,1.213-1.18,1.213c-0.628,0-1.183-0.57-1.183-1.213
				c0-0.594,0.555-1.147,1.183-1.147C310.575,767.663,311.128,768.2,311.128,768.811L311.128,768.811z M308.897,771.979
				c0-0.703,0.437-1.17,1.051-1.17c0.61,0,1.048,0.467,1.048,1.17v5.595c0,0.701-0.438,1.163-1.048,1.163
				c-0.614,0-1.051-0.462-1.051-1.163V771.979z"/>
			<path fill="#999999" d="M319.335,778.039c0,2.521-1.648,3.795-4.038,3.795c-0.858,0-3.31-0.427-3.31-1.578
				c0-0.392,0.438-0.916,0.849-0.916c0.668,0,1.412,0.65,2.622,0.65c1.021,0,1.777-0.592,1.777-1.666v-0.489h-0.031
				c-0.433,0.641-1.151,0.985-2.112,0.985c-2.199,0-3.236-1.93-3.236-4.018c0-2.113,1.338-4.082,3.454-4.082
				c0.718,0,1.53,0.321,1.926,0.963c0.132-0.551,0.466-0.875,1.049-0.875c0.612,0,1.051,0.467,1.051,1.17V778.039z M315.586,772.649
				c-1.09,0-1.627,1.131-1.627,2.108c0,1.127,0.537,2.147,1.627,2.147c1.12,0,1.649-1.055,1.649-2.076
				C317.235,773.814,316.74,772.649,315.586,772.649L315.586,772.649z"/>
			<path fill="#999999" d="M320.526,771.979c0-0.703,0.435-1.17,1.051-1.17c0.539,0,0.891,0.29,0.96,0.779
				c0.411-0.573,1.034-0.867,2.027-0.867c1.648,0,2.87,1.05,2.87,2.825v4.027c0,0.701-0.433,1.163-1.044,1.163
				c-0.61,0-1.055-0.462-1.055-1.163v-3.657c0-0.977-0.607-1.443-1.369-1.443c-0.859,0-1.34,0.629-1.34,1.443v3.657
				c0,0.701-0.439,1.163-1.05,1.163c-0.616,0-1.051-0.462-1.051-1.163V771.979z"/>
			<path fill="#999999" d="M330.322,775.475c0.146,1.029,1.005,1.519,1.982,1.519c1.08,0,1.82-0.844,2.375-0.844
				c0.45,0,0.865,0.446,0.865,0.903c0,0.904-1.871,1.768-3.43,1.768c-2.363,0-3.936-1.714-3.936-4.036
				c0-2.127,1.545-4.063,3.76-4.063c2.273,0,3.772,2.063,3.772,3.82c0,0.625-0.276,0.934-0.917,0.934H330.322z M333.615,774.072
				c-0.114-0.92-0.7-1.6-1.676-1.6c-0.933,0-1.563,0.711-1.662,1.6H333.615z"/>
			<path fill="#999999" d="M343.629,777.573c0,0.701-0.439,1.163-1.052,1.163c-0.581,0-0.913-0.313-1.047-0.874
				c-0.397,0.643-1.212,0.958-1.927,0.958c-2.111,0-3.451-1.957-3.451-3.941c0-2.049,1.121-4.158,3.382-4.158
				c0.728,0,1.442,0.254,1.996,0.73v-2.86c0-0.696,0.435-1.158,1.047-1.158s1.052,0.462,1.052,1.158V777.573z M339.883,772.649
				c-1.092,0-1.633,1.144-1.633,2.135c0,0.977,0.541,2.121,1.633,2.121c1.148,0,1.647-1.168,1.647-2.193
				C341.53,773.695,341.004,772.649,339.883,772.649L339.883,772.649z"/>
			<path fill="#999999" d="M348.728,768.591c0-0.696,0.438-1.158,1.055-1.158c0.614,0,1.046,0.462,1.046,1.158v2.86
				c0.555-0.477,1.268-0.73,1.995-0.73c2.259,0,3.382,2.109,3.382,4.158c0,1.984-1.338,3.941-3.451,3.941
				c-0.72,0-1.532-0.315-1.926-0.958c-0.131,0.562-0.466,0.874-1.046,0.874c-0.616,0-1.055-0.462-1.055-1.163V768.591z
				 M352.475,776.905c1.092,0,1.633-1.145,1.633-2.121c0-0.991-0.541-2.135-1.633-2.135c-1.121,0-1.646,1.046-1.646,2.063
				C350.828,775.737,351.326,776.905,352.475,776.905L352.475,776.905z"/>
			<path fill="#999999" d="M356.57,772.25c-0.06-0.155-0.105-0.318-0.105-0.534c0-0.529,0.557-0.907,0.992-0.907
				c0.51,0,0.876,0.28,1.053,0.739l1.436,3.958l1.553-3.958c0.173-0.459,0.535-0.739,1.046-0.739c0.438,0,0.989,0.378,0.989,0.907
				c0,0.216-0.025,0.379-0.096,0.534L359.92,781c-0.17,0.432-0.494,0.834-0.988,0.834c-0.715,0-1.093-0.456-1.093-0.902
				c0-0.217,0.057-0.426,0.128-0.618l0.917-2.274L356.57,772.25z"/>
		</g>
	</g>
</g>
<g id="Objects">
	<path stroke="#000000" stroke-miterlimit="10" d="M66.101,596.821c0,0,13.666-20.623,26.979-21.697
		c13.314-1.073,11.045-42.876,11.045-42.876s3.995-3.18,16.159-4.371c12.165-1.191,4.876-33.887,4.876-33.887s6.975-6,17.117-6.962
		c10.142-0.963-8.405-214.769-8.405-214.769s-17.375-33.625,5.469-45.027l-43.209,2.898c0,0-14.163,7.907-15.56,12.694
		c-1.396,4.787-10.682,18.894-9.489,57.173c1.193,38.279,13.958,100.912,0.083,167.94C65.307,496.232,48.645,561.975,66.101,596.821
		z"/>
	<g>
		<path stroke="#000000" stroke-width="0.6806" stroke-miterlimit="10" d="M119.371,148.258
			c-4.677,15.225-11.619,53.471-11.619,53.471c9,59.268,40.911,21.093,40.911,21.093s-5.071-68.175-4.965-70.89
			c0.023-0.596,0.216-1.437,0.545-2.448c-8.019-3.009-15.731-6.845-23.062-11.446C120.904,141.578,120.377,144.979,119.371,148.258z
			"/>
		<g>
			<path stroke="#000000" stroke-width="0.6806" stroke-miterlimit="10" d="M142.331,56.967c5.021,1.081,9.675,3.104,14.118,5.549
				c1.059-3.157,2.542-5.224,4.611-6.43c5.102-2.97,9.005-10.068,9.005-10.068l-2.59-3.275l5.6-8.39l0.391-9.955l-21.554-0.847
				L142.331,56.967z"/>
			<path stroke="#000000" stroke-width="0.6806" stroke-miterlimit="10" d="M141.121,148.266c1.037,0.419,2.075,0.828,3.121,1.22
				c1.161-3.598,4.102-9.486,7.905-15.349c4.874-7.515,1.687-32.563,1.956-49.773c0.023-1.48,0.058-2.884,0.102-4.23
				c-0.582,0.958-0.95,2.008-0.994,3.115C151.295,105.251,148.479,127.215,141.121,148.266z"/>
			<path stroke="#000000" stroke-width="0.6806" stroke-miterlimit="10" d="M146.99,58.27c-1.52-0.515-3.068-0.961-4.659-1.303
				l-0.44,1.537c0,0-9.978,12.751-16.731,34.692c-5.299,17.217-2.969,31.941-3.979,44.843c2.353,1.477,4.75,2.865,7.18,4.184
				C129.431,113.156,130.407,83.308,146.99,58.27z"/>
			<path stroke="#000000" stroke-width="0.6806" stroke-miterlimit="10" d="M128.361,142.223c3.044,1.651,6.146,3.178,9.303,4.571
				c2.241-29.346,2.238-59.892,14.759-86.326c-1.77-0.83-3.578-1.572-5.433-2.198C130.407,83.308,129.431,113.156,128.361,142.223z"
				/>
			<path stroke="#000000" stroke-width="0.6806" stroke-miterlimit="10" d="M141.121,148.266
				c7.358-21.05,10.174-43.015,12.089-65.018c0.044-1.107,0.412-2.157,0.994-3.115c0.262-7.964,0.916-13.66,2.244-17.617
				c-1.321-0.727-2.664-1.41-4.026-2.048c-12.521,26.435-12.518,56.98-14.759,86.326
				C138.809,147.301,139.961,147.796,141.121,148.266z"/>
			<path stroke="#000000" stroke-width="0.6806" stroke-miterlimit="10" d="M121.255,124.766l-0.731,18.617
				c0,0,8.97,6.203,23.635,16.737c0,0,0.032-15.095,6.365-23.392C150.523,136.729,124.141,133.49,121.255,124.766z"/>
			<path stroke="#000000" stroke-width="1.3611" stroke-miterlimit="10" d="M143.287,53.638c0,0,11.451-0.004,15.863,3.989
				c0,0-4.218,6.837-4.496,12.709c0,0-10.101-4.115-18.159-3.48L143.287,53.638z"/>
		</g>
		<path opacity="0.2" stroke="#000000" stroke-miterlimit="10" d="M150.704,54.318c0,0-19.269,20.122-18.58,88.053
			c0.689,67.931-3.389,82.821-7.736,92.415c0,0-13.669-1.801-16.636-33.056c0,0,11.619-53.471,12.772-58.346
			c5.609-23.701-5.546-29.92,13.552-72.089l9.211-17.656L150.704,54.318z"/>
	</g>
	<g>
		<path stroke="#000000" stroke-width="0.6806" stroke-miterlimit="10" d="M153.958,602.729
			c3.097,9.283,20.358,78.434,17.351,83.319c-3.007,4.889-11.862,7.904-12.983,10.309s-1.354,6.715,4.366,16.942
			c5.72,10.227,1.562,24.536,2.576,25.497c1.018,0.961,13.113,30.46,13.113,30.46l3.572-3.652l-0.831-21.279l2.833-27.305
			l5.103-138.124c-10.159,9.521-23.123,16.148-35.849,21.348C153.444,601.064,153.676,601.884,153.958,602.729z"/>
		<path stroke="#000000" stroke-width="0.6806" stroke-miterlimit="10" d="M138.269,395.915
			c-1.241,3.98,25.393,152.367,24.642,156.456c-0.584,3.176-1.118,6.748-2.92,9.511c-1.256,1.926-2.807,3.601-4.374,5.242
			c-2.181,4.577-7.373,15.829-2.409,33.121c12.727-5.199,25.69-11.827,35.849-21.348l6.306-170.589c0,0-3.322-5.758-6.944-10.422
			C171.955,372.436,141.082,386.886,138.269,395.915z"/>
		<path stroke="#000000" stroke-width="0.6806" stroke-miterlimit="10" d="M149.373,594.929c0,0,31.107-18.798,42.237-40.887
			l-1.538,39.151l-35.343,14.043L149.373,594.929z"/>
		<path opacity="0.7" stroke="#000000" stroke-miterlimit="10" d="M172.629,467.68c0,0-29.013-13.926-25.148-55.409
			c3.864-41.483,40.812-9.776,43.243-0.644C193.154,420.759,194.802,472.796,172.629,467.68z"/>
	</g>
	<g>
		<path stroke="#000000" stroke-width="0.6806" stroke-miterlimit="10" d="M150.37,219.228l-5.947,0.08l-0.196-0.187
			c-3.256,10.511-8.088,20.26-6.341,31.215c-15.397-1.709-29.859-2.402-45.17-0.439c-2.327,5.417-4.352,10.942-4.714,15.583
			c-0.976,12.476,6.428,18.606,15.114,22.285c8.686,3.679,32.015,30.53,33.662,43.871c2.297,18.609-5.811,52.332-5.811,52.332
			c-1.421,30.255,21.582,43.042,33.777,43.209c12.195,0.167,32.084-14.029,43.135-24.545c11.05-10.515,39.188-24.739,39.188-24.739
			s-8.735,15.299-4.707,24.217c0.094,0.206,0.196,0.464,0.303,0.747c12.506-8.011,24.973-17.404,36.679-26.253l1.139-28.997
			c0,0-8.493-14.726-13.129-16.159c-4.638-1.432-22.314,2.565-25.475,3.379c-3.16,0.814-51.078,18.016-51.078,18.016
			c-1.145-10.682-10.833-34.84-0.253-57.264c4.108-8.708,5.222-15.779,5.054-21.183l-7.495-1.307l-12.972,13.236l-2.615-18.347
			l-16.598-8.248l16.642-8.156l2.715-18.334l12.9,13.306l0.221-0.038l-2.668-11.5L150.37,219.228z"/>
		<path stroke="#000000" stroke-width="0.3038" stroke-miterlimit="10" d="M175.276,233.24l-2.715,18.334l-16.642,8.156
			l16.598,8.248l2.615,18.347l12.972-13.236l7.495,1.307c-0.265-8.509-3.716-12.865-3.716-12.865l-3.485-15.023l-0.221,0.038
			L175.276,233.24z"/>
	</g>
	<path stroke="#000000" stroke-width="0.6806" stroke-linejoin="round" stroke-miterlimit="10" d="M100.531,228.22
		c0.901,3.704-3.887,12.531-7.815,21.677c15.311-1.963,29.773-1.271,45.17,0.439c-1.747-10.955,3.085-20.705,6.341-31.215
		l-15.782-15.145l6.457-21.021l-2.627-4.797l-15.544-2.488l0.171-4.374c0,0-12.146-1.415-14.112-0.555
		c-1.967,0.862-5.169-2.392-5.169-2.392s-5.565-0.339-7.732-1.248c-7.352,7.177-14.218,17.37-9.769,24.649
		c3.504,6.396,9.73,8.806,18.426,10.4c1.638-0.342,2.473-0.819,2.522-2.068c4.586,8.023-14.558,0.912-10.586,14.602
		c2.141,4.003,8.12,3.291,11.246,0.442c-0.146,3.702-1.379,7.357-3.405,10.495C99.515,226.474,100.316,227.347,100.531,228.22z"/>
	<path stroke="#000000" stroke-width="0.6806" stroke-miterlimit="10" d="M261.371,499.528
		c-3.008,4.888-17.298,10.271-19.246,12.071c-1.948,1.802,4.239,3.609,5.658,15.241c1.419,11.631-0.823,20.929-0.247,22.204
		c0.575,1.274,11.502,25.792,11.502,25.792l5.621,0.222l-1.709-23.282l10.59-27.531l5.801-147.64
		c-11.706,8.849-24.173,18.242-36.679,26.253C247.208,414.851,264.31,494.754,261.371,499.528z"/>
	<path stroke="#000000" stroke-width="0.6806" stroke-miterlimit="10" d="M239.291,399.885c0,0,33.329-31.611,39.452-55.142
		l3.911,4.339l0.61,41.355c0,0-28.444,12.459-39.229,16.72L239.291,399.885z"/>
	<g>
		<path stroke="#000000" stroke-width="0.6806" stroke-linecap="round" stroke-linejoin="round" stroke-miterlimit="10" d="
			M90.48,214.685c-3.972-13.69,15.172-6.578,10.586-14.602c-0.049,1.25-1.018,1.593-2.522,2.068
			c-8.695-1.594-14.922-4.004-18.426-10.4c-4.449-7.28,2.417-17.472,9.769-24.649c-1.351-0.565-1.385-1.35,2.074-2.416
			c7.876-2.424,7.124-9.732,7.124-9.732c-4.659,5.656-10.67,0.833-10.67,0.833s1.419-12.255-11.101-12.534
			c-8.62-0.19-13.468,6.147-14.526,14.447c-1.059,8.301,5.179,9.618,4.208,17.923c-0.97,8.306-2.144,37.962-2.144,37.962
			l7.717,2.586c0,0,18.875,4.537,25.751,9.451c2.026-3.138,3.259-6.793,3.405-10.495C99.846,217.242,92.456,219.492,90.48,214.685z"
			/>
		<path opacity="0.7" stroke="#000000" stroke-miterlimit="10" d="M93.706,164.005c0,0-3.205,1.046-9.933-2.328
			c-6.729-3.374-8.284,7.754-7.436,13.736c0.847,5.984,2.273,13.514,2.273,13.514s1.489-12.925,11.278-21.825
			C89.888,167.102,88.941,165.365,93.706,164.005z"/>
		<path opacity="0.7" stroke="#000000" stroke-miterlimit="10" d="M78.61,188.927c0,0-4.439-13.471-4.493-22.444
			c-0.053-8.974,4.173-13.271,10.667-9.906c6.495,3.366,12.454,5.043,14.302-1.623c0,0-3.956,7.035-12.301,0.756
			c-8.345-6.278-18.484-6.396-17.979,4.842C69.312,171.792,78.063,188.221,78.61,188.927z"/>
	</g>
	<path stroke="#000000" stroke-miterlimit="10" d="M100.664,382.104c0,0,1.043,133.364,3.002,161.807
		C103.667,543.91,106.964,402.021,100.664,382.104z"/>
	<path stroke="#000000" stroke-miterlimit="10" d="M112.996,382.589c0,0,11.566,98.578,12.925,115.398
		C127.281,514.809,120.474,396.618,112.996,382.589z"/>
	<path opacity="0.2" stroke="#000000" stroke-miterlimit="10" d="M154.782,396.199c0,0,61.364-46.115,86.49-46.722
		c25.128-0.605,28.051,151.239,28.051,151.239s-14.003,17.862-13.659,24.858s8.995,49.482,8.995,49.482s-0.881-14.513-1.1-24.864
		l9.98-25.949c0,0,5.174-146.248,5.945-151.332c0.772-5.084-1.261-31.57-12.486-38.33c-11.226-6.761-77.665,23.649-98.676,31.766
		C153.316,372.142,154.782,396.199,154.782,396.199z"/>
	<path stroke="#000000" stroke-width="0.6806" stroke-miterlimit="10" d="M79.015,282.438c0,0,33.448-32.683,58.871-32.102
		l-0.367-4.596c0,0-34.905-4.656-48.87,2.691c-13.966,7.346-24.675,33.527-24.675,33.527s10.239,115.63,5.133,148.801
		c-5.106,33.17-36.767,117.025-36.767,117.025s6.084,70.735,66.343,122.951c0,0-38.365-80.139-29.664-148.208
		c8.702-68.07,17.922-87.729,16.835-114.47C84.767,381.316,66.939,292.866,79.015,282.438z"/>
	<path opacity="0.4" stroke="#000000" stroke-miterlimit="10" d="M97.62,168.35c0,0,1.28,4.652-4.595,12.959l-3.66,3.79
		c0,0,5.493,0.179,8.34-1.091c2.848-1.272,6.983-4.139,6.508-6.536c-0.475-2.396-3.25-6.469-1.424-6.73
		c1.825-0.261,14.112,0.555,14.112,0.555l-3.923,7.377l3.752-3.004l0.517-4.612c0,0-13.465-0.934-13.76-0.764
		C101.622,171.368,98.703,169.958,97.62,168.35z"/>
	<path stroke="#000000" stroke-miterlimit="10" d="M97.62,168.35c0,0,1.267,2.238,0.793,3.68s-3.619,8.817-8.489,12.489
		C89.925,184.519,97.662,169.917,97.62,168.35z"/>
	<path stroke="#000000" stroke-miterlimit="10" d="M98.029,171.749c-0.184,0.758-1.85,4.216-2.127,5.146
		c-0.524,1.752-1.076,3.479-1.449,5.273c-0.241,1.154,3.344-3.352,3.929-5.412c0.163-0.577,0.422-1.106,0.692-1.628
		c0.691,0.431,1.74,0.615,2.279-0.038c0.159-0.193,0.013-0.463-0.173-0.576c-0.465-0.287-0.944-0.544-1.467-0.652
		c0.209-0.434,0.399-0.875,0.513-1.345C100.502,171.371,98.369,170.346,98.029,171.749z"/>
</g>
</svg>
