<svg version="1.1"
      xmlns="http://www.w3.org/2000/svg"
      xmlns:xlink="http://www.w3.org/1999/xlink"  id="snapshot-29389" width="250" height="250" viewBox="0 0 250 250"><desc>This image was made on Patterninja.com</desc><defs>
<!-- image 86370 -->
<g id="transformed-86370" data-image="86370" transform="translate(-8.351591323771842, 193.96022509626113) rotate(340, 24.351591323771842, 21.039774903738873)"><g><svg version="1.1" width="48.703182647543684px" height="42.07954980747775px" viewBox="0 0 48.703182647543684 42.07954980747775"><g id="original-86370"><svg xmlns="http://www.w3.org/2000/svg" viewBox="0 0 74 64" xmlns:xlink="http://www.w3.org/1999/xlink" version="1.1" preserveAspectRatio="xMidYMid meet">
  <path fill-rule="evenodd" d="M5 64V11l15.9 11.133L37 0l16.1 22.133L69 11v53z" fill="rgba(68, 68, 68, 1)" stroke="none"/>
  <path fill-rule="evenodd" d="M37 0L20.9 22.133 5 11v53h32z" fill="rgba(68, 68, 68, 1)" stroke="none"/>
  <path fill-rule="evenodd" d="M37 35l-5-7 5-7 5 7z" fill="rgba(255, 255, 255, 1)" stroke="none"/>
  <path fill-rule="evenodd" d="M5 44h64a5 5 0 0 1 0 10H5a5 5 0 0 1 0-10z" fill="rgba(0, 0, 0, 1)" stroke="none"/>
  <path fill-rule="evenodd" d="M37 47a2 2 0 1 1 0 4 2 2 0 0 1 0-4zm10 0a2 2 0 1 1 0 4 2 2 0 0 1 0-4zm10 0a2 2 0 1 1 0 4 2 2 0 0 1 0-4zm10 0a2 2 0 1 1 0 4 2 2 0 0 1 0-4zM7 47a2 2 0 1 1 0 4 2 2 0 0 1 0-4zm10 0a2 2 0 1 1 0 4 2 2 0 0 1 0-4zm10 0a2 2 0 1 1 0 4 2 2 0 0 1 0-4z" fill="rgba(179, 179, 179, 1)" stroke="none"/>
</svg>
</g></svg></g></g>
<!-- /image 86370 -->

<!-- image 85922 -->
<g id="transformed-85922" data-image="85922" transform="translate(147.91199250936495, 88.1854006292151) rotate(20, 17.08800749063506, 16.8145993707849)"><g><svg version="1.1" width="34.17601498127012px" height="33.6291987415698px" viewBox="0 0 34.17601498127012 33.6291987415698"><g id="original-85922"><svg xmlns="http://www.w3.org/2000/svg" viewBox="0 0 67 66" xmlns:xlink="http://www.w3.org/1999/xlink" version="1.1" preserveAspectRatio="xMidYMid meet">
  <path fill-rule="evenodd" d="M44.987 9.117c-4.2-4.11-11.361-3.492-18.286-2.9-5.059.436-11.521 2.142-15.123.974a4.255 4.255 0 1 0-6.409.446l1.652 1.652c5.134 5.134 12.8 5.455 19.562 5.737 5.122.215 9.959.417 11.894 2.781 1.071 1.307 1.383 3.4.958 6.386l-.427 2.993 2.992-.428c2.99-.424 5.079-.112 6.386.958 2.364 1.935 2.567 6.773 2.782 11.895.282 6.762.6 14.428 5.736 19.562l1.652 1.652a4.6 4.6 0 1 0 .447-6.407c-1.17-3.6.537-10.066.973-15.126.6-6.925 1.215-14.084-2.9-18.286-2.012-2.057-4.857-3.126-8.654-3.239-.109-3.793-1.178-6.638-3.235-8.65z" fill="rgba(189, 116, 72, 1)" stroke="none"/>
  <path fill-rule="evenodd" d="M41.987 12.117c-4.2-4.11-11.361-3.492-18.286-2.9-5.059.436-11.521 2.142-15.123.974a4.255 4.255 0 1 0-6.409.446l1.652 1.652c5.134 5.134 12.8 5.454 19.562 5.737 5.122.215 9.959.417 11.894 2.781 1.071 1.307 1.383 3.4.958 6.386l-.427 2.993 2.992-.428c2.99-.424 5.079-.112 6.387.958 2.363 1.935 2.566 6.773 2.781 11.895.282 6.762.6 14.428 5.736 19.562l1.652 1.652a4.6 4.6 0 1 0 .447-6.407c-1.17-3.6.537-10.066.973-15.126.6-6.925 1.215-14.084-2.9-18.286-2.012-2.057-4.857-3.126-8.654-3.239-.109-3.793-1.178-6.638-3.235-8.65z" fill="rgba(164, 97, 57, 1)" stroke="none"/>
  <path fill-rule="evenodd" d="M4.57 7.061l5.6 47.173 1.6 1.6 47.173 5.6-1.6-1.6-43.975-5.6-1.6-1.6-5.6-43.975z" fill="rgba(10, 50, 47, 1)" stroke="none"/>
  <path fill-rule="evenodd" d="M11.766 52.635L54.941 9.46l1.6 1.6-43.175 43.175z" fill="rgba(217, 187, 151, 1)" stroke="none"/>
  <path fill-rule="evenodd" d="M22.536 44.636l1.414 4.243-8.486 8.485-1.414-4.243z" fill="rgba(206, 73, 42, 1)" stroke="none"/>
  <path fill-rule="evenodd" d="M8.636 50.536l4.243 1.414 8.485-8.486-4.243-1.414z" fill="rgba(206, 73, 42, 1)" stroke="none"/>
  <path fill-rule="evenodd" d="M50.944 8.66l14.392-8-8 14.391-2.4-4z" fill="rgba(172, 172, 172, 1)" stroke="none"/>
</svg>
</g></svg></g></g>
<!-- /image 85922 -->

<!-- image 07645 -->
<g id="transformed-07645" data-image="07645" transform="translate(101.95557748177917, 185.95557748177916) rotate(357, 45.04442251822083, 45.044422518220834)"><g><svg version="1.1" width="90.08884503644165px" height="90.08884503644167px" viewBox="0 0 90.08884503644165 90.08884503644167"><g id="original-07645"><svg xmlns="http://www.w3.org/2000/svg" viewBox="0 0 400 400" xmlns:xlink="http://www.w3.org/1999/xlink" version="1.1" preserveAspectRatio="xMidYMid meet">
  <path d="M262.1 253.6c-2-1.9-5.1-1.9-7.1.1-1.9 2-1.9 5.1.1 7.1l15.1 14.8c1 1 2.2 1.4 3.5 1.4 1.3 0 2.6-.5 3.6-1.5 1.9-2 1.9-5.1-.1-7.1l-15.1-14.8z" fill="rgba(85, 85, 85, 1)" stroke="none"/>
  <path d="M138.8 141.8c1.3 0 2.6-.5 3.6-1.5 1.9-2 1.9-5.1-.1-7.1l-16.8-16.5c-2-1.9-5.1-1.9-7.1.1-1.9 2-1.9 5.1.1 7.1l16.8 16.5c.9 1 2.2 1.4 3.5 1.4z" fill="rgba(85, 85, 85, 1)" stroke="none"/>
  <path d="M139.1 255.8L122.2 273c-1.9 2-1.9 5.1.1 7.1 1 1 2.2 1.4 3.5 1.4 1.3 0 2.6-.5 3.6-1.5l16.9-17.2c1.9-2 1.9-5.1-.1-7.1-2-1.9-5.2-1.9-7.1.1z" fill="rgba(85, 85, 85, 1)" stroke="none"/>
  <path d="M284.4 117.7c-2-1.9-5.1-1.9-7.1.1l-14.7 14.9c-1.9 2-1.9 5.1.1 7.1 1 1 2.2 1.4 3.5 1.4 1.3 0 2.6-.5 3.6-1.5l14.7-14.9c1.9-2 1.9-5.2-.1-7.1z" fill="rgba(85, 85, 85, 1)" stroke="none"/>
  <path d="M170.5 197.2c0-1.3-.5-2.7-1.5-3.7l-17.4-17.3c-2-1.9-5.1-1.9-7.1 0-1.9 2-1.9 5.1 0 7.1l14 13.9-15 14.9c-2 1.9-2 5.1 0 7.1 1 1 2.3 1.5 3.5 1.5 1.3 0 2.6-.5 3.5-1.5l18.4-18.3c1.1-1.1 1.6-2.4 1.6-3.7z" fill="rgba(85, 85, 85, 1)" stroke="none"/>
  <path d="M197.4 166.3c.1.1.3.2.5.4l.3.3.6.3c.1 0 .2.1.3.2.2.1.4.1.7.2.1 0 .2.1.3.1.3.1.6.1 1 .1.3 0 .6 0 1-.1.1 0 .2-.1.3-.1.2-.1.4-.1.6-.2.1-.1.3-.1.4-.2.2-.1.3-.2.5-.3.1-.1.2-.2.4-.3.1-.1.3-.2.4-.3l16.6-16.5c2-1.9 2-5.1 0-7.1-1.9-2-5.1-2-7.1 0l-13.1 13-14-13.9c-2-1.9-5.1-1.9-7.1 0-1.9 2-1.9 5.1 0 7.1l17.4 17.3z" fill="rgba(85, 85, 85, 1)" stroke="none"/>
  <path d="M256.6 213.1l-15-14.9 15-14.9c2-1.9 2-5.1 0-7.1-1.9-2-5.1-2-7.1 0l-18.4 18.3c-1 1-1.5 2.3-1.5 3.7 0 1.3.4 2.7 1.5 3.7l18.4 18.3c1 1 2.3 1.5 3.5 1.5 1.3 0 2.6-.5 3.5-1.5 2.1-2 2-5.2.1-7.1z" fill="rgba(85, 85, 85, 1)" stroke="none"/>
  <path d="M203.6 228.9c-.1-.1-.3-.2-.4-.3-.1-.1-.2-.2-.4-.3-.1-.1-.3-.1-.4-.2-.2-.1-.3-.2-.5-.2-.1-.1-.3-.1-.4-.1-.2-.1-.3-.1-.5-.2h-.4c-.2 0-.4-.1-.6-.1h-.4c-.2 0-.4 0-.5.1-.1 0-.3.1-.4.1-.2 0-.4.1-.5.2-.1.1-.3.1-.4.2-.2.1-.3.2-.5.3l-.3.3c-.1.1-.3.2-.4.3L179 246.6c-2 1.9-2 5.1 0 7.1 1 1 2.3 1.5 3.5 1.5 1.3 0 2.6-.5 3.5-1.5l14.1-14 14.1 14c1 1 2.3 1.5 3.5 1.5 1.3 0 2.6-.5 3.5-1.5 1.9-2 1.9-5.1 0-7.1l-17.6-17.7z" fill="rgba(85, 85, 85, 1)" stroke="none"/>
  <path d="M201 113.1c10 0 18.2-8.2 18.2-18.2 0-2.8-2.2-5-5-5s-5 2.2-5 5c0 4.5-3.7 8.2-8.2 8.2-4.5 0-8.2-3.7-8.2-8.2 0-2.8-2.2-5-5-5s-5 2.2-5 5c0 10.1 8.1 18.2 18.2 18.2z" fill="rgba(85, 85, 85, 1)" stroke="none"/>
  <path d="M201 285.6c-10 0-18.2 8.2-18.2 18.2 0 2.8 2.2 5 5 5s5-2.2 5-5c0-4.5 3.7-8.2 8.2-8.2 4.5 0 8.2 3.7 8.2 8.2 0 2.8 2.2 5 5 5s5-2.2 5-5c-.1-10-8.2-18.2-18.2-18.2z" fill="rgba(85, 85, 85, 1)" stroke="none"/>
  <path d="M114.5 198.1c0-10-8.2-18.2-18.2-18.2-2.8 0-5 2.2-5 5s2.2 5 5 5c4.5 0 8.2 3.7 8.2 8.2 0 4.5-3.7 8.2-8.2 8.2-2.8 0-5 2.2-5 5s2.2 5 5 5c10.1 0 18.2-8.2 18.2-18.2z" fill="rgba(85, 85, 85, 1)" stroke="none"/>
  <path d="M303.1 206.3c-4.5 0-8.2-3.7-8.2-8.2 0-4.5 3.7-8.2 8.2-8.2 2.8 0 5-2.2 5-5s-2.2-5-5-5c-10 0-18.2 8.2-18.2 18.2s8.2 18.2 18.2 18.2c2.8 0 5-2.2 5-5s-2.2-5-5-5z" fill="rgba(85, 85, 85, 1)" stroke="none"/>
  <circle cx="238.7" cy="109.1" r="5.1" fill="rgba(85, 85, 85, 1)" stroke="none"/>
  <circle cx="200.1" cy="197.1" r="11.6" fill="rgba(85, 85, 85, 1)" stroke="none"/>
  <circle cx="289.9" cy="161.7" r="5.1" fill="rgba(85, 85, 85, 1)" stroke="none"/>
  <circle cx="289.9" cy="236.5" r="5.1" fill="rgba(85, 85, 85, 1)" stroke="none"/>
  <circle cx="238.7" cy="287.4" r="5.1" fill="rgba(85, 85, 85, 1)" stroke="none"/>
  <circle cx="165.5" cy="287.4" r="5.1" fill="rgba(85, 85, 85, 1)" stroke="none"/>
  <circle cx="109.5" cy="232.5" r="5.1" fill="rgba(85, 85, 85, 1)" stroke="none"/>
  <circle cx="109.5" cy="156.6" r="5.1" fill="rgba(85, 85, 85, 1)" stroke="none"/>
  <circle cx="161.8" cy="108.1" r="5.1" fill="rgba(85, 85, 85, 1)" stroke="none"/>
</svg>
</g></svg></g></g>
<!-- /image 07645 -->

<!-- image 43524 -->
<g id="transformed-43524" data-image="43524" transform="translate(10.86112154835503, 0.7987138396640532) rotate(53, 23.13887845164497, 62.20128616033595)"><g><svg version="1.1" width="46.27775690328994px" height="124.4025723206719px" viewBox="0 0 46.27775690328994 124.4025723206719"><g id="original-43524"><svg xmlns="http://www.w3.org/2000/svg" viewBox="0 0 300.5 800" xmlns:xlink="http://www.w3.org/1999/xlink" version="1.1" preserveAspectRatio="xMidYMid meet">
  <path d="M66.101 596.821s13.666-20.623 26.979-21.697c13.314-1.073 11.045-42.876 11.045-42.876s3.995-3.18 16.159-4.371c12.165-1.191 4.876-33.887 4.876-33.887s6.975-6 17.117-6.962c10.142-.963-8.405-214.769-8.405-214.769s-17.375-33.625 5.469-45.027l-43.209 2.898s-14.163 7.907-15.56 12.694c-1.396 4.787-10.682 18.894-9.489 57.173 1.193 38.279 13.958 100.912.083 167.94-5.859 28.295-22.521 94.038-5.065 128.884z" fill="rgba(135, 23, 23, 1)" stroke="none"/>
  <path stroke-width=".681" stroke-miterlimit="10" d="M119.371 148.258c-4.677 15.225-11.619 53.471-11.619 53.471 9 59.268 40.911 21.093 40.911 21.093s-5.071-68.175-4.965-70.89c.023-.596.216-1.437.545-2.448a127.905 127.905 0 0 1-23.062-11.446c-.277 3.54-.804 6.941-1.81 10.22z" fill="rgba(0, 113, 185, 1)" stroke="rgba(0, 113, 185, 1)"/>
  <path stroke-width=".681" d="M142.331 56.967c5.021 1.081 9.675 3.104 14.118 5.549 1.059-3.157 2.542-5.224 4.611-6.43 5.102-2.97 9.005-10.068 9.005-10.068l-2.59-3.275 5.6-8.39.391-9.955-21.554-.847-9.581 33.416z" stroke-miterlimit="10" fill="rgba(247, 199, 172, 1)" stroke="rgba(240, 150, 98, 1)"/>
  <path stroke-width=".681" d="M141.121 148.266c1.037.419 2.075.828 3.121 1.22 1.161-3.598 4.102-9.486 7.905-15.349 4.874-7.515 1.687-32.563 1.956-49.773.023-1.48.058-2.884.102-4.23-.582.958-.95 2.008-.994 3.115-1.916 22.002-4.732 43.966-12.09 65.017z" stroke-miterlimit="10" fill="rgba(255, 255, 255, 1)" stroke="rgba(210, 212, 212, 1)"/>
  <path stroke-width=".681" d="M146.99 58.27a42.038 42.038 0 0 0-4.659-1.303l-.44 1.537s-9.978 12.751-16.731 34.692c-5.299 17.217-2.969 31.941-3.979 44.843a131.361 131.361 0 0 0 7.18 4.184c1.07-29.067 2.046-58.915 18.629-83.953z" stroke-miterlimit="10" fill="rgba(135, 23, 23, 1)" stroke="rgba(95, 23, 23, 1)"/>
  <path stroke-width=".681" d="M128.361 142.223a127.325 127.325 0 0 0 9.303 4.571c2.241-29.346 2.238-59.892 14.759-86.326a51.852 51.852 0 0 0-5.433-2.198c-16.583 25.038-17.559 54.886-18.629 83.953z" stroke-miterlimit="10" fill="rgba(255, 255, 255, 1)" stroke="rgba(210, 212, 212, 1)"/>
  <path stroke-width=".681" d="M141.121 148.266c7.358-21.05 10.174-43.015 12.089-65.018.044-1.107.412-2.157.994-3.115.262-7.964.916-13.66 2.244-17.617a69.476 69.476 0 0 0-4.026-2.048c-12.521 26.435-12.518 56.98-14.759 86.326a119.12 119.12 0 0 0 3.458 1.472z" stroke-miterlimit="10" fill="rgba(135, 23, 23, 1)" stroke="rgba(95, 23, 23, 1)"/>
  <path stroke-width=".681" d="M121.255 124.766l-.731 18.617s8.97 6.203 23.635 16.737c0 0 .032-15.095 6.365-23.392-.001.001-26.383-3.238-29.269-11.962z" stroke-miterlimit="10" fill="rgba(255, 255, 255, 1)" stroke="rgba(210, 212, 212, 1)"/>
  <path stroke-width="1.361" d="M143.287 53.638s11.451-.004 15.863 3.989c0 0-4.218 6.837-4.496 12.709 0 0-10.101-4.115-18.159-3.48l6.792-13.218z" stroke-miterlimit="10" fill="rgba(255, 255, 255, 1)" stroke="rgba(210, 212, 212, 1)"/>
  <path d="M150.704 54.318s-19.269 20.122-18.58 88.053c.689 67.931-3.389 82.821-7.736 92.415 0 0-13.669-1.801-16.636-33.056 0 0 11.619-53.471 12.772-58.346 5.609-23.701-5.546-29.92 13.552-72.089l9.211-17.656 7.417.679z" fill="rgba(57, 59, 65, 0.2)" stroke="none"/>
  <path stroke-width=".681" stroke-miterlimit="10" d="M153.958 602.729c3.097 9.283 20.358 78.434 17.351 83.319-3.007 4.889-11.862 7.904-12.983 10.309s-1.354 6.715 4.366 16.942 1.562 24.536 2.576 25.497c1.018.961 13.113 30.46 13.113 30.46l3.572-3.652-.831-21.279 2.833-27.305 5.103-138.124c-10.159 9.521-23.123 16.148-35.849 21.348.235.82.467 1.64.749 2.485z" fill="rgba(153, 40, 40, 1)" stroke="rgba(135, 23, 23, 1)"/>
  <path stroke-width=".681" stroke-miterlimit="10" d="M138.269 395.915c-1.241 3.98 25.393 152.367 24.642 156.456-.584 3.176-1.118 6.748-2.92 9.511-1.256 1.926-2.807 3.601-4.374 5.242-2.181 4.577-7.373 15.829-2.409 33.121 12.727-5.199 25.69-11.827 35.849-21.348l6.306-170.589s-3.322-5.758-6.944-10.422c-16.464-25.45-47.337-11-50.15-1.971z" fill="rgba(46, 138, 198, 1)" stroke="rgba(0, 113, 185, 1)"/>
  <path stroke-width=".681" stroke-miterlimit="10" d="M149.373 594.929s31.107-18.798 42.237-40.887l-1.538 39.151-35.343 14.043-5.356-12.307z" fill="rgba(255, 255, 255, 1)" stroke="rgba(210, 212, 212, 1)"/>
  <path d="M172.629 467.68s-29.013-13.926-25.148-55.409c3.864-41.483 40.812-9.776 43.243-.644 2.43 9.132 4.078 61.169-18.095 56.053z" fill="rgba(0, 113, 185, 0.7)" stroke="none"/>
  <path stroke-width=".681" d="M150.37 219.228l-5.947.08-.196-.187c-3.256 10.511-8.088 20.26-6.341 31.215-15.397-1.709-29.859-2.402-45.17-.439-2.327 5.417-4.352 10.942-4.714 15.583-.976 12.476 6.428 18.606 15.114 22.285 8.686 3.679 32.015 30.53 33.662 43.871 2.297 18.609-5.811 52.332-5.811 52.332-1.421 30.255 21.582 43.042 33.777 43.209 12.195.167 32.084-14.029 43.135-24.545 11.05-10.515 39.188-24.739 39.188-24.739s-8.735 15.299-4.707 24.217c.094.206.196.464.303.747 12.506-8.011 24.973-17.404 36.679-26.253l1.139-28.997s-8.493-14.726-13.129-16.159c-4.638-1.432-22.314 2.565-25.475 3.379-3.16.814-51.078 18.016-51.078 18.016-1.145-10.682-10.833-34.84-.253-57.264 4.108-8.708 5.222-15.779 5.054-21.183l-7.495-1.307-12.972 13.236-2.615-18.347-16.598-8.248 16.642-8.156 2.715-18.334 12.9 13.306.221-.038-2.668-11.5-35.36-15.78z" stroke-miterlimit="10" fill="rgba(46, 138, 198, 1)" stroke="rgba(0, 113, 185, 1)"/>
  <path stroke-width=".304" d="M175.276 233.24l-2.715 18.334-16.642 8.156 16.598 8.248 2.615 18.347 12.972-13.236 7.495 1.307c-.265-8.509-3.716-12.865-3.716-12.865l-3.485-15.023-.221.038-12.901-13.306z" stroke-miterlimit="10" fill="rgba(255, 255, 255, 1)" stroke="rgba(210, 212, 212, 1)"/>
  <path stroke-width=".681" stroke-miterlimit="10" d="M100.531 228.22c.901 3.704-3.887 12.531-7.815 21.677 15.311-1.963 29.773-1.271 45.17.439-1.747-10.955 3.085-20.705 6.341-31.215l-15.782-15.145 6.457-21.021-2.627-4.797-15.544-2.488.171-4.374s-12.146-1.415-14.112-.555c-1.967.862-5.169-2.392-5.169-2.392s-5.565-.339-7.732-1.248c-7.352 7.177-14.218 17.37-9.769 24.649 3.504 6.396 9.73 8.806 18.426 10.4 1.638-.342 2.473-.819 2.522-2.068 4.586 8.023-14.558.912-10.586 14.602 2.141 4.003 8.12 3.291 11.246.442-.146 3.702-1.379 7.357-3.405 10.495 1.192.853 1.993 1.726 2.208 2.599z" stroke-linejoin="round" fill="rgba(247, 199, 172, 1)" stroke="rgba(240, 150, 98, 1)"/>
  <path stroke-width=".681" stroke-miterlimit="10" d="M261.371 499.528c-3.008 4.888-17.298 10.271-19.246 12.071-1.948 1.802 4.239 3.609 5.658 15.241 1.419 11.631-.823 20.929-.247 22.204.575 1.274 11.502 25.792 11.502 25.792l5.621.222-1.709-23.282 10.59-27.531 5.801-147.64c-11.706 8.849-24.173 18.242-36.679 26.253 4.546 11.993 21.648 91.896 18.709 96.67z" fill="rgba(153, 40, 40, 1)" stroke="rgba(135, 23, 23, 1)"/>
  <path stroke-width=".681" stroke-miterlimit="10" d="M239.291 399.885s33.329-31.611 39.452-55.142l3.911 4.339.61 41.355s-28.444 12.459-39.229 16.72l-4.744-7.272z" fill="rgba(255, 255, 255, 1)" stroke="rgba(210, 212, 212, 1)"/>
  <g>
    <path stroke-width=".681" stroke-miterlimit="10" d="M90.48 214.685c-3.972-13.69 15.172-6.578 10.586-14.602-.049 1.25-1.018 1.593-2.522 2.068-8.695-1.594-14.922-4.004-18.426-10.4-4.449-7.28 2.417-17.472 9.769-24.649-1.351-.565-1.385-1.35 2.074-2.416 7.876-2.424 7.124-9.732 7.124-9.732-4.659 5.656-10.67.833-10.67.833s1.419-12.255-11.101-12.534c-8.62-.19-13.468 6.147-14.526 14.447-1.059 8.301 5.179 9.618 4.208 17.923-.97 8.306-2.144 37.962-2.144 37.962l7.717 2.586s18.875 4.537 25.751 9.451c2.026-3.138 3.259-6.793 3.405-10.495-1.879 2.115-9.269 4.365-11.245-.442z" stroke-linecap="round" stroke-linejoin="round" fill="rgba(1, 0, 2, 1)" stroke="rgba(1, 0, 2, 1)"/>
    <path d="M93.706 164.005s-3.205 1.046-9.933-2.328c-6.729-3.374-8.284 7.754-7.436 13.736.847 5.984 2.273 13.514 2.273 13.514s1.489-12.925 11.278-21.825c0 0-.947-1.737 3.818-3.097z" fill="rgba(57, 59, 65, 0.7)" stroke="none"/>
    <path d="M78.61 188.927s-4.439-13.471-4.493-22.444c-.053-8.974 4.173-13.271 10.667-9.906 6.495 3.366 12.454 5.043 14.302-1.623 0 0-3.956 7.035-12.301.756-8.345-6.278-18.484-6.396-17.979 4.842.506 11.24 9.257 27.669 9.804 28.375z" fill="rgba(57, 59, 65, 0.7)" stroke="none"/>
  </g>
  <g>
    <path stroke-width=".681" stroke-miterlimit="10" d="M92.715 249.896s-11.378 20.117-13.7 32.541c-2.322 12.423 11.348 46.69 12.657 61.162 1.309 14.471 2.555 23.904 13.392 22.141 10.835-1.762 15.783-11.693 18.425-33.376 2.64-21.683 8.241-37.845-.35-57.579-8.59-19.735-18.496-29.341-30.424-24.889z" fill="rgba(0, 113, 185, 1)" stroke="rgba(0, 113, 185, 1)"/>
    <path d="M96.639 252.443s-15.671 21.136-6.265 31.581c9.408 10.444 14.419 11.387 13.871 17.659-.549 6.271-5.942 35.779-5.942 35.779s-5.061 3.729-10.833-23.797c-5.771-27.526-8.41-42.867 9.169-61.222z" fill="rgba(57, 59, 65, 0.2)" stroke="none"/>
    <path stroke-width=".675" d="M136.955 299.414l3.663-20.066 7.391.29 4.456-6.646 7.408.291-.243 6.192 12.039 7.785s3.093 8.392-23.918 21.988l-10.796-9.834z" stroke-miterlimit="10" fill="rgba(247, 199, 172, 1)" stroke="rgba(240, 150, 98, 1)"/>
    <path stroke-width=".681" d="M136.38 302.564c-12.665 19.853-30.663 31.062-48.136 44.653.019.612.027 1.217.079 1.858.412 5.066 2.707 9.63 6.041 13.112 14.854-20.138 34.974-34.509 47.769-55.875-2.04-1.705-4.314-3.006-5.753-3.748z" stroke-miterlimit="10" fill="rgba(135, 23, 23, 1)" stroke="rgba(95, 23, 23, 1)"/>
    <path stroke-width=".681" d="M142.132 306.313c-12.794 21.366-32.915 35.737-47.769 55.875 3.055 3.192 6.984 5.466 11.153 6.371 18.564-15.912 28.17-37.164 40.849-56.352-.549-2.245-2.275-4.258-4.233-5.894z" stroke-miterlimit="10" fill="rgba(255, 255, 255, 1)" stroke="rgba(210, 212, 212, 1)"/>
    <path stroke-width=".681" d="M105.517 368.559c5.404 1.174 11.201.052 16-4.376 12.539-11.57 21.258-40.193 24.551-48.128a6.053 6.053 0 0 0 .299-3.848c-12.68 19.188-22.286 40.44-40.85 56.352z" stroke-miterlimit="10" fill="rgba(135, 23, 23, 1)" stroke="rgba(95, 23, 23, 1)"/>
    <path stroke-width=".681" d="M136.38 302.564c-.881-.456-1.451-.705-1.451-.705s-13.733 16.635-26.272 20.522c-12.026 3.729-20.839 10.414-20.413 24.836 17.473-13.591 35.471-24.8 48.136-44.653z" stroke-miterlimit="10" fill="rgba(255, 255, 255, 1)" stroke="rgba(210, 212, 212, 1)"/>
    <path stroke-width=".681" d="M131.313 305.888s11.757 3.471 13.565 13.239l5.938-12.473-13.192-10.026-6.311 9.26z" stroke-miterlimit="10" fill="rgba(255, 255, 255, 1)" stroke="rgba(210, 212, 212, 1)"/>
  </g>
  <path d="M100.664 382.104s1.043 133.364 3.002 161.807c.001-.001 3.298-141.89-3.002-161.807z" fill="rgba(86, 7, 7, 1)" stroke="none"/>
  <path d="M112.996 382.589s11.566 98.578 12.925 115.398c1.36 16.822-5.447-101.369-12.925-115.398z" fill="rgba(86, 7, 7, 1)" stroke="none"/>
  <path d="M154.782 396.199s61.364-46.115 86.49-46.722c25.128-.605 28.051 151.239 28.051 151.239s-14.003 17.862-13.659 24.858 8.995 49.482 8.995 49.482-.881-14.513-1.1-24.864l9.98-25.949s5.174-146.248 5.945-151.332c.772-5.084-1.261-31.57-12.486-38.33-11.226-6.761-77.665 23.649-98.676 31.766-15.006 5.795-13.54 29.852-13.54 29.852z" fill="rgba(57, 59, 65, 0.2)" stroke="none"/>
  <path d="M159.297 354.693s-.971-33.331 2.836-41.867c3.807-8.534 19.217-21.279 22.16-30.667 5.306-16.932.614-38.985-20.024-53.947 0 0 21.46 6.796 29.631 54.959l-4.664 15.485s-3.526 2.987-3.387 15.103c.138 12.115 4.386 36.048 4.386 36.048s-30.979 24.436-30.938 4.886z" fill="rgba(57, 59, 65, 0.2)" stroke="none"/>
  <g>
    <path d="M132.166 403.926c2.959 13.525 13.039 19.179 21.466 21.539-5.111-14.39-17.968-30.688-22.792-46.765-.666 5.358-1.056 14.342 1.326 25.226z" stroke-width=".681" stroke-miterlimit="10" fill="rgba(135, 23, 23, 1)" stroke="rgba(95, 23, 23, 1)"/>
    <path d="M149.688 354.316c3.404 10.04 6.924 20.082 10.705 30.135 2.091-4.453 4.842-8.541 7.839-12.191-.801-6.983-3.314-14.05-5.777-20.802l-12.767 2.858z" stroke-width=".681" stroke-miterlimit="10" fill="rgba(135, 23, 23, 1)" stroke="rgba(95, 23, 23, 1)"/>
    <path d="M190.797 352.842l-1.377-7.424-7.683 1.719c.875 3.182 2.101 6.487 3.126 9.667 3.532-2.57 5.934-3.962 5.934-3.962z" stroke-width=".681" stroke-miterlimit="10" fill="rgba(255, 255, 255, 1)" stroke="rgba(210, 212, 212, 1)"/>
    <path d="M177.416 362.792a100.115 100.115 0 0 1 7.448-5.988c-1.025-3.18-2.251-6.485-3.126-9.667l-8.868 1.987c1.889 4.496 3.577 9.025 4.546 13.668z" stroke-width=".681" stroke-miterlimit="10" fill="rgba(135, 23, 23, 1)" stroke="rgba(95, 23, 23, 1)"/>
    <path d="M136.442 357.284c1.677 20.743-.919 33.082 17.648 53.872 1.344 1.503 3.86 4.634 4.874 3.314-1.999-5.246-2.711-10.292-2.464-15.079-7.529-13.441-12.643-28.573-14.475-43.357l-5.583 1.25z" stroke-width=".681" stroke-miterlimit="10" fill="rgba(135, 23, 23, 1)" stroke="rgba(95, 23, 23, 1)"/>
    <path d="M136.442 357.284l-1.948.436-2.689 15.602s-.54 1.949-.966 5.378c4.824 16.077 4.362 27.619 22.792 46.765 6.814 1.908 12.549 1.661 12.549 1.661-3.309-4.323-5.652-8.55-7.216-12.656-.054 1.357-3.569-1.776-4.874-3.314-18.888-22.301-15.502-33.843-17.648-53.872z" stroke-width=".681" stroke-miterlimit="10" fill="rgba(255, 255, 255, 1)" stroke="rgba(210, 212, 212, 1)"/>
    <path d="M142.025 356.033c1.832 14.784 6.946 29.917 14.475 43.357.274-5.323 1.729-10.328 3.893-14.939-3.781-10.053-7.301-20.095-10.705-30.135l-7.663 1.717z" stroke-width=".681" stroke-miterlimit="10" fill="rgba(255, 255, 255, 1)" stroke="rgba(210, 212, 212, 1)"/>
    <path d="M162.455 351.458c2.463 6.752 4.976 13.819 5.777 20.802 2.959-3.604 6.153-6.781 9.184-9.467-.969-4.644-2.657-9.172-4.546-13.667l-10.415 2.332z" stroke-width=".681" stroke-miterlimit="10" fill="rgba(255, 255, 255, 1)" stroke="rgba(210, 212, 212, 1)"/>
  </g>
  <path stroke-width=".681" stroke-miterlimit="10" d="M79.015 282.438s33.448-32.683 58.871-32.102l-.367-4.596s-34.905-4.656-48.87 2.691c-13.966 7.346-24.675 33.527-24.675 33.527s10.239 115.63 5.133 148.801c-5.106 33.17-36.767 117.025-36.767 117.025s6.084 70.735 66.343 122.951c0 0-38.365-80.139-29.664-148.208 8.702-68.07 17.922-87.729 16.835-114.47-1.087-26.741-18.915-115.191-6.839-125.619z" fill="rgba(153, 40, 40, 1)" stroke="rgba(135, 23, 23, 1)"/>
  <path d="M134.902 182.955s-11.529 24.498-17.062 28.724l-15.834-3.674s-7.901.709-8.438 3.739c-.535 3.03 2.045 2.115 4.41.173 2.366-1.941-.909-5.631 9.41-.903 4.796 2.2 20.577 8.949 27.281 9.467 6.705.517.348-11.905-6.223-16.506l6.456-21.02" fill="rgba(240, 150, 98, 0.5)" stroke="none"/>
  <path d="M97.62 168.35s1.28 4.652-4.595 12.959l-3.66 3.79s5.493.179 8.34-1.091c2.848-1.272 6.983-4.139 6.508-6.536-.475-2.396-3.25-6.469-1.424-6.73 1.825-.261 14.112.555 14.112.555l-3.923 7.377 3.752-3.004.517-4.612s-13.465-.934-13.76-.764c-1.865 1.074-4.784-.336-5.867-1.944z" fill="rgba(240, 150, 98, 0.4)" stroke="none"/>
  <path d="M97.62 168.35s1.267 2.238.793 3.68-3.619 8.817-8.489 12.489c.001 0 7.738-14.602 7.696-16.169z" fill="rgba(1, 0, 2, 1)" stroke="none"/>
  <path d="M98.029 171.749c-.184.758-1.85 4.216-2.127 5.146-.524 1.752-1.076 3.479-1.449 5.273-.241 1.154 3.344-3.352 3.929-5.412.163-.577.422-1.106.692-1.628.691.431 1.74.615 2.279-.038.159-.193.013-.463-.173-.576-.465-.287-.944-.544-1.467-.652.209-.434.399-.875.513-1.345.276-1.146-1.857-2.171-2.197-.768z" fill="rgba(0, 0, 0, 1)" stroke="none"/>
</svg>
</g></svg></g></g>
<!-- /image 43524 -->
</defs><rect x="0" y="0" width="250" height="250" fill="rgba(41, 35, 35, 1)"></rect><use xlink:href="#transformed-86370" transform="translate(-250, -250)"></use><use xlink:href="#transformed-86370" transform="translate(0, -250)"></use><use xlink:href="#transformed-86370" transform="translate(250, -250)"></use><use xlink:href="#transformed-86370" transform="translate(-250, 0)"></use><use xlink:href="#transformed-86370" transform="translate(0, 0)"></use><use xlink:href="#transformed-86370" transform="translate(250, 0)"></use><use xlink:href="#transformed-86370" transform="translate(-250, 250)"></use><use xlink:href="#transformed-86370" transform="translate(0, 250)"></use><use xlink:href="#transformed-86370" transform="translate(250, 250)"></use><use xlink:href="#transformed-85922" transform="translate(-250, -250)"></use><use xlink:href="#transformed-85922" transform="translate(0, -250)"></use><use xlink:href="#transformed-85922" transform="translate(250, -250)"></use><use xlink:href="#transformed-85922" transform="translate(-250, 0)"></use><use xlink:href="#transformed-85922" transform="translate(0, 0)"></use><use xlink:href="#transformed-85922" transform="translate(250, 0)"></use><use xlink:href="#transformed-85922" transform="translate(-250, 250)"></use><use xlink:href="#transformed-85922" transform="translate(0, 250)"></use><use xlink:href="#transformed-85922" transform="translate(250, 250)"></use><use xlink:href="#transformed-07645" transform="translate(-250, -250)"></use><use xlink:href="#transformed-07645" transform="translate(0, -250)"></use><use xlink:href="#transformed-07645" transform="translate(250, -250)"></use><use xlink:href="#transformed-07645" transform="translate(-250, 0)"></use><use xlink:href="#transformed-07645" transform="translate(0, 0)"></use><use xlink:href="#transformed-07645" transform="translate(250, 0)"></use><use xlink:href="#transformed-07645" transform="translate(-250, 250)"></use><use xlink:href="#transformed-07645" transform="translate(0, 250)"></use><use xlink:href="#transformed-07645" transform="translate(250, 250)"></use><use xlink:href="#transformed-43524" transform="translate(-250, -250)"></use><use xlink:href="#transformed-43524" transform="translate(0, -250)"></use><use xlink:href="#transformed-43524" transform="translate(250, -250)"></use><use xlink:href="#transformed-43524" transform="translate(-250, 0)"></use><use xlink:href="#transformed-43524" transform="translate(0, 0)"></use><use xlink:href="#transformed-43524" transform="translate(250, 0)"></use><use xlink:href="#transformed-43524" transform="translate(-250, 250)"></use><use xlink:href="#transformed-43524" transform="translate(0, 250)"></use><use xlink:href="#transformed-43524" transform="translate(250, 250)"></use></svg>