<?xml version="1.0" encoding="utf-8"?>
<!-- Generator: Adobe Illustrator 16.0.0, SVG Export Plug-In . SVG Version: 6.00 Build 0)  -->
<!DOCTYPE svg PUBLIC "-//W3C//DTD SVG 1.1//EN" "http://www.w3.org/Graphics/SVG/1.1/DTD/svg11.dtd">
<svg version="1.1" id="_x30_1" xmlns="http://www.w3.org/2000/svg" xmlns:xlink="http://www.w3.org/1999/xlink" x="0px" y="0px"
	 width="66px" height="143.998px" viewBox="0 0 66 143.998" enable-background="new 0 0 66 143.998" xml:space="preserve">
<g>
	<g>
		<g>
			<path fill="#4F0808" d="M18.407,61.413c-1.678,4.729-5.889,18.787-6.734,24.659c-1.051,8.716-1.934,30.858-1.934,30.858
				s0.389-4.787,5.754-7.514c5.365-2.729,9.109,0.863,11.148-7.778c0,0,8.059-5.779,9.854-16.151l-6.479-34.945
				C30.017,50.542,21.696,52.928,18.407,61.413z"/>
			<g>
				<path fill="#2E2E42" d="M32.917,126.854c0,0-0.236,1.104-1.055,2.645c0,0,2.496,5.166,8.738,10.159l0.516-0.786
					c0,0-5.127-7.205-3.809-10.736L32.917,126.854z"/>
				<path opacity="0.3" fill="#2E2E42" d="M37.308,128.135l-4.391-1.281c0,0-0.137,0.639-0.563,1.619
					c0.822,1.211,3,4.08,5.863,5.284C37.345,131.774,36.751,129.626,37.308,128.135z"/>
			</g>
			<g>
				<path fill="#3A3A52" d="M45.749,69.027l-14.27,7.042c0,0-0.107,2.613,0.879,7.177c0.984,4.565,2.818,25.835,0.367,40.937
					l-0.922,1.063l0.307,1.434c1.59,2.238,3.791,3.523,5.691,1.829c0,0,1.584-12.193,2.455-21.927
					c0.74-8.295,0.65-14.002,0.904-18.09c6.451,1.293,19.084,1.07,21.764-4.486C65.198,79.286,54.772,71.131,45.749,69.027z
					 M41.817,83.864c0.381-1.341,0.957-2.414,1.857-3.32c2.824-2.844,7.273-2.59,11.609,1.178
					C50.726,83.973,43.694,83.921,41.817,83.864z"/>
				<path opacity="0.4" fill="#3A3A52" d="M62.925,84.004c0.252-0.522,0.34-1.089,0.299-1.683c-0.605,1.794-1.723,3.963-7.236,5.107
					c-5.287,1.097-8.572-1.583-9.367-3.688c-2.162,0.172-3.979,0.147-4.803,0.122c0.381-1.341,0.957-2.414,1.857-3.32
					c2.824-2.844,7.273-2.59,11.609,1.178c0,0,1.453,1.629,2.896,1.883c0,0-1.691-1.17-2.705-2.215s-5.973-5.15-10.164-3.199
					c-3.615,1.684-4.156,5.125-4.15,10.301C47.612,89.784,60.245,89.561,62.925,84.004z"/>
				<path opacity="0.4" fill="#3A3A52" d="M31.804,125.245c0,0,1.299,2.092,3.303,2.336c0,0-1.611-1.08-2.381-3.398L31.804,125.245z
					"/>
			</g>
			<g>
				<path fill="#2E2E42" d="M31.479,76.069c2.311,2.408,7.24,2.326,11.541-1.358c4.65-3.984,3.693-6.788,3.693-6.788L31.479,76.069z
					"/>
				<path fill="#4A4A64" d="M41.419,74.19c0,0,0.223,1.344,0.279,1.861c0,0,1.785-1.186,2.756-2.375c0,0,0.021-1.158-0.189-1.943
					L41.419,74.19z"/>
			</g>
			<g>
				<g>
					<path fill="#F9BA85" d="M39.368,15.022c0,0-0.453,0.343-1.289,0.122c-0.836-0.22-2.268-0.412-2.639-1.038
						c-0.373-0.627,0.168-1.757,0.168-1.757s-2.07-2.603-0.275-3.267c0,0,0.041-0.742,0.58-1.021
						c0.496-0.26,1.139,0.052,1.139,0.052s0.887-1.009,1.842-0.104c0,0,0.766-0.754,1.488,0.354
						c0.725,1.108,0.697,1.632,0.559,1.923c0,0,0.889,1.233,0.902,1.955c0.012,0.725-0.115,1.223-0.115,1.223l-0.813,1.559H39.368z"
						/>
					<path fill="#E7985D" d="M35.608,12.349c0,0,1.16-1.864,1.961-1.479c0.803,0.383-0.209,2.498-0.209,2.498
						s1.465-1.002,3.18-0.092c0,0-0.887-1.141-2.061-1.03l0.156-0.419c0,0,1.199,0.305,1.141-0.887c0,0,0.93,0.488,1.164-0.654
						c0,0-0.93,0.631-1.574-0.08c0,0,0.203,1.262-0.957,1.064c0,0,0.078-0.725-0.723-0.927
						C36.888,10.141,35.929,11.116,35.608,12.349z"/>
				</g>
				<g>
					<path fill="#C7DADD" d="M39.927,48.683c0,0-3.178-1.601-5.109-6.522c0,0,9.377-9.848,5.459-25.32l2.223-1.291
						C42.499,15.549,50.343,32.864,39.927,48.683z"/>
					<path fill="#C7DADD" d="M43.261,15.963l-3.338,1.852l-0.891-2.597c0,0,1.654-1.376,2.746-1.72L43.261,15.963z"/>
				</g>
			</g>
			<g>
				<path fill="#DFE9EB" d="M24.862,51.348c0,0,2.932,2.014,4.186,7.152c0,0-10.617,8.494-8.818,24.354l-2.373,0.98
					C17.856,83.834,12.413,65.622,24.862,51.348z"/>
				<path fill="#DFE9EB" d="M17.155,83.323l3.557-1.387l0.533,2.693c0,0-1.826,1.14-2.953,1.334L17.155,83.323z"/>
				<path fill="#F9BA85" d="M20.644,84.637c0,0,1.617,0.061,2.236,0.482c0.621,0.422,1.02,1.121,1.814,1.875
					c0.557,0.528,1.063,1.313-0.072,1.635c0,0-0.09,1.394-0.389,2.296c-0.314,0.947-1.27,0.821-1.594,0.095
					c0,0-0.719,0.377-1.521-0.431c0,0-0.916,0.087-1.543-0.593c0,0-0.736,0.337-1.236-0.582c-0.424-0.779-0.26-2.369-0.184-2.923
					c0.057-0.427,0.629-1.252,0.629-1.252L20.644,84.637z"/>
				<path fill="#DFE9EB" d="M27.257,57.768c1.373,2.512,2.533,7.271,2.904,14.305c0.082,1.571,0.137,3.538,0.77,4.08
					c0.682,0.582,5.889,2.654,11.877-2.471s4.52-9.079,3.477-11.765c-1.797-4.626-4.002-10.618-9.525-18.147l-11.588,8.927
					L27.257,57.768z"/>
				<path fill="#DFE9EB" d="M39.089,51.818c0,0-0.305-2.894-2.152-5.146l-1.73,3.25L28.03,52.26c0,0,3.459,2.601,7.371,3.254
					l0.744-2.86c1.541,2.517,6.188,10.933,6.459,21.194c0.068-0.056,0.135-0.109,0.203-0.166c0.258-0.221,0.498-0.439,0.729-0.656
					c-0.258-4.727-1.592-12.082-6.791-21.123L39.089,51.818z"/>
			</g>
			<g>
				<path fill="#8C0000" d="M18.407,61.413c0,0,1.633-3.814,5.832-6.665c4.197-2.851,7.986-1.52,11.244-4.424
					c3.258-2.905,2.385-9.438,1.51-11.42c0,0-1.637,1.89-4.297,3.833C26.153,47.516,21.456,52.356,18.407,61.413z"/>
				<path fill="#8C0000" d="M33.806,50.356c0,0-2.404,1.494-2.781,3.619c-0.381,2.125,2.006,3.979,1.707,6.194
					c0,0,1.969-2.163,1.719-4.538s0.061-3.303,0.572-4.003l1.809-1.614c0,0,0.588-0.524,2.01,0.157
					c1.42,0.683,1.807,2.937,1.682,3.617c0,0,2.285-2.876,0.348-5.348c-1.76-2.247-4.518-2.06-5.484,0.589L33.806,50.356z"/>
				<path fill="#8C0000" d="M11.673,86.072c-1.303,6.795-4.971,12.882-6.719,19.422c-1.746,6.541-0.809,17.184,7.895,20.144
					c0,0-2.404-6.031-1.529-15.314C11.899,104.174,11.743,94.891,11.673,86.072z"/>
			</g>
			<path fill="#E7985D" d="M28.353,49.102c1.826,0.104,3.549,0.029,5.865,0.076c0,0,0.793-1.844,0.52-4.092
				c-0.898-1.311-1.639-2.87-2.119-4.501l-6.514,3.808C26.104,44.393,27.272,46.493,28.353,49.102z"/>
			<path fill="#8C0000" d="M33.983,48.585c-1.168,0.771,0.236,3.456,0.686,3.651c0.447,0.193,2.801-1.414,2.549-2.057
				C36.964,49.536,34.847,48.016,33.983,48.585z"/>
			<g>
				<path fill="#F9BA85" d="M20.163,45.235c0,0,5.822,3.25,11.9-2.266s4.506-10.189,1.275-12.859
					c-3.232-2.672-5.721-2.885-8.75-7.139L11.397,36.234l2.754,4.47L20.163,45.235z"/>
				<g>
					<path fill="#763C26" d="M18.925,41.913c0,0,2.43-3.314-4.67-4.413c0,0,8.873-2.598,9.115-12.069c0,0,3.74-0.935,3.197-3.014
						c-0.541-2.079-3.195-2.164-5.418-0.886c0,0,1.258-1.601,0.252-1.979c-1.01-0.379-2.57,1.635-2.689,2.977
						c0,0-4.996,1.732-7.813,6.504c-2.814,4.772-1.08,8.158-0.105,9.188c0,0-0.822,4.119,6.217,5.713L18.925,41.913z"/>
					<path opacity="0.15" fill="#763C26" d="M21.19,23.463c0,0,3.797,0.397,4.775-2.104c-1.043-0.996-3.063-0.838-4.816,0.171
						c0,0,1.258-1.601,0.252-1.979c-1.01-0.379-2.57,1.635-2.689,2.977c0,0-4.996,1.732-7.813,6.504
						c-2.814,4.772-1.08,8.158-0.105,9.188c0,0-0.57,2.875,3.35,4.752c0.281-1.391,0.258-3.665-2.096-5.516
						C12.048,37.456,21.935,34.549,21.19,23.463z"/>
				</g>
				<path fill="#F9BA85" d="M18.925,41.913c0,0-2.969,0.428-2.207,3.138c0.764,2.712,6.082,3.586,5.811-1.024L18.925,41.913z"/>
				<path fill="#E7985D" d="M19.36,42.972c0,0-2.182,0.562-1.566,2.047c0.686,1.649,2.373,1.373,3.139,0.364
					C20.933,45.383,18.046,45.42,19.36,42.972z"/>
				<path fill="#E7985D" d="M28.509,32.055c-0.303,0.629,2.041,2.939,3.316,2.129c1.277-0.811,0.939-2.102-0.5-2.41
					C30.183,31.53,28.872,31.296,28.509,32.055z"/>
				<g>
					<path fill="#682917" d="M31.513,36.716c-1.219,0.885-3.906,0.411-3.596,2.193c0.313,1.782,2.926,2.313,4.855,0.58
						c1.928-1.733,1.768-3.952,0.703-4.235C32.503,34.999,32.39,36.08,31.513,36.716z"/>
					<path fill="#F9DDC5" d="M32.612,35.483c-0.324,0.316-0.576,0.854-1.1,1.233c-1.025,0.746-3.098,0.527-3.537,1.506
						c0.445,0.54,1.449,1.22,3.26-0.1C33.054,36.795,32.878,35.898,32.612,35.483z"/>
				</g>
				<g>
					<path fill="#763C26" d="M21.919,34.917c0.67,0.117,1.725-2.766,1.082-2.98S21.231,34.796,21.919,34.917z"/>
					<path fill="#763C26" d="M26.026,28.163c0.309,0.476,2.088-0.607,1.779-1.081C27.495,26.606,25.716,27.688,26.026,28.163z"/>
					<path fill="#1C2235" d="M24.19,33.93c-0.398,0.718,1.543,2.91,2.418,1.814C27.485,34.648,24.538,33.303,24.19,33.93z"/>
					<path fill="#1C2235" d="M28.317,29.124c-0.543,0.69,1.551,2.307,2.057,1.5C30.878,29.815,28.796,28.513,28.317,29.124z"/>
					<path fill="#FFFFFF" d="M24.769,34.137c-0.332,0.537,0.904,1.32,1.104,0.811C26.069,34.436,24.979,33.795,24.769,34.137z"/>
					<path fill="#FFFFFF" d="M28.726,29.342c-0.275,0.348,0.748,0.967,0.959,0.623C29.896,29.624,28.966,29.038,28.726,29.342z"/>
				</g>
			</g>
		</g>
	</g>
</g>
</svg>
