<svg width="114" height="109" viewBox="0 0 114 109" fill="none" xmlns="http://www.w3.org/2000/svg">
<path fill-rule="evenodd" clip-rule="evenodd" d="M40.9535 92.2265C36.9559 90.7763 33.3854 88.4159 30.6273 85.3993C30.5844 85.3534 30.5439 85.3069 30.5032 85.2578L23.8288 77.1507C22.8318 75.9414 19.5186 71.4648 18.8189 64.7031C17.4251 51.2309 27.4028 38.8137 41.6578 35.3342C40.0758 33.4602 38.6483 31.3734 37.2455 29.3229C34.4517 25.2395 31.8135 21.3832 28.8346 20.3026C28.0954 20.0344 27.346 19.9438 26.5437 20.026C25.9835 20.0835 25.4069 20.0122 24.8772 19.82C23.7742 19.4199 22.9094 18.5114 22.5638 17.3891C22.0382 15.6741 22.8012 13.8165 24.3771 12.9684C31.6298 9.06914 37.172 10.2426 41.1903 11.7003C42.7438 12.2638 44.205 12.9346 45.6184 13.5836C46.9513 14.1956 48.2081 14.7727 49.4611 15.2273C52.7505 16.4202 55.8279 16.7381 60.1557 14.4114C60.3145 14.3254 60.4807 14.2519 60.6528 14.1904C62.1956 13.2544 64.0684 13.0601 65.788 13.6839C68.8903 14.8093 70.499 18.2494 69.3735 21.3518L63.5872 37.3022C66.9043 38.1625 70.4052 38.2097 73.6292 37.4165C74.5493 37.1902 75.4973 37.0128 76.4458 36.8895C80.3895 36.3775 84.3895 36.8018 88.0139 38.1166C90.4249 38.9913 92.6223 40.2347 94.5451 41.8124C98.7892 45.2947 101.323 50.1207 101.68 55.4018C101.805 57.2424 101.722 58.5845 101.384 60.1879L99.64 68.9798L99.6164 69.0854C97.8516 76.7242 91.0398 82.8664 82.6617 84.3931C81.4339 84.6165 80.1865 84.743 78.9534 84.7689C75.2076 84.8473 71.4833 86.0999 68.4664 88.2958C64.5128 91.1729 59.7863 93.0353 54.798 93.6822C50.0618 94.2971 45.2742 93.7939 40.9535 92.2265" fill="#F2F2F2"/>
<path fill-rule="evenodd" clip-rule="evenodd" d="M75.8778 46.5546C75.3644 46.6809 74.8386 46.7945 74.3145 46.8923C74.0479 46.942 73.7846 46.9163 73.5468 46.83C73.0746 46.6587 72.7029 46.2493 72.6042 45.72C72.4555 44.9241 72.9804 44.1583 73.7764 44.0097C74.2461 43.922 74.7174 43.8203 75.1769 43.7071C75.9632 43.5136 76.7575 43.9942 76.951 44.7805C77.1447 45.5669 76.6641 46.3611 75.8778 46.5546V46.5546ZM58.6017 42.4713C58.6822 42.5019 58.7662 42.5322 58.8438 42.5627C59.057 42.6462 59.2757 42.7285 59.4921 42.807C62.3508 43.8439 65.3528 44.397 68.4153 44.4514C69.2248 44.4657 69.8694 45.1338 69.8553 45.9433C69.841 46.7529 69.1731 47.3975 68.3635 47.3834C64.9767 47.3234 61.6555 46.711 58.4921 45.5636C58.2526 45.4767 58.0109 45.3857 57.7737 45.2927C57.7185 45.2711 57.6585 45.2496 57.6017 45.2279L55.0589 52.2374C55.5548 52.5146 56.0294 52.826 56.4755 53.1732C58.6234 54.8451 59.9758 57.184 60.2835 59.7593C60.62 62.5769 59.7003 65.3798 57.6935 67.6516C55.7127 69.8939 52.9033 71.3518 49.7829 71.7568C47.6954 72.0276 45.6068 71.7953 43.725 71.1126C42.5813 70.6977 41.514 70.1166 40.5694 69.3812C38.4215 67.7093 37.0691 65.3704 36.7614 62.7951C36.4249 59.9775 37.3447 57.1747 39.3513 54.903C41.3322 52.6605 44.1416 51.2026 47.262 50.7976C47.8786 50.7175 48.4952 50.6823 49.1067 50.6887L51.5771 43.8788C50.0597 43.7509 48.5163 43.7615 46.975 43.9323C42.7636 44.3989 38.826 45.9411 35.5876 48.3927C35.1761 48.7042 34.653 48.7654 34.2015 48.6016C33.9446 48.5084 33.711 48.3426 33.5338 48.1086C33.045 47.463 33.1722 46.5432 33.8178 46.0546C37.4775 43.2841 41.9156 41.5426 46.6522 41.0179C48.6484 40.7964 50.6531 40.8018 52.6118 41.0268L53.268 39.2179C51.0317 38.9245 48.7367 38.8978 46.4455 39.1518C43.0384 39.5293 39.7845 40.4934 36.7744 42.0175C33.8731 43.4864 31.3251 45.4075 29.2015 47.7275C27.084 50.0406 25.5008 52.6272 24.4961 55.4154C23.4586 58.2945 23.0884 61.2599 23.3958 64.2292C23.6807 66.9843 24.5264 69.6034 25.909 72.0142C27.2463 74.3461 29.0437 76.4138 31.2506 78.1601C33.2736 79.7605 35.6313 81.0599 38.1598 81.9772C38.8545 82.2293 39.5621 82.4524 40.2793 82.6452C43.7802 83.5857 47.4384 83.818 51.1523 83.336C55.8696 82.7237 60.3285 80.9698 64.0469 78.2638C68.2251 75.2231 73.3807 73.4887 78.5638 73.3798C79.6691 73.3568 80.7896 73.2429 81.894 73.0418C86.3266 72.2343 90.3245 70.0042 93.1515 66.7622C95.9556 63.5465 97.3544 59.622 97.0899 55.7117C96.8192 51.7106 94.879 48.0375 91.6265 45.369C87.7408 42.181 82.4233 40.7533 77.0377 41.4522C76.2608 41.553 75.4838 41.6985 74.7284 41.8842C69.993 43.0492 64.8329 42.7472 60.1263 41.0398C59.9256 40.967 59.7262 40.8919 59.5274 40.814C59.4328 40.777 59.3371 40.7425 59.242 40.7065L58.6017 42.4713Z" fill="#73E856"/>
<path fill-rule="evenodd" clip-rule="evenodd" d="M75.1769 43.7076C74.7174 43.8206 74.2461 43.9224 73.7764 44.0101C72.9804 44.1586 72.4555 44.9244 72.6042 45.7203C72.7029 46.2496 73.0745 46.6592 73.5466 46.8304C73.7844 46.9167 74.0479 46.9425 74.3143 46.8927C74.8384 46.7949 75.3644 46.6812 75.8777 46.5551C76.6639 46.3614 77.1445 45.5671 76.951 44.7808C76.7574 43.9947 75.9632 43.5141 75.1769 43.7076" fill="#F2F2F2"/>
<path fill-rule="evenodd" clip-rule="evenodd" d="M58.4921 45.5638C61.6555 46.7112 64.9766 47.3234 68.3633 47.3834C69.173 47.3977 69.841 46.7531 69.8551 45.9435C69.8695 45.1338 69.2249 44.4657 68.4153 44.4515C65.3527 44.3972 62.3506 43.844 59.4921 42.8072C59.2756 42.7286 59.057 42.6462 58.8437 42.5627C58.7661 42.5324 58.6821 42.5021 58.6016 42.4714L57.6016 45.228C57.6585 45.2498 57.7185 45.2712 57.7736 45.2929C58.0108 45.3857 58.2525 45.4768 58.4921 45.5638" fill="#F2F2F2"/>
<path fill-rule="evenodd" clip-rule="evenodd" d="M33.8178 46.0548C33.1721 46.5435 33.045 47.4631 33.5338 48.1087C33.711 48.3427 33.9445 48.5087 34.2014 48.6019C34.653 48.7657 35.1761 48.7043 35.5876 48.3928C38.8259 45.9414 42.7636 44.399 46.975 43.9324C48.5163 43.7617 50.0596 43.7512 51.5771 43.8789L52.6117 41.027C50.6531 40.8019 48.6484 40.7967 46.6521 41.018C41.9155 41.5427 37.4774 43.2842 33.8178 46.0548" fill="#F2F2F2"/>
<path fill-rule="evenodd" clip-rule="evenodd" d="M45.7004 64.9915C45.6025 65.2615 45.5937 65.5418 45.6587 65.8007C45.7672 66.2324 46.081 66.604 46.5309 66.7672C46.9806 66.9304 47.4598 66.8464 47.8197 66.5846C48.0356 66.4276 48.2087 66.2069 48.3066 65.937L65.0498 19.7833C65.0824 19.6934 65.105 19.6023 65.1185 19.5111C65.2124 18.8732 64.8491 18.2361 64.2194 18.0076C63.6145 17.7882 62.9606 18.0196 62.6109 18.5248C61.4211 21.8009 60.2102 25.0915 59.0372 28.2782C58.5965 29.4754 58.1494 30.6905 57.7011 31.9109L45.7004 64.9915Z" fill="#F2F2F2"/>
<path fill-rule="evenodd" clip-rule="evenodd" d="M53.9396 37.3178C55.1136 34.0862 56.3079 30.8418 57.4648 27.699C58.4517 25.0181 59.4659 22.2634 60.4709 19.5066C57.6105 20.7119 54.8301 21.1089 52.0234 20.7191C49.0125 20.301 46.3152 19.0459 43.7069 17.8324C39.3149 15.7889 35.1307 13.842 29.5538 15.7073C29.8369 15.7821 30.1156 15.8695 30.3891 15.9687C34.7724 17.5588 37.9476 22.2007 41.0427 26.7247C42.9599 29.5273 44.9425 32.4252 47.1403 34.4475C49.3704 36.4995 51.5443 37.4204 53.9396 37.3178" fill="#FF78C8"/>
<path fill-rule="evenodd" clip-rule="evenodd" d="M25.9091 72.0143C24.5265 69.6036 23.681 66.9843 23.3959 64.2294C23.0884 61.26 23.4588 58.2947 24.4963 55.4156C25.501 52.6274 27.0841 50.0407 29.2015 47.7276C31.3251 45.4076 33.8731 43.4866 36.7745 42.0176C39.7848 40.4934 43.0384 39.5294 46.4455 39.1518C48.7367 38.8979 51.0318 38.9247 53.268 39.2181L52.6118 41.0269L51.5772 43.8788L49.1067 50.6888C48.4952 50.6824 47.8787 50.7176 47.2621 50.7978C44.1417 51.2027 41.3322 52.6606 39.3514 54.9031C37.3448 57.1748 36.4249 59.9776 36.7615 62.7951C37.0693 65.3705 38.4215 67.7094 40.5695 69.3814C41.514 70.1167 42.5813 70.6978 43.725 71.1127C45.6068 71.7954 47.6956 72.0278 49.783 71.7569C52.9035 71.3519 55.7129 69.894 57.6937 67.6517C59.7005 65.3798 60.6202 62.577 60.2836 59.7594C59.9758 57.1842 58.6236 54.8453 56.4757 53.1732C56.0296 52.826 55.5549 52.5148 55.0589 52.2375L57.6018 45.228L58.6018 42.4714L59.242 40.7066C59.3372 40.7424 59.433 40.777 59.5275 40.8141C59.7264 40.892 59.9257 40.9672 60.1264 41.04C64.8331 42.7474 69.9932 43.0494 74.7284 41.8843C75.4839 41.6986 76.261 41.5532 77.0377 41.4523C82.4233 40.7534 87.7408 42.1811 91.6265 45.3691C94.879 48.0376 96.8194 51.7108 97.0899 55.7118C97.3544 59.6222 95.9558 63.5466 93.1517 66.7623C90.3246 70.0043 86.3266 72.2342 81.8942 73.0419C80.7899 73.2429 79.6692 73.3569 78.5638 73.3799C73.3807 73.4888 68.2253 75.2233 64.0469 78.2639C60.3285 80.9699 55.8698 82.7238 51.1525 83.3361C47.4385 83.8182 43.7802 83.5858 40.2795 82.6454C39.5621 82.4526 38.8547 82.2294 38.1598 81.9773C35.6314 81.0601 33.2736 79.7606 31.2507 78.1603C29.0438 76.414 27.2464 74.3462 25.9091 72.0143M47.1404 34.4476C44.9426 32.4253 42.96 29.5274 41.0429 26.7249C37.9478 22.2007 34.7726 17.5589 30.3894 15.9688C30.1158 15.8695 29.8371 15.7821 29.5538 15.7074C35.1309 13.8421 39.315 15.789 43.7069 17.8325C46.3154 19.0461 49.0126 20.3011 52.0235 20.7192C54.8303 21.1091 57.6106 20.712 60.471 19.5067C59.4659 22.2635 58.4518 25.0182 57.4649 27.6991C56.3081 30.842 55.1136 34.0863 53.9398 37.318C51.5445 37.4205 49.3706 36.4997 47.1404 34.4476M64.2195 18.0077C64.8491 18.2361 65.2125 18.8733 65.1187 19.5111C65.1053 19.6023 65.0824 19.6934 65.0498 19.7833L48.3066 65.937C48.2088 66.2068 48.0358 66.4277 47.8198 66.5847C47.46 66.8465 46.9808 66.9305 46.531 66.7673C46.0811 66.6041 45.7672 66.2324 45.6589 65.8008C45.5938 65.5419 45.6027 65.2614 45.7006 64.9916L57.7012 31.911C58.1496 30.6906 58.5966 29.4755 59.0375 28.2781C60.2104 25.0916 61.4213 21.801 62.6111 18.5248C62.9608 18.0195 63.6147 17.7883 64.2195 18.0077M96.7614 68.4497C96.7634 68.4411 96.7651 68.4327 96.7668 68.4241L98.4977 59.7051C98.5027 59.679 98.5082 59.6533 98.5131 59.6272L98.5226 59.5802C98.8028 58.2468 98.8677 57.1671 98.7617 55.5991C98.4596 51.1319 96.303 47.039 92.6892 44.0739C92.4241 43.8565 92.1531 43.6464 91.8762 43.444C91.2256 42.9683 90.5407 42.5398 89.8321 42.1493C86.0198 40.0471 81.441 39.1915 76.8221 39.7908C76.4046 39.8451 75.9873 39.9112 75.5727 39.9887C75.5706 39.9891 75.5685 39.9894 75.5664 39.9898C75.1499 40.0676 74.736 40.1572 74.3279 40.2574C69.8428 41.3611 64.9463 41.0472 60.4934 39.3853C60.3751 39.3411 60.2559 39.3001 60.1382 39.254C60.0306 39.212 59.9212 39.1735 59.8129 39.1327L66.6249 20.3549C67.2006 18.7679 66.3779 17.0084 64.7909 16.4327C63.662 16.0231 62.4481 16.3238 61.6325 17.1012C61.6099 17.1109 61.5855 17.114 61.5634 17.1258C54.4169 20.9678 49.5579 18.707 44.4137 16.3136C41.8052 15.0998 39.108 13.8449 36.0971 13.4267C32.6778 12.952 29.2975 13.6447 25.7639 15.5446C25.4115 15.734 25.2423 16.1459 25.3596 16.5282C25.477 16.9105 25.848 17.1568 26.2458 17.1161C28.8478 16.8498 31.1726 17.7499 33.5622 19.9487C35.7599 21.9708 37.7425 24.8687 39.6597 27.6712C42.2189 31.4121 44.835 35.2284 48.1416 37.3384C47.5151 37.3686 46.8879 37.4173 46.2607 37.4867C42.6537 37.8862 39.2074 38.9079 36.0174 40.5228C32.9352 42.0835 30.226 44.1269 27.9654 46.5964C25.6976 49.0739 24 51.85 22.9196 54.8478C22.2786 56.627 21.8812 58.438 21.7129 60.2635C21.5863 61.6372 21.5857 63.0187 21.729 64.4022C21.7289 64.4024 21.729 64.4026 21.729 64.403C21.764 64.7412 21.809 65.0773 21.86 65.4118C21.8711 65.4858 21.8839 65.5592 21.8957 65.6329C21.9445 65.933 21.9979 66.2319 22.0594 66.5287C22.0648 66.5547 22.0698 66.5806 22.075 66.6064C22.3804 68.0717 22.8322 69.5022 23.4332 70.8777C24.352 72.9794 25.3841 74.4384 26.0879 75.2915L26.0997 75.3061C26.4202 75.7247 26.7575 76.133 27.1092 76.5322L32.7483 83.3825C32.7574 83.3937 32.7667 83.4045 32.7764 83.4151C35.211 86.0805 38.3857 88.1702 41.9729 89.4715C42.0678 89.506 42.1635 89.54 42.2592 89.5734C46.0671 90.9022 50.2729 91.32 54.422 90.7814C58.9258 90.1969 63.1871 88.5195 66.7448 85.9306C70.2404 83.3863 74.5545 81.9352 78.8919 81.8444C79.9698 81.8217 81.0618 81.7108 82.1374 81.5149C85.7339 80.8596 89.027 79.2588 91.6604 76.8851C94.2648 74.5377 96.0286 71.6208 96.7614 68.4497" fill="#000055"/>
</svg>
