<svg width="75" height="100" viewBox="0 0 75 100" fill="none" xmlns="http://www.w3.org/2000/svg">
<path fill-rule="evenodd" clip-rule="evenodd" d="M53.7863 99.5573C51.7035 99.5573 49.6792 98.9497 47.9321 97.8006C47.8811 97.7679 47.419 97.4629 47.419 97.4629C47.3797 97.437 47.3366 97.4077 47.2935 97.3772L47.1347 97.2738C47.0828 97.2393 46.9612 97.1544 46.9612 97.1544C46.9135 97.1251 46.8674 97.0955 46.822 97.0651C46.7959 97.0482 46.6747 96.9648 46.6747 96.9648L46.5882 96.9035C44.8065 95.7525 43.4146 94.0888 42.5853 92.1077L38.3252 81.9283C38.0875 81.3604 37.7298 80.8395 37.2819 80.4054C36.7477 80.1756 36.185 80.0531 35.6052 80.0409C30.0886 79.9217 24.6364 78.3934 19.838 75.6208C19.0613 75.1722 18.2929 74.6857 17.5543 74.1749L17.3098 74.0116L16.5587 73.5112C16.5587 73.5112 16.2528 73.3082 16.2134 73.2802C11.0659 69.7458 7.03504 64.7781 4.59103 58.938L2.58934 54.1549C0.862996 50.0303 -0.0081594 45.6838 5.7588e-05 41.2369C-0.0242833 27.8886 7.82123 15.9347 19.988 10.7934C24.078 9.06457 28.3758 8.18861 32.7621 8.18861C36.2349 8.18861 39.6695 8.74117 42.9912 9.83372C45.2543 8.57249 47.8522 7.88862 50.448 7.88862C51.0016 7.88862 51.5602 7.91962 52.108 7.98071C52.761 8.05342 53.4071 8.16908 54.0438 8.3266L55.5562 3.01982C56.0707 1.21379 57.6793 0 59.5591 0C59.6572 0 59.7568 0.00310075 59.8566 0.0103875C61.9259 0.163254 63.6112 1.76278 63.8783 3.81485C63.9125 4.08121 63.9125 4.08121 64.0746 4.27159C64.2435 4.47097 64.2436 4.47097 64.7677 4.61748C65.7638 4.89608 67.4286 5.36151 69.0322 7.25079C70.637 9.14101 70.8261 10.8596 70.9388 11.8869C70.9985 12.4276 70.9985 12.4276 71.1677 12.6272C71.3292 12.8173 71.3292 12.8173 71.5858 12.8946C73.5684 13.4906 74.874 15.413 74.6912 17.4661C74.5129 19.4587 73.0035 21.0085 71.0201 21.2359L65.5367 21.8679C65.6141 22.8248 65.5995 23.7862 65.4927 24.7472C65.3263 26.2381 64.94 27.685 64.3414 29.0647C64.3924 29.1822 64.4423 29.2993 64.4911 29.4163L66.6156 34.4924C69.4139 41.1783 69.9314 48.4142 68.1122 55.4177C66.719 60.7818 63.9808 65.738 60.1934 69.7507C58.9583 71.0594 58.6124 72.9853 59.3123 74.6572L63.5724 84.8371C65.8332 90.2389 63.2778 96.4728 57.8759 98.7337C56.5709 99.2801 55.1948 99.5573 53.7863 99.5573" fill="#F2F2F2"/>
<path fill-rule="evenodd" clip-rule="evenodd" d="M34.3079 74.5456C37.8663 74.6224 41.0567 76.8014 42.4359 80.0967L46.696 90.2764C48.0083 93.4117 51.6265 94.8949 54.7619 93.5828C56.2806 92.947 57.4609 91.758 58.0854 90.2346C58.71 88.7113 58.7037 87.0359 58.0682 85.5172L53.8079 75.3373C52.4288 72.0421 53.1161 68.2403 55.5592 65.6519C58.4401 62.5992 60.6192 58.914 61.9219 54.9114L22.1919 71.5387C25.9571 73.4202 30.1115 74.4549 34.3079 74.5456" fill="#FFF6B8"/>
<path fill-rule="evenodd" clip-rule="evenodd" d="M19.0014 21.8577C17.0324 23.28 15.3003 25.0018 13.8533 26.9753C12.4324 28.9133 11.3131 31.0562 10.5264 33.3446C10.3174 33.9525 9.74858 34.3346 9.14006 34.3346C8.98192 34.3346 8.82114 34.3089 8.66316 34.2545C7.89743 33.9912 7.49015 33.1571 7.75325 32.3912C8.63618 29.8233 9.89276 27.4176 11.4886 25.2414C13.1168 23.0206 15.0668 21.0825 17.2843 19.4806C17.9408 19.0064 18.8572 19.1543 19.3314 19.8106C19.8055 20.467 19.6578 21.3834 19.0014 21.8577M9.45121 37.8253C9.34764 38.5615 9.27757 39.3106 9.24284 40.0523C9.20594 40.8377 8.55757 41.4498 7.77928 41.4498C7.75618 41.4498 7.73293 41.4493 7.70952 41.4481C6.90069 41.4103 6.27573 40.7239 6.31371 39.9149C6.35263 39.083 6.43139 38.2424 6.54767 37.4167C6.66038 36.6148 7.40223 36.0564 8.20378 36.1692C9.00563 36.282 9.56423 37.0235 9.45121 37.8253M32.8045 12.6489H32.7695C28.9706 12.6489 25.254 13.4054 21.7226 14.8976C18.1921 16.3895 15.064 18.5379 12.4247 21.2831C9.87989 23.9299 7.89215 27.0192 6.51666 30.4652C5.14381 33.9039 4.45048 37.5228 4.45559 41.2212C4.46102 45.0429 5.21605 48.7782 6.69961 52.3233L8.7013 57.1064C9.92144 60.0214 11.5951 62.6851 13.6758 65.0237C15.5963 67.182 17.8296 69.0272 20.3192 70.5137L62.506 52.8582C63.1948 50.0416 63.4481 47.1556 63.2588 44.273C63.0539 41.1495 62.3312 38.0876 61.1112 35.1726L59.5437 31.4269C59.1116 31.899 58.6454 32.3384 58.1448 32.7382C56.8649 33.7602 55.4136 34.5081 53.8315 34.9607C52.7121 35.2808 51.5685 35.4418 50.4172 35.4418C49.9569 35.4418 49.4955 35.416 49.034 35.3645C47.609 35.2056 46.2169 34.79 44.9301 34.1543L42.6002 42.329C42.4266 42.9381 41.9043 43.3285 41.2809 43.3285C41.2437 43.3285 41.2061 43.3271 41.1683 43.3243C40.4241 43.2688 39.8134 42.6857 39.7162 41.9377C39.6423 41.3678 39.5227 40.7938 38.8815 40.0385C38.1609 39.1896 37.5674 39.0237 36.8158 38.8135C35.9538 38.5726 34.9766 38.2993 33.924 37.0594C32.8713 35.8196 32.7602 34.8109 32.662 33.9212C32.5768 33.1453 32.5092 32.5325 31.7885 31.6837C31.147 30.9278 30.5994 30.7167 30.0484 30.5509C29.3261 30.3337 28.8495 29.6367 28.9157 28.8933C28.9754 28.2215 29.4634 27.7187 30.1303 27.642L38.5742 26.6691C38.5539 26.6028 38.5313 26.5375 38.5121 26.4707C38.0638 24.9034 37.9279 23.2893 38.1082 21.673C38.331 19.6751 39.0499 17.7383 40.1872 16.0723C40.6668 15.37 41.2185 14.7266 41.8258 14.1405C38.9122 13.1582 35.8865 12.6526 32.8045 12.6489" fill="#FF78C8"/>
<path fill-rule="evenodd" clip-rule="evenodd" d="M17.2844 19.4807C15.0669 21.0825 13.1168 23.0206 11.4886 25.2414C9.89283 27.4177 8.63625 29.8234 7.75332 32.3913C7.49022 33.1571 7.8975 33.9912 8.66339 34.2545C8.82121 34.3089 8.98199 34.3347 9.14013 34.3347C9.7488 34.3347 10.3175 33.9525 10.5265 33.3446C11.3131 31.0562 12.4325 28.9133 13.8534 26.9753C15.3004 25.0019 17.0325 23.28 19.0014 21.8577C19.658 21.3834 19.8058 20.467 19.3315 19.8106C18.8574 19.1543 17.9408 19.0064 17.2844 19.4807" fill="#F2F2F2"/>
<path fill-rule="evenodd" clip-rule="evenodd" d="M8.20397 36.169C7.40228 36.0562 6.66058 36.6146 6.54771 37.4166C6.43143 38.2422 6.35283 39.0828 6.31391 39.9147C6.27577 40.7237 6.90088 41.4102 7.70971 41.4481C7.73313 41.4493 7.75623 41.4498 7.77948 41.4498C8.55761 41.4498 9.20614 40.8375 9.24288 40.0523C9.27776 39.3106 9.34784 38.5614 9.45141 37.8253C9.56427 37.0234 9.00583 36.2819 8.20397 36.169" fill="#F2F2F2"/>
<path fill-rule="evenodd" clip-rule="evenodd" d="M60.0993 15.3282V15.3282C60.7165 16.1011 61.2321 16.9377 61.6447 17.8268L69.5952 16.911C69.0115 16.6566 68.3995 16.2566 67.7679 15.5127C66.7153 14.2727 66.6042 13.2642 66.506 12.3743C66.4206 11.5985 66.3532 10.9858 65.6324 10.1369C64.912 9.28827 64.3185 9.12223 63.5668 8.912C62.7048 8.67107 61.7276 8.39789 60.6749 7.15806C60.0438 6.4145 59.7484 5.74613 59.5922 5.12939L57.3987 12.8251C57.3993 12.8256 57.3999 12.8261 57.4007 12.8265C58.4229 13.5244 59.3309 14.3662 60.0993 15.3282" fill="#F2F2F2"/>
<path fill-rule="evenodd" clip-rule="evenodd" d="M33.0658 30.5992C34.1185 31.8392 34.2297 32.8478 34.3276 33.7377C34.4129 34.5135 34.4805 35.1262 35.2011 35.9752C35.9217 36.8237 36.5154 36.9897 37.267 37.1998C38.129 37.4409 39.1062 37.7142 40.1588 38.9541C40.7899 39.6976 41.0853 40.3658 41.2414 40.9826L43.4352 33.2868C43.4344 33.2864 43.4338 33.2859 43.433 33.2854C42.4107 32.5874 41.5028 31.7459 40.7346 30.7837C40.1171 30.0107 39.6017 29.1745 39.1892 28.2852L31.2385 29.201C31.8222 29.4554 32.4343 29.8552 33.0658 30.5992" fill="#F2F2F2"/>
<path fill-rule="evenodd" clip-rule="evenodd" d="M47.3884 17.9362C45.7718 18.8955 44.7211 20.5115 44.5053 22.3698C44.4188 23.1166 43.785 23.667 43.0508 23.667C42.9943 23.667 42.9374 23.6636 42.8799 23.6569C42.0756 23.5636 41.4993 22.836 41.5926 22.0315C41.7526 20.6521 42.241 19.3137 43.0047 18.1607C43.7419 17.0475 44.7404 16.0979 45.8917 15.4145C46.5879 15.0012 47.4876 15.2306 47.9008 15.927C48.3141 16.6233 48.0847 17.5228 47.3884 17.9362M58.7899 16.3737C58.1257 15.5421 57.3403 14.8142 56.4558 14.2103C55.015 13.2268 53.3409 12.6051 51.6141 12.4125C51.2234 12.369 50.8315 12.3474 50.4406 12.3474C48.0196 12.3474 45.628 13.1711 43.7348 14.6831C42.903 15.3472 42.1753 16.1325 41.5713 17.017C40.5877 18.4577 39.966 20.132 39.7736 21.8588C39.4603 24.6672 40.2879 27.5391 42.044 29.7381C42.7081 30.5696 43.4934 31.2976 44.3779 31.9014C45.8187 32.8851 47.4929 33.5068 49.2199 33.6993C52.0281 34.0125 54.9001 33.1849 57.0992 31.4288C57.9306 30.7648 58.6584 29.9795 59.2626 29.0949C60.2461 27.6541 60.8677 25.9797 61.0604 24.253C61.3736 21.4445 60.546 18.5726 58.7899 16.3737" fill="#66DFFF"/>
<path fill-rule="evenodd" clip-rule="evenodd" d="M61.6446 17.8268C61.2321 16.9377 60.7166 16.1011 60.0992 15.3282C59.3308 14.3662 58.4229 13.5244 57.4006 12.8265C57.3998 12.8261 57.3992 12.8256 57.3986 12.8251L59.5922 5.1294C59.7485 5.74614 60.0437 6.4145 60.6749 7.15806C61.7276 8.3979 62.7048 8.67092 63.5668 8.912C64.3184 9.12208 64.9119 9.28828 65.6325 10.1368C66.3531 10.9858 66.4207 11.5985 66.506 12.3743C66.6041 13.2641 66.7153 14.2727 67.7678 15.5127C68.3994 16.2566 69.0115 16.6566 69.5951 16.911L61.6446 17.8268ZM6.51669 30.4653C7.89219 27.0192 9.87992 23.93 12.4247 21.2832C15.0641 18.5379 18.1921 16.3896 21.7226 14.8976C25.2541 13.4054 28.9706 12.649 32.7695 12.649H32.8045C35.8865 12.6527 38.9122 13.1583 41.8259 14.1406C41.2186 14.7266 40.6668 15.37 40.1874 16.0723C39.0501 17.7384 38.331 19.6751 38.1082 21.6731C37.9279 23.2893 38.0639 24.9036 38.5121 26.4707C38.5313 26.5375 38.5539 26.6028 38.5743 26.6692L30.1303 27.642C29.4636 27.7188 28.9754 28.2215 28.9157 28.8933C28.8497 29.6367 29.3261 30.3338 30.0484 30.551C30.5994 30.7167 31.147 30.9279 31.7886 31.6837C32.5092 32.5327 32.5768 33.1454 32.6622 33.9212C32.7602 34.811 32.8714 35.8196 33.9241 37.0595C34.9766 38.2993 35.9538 38.5726 36.816 38.8136C37.5674 39.0238 38.1609 39.1897 38.8815 40.0385C39.5228 40.7938 39.6423 41.3678 39.7164 41.9377C39.8135 42.6858 40.4242 43.269 41.1683 43.3244C41.2062 43.3272 41.2437 43.3286 41.2809 43.3286C41.9043 43.3286 42.4266 42.9382 42.6003 42.329L44.9302 34.1544C46.217 34.79 47.6091 35.2057 49.034 35.3646C49.4957 35.4161 49.9569 35.4418 50.4173 35.4418C51.5686 35.4418 52.7121 35.2809 53.8315 34.9607C55.4138 34.5082 56.865 33.7603 58.1448 32.7383C58.6454 32.3384 59.1116 31.899 59.5437 31.4269L61.1114 35.1727C62.3314 38.0877 63.0539 41.1495 63.2589 44.273C63.4482 47.1557 63.1948 50.0417 62.5061 52.8582L20.3192 70.5138C17.8298 69.0273 15.5963 67.182 13.676 65.0237C11.5951 62.6851 9.92147 60.0214 8.70148 57.1064L6.69979 52.3234C5.21609 48.7783 4.46105 45.043 4.45563 41.2213C4.45051 37.5229 5.14384 33.904 6.51669 30.4653V30.4653ZM43.4353 33.2868L41.2415 40.9824C41.0854 40.3658 40.79 39.6975 40.1589 38.9539C39.1063 37.7141 38.1291 37.4409 37.2671 37.1998C36.5155 36.9897 35.9218 36.8237 35.2012 35.9752C34.4806 35.1262 34.413 34.5135 34.3278 33.7377C34.2298 32.8478 34.1186 31.8392 33.0659 30.5993C32.4344 29.8552 31.8223 29.4554 31.2386 29.201L39.1893 28.2852C39.6018 29.1743 40.1172 30.0107 40.7347 30.7837C41.5029 31.7458 42.4108 32.5875 43.4331 33.2854C43.4339 33.2859 43.4345 33.2864 43.4353 33.2868V33.2868ZM22.1918 71.5387L61.922 54.9114C60.6192 58.914 58.4402 62.5992 55.5593 65.6519C53.1162 68.2403 52.4289 72.0419 53.808 75.3373L58.0682 85.517C58.7037 87.0358 58.7099 88.7113 58.0854 90.2346C57.461 91.758 56.2805 92.947 54.7618 93.5828C51.6266 94.8949 48.0083 93.4115 46.6961 90.2764L42.436 80.0967C41.0568 76.8014 37.8664 74.6224 34.308 74.5456C30.1114 74.4549 25.957 73.4202 22.1918 71.5387V71.5387ZM43.7347 14.6831C45.6278 13.1712 48.0196 12.3474 50.4405 12.3474C50.8315 12.3474 51.2234 12.369 51.6141 12.4126C53.3408 12.6051 55.015 13.2268 56.4558 14.2104C57.3403 14.8142 58.1257 15.5421 58.7899 16.3738C60.546 18.5728 61.3736 21.4446 61.0603 24.2531C60.8677 25.9797 60.246 27.6541 59.2626 29.0949C58.6584 29.9795 57.9307 30.7648 57.0992 31.4288C54.9002 33.1851 52.0281 34.0125 49.2197 33.6994C47.4929 33.5068 45.8187 32.8851 44.3779 31.9014C43.4934 31.2977 42.708 30.5696 42.044 29.7382C40.2879 27.5393 39.4603 24.6672 39.7736 21.8588C39.966 20.132 40.5877 18.4578 41.5713 17.017C42.1753 16.1325 42.903 15.3473 43.7347 14.6831V14.6831ZM70.7853 15.561C70.2345 15.3953 69.6869 15.1841 69.0452 14.4283C68.3246 13.5795 68.2571 12.9666 68.1717 12.1908C68.0737 11.3011 67.9626 10.2924 66.9098 9.05242C65.8573 7.81258 64.8801 7.53956 64.0181 7.29848C63.2665 7.08825 62.6728 6.92236 61.9522 6.07353C61.3111 5.31818 61.1915 4.74423 61.1177 4.17432C61.0204 3.42611 60.4098 2.84301 59.6654 2.78766C58.993 2.73758 58.4177 3.13758 58.2336 3.783L55.9036 11.9577C54.6168 11.322 53.2248 10.9062 51.7997 10.7474C50.1833 10.5671 48.5692 10.7031 47.0023 11.1513C45.6748 11.5312 44.4414 12.1211 43.3221 12.904C39.9436 11.637 36.4118 10.985 32.8066 10.9806H32.7695C28.7465 10.9806 24.8111 11.7815 21.0732 13.3609C17.3332 14.9415 14.019 17.2178 11.222 20.1269C8.52724 22.9297 6.42277 26.1999 4.96712 29.8467C3.68574 33.0564 2.96605 36.415 2.81768 39.8484C2.79473 40.3425 2.78295 40.838 2.78373 41.3349C2.78931 45.3785 3.58791 49.3301 5.15735 53.0801L7.15904 57.8632C8.45066 60.949 10.2229 63.7696 12.4269 66.2467C14.0418 68.0614 15.8664 69.666 17.8686 71.0386C17.8927 71.0552 17.9177 71.0708 17.9419 71.0872C17.9661 71.1041 17.991 71.1196 18.0152 71.1364C18.0394 71.153 18.0644 71.1686 18.0887 71.1852C18.1129 71.2018 18.1377 71.2175 18.1619 71.2341C18.1861 71.2507 18.2112 71.2663 18.2354 71.2831C18.2596 71.2996 18.2845 71.3153 18.3087 71.3319C18.3329 71.3486 18.3579 71.3641 18.3819 71.3807C18.4061 71.3973 18.431 71.413 18.4552 71.4296C18.4796 71.4465 18.5045 71.462 18.5289 71.4787C18.5531 71.4953 18.578 71.511 18.602 71.5276C18.6262 71.5441 18.651 71.5598 18.6754 71.5764C18.6996 71.5931 18.7245 71.6088 18.7489 71.6254C18.773 71.642 18.798 71.6576 18.8222 71.6742C18.8464 71.691 18.8712 71.7065 18.8955 71.7231C18.9197 71.7398 18.9447 71.7555 18.969 71.772C18.9932 71.7888 19.018 71.8043 19.042 71.8209C19.0662 71.8375 19.0913 71.8533 19.1157 71.8699C19.1399 71.8865 19.1648 71.9023 19.1892 71.9189C19.8507 72.3751 20.5315 72.8058 21.2312 73.2102C25.6251 75.7491 30.6164 77.1487 35.6656 77.2577C36.7931 77.2821 37.8738 77.5686 38.8414 78.0642C39.7188 78.8047 40.4319 79.7506 40.8933 80.8534L45.1538 91.0331C45.6764 92.2818 46.4894 93.3206 47.4784 94.1125C47.4916 94.123 47.5043 94.1342 47.5176 94.1446C47.655 94.2531 47.7959 94.3562 47.9398 94.455C48.0103 94.5046 48.0781 94.5574 48.1503 94.6047C48.1748 94.6212 48.199 94.6376 48.2238 94.6537C48.2683 94.6835 48.3145 94.7106 48.3596 94.7398C48.37 94.7466 48.3798 94.7543 48.3903 94.761C48.4328 94.7901 48.4739 94.8208 48.5171 94.8492C48.553 94.8732 48.5897 94.8959 48.626 94.9193C48.6633 94.9446 48.6995 94.9712 48.7371 94.996C48.7816 95.0258 48.8278 95.0529 48.8729 95.0819C48.8833 95.0889 48.8933 95.0967 48.9036 95.1033C48.9464 95.1325 48.9874 95.1633 49.0308 95.1917C49.0551 95.208 49.0793 95.2244 49.104 95.2405C49.1398 95.2646 49.1765 95.287 49.2128 95.3105C49.2502 95.3359 49.2863 95.3624 49.3241 95.3874C49.3484 95.4036 49.3728 95.4199 49.3974 95.4362C49.8353 95.7298 50.3046 95.983 50.8036 96.1877C51.7632 96.5808 52.7698 96.7774 53.7763 96.7774C54.8016 96.7774 55.8268 96.5734 56.8011 96.1656C60.7868 94.4976 62.6725 89.8978 61.0043 85.9119L56.7442 75.7323C55.62 73.0461 56.1792 69.9483 58.169 67.8398C61.6353 64.167 64.142 59.6295 65.4179 54.7178C66.2272 51.6023 66.5311 48.4012 66.3212 45.2039C66.1041 41.8956 65.3392 38.6534 64.0477 35.5675L61.9234 30.4916C61.7156 29.9953 61.4941 29.5074 61.2625 29.0259C62.042 27.6081 62.5465 26.0445 62.7257 24.4388C62.906 22.8225 62.77 21.2084 62.3217 19.6413C62.3026 19.5743 62.2798 19.5092 62.2597 19.4427L70.7036 18.47C71.3701 18.3933 71.8583 17.8903 71.9182 17.2187C71.9841 16.4753 71.5078 15.7781 70.7853 15.561V15.561Z" fill="#000055"/>
<path fill-rule="evenodd" clip-rule="evenodd" d="M47.9008 15.9271C47.4877 15.2307 46.588 15.0013 45.8917 15.4146C44.7404 16.098 43.7421 17.0476 43.0048 18.1608C42.241 19.3138 41.7528 20.6522 41.5927 22.0316C41.4993 22.8361 42.0758 23.5637 42.8799 23.657C42.9375 23.6637 42.9945 23.6671 43.051 23.6671C43.7851 23.6671 44.4189 23.1167 44.5055 22.3699C44.7212 20.5116 45.772 18.8956 47.3884 17.9363C48.0849 17.5229 48.3142 16.6234 47.9008 15.9271" fill="#F2F2F2"/>
</svg>
