<svg width="56" height="57" viewBox="0 0 56 57" fill="none" xmlns="http://www.w3.org/2000/svg">
<path fill-rule="evenodd" clip-rule="evenodd" d="M27.9293 26.6369C30.0092 29.7125 32.5425 32.2288 35.0618 33.7219C36.2569 34.4303 37.3951 34.8754 38.438 35.0533C39.7542 35.278 40.9192 35.0779 41.8555 34.4444L45.9466 31.6777C47.6259 30.5426 48.2863 28.2078 47.8059 25.1035C47.358 22.2089 45.9662 18.9211 43.886 15.8454C39.4036 9.21673 33.286 5.78762 29.9592 8.03763L25.8687 10.8045C24.1895 11.9397 23.5291 14.2746 24.0095 17.3787C24.4573 20.2732 25.8492 23.5611 27.9293 26.6369" fill="#F2F2F2"/>
<path fill-rule="evenodd" clip-rule="evenodd" d="M27.9293 26.6369C30.0092 29.7125 32.5425 32.2288 35.0618 33.7219C36.2569 34.4303 37.3951 34.8754 38.438 35.0533C39.7542 35.278 40.9192 35.0779 41.8555 34.4444L45.9466 31.6777C47.6259 30.5426 48.2863 28.2078 47.8059 25.1035C47.358 22.2089 45.9662 18.9211 43.886 15.8454C39.4036 9.21673 33.286 5.78762 29.9592 8.03763L25.8687 10.8045C24.1895 11.9397 23.5291 14.2746 24.0095 17.3787C24.4573 20.2732 25.8492 23.5611 27.9293 26.6369Z" stroke="#F2F2F2" stroke-width="5.58135"/>
<path fill-rule="evenodd" clip-rule="evenodd" d="M32.0206 23.87C28.8755 19.2195 27.5362 14.4434 28.1392 11.2092L26.7691 12.1359L26.7688 12.1358C25.6508 12.8924 25.2237 14.7136 25.5978 17.133C26.0104 19.7977 27.3109 22.8529 29.2608 25.7362C31.2107 28.6194 33.5618 30.9643 35.8815 32.3389C37.9882 33.5876 39.8372 33.8688 40.9549 33.113L42.2816 32.2157C41.3044 32.0136 40.2571 31.6094 39.153 30.9552C36.6336 29.462 34.1003 26.9457 32.0206 23.87" fill="#FFF6B8"/>
<path fill-rule="evenodd" clip-rule="evenodd" d="M36.1826 15.5531C37.4394 17.2238 38.7766 17.8543 39.2598 17.6657L40.1441 17.3205C40.5242 17.1724 40.9427 17.3137 41.185 17.6736C41.4277 18.0324 41.4024 18.4733 41.1229 18.7702L40.4745 19.4613C40.1202 19.839 40.2061 21.3151 41.2894 23.1044L42.3053 24.7835C42.5549 25.1968 42.4569 25.7011 42.0775 25.9573C41.8934 26.0817 41.6798 26.1226 41.4755 26.0877C41.2589 26.0508 41.0531 25.9288 40.9042 25.7306L39.7243 24.1626C38.4672 22.4913 37.1287 21.8617 36.6466 22.0504L35.7627 22.3953C35.3833 22.5426 34.9658 22.4017 34.7239 22.0456C34.4808 21.6885 34.5028 21.2485 34.7789 20.9501L35.4324 20.2542C35.7868 19.8769 35.7007 18.4009 34.6175 16.6113L33.6015 14.9321C33.352 14.5196 33.4496 14.0152 33.829 13.7587C34.2085 13.5022 34.7133 13.6002 35.0027 13.9853L36.1826 15.5531ZM30.8599 9.36913C28.6379 10.872 29.1091 16.6954 33.3522 22.9695C35.302 25.8529 37.6533 28.1977 39.9729 29.5724C42.0786 30.8208 43.9287 31.1032 45.0463 30.3463C46.1646 29.5899 46.5916 27.7688 46.2175 25.3493C45.8051 22.6847 44.5045 19.6294 42.5545 16.7462C39.413 12.1008 35.7302 9.46604 33.1281 9.02181C32.2157 8.86584 31.4368 8.97917 30.8599 9.36913V9.36913Z" fill="#FFF6B8"/>
<path fill-rule="evenodd" clip-rule="evenodd" d="M38.8027 19.2834C38.2778 19.2237 37.7096 19.0072 37.1367 18.6505C37.2545 19.3151 37.2452 19.9222 37.1039 20.4323C37.1579 20.4384 37.2123 20.446 37.2672 20.4554C37.7465 20.5373 38.2561 20.7451 38.7698 21.0653C38.652 20.4009 38.6615 19.7933 38.8027 19.2834" fill="#FFF6B8"/>
<path fill-rule="evenodd" clip-rule="evenodd" d="M26.769 12.136L26.7693 12.1362L28.1393 11.2094C27.5363 14.4435 28.8756 19.2198 32.0207 23.8703C34.1006 26.9459 36.6339 29.4622 39.1531 30.9555C40.2572 31.6097 41.3046 32.0138 42.2816 32.2159L40.9549 33.1132C39.8373 33.8691 37.9882 33.5877 35.8818 32.3391C33.5619 30.9646 31.2109 28.6195 29.2609 25.7365C27.3111 22.8532 26.0105 19.798 25.598 17.1331C25.2239 14.7138 25.6508 12.8925 26.769 12.136M30.8598 9.36919C31.4368 8.97914 32.2158 8.86581 33.1281 9.02178C35.7301 9.4661 39.4129 12.1009 42.5546 16.7461C44.5045 19.6294 45.805 22.6847 46.2175 25.3493C46.5916 27.7688 46.1646 29.5901 45.0462 30.3464C43.9288 31.1032 42.0786 30.8208 39.973 29.5725C37.6532 28.1978 35.3021 25.8528 33.3521 22.9696C29.109 16.6955 28.6379 10.872 30.8598 9.36919M27.9296 26.6369C30.0095 29.7125 32.5428 32.2288 35.062 33.7219C36.2571 34.4303 37.3954 34.8754 38.4383 35.0533C39.7544 35.278 40.9194 35.0779 41.8557 34.4444L45.9469 31.6777C47.6261 30.5426 48.2866 28.2078 47.806 25.1036C47.3582 22.2089 45.9664 18.9211 43.8863 15.8454C39.4038 9.21673 33.2862 5.78762 29.9594 8.03763L25.869 10.8045C24.1896 11.9398 23.5293 14.2747 24.0097 17.3787C24.4574 20.2733 25.8494 23.5611 27.9296 26.6369" fill="#000055"/>
<path fill-rule="evenodd" clip-rule="evenodd" d="M38.8028 19.2834C38.6616 19.7933 38.6521 20.4009 38.7699 21.0653C38.2562 20.7451 37.7466 20.5373 37.2673 20.4554C37.2124 20.446 37.158 20.4384 37.1041 20.4323C37.2453 19.9222 37.2546 19.3151 37.1368 18.6505C37.7097 19.0072 38.2779 19.2237 38.8028 19.2834M35.4323 20.2538L34.7788 20.9499C34.5028 21.2483 34.4808 21.6883 34.7239 22.0454C34.9657 22.4013 35.3832 22.5423 35.7626 22.3949L36.6465 22.0502C37.1286 21.8614 38.4672 22.4911 39.7243 24.1624L40.9041 25.7303C41.053 25.9285 41.2588 26.0505 41.4755 26.0876C41.6798 26.1224 41.8933 26.0814 42.0774 25.9569C42.4568 25.7008 42.5548 25.1964 42.3053 24.7833L41.2893 23.1041C40.206 21.3147 40.1201 19.8387 40.4744 19.4612L41.1228 18.7699C41.4024 18.4731 41.4276 18.0321 41.185 17.6734C40.9427 17.3135 40.5242 17.1722 40.1441 17.3203L39.2597 17.6654C38.7765 17.8539 37.4393 17.2235 36.1825 15.5528L35.0027 13.9851C34.7132 13.5999 34.2084 13.502 33.829 13.7585C33.4496 14.015 33.3519 14.5193 33.6014 14.9318L34.6175 16.6111C35.7006 18.4005 35.7867 19.8766 35.4323 20.2538" fill="#000055"/>
<path fill-rule="evenodd" clip-rule="evenodd" d="M15.6904 34.7186C17.7447 32.8773 20.0246 31.2867 22.4664 29.9912C22.5778 29.932 22.6678 29.8485 22.7329 29.7503C22.8761 29.5344 22.8994 29.2496 22.7695 29.0046C22.5807 28.6483 22.1388 28.5133 21.7832 28.7017C19.2361 30.053 16.8586 31.7116 14.7164 33.632C14.4146 33.9016 14.3914 34.3625 14.6602 34.6628C14.9289 34.9627 15.3907 34.9878 15.6904 34.7186" fill="#000055"/>
<path fill-rule="evenodd" clip-rule="evenodd" d="M4.48503 55.8466C4.54369 55.7581 4.58401 55.6557 4.59951 55.5438C5.30566 50.437 7.11919 45.6525 9.99005 41.3226C10.5068 40.5432 11.0602 39.7778 11.6352 39.0467C11.8839 38.7309 11.8287 38.2715 11.5124 38.0224C11.1957 37.773 10.737 37.8278 10.4875 38.1448C9.88924 38.9064 9.31206 39.7043 8.77378 40.5161C5.78115 45.0297 3.89002 50.0184 3.15387 55.3435C3.09872 55.7429 3.3776 56.1112 3.77652 56.1665C4.06378 56.2059 4.33503 56.0728 4.48503 55.8466" fill="#000055"/>
</svg>
