<svg width="116" height="124" viewBox="0 0 116 124" fill="none" xmlns="http://www.w3.org/2000/svg">
<path fill-rule="evenodd" clip-rule="evenodd" d="M43.4581 112.683C37.8981 108.879 34.7237 102.649 34.8521 96.0451C28.8655 98.472 21.8589 97.8859 16.2891 94.0755C15.327 93.4173 14.4148 92.6655 13.5782 91.8414C5.83496 84.2103 5.74318 71.7028 13.3731 63.9597C17.8615 59.4053 24.3355 57.3346 30.6101 58.3546L32.1038 56.8389C33.8296 55.087 36.4818 54.6505 39.3797 55.642C39.9619 55.8409 40.5509 56.0949 41.1411 56.4016C42.6348 55.7621 44.2846 55.2037 46.072 54.7335C46.25 54.5203 46.4442 54.3192 46.6536 54.1309L53.4911 47.9884L45.7695 42.8682C43.497 41.3135 42.6321 38.4544 43.6571 35.9084C44.6824 33.3627 47.2887 31.9013 49.9952 32.3538L59.0582 33.8697L58.2534 24.7157C58.055 22.4562 59.1419 20.3449 61.0896 19.2061C63.0281 18.0718 65.467 18.1504 67.302 19.4058C68.0485 19.9165 68.6543 20.583 69.1016 21.3868L73.5681 29.4193L80.2233 23.0826C82.2253 21.1763 85.217 20.9351 87.4987 22.496C89.7803 24.0569 90.6396 26.9328 89.5887 29.4895L86.094 37.9885L95.1975 39.2408C96.1105 39.3665 96.951 39.6895 97.6976 40.2002C99.5325 41.4555 100.489 43.7001 100.135 45.9182C99.779 48.1464 98.2052 49.924 96.0281 50.5579L87.2042 53.1252L91.9011 61.0227C93.3038 63.3815 92.8862 66.3402 90.8853 68.2176C88.8841 70.0962 85.9054 70.3262 83.6421 68.7778L76.0623 63.43L72.8158 72.0267C72.1807 73.7074 70.8447 74.9771 69.1499 75.5107C68.5342 75.7045 67.8933 75.7909 67.2562 75.7747C68.0473 76.9986 68.3824 78.36 68.2 79.7406L67.9161 81.8877C68.7534 82.6594 69.5229 83.5014 70.2146 84.4041C73.4178 88.5829 74.8018 93.7599 74.1118 98.9811C73.4215 104.202 70.7395 108.841 66.5599 112.045C62.3798 115.248 57.203 116.632 51.9826 115.942C48.8898 115.534 46.022 114.437 43.4581 112.683" fill="#F2F2F2"/>
<path fill-rule="evenodd" clip-rule="evenodd" d="M72.7416 46.7395C72.743 46.5072 72.6822 46.281 72.5669 46.0791C72.6822 46.281 72.743 46.5072 72.7416 46.7395" fill="#FFF6B8"/>
<path fill-rule="evenodd" clip-rule="evenodd" d="M66.3795 53.7688C66.8456 53.3159 67.2568 52.8461 67.6171 52.3697C67.2568 52.8461 66.8456 53.3159 66.3795 53.7688" fill="#FFF6B8"/>
<path fill-rule="evenodd" clip-rule="evenodd" d="M72.1132 49.5934C72.2555 49.076 72.3943 48.5339 72.5281 47.9582C72.5281 47.9582 72.6099 47.5579 72.6724 47.239C72.6099 47.5579 72.5281 47.9582 72.5281 47.9582C72.3943 48.5339 72.2555 49.076 72.1132 49.5934" fill="#FFF6B8"/>
<path fill-rule="evenodd" clip-rule="evenodd" d="M69.6897 48.3042C69.318 49.4961 68.6925 50.9386 67.6439 52.3344C68.6925 50.9386 69.318 49.4961 69.6897 48.3042" fill="#FFF6B8"/>
<path fill-rule="evenodd" clip-rule="evenodd" d="M66.235 70.3133C66.2421 70.339 66.2514 70.3629 66.2598 70.3874C66.2795 70.4443 66.3021 70.4986 66.3289 70.5498C66.3413 70.5734 66.3537 70.5967 66.3674 70.619C66.3998 70.6714 66.4359 70.7196 66.4753 70.7647C66.4871 70.7785 66.4972 70.7938 66.5098 70.8068C66.563 70.8625 66.6213 70.9121 66.6837 70.9558C66.6969 70.965 66.7116 70.972 66.7252 70.9808C66.7793 71.0153 66.8359 71.0457 66.8947 71.0712C66.9166 71.0807 66.9385 71.0895 66.9609 71.0977C67.0206 71.1198 67.0821 71.1372 67.1446 71.1501C67.1603 71.1533 67.1757 71.1583 67.1917 71.1609C67.2693 71.1738 67.348 71.179 67.4266 71.1774C67.446 71.1769 67.465 71.1742 67.484 71.1727C67.5453 71.1686 67.6061 71.1602 67.6659 71.1469C67.6892 71.1417 67.712 71.1365 67.7348 71.1301C67.8015 71.1113 67.8666 71.0869 67.9297 71.0562C67.9393 71.0514 67.9498 71.0484 67.9596 71.0433C68.0303 71.006 68.097 70.9594 68.16 70.9063C68.177 70.8918 68.1928 70.875 68.2093 70.8594C68.2555 70.8155 68.2986 70.7669 68.3383 70.7134C68.3536 70.6929 68.3693 70.6731 68.3836 70.6511C68.4329 70.5755 68.478 70.4942 68.5129 70.4014L72.61 59.5528L73.3106 57.6981C73.3109 57.6971 73.3115 57.6966 73.3117 57.696C73.3461 57.6051 73.3898 57.5214 73.4415 57.4453C73.4586 57.42 73.4813 57.4008 73.4999 57.3771C73.5385 57.3291 73.5754 57.2794 73.62 57.2385C73.6457 57.215 73.6759 57.1985 73.7034 57.1773C73.7467 57.1438 73.7886 57.1078 73.8358 57.0809C73.8673 57.0629 73.9023 57.0524 73.9351 57.0373C73.9826 57.0155 74.0289 56.9908 74.0787 56.9755C74.1144 56.9642 74.1522 56.9614 74.1889 56.9536C74.2386 56.943 74.2876 56.9293 74.3386 56.9251C74.377 56.9219 74.4161 56.9274 74.4549 56.928C74.505 56.9286 74.5551 56.9259 74.6055 56.9331C74.6451 56.9388 74.6837 56.9534 74.7229 56.9633C74.7719 56.9754 74.8211 56.9839 74.8691 57.0025C74.9083 57.0178 74.9449 57.0427 74.9832 57.0627C75.0263 57.0851 75.071 57.1021 75.1125 57.1305C75.1174 57.1338 75.1224 57.1372 75.1273 57.1408L86.2225 64.9697C86.2598 64.9962 86.2981 65.0144 86.3359 65.0358C86.368 65.0542 86.3998 65.0754 86.4321 65.0903C86.4672 65.1065 86.5026 65.1164 86.5379 65.1287C86.5707 65.1401 86.6033 65.1545 86.636 65.1627C86.671 65.1717 86.7058 65.1749 86.7408 65.1803C86.7736 65.1853 86.8065 65.1932 86.8392 65.1955C86.8736 65.1978 86.9072 65.1946 86.9412 65.1938C86.9738 65.1931 87.0068 65.1948 87.0387 65.1913C87.0719 65.1875 87.1038 65.1791 87.1361 65.1724C87.1681 65.1661 87.2003 65.1621 87.2314 65.1531C87.2628 65.1441 87.2922 65.1308 87.3226 65.1193C87.353 65.1078 87.3842 65.0984 87.4135 65.0844C87.4426 65.0707 87.4694 65.0529 87.4972 65.037C87.5258 65.0207 87.5552 65.0064 87.5823 64.9879C87.6087 64.9702 87.6322 64.9485 87.6572 64.9286C87.6829 64.908 87.7101 64.8892 87.7341 64.8668C87.7574 64.8451 87.7774 64.8203 87.7988 64.7969C87.8213 64.7728 87.8454 64.75 87.8657 64.7241C87.8855 64.6989 87.9014 64.6711 87.9193 64.6446C87.9376 64.6173 87.9578 64.5914 87.974 64.5626C87.9899 64.5344 88.0012 64.504 88.0148 64.4746C88.0285 64.4449 88.0443 64.4164 88.0555 64.3858C88.067 64.3546 88.0733 64.3215 88.0821 64.2894C88.0904 64.2583 88.1013 64.2282 88.107 64.1962C88.1134 64.1622 88.114 64.1267 88.1169 64.0917C88.1198 64.0603 88.1254 64.0293 88.1255 63.9973C88.1256 63.9598 88.1193 63.9215 88.1154 63.8835C88.1125 63.853 88.1127 63.8227 88.1073 63.7919C88.0994 63.7496 88.0845 63.7068 88.0717 63.6641C88.0636 63.6371 88.0593 63.6102 88.049 63.583C88.0258 63.5209 87.9943 63.459 87.9593 63.3971C87.9548 63.3893 87.9524 63.3815 87.948 63.3737L81.0072 51.7025C80.957 51.618 80.9184 51.5305 80.8908 51.4416C80.8083 51.1747 80.8245 50.8951 80.9221 50.6475C80.9546 50.5649 80.9963 50.4861 81.0462 50.4123C81.196 50.1912 81.4213 50.017 81.7044 49.9347L94.743 46.1414L94.743 46.1413C94.8154 46.1201 94.8821 46.0932 94.9451 46.0631C94.9656 46.0533 94.9839 46.0416 95.0034 46.0309C95.0443 46.0085 95.0839 45.9852 95.1205 45.9592C95.1407 45.945 95.1596 45.9298 95.1785 45.9145C95.2107 45.8883 95.2414 45.861 95.2698 45.8323C95.2867 45.8153 95.3031 45.7984 95.3188 45.7808C95.3461 45.7493 95.3711 45.7164 95.3945 45.6827C95.4064 45.6656 95.4192 45.6491 95.4302 45.6316C95.4577 45.5871 95.4816 45.5409 95.5026 45.4934C95.5061 45.4855 95.5111 45.478 95.5145 45.4697C95.5379 45.4139 95.5562 45.356 95.571 45.2976C95.5754 45.2802 95.5775 45.2623 95.5811 45.2449C95.5897 45.2031 95.5968 45.161 95.6013 45.1186C95.6033 45.0967 95.6041 45.0746 95.6051 45.0526C95.6069 45.0137 95.6072 44.9748 95.6055 44.9359C95.6045 44.9132 95.603 44.8906 95.6007 44.8679C95.5969 44.8284 95.5907 44.7894 95.5831 44.7505C95.579 44.7299 95.5758 44.7091 95.5707 44.6885C95.5593 44.6428 95.5449 44.598 95.5284 44.554C95.5238 44.5415 95.5207 44.5282 95.5155 44.5157C95.4928 44.4598 95.4655 44.4056 95.4346 44.3537C95.4267 44.3405 95.4168 44.3285 95.4085 44.3157C95.3839 44.2776 95.3573 44.2404 95.328 44.2052C95.3141 44.1885 95.2986 44.173 95.2835 44.1571C95.2561 44.1277 95.2272 44.0994 95.1962 44.073C95.1783 44.0575 95.1598 44.0428 95.1408 44.0285C95.1156 44.0096 95.0884 43.9928 95.0615 43.9759C95.0127 43.9451 94.9602 43.9181 94.9049 43.8942C94.881 43.8838 94.8579 43.8725 94.8328 43.8634C94.7511 43.8344 94.6651 43.8103 94.571 43.7974L81.1186 41.9467C81.118 41.9467 81.1176 41.9465 81.1171 41.9465C81.0208 41.9331 80.9292 41.9089 80.8432 41.8754C80.8143 41.8641 80.7901 41.8461 80.7622 41.8328C80.7084 41.8066 80.653 41.7827 80.6044 41.7494C80.6035 41.7488 80.6028 41.7479 80.602 41.7474C80.5976 41.7444 80.5942 41.7407 80.5899 41.7378C80.5276 41.6936 80.4712 41.6431 80.4191 41.5888C80.4021 41.5712 80.3872 41.5528 80.3714 41.5342C80.3331 41.4892 80.2985 41.4419 80.2672 41.3919C80.2547 41.3719 80.2419 41.3528 80.2305 41.3321C80.1921 41.2622 80.1586 41.1895 80.1345 41.113C80.1338 41.1104 80.1336 41.1074 80.1328 41.1048C80.1103 41.0308 80.0966 40.9542 80.0888 40.8764C80.0863 40.8521 80.0861 40.8281 80.0852 40.8036C80.0827 40.7433 80.0851 40.683 80.0922 40.6221C80.0951 40.5973 80.097 40.5728 80.1013 40.5481C80.1162 40.4649 80.1373 40.3819 80.1709 40.2998L80.171 40.2997L85.3346 27.7406C85.44 27.4843 85.4505 27.2377 85.3993 27.0147C85.3306 26.7156 85.1477 26.4602 84.9019 26.2921C84.4726 25.9984 83.8644 25.9664 83.3949 26.4135L73.5606 35.7774C73.4963 35.8384 73.4262 35.8881 73.3542 35.9322C73.3328 35.9452 73.3108 35.9559 73.2888 35.9675C73.2342 35.9961 73.1788 36.0203 73.1216 36.04C73.0987 36.0478 73.0762 36.0563 73.053 36.0628C72.9771 36.0837 72.9005 36.099 72.8229 36.1047C72.8207 36.105 72.8182 36.1058 72.8157 36.1059C72.7357 36.1113 72.6559 36.1065 72.5766 36.096C72.5534 36.0929 72.5309 36.0876 72.5077 36.0833C72.4499 36.0723 72.393 36.0572 72.3369 36.0378C72.3141 36.0299 72.2916 36.0225 72.2692 36.0132C72.1996 35.9842 72.1321 35.9501 72.0683 35.9079C72.0641 35.905 72.0594 35.9031 72.055 35.9002C72.0542 35.8996 72.0533 35.8994 72.0524 35.8988C72.0043 35.8658 71.9624 35.8233 71.9189 35.783C71.896 35.7617 71.8698 35.7451 71.8482 35.7217C71.7855 35.6532 71.7295 35.5764 71.682 35.4909L69.7985 32.1042L65.0823 23.6234C65.0823 23.6234 65.0822 23.6233 65.0823 23.6232C65.0362 23.5402 64.9827 23.469 64.9259 23.4034C64.9083 23.3832 64.8893 23.3657 64.8709 23.3471C64.8289 23.3044 64.7847 23.2654 64.7384 23.2311C64.7126 23.2119 64.6872 23.1927 64.6606 23.1762C64.6403 23.1636 64.6199 23.1517 64.5989 23.1406C64.5631 23.1213 64.5264 23.1046 64.4891 23.0897C64.4687 23.0815 64.4485 23.0726 64.4279 23.0658C64.3846 23.051 64.3408 23.0401 64.2964 23.0309C64.2813 23.0277 64.2662 23.0228 64.2509 23.0202C64.1913 23.0101 64.1311 23.0044 64.0708 23.0034C64.0568 23.0033 64.0426 23.0051 64.0286 23.0053C63.9823 23.0061 63.9359 23.0086 63.8901 23.0146C63.8685 23.0173 63.8476 23.0218 63.8263 23.0258C63.7878 23.0327 63.7497 23.0408 63.7121 23.0514C63.6898 23.0578 63.6677 23.0646 63.6457 23.0721C63.6094 23.0844 63.5738 23.0986 63.5388 23.1141C63.5182 23.1233 63.4973 23.1321 63.4772 23.1424C63.4399 23.1614 63.4041 23.1831 63.3688 23.2057C63.3532 23.2157 63.3368 23.2246 63.3216 23.2352C63.2725 23.27 63.2255 23.3081 63.1821 23.3498C63.175 23.3566 63.1693 23.3645 63.1626 23.3716C63.1267 23.4079 63.0928 23.4461 63.0618 23.4871C63.0492 23.5038 63.0382 23.5221 63.0264 23.5396C63.0038 23.5735 62.9821 23.6084 62.9629 23.6451C62.952 23.6662 62.9423 23.6879 62.9324 23.7097C62.916 23.7465 62.9018 23.7849 62.8892 23.8244C62.8818 23.8477 62.8744 23.8708 62.8683 23.8946C62.8574 23.9382 62.85 23.9836 62.8441 24.0298C62.8411 24.0518 62.8368 24.0731 62.8351 24.0958C62.8298 24.1655 62.829 24.2376 62.8355 24.3127L63.4526 31.3303L64.0248 37.8396C64.034 37.9441 64.0277 38.0452 64.0115 38.1431C63.9838 38.3101 63.9208 38.4646 63.8316 38.6006C63.8264 38.6085 63.8234 38.6181 63.8179 38.626C63.8127 38.6335 63.8054 38.6393 63.8 38.6468C63.5442 38.9997 63.1042 39.2092 62.6297 39.1299L49.2365 36.8902C49.2311 36.8893 49.2262 36.8899 49.2208 36.889C49.1468 36.8775 49.0745 36.8712 49.0048 36.8718C48.9793 36.872 48.9557 36.8773 48.9308 36.8791C48.8828 36.8825 48.8344 36.8845 48.789 36.8934C48.7619 36.8986 48.7375 36.9088 48.7115 36.9158C48.6708 36.9266 48.6292 36.9359 48.5908 36.9508C48.5652 36.961 48.5422 36.9754 48.5178 36.9872C48.4821 37.0043 48.4452 37.0197 48.4119 37.0401C48.3888 37.0544 48.3687 37.0723 48.3468 37.088C48.3154 37.1106 48.2829 37.1316 48.2539 37.1571C48.2338 37.1747 48.2169 37.1956 48.198 37.2147C48.1711 37.2419 48.1429 37.2678 48.1186 37.2972C48.1015 37.3182 48.0879 37.3416 48.0721 37.3636C48.0502 37.3943 48.0265 37.4241 48.0076 37.4568C47.9936 37.4802 47.9834 37.5058 47.9712 37.5303C47.9543 37.5637 47.936 37.5965 47.9222 37.6313C47.9118 37.6571 47.9057 37.6843 47.8971 37.7107C47.8858 37.7458 47.8728 37.7807 47.8645 37.8167C47.858 37.8442 47.8561 37.8726 47.8516 37.9007C47.8458 37.9365 47.8382 37.9723 47.8357 38.0087C47.8337 38.0376 47.8361 38.0668 47.8362 38.0958C47.8363 38.1316 47.8345 38.1678 47.8377 38.2034C47.8404 38.233 47.848 38.2623 47.8529 38.2916C47.8589 38.3268 47.863 38.362 47.8722 38.3966C47.88 38.4261 47.893 38.4546 47.9034 38.4837C47.9153 38.5172 47.9252 38.5514 47.9406 38.5841C47.9541 38.6127 47.9729 38.6398 47.989 38.6677C48.007 38.6992 48.0231 38.7312 48.0446 38.7616C48.0641 38.7886 48.089 38.8136 48.1112 38.8396C48.1357 38.8684 48.1579 38.8979 48.186 38.9252C48.2115 38.9498 48.2427 38.9717 48.2715 38.9949C48.3052 39.0225 48.3361 39.0515 48.3743 39.0767L59.6916 46.5808C59.6967 46.5841 59.7017 46.5875 59.7067 46.5909C59.7479 46.6191 59.7797 46.6544 59.816 46.6862C59.8488 46.7149 59.8855 46.7403 59.9141 46.7715C59.9481 46.8085 59.9732 46.8505 60.0016 46.8908C60.0259 46.9247 60.0541 46.9562 60.0745 46.9923C60.0983 47.0347 60.1132 47.0805 60.1315 47.1252C60.1469 47.163 60.1671 47.1991 60.1786 47.238C60.1923 47.2844 60.1967 47.3323 60.2049 47.3798C60.2117 47.4195 60.223 47.4585 60.2259 47.4986C60.2293 47.5475 60.2231 47.5964 60.2206 47.6453C60.2185 47.6846 60.2215 47.724 60.2155 47.7631C60.208 47.814 60.1902 47.8628 60.1759 47.9124C60.1656 47.9487 60.1605 47.9861 60.1466 48.0212C60.1257 48.0749 60.0941 48.1249 60.0649 48.1758C60.0486 48.2044 60.0377 48.2351 60.0187 48.2625C59.9683 48.3356 59.9074 48.4038 59.8385 48.4672C59.8356 48.4699 59.8338 48.4733 59.8307 48.4761L50.6322 56.7396C52.3833 56.4371 54.3322 56.1902 56.5132 56.0289C60.1663 55.7586 63.073 54.6137 65.1524 52.6261C66.918 50.9385 67.7655 48.941 68.166 47.5524C68.2384 47.2578 68.4361 46.4053 68.4657 46.2396C68.7186 44.723 70.0652 43.6481 71.6007 43.7389C72.1437 43.7715 72.6682 43.951 73.1176 44.2584C73.3685 44.4301 73.5911 44.6379 73.7794 44.8765L73.7804 44.8777L73.7815 44.8792C74.3106 45.5523 74.5263 46.4215 74.3736 47.2631C74.3197 47.5609 74.1756 48.2647 74.1695 48.2945L74.1651 48.3161L74.1602 48.3373C73.2783 52.1337 72.1569 54.9456 70.6312 57.186C69.2529 59.21 67.7489 60.4597 66.2936 61.6691C66.1027 61.8279 65.9133 61.9858 65.725 62.1444L66.1895 70.0474C66.1951 70.1421 66.2122 70.2297 66.235 70.3133" fill="#FFF6B8"/>
<path fill-rule="evenodd" clip-rule="evenodd" d="M56.6367 57.7003C56.6926 57.696 56.7454 57.6895 56.8006 57.685L56.8007 57.6849C56.7454 57.6895 56.6926 57.696 56.6367 57.7003C53.8289 57.908 51.4221 58.2568 49.3585 58.6846L49.3586 58.6847C51.4221 58.2568 53.8289 57.908 56.6367 57.7003" fill="#FFF6B8"/>
<path fill-rule="evenodd" clip-rule="evenodd" d="M71.5009 45.4119C71.5852 45.417 71.6673 45.4328 71.748 45.4532C71.6673 45.4328 71.5853 45.417 71.5009 45.4119C71.1443 45.3909 70.8132 45.5151 70.5611 45.7328C70.8132 45.5151 71.1443 45.3909 71.5009 45.4119" fill="#FFF6B8"/>
<path fill-rule="evenodd" clip-rule="evenodd" d="M69.7851 47.9849C69.8252 47.8238 69.9714 47.2043 70.0579 46.8108C69.9714 47.2043 69.8252 47.8238 69.7851 47.9849" fill="#FFF6B8"/>
<path fill-rule="evenodd" clip-rule="evenodd" d="M71.8024 45.4681C71.8808 45.4918 71.9572 45.5209 72.0296 45.558C71.9572 45.5209 71.8808 45.4918 71.8024 45.4681" fill="#FFF6B8"/>
<path fill-rule="evenodd" clip-rule="evenodd" d="M72.2885 45.7356C72.3516 45.7902 72.4118 45.8488 72.4644 45.9153C72.4118 45.8488 72.3517 45.7903 72.2885 45.7356" fill="#FFF6B8"/>
<path fill-rule="evenodd" clip-rule="evenodd" d="M72.1715 45.642C72.1343 45.6165 72.0949 45.595 72.0553 45.5736C72.1184 45.6079 72.1775 45.6483 72.2345 45.6924C72.2132 45.6758 72.1936 45.6571 72.1715 45.642" fill="#FFF6B8"/>
<path fill-rule="evenodd" clip-rule="evenodd" d="M46.6446 62.1066C46.7539 62.0734 46.8642 62.0404 46.9771 62.0074C47.6361 61.8152 48.3564 61.627 49.1462 61.4489C49.1809 61.441 49.214 61.4331 49.2488 61.4253C49.4842 61.3728 49.7293 61.3218 49.9765 61.2712C50.7608 61.111 51.6084 60.9622 52.517 60.8277C53.1058 60.7405 53.7144 60.6579 54.3578 60.5848C55.1412 60.4955 55.9659 60.4177 56.8331 60.3536C58.8898 60.2018 60.7865 59.8132 62.502 59.1937C61.8436 59.7624 61.1582 60.3982 60.4617 61.157C59.8532 61.8197 59.2364 62.5755 58.6207 63.4755C58.1791 64.121 57.8017 64.7764 57.4731 65.4335C57.4252 65.529 57.381 65.6245 57.3354 65.72C57.076 66.2645 56.8531 66.8089 56.6604 67.3505C55.849 69.6315 55.589 71.8455 55.5737 73.6897C56.2259 73.6946 56.8945 73.7366 57.5713 73.8262C57.7935 73.8556 58.0125 73.8916 58.2305 73.9293C58.2299 73.7767 58.2279 73.6261 58.2315 73.4673C58.2396 73.0833 58.2647 72.678 58.3011 72.2635C58.4969 70.0316 59.1482 67.4167 60.8167 64.9778C61.8837 63.4181 62.9513 62.3446 64.0019 61.4184C64.0025 61.4178 64.0031 61.4171 64.0036 61.4167C64.1155 61.3182 64.227 61.2209 64.3384 61.1254C64.6349 60.8709 64.9304 60.6235 65.2235 60.3799C67.8336 58.2108 70.3093 56.1497 72.1133 49.5936C72.2557 49.076 72.3943 48.5341 72.5282 47.9584C72.5282 47.9584 72.61 47.5581 72.6725 47.2392C72.6934 47.1328 72.7121 47.0355 72.7247 46.9649C72.7385 46.8895 72.741 46.8139 72.7414 46.7384C72.7429 46.5064 72.6821 46.2806 72.567 46.079C72.5351 46.0229 72.5045 45.9661 72.464 45.9149C72.4641 45.9147 72.464 45.9147 72.464 45.9147C72.4117 45.8483 72.3517 45.7899 72.2888 45.7355C72.2711 45.7202 72.2526 45.706 72.2342 45.6917C72.1775 45.6478 72.1185 45.6075 72.0558 45.5733C72.0467 45.5682 72.0384 45.5623 72.0291 45.5574C71.9569 45.5204 71.8808 45.4914 71.8026 45.4678C71.7846 45.4625 71.7665 45.4578 71.7481 45.4531C71.6675 45.4325 71.5853 45.4167 71.501 45.4118C71.1446 45.3907 70.8134 45.5148 70.5614 45.7326C70.3342 45.9286 70.1709 46.2 70.1184 46.5175C70.109 46.5733 70.0868 46.6793 70.0581 46.8107C69.9717 47.2043 69.8255 47.8237 69.7854 47.9849C69.7555 48.0889 69.7238 48.1956 69.6899 48.3042C69.3182 49.4962 68.6927 50.9387 67.6441 52.3344C67.6353 52.3462 67.6261 52.3578 67.6173 52.3696C67.2569 52.8458 66.8456 53.3157 66.3795 53.7685C66.2315 53.9124 66.0798 54.0549 65.9201 54.1949C65.6519 54.4299 65.3668 54.659 65.0641 54.8802C64.7614 55.1016 64.441 55.3149 64.1019 55.5185C62.2697 56.6189 59.8881 57.4342 56.8007 57.685C56.7455 57.6894 56.6927 57.696 56.6369 57.7001C53.8289 57.9078 51.4222 58.2566 49.3586 58.6845C48.7873 58.8029 48.2411 58.927 47.7221 59.0563C45.5507 59.5973 43.8257 60.2222 42.4716 60.8383C42.7522 61.0794 43.0297 61.3289 43.2993 61.5944C43.7161 62.0052 44.1022 62.4323 44.4597 62.8681C44.7035 62.7704 44.9642 62.6718 45.2383 62.5727C45.6689 62.4172 46.1363 62.2609 46.6446 62.1066" fill="#73E856"/>
<path fill-rule="evenodd" clip-rule="evenodd" d="M62.2623 77.1843C62.2272 77.1603 62.1912 77.136 62.1547 77.1122C60.9343 76.3126 59.2285 75.7356 57.3517 75.4874C55.4748 75.2392 53.6777 75.3532 52.2913 75.808C51.1447 76.1843 50.4121 76.7715 50.3319 77.3786L49.9519 80.2528C50.0067 80.2373 50.0603 80.2188 50.1154 80.2037C52.2827 79.6068 54.5209 79.4549 56.7675 79.7521C59.0143 80.049 61.136 80.7775 63.0738 81.917C63.1356 81.9535 63.1949 81.9931 63.2563 82.0304L63.6386 79.1381C63.7161 78.5529 63.2034 77.8281 62.2623 77.1843" fill="#FF78C8"/>
<path fill-rule="evenodd" clip-rule="evenodd" d="M55.9174 86.1811C55.5353 86.1306 55.1475 86.1011 54.7647 86.0934C54.4686 86.0874 54.1947 85.9942 53.9673 85.8386C53.5728 85.5687 53.318 85.1117 53.3282 84.5981C53.3443 83.7887 54.0139 83.1454 54.8235 83.1617C55.3147 83.1716 55.8121 83.2093 56.3018 83.2741C57.1045 83.3803 57.6693 84.1171 57.5631 84.9198C57.457 85.7226 56.7201 86.2873 55.9174 86.1811M50.9588 86.7463C49.108 87.4424 47.5023 88.6465 46.3147 90.2287C45.8418 90.8587 44.959 90.9997 44.3152 90.5593C44.2972 90.547 44.2795 90.5344 44.262 90.5212C43.6145 90.035 43.4833 89.116 43.9696 88.4684C45.4925 86.439 47.5526 84.8945 49.9267 84.0017C50.6847 83.7167 51.53 84.1 51.8151 84.858C52.1 85.6161 51.7167 86.4614 50.9588 86.7463M66.5626 87.2028C65.5712 85.9092 64.3995 84.8022 63.0922 83.9078C61.1615 82.587 58.9341 81.7289 56.5478 81.4132C52.5455 80.8841 48.5766 81.9452 45.3723 84.401C42.1681 86.857 40.112 90.4136 39.5828 94.4158C39.0536 98.4182 40.1149 102.387 42.5706 105.591C45.0264 108.796 48.5831 110.852 52.5855 111.381C56.5879 111.91 60.5566 110.849 63.7609 108.393C66.965 105.937 69.0213 102.381 69.5504 98.3781C70.0796 94.3759 69.0186 90.407 66.5626 87.2028" fill="#FF78C8"/>
<path fill-rule="evenodd" clip-rule="evenodd" d="M57.5632 84.9198C57.6694 84.1171 57.1045 83.3804 56.3018 83.2742C55.8122 83.2093 55.3148 83.1716 54.8236 83.1617C54.014 83.1455 53.3444 83.7887 53.3282 84.5982C53.318 85.1117 53.5728 85.5687 53.9673 85.8386C54.1947 85.9942 54.4687 86.0875 54.7648 86.0934C55.1476 86.1011 55.5354 86.1307 55.9175 86.1811C56.7202 86.2873 57.4571 85.7226 57.5632 84.9198" fill="#F2F2F2"/>
<path fill-rule="evenodd" clip-rule="evenodd" d="M51.8151 84.8579C51.53 84.0999 50.6846 83.7165 49.9267 84.0014C47.5525 84.8944 45.4926 86.4388 43.9695 88.4683C43.4833 89.1159 43.6144 90.0349 44.262 90.521C44.2797 90.5342 44.2972 90.5467 44.3152 90.5591C44.959 90.9995 45.8419 90.8585 46.3147 90.2285C47.5022 88.6464 49.1081 87.4422 50.9587 86.7462C51.7166 86.4613 52.1 85.6158 51.8151 84.8579" fill="#F2F2F2"/>
<path fill-rule="evenodd" clip-rule="evenodd" d="M42.1232 62.7881V62.7881C40.7747 61.4593 39.2718 60.4674 37.8912 59.9953C36.7493 59.6048 35.811 59.632 35.381 60.0684L33.377 62.1019C33.4576 62.1324 33.5391 62.1596 33.6193 62.1914C35.7086 63.0209 37.5866 64.2481 39.2008 65.8387C40.815 67.4294 42.0696 69.2891 42.9295 71.3661C42.946 71.4054 42.9594 71.4453 42.9755 71.4847L44.9416 69.4895C45.8678 68.5497 44.8592 65.4842 42.1232 62.7881" fill="#FF78C8"/>
<path fill-rule="evenodd" clip-rule="evenodd" d="M30.0014 67.8138C29.836 67.7708 29.6672 67.7314 29.4995 67.6969C29.3033 67.6564 29.1243 67.5783 28.9685 67.4717C28.4953 67.1479 28.2369 66.5613 28.36 65.9646C28.5239 65.1715 29.2993 64.6613 30.0924 64.8252C30.308 64.8695 30.5254 64.9202 30.7383 64.9755C31.522 65.179 31.9925 65.9791 31.789 66.763C31.5856 67.5469 30.7853 68.0173 30.0014 67.8138M25.8101 67.6121C23.6208 67.959 21.6383 68.9803 20.076 70.5656C19.6415 71.0065 19.2457 71.4871 18.8997 71.9942C18.4435 72.663 17.5313 72.8352 16.8625 72.3789L16.8608 72.3778C16.1931 71.921 16.0215 71.0099 16.4775 70.3414C16.9221 69.6899 17.4299 69.0728 17.9873 68.5071C19.9924 66.4725 22.5387 65.1616 25.3513 64.7159C26.1511 64.5892 26.9021 65.1348 27.0289 65.9346C27.1555 66.7345 26.61 67.4855 25.8101 67.6121M42.5297 77.6866C42.5001 73.6496 40.9002 69.8657 38.0246 67.0321C37.3707 66.3876 36.668 65.8096 35.9259 65.302C33.4049 63.5773 30.4239 62.661 27.305 62.684C23.268 62.7136 19.4841 64.3137 16.6504 67.1892C13.8167 70.0648 12.2727 73.8718 12.3023 77.9088C12.3319 81.9457 13.9319 85.7296 16.8074 88.5633C19.683 91.3968 23.4901 92.9411 27.5269 92.9114C31.564 92.8819 35.348 91.2818 38.1816 88.4062C41.0152 85.5306 42.5595 81.7238 42.5297 77.6866" fill="#FF78C8"/>
<path fill-rule="evenodd" clip-rule="evenodd" d="M63.761 108.393C60.5568 110.849 56.5879 111.91 52.5857 111.381C48.5832 110.851 45.0265 108.795 42.5707 105.591C40.1149 102.387 39.0537 98.4178 39.583 94.4156C40.1122 90.4133 42.1682 86.8566 45.3724 84.4006C48.5767 81.9448 52.5456 80.8838 56.5479 81.413C58.9342 81.7285 61.1616 82.5866 63.0924 83.9075C64.3996 84.8018 65.5713 85.9088 66.5627 87.2024C69.0186 90.4068 70.0797 94.3755 69.5505 98.3779C69.0213 102.38 66.9651 105.937 63.761 108.393V108.393ZM42.8721 84.3539C42.9219 84.236 42.9751 84.1201 43.0224 84.0008C43.8234 81.9832 44.2216 79.8546 44.2056 77.6743C44.1944 76.1681 43.9814 74.6905 43.5796 73.2589L46.135 70.6656C47.0546 69.7325 47.2037 68.2223 46.5551 66.4131C46.303 65.7096 45.9336 64.9865 45.4766 64.269C47.8216 63.3809 51.4885 62.4292 56.9568 62.0247C57.1847 62.0079 57.411 61.9882 57.6358 61.9658C57.5031 62.1478 57.3703 62.3357 57.2378 62.5294C54.5717 66.4264 53.9102 70.6216 53.8953 73.7719C53.1333 73.8572 52.4152 74.0038 51.7689 74.2157C49.9427 74.815 48.8425 75.8603 48.6708 77.1591L48.18 80.8703C46.8192 81.4304 45.5365 82.1639 44.3532 83.0709C43.831 83.4709 43.3393 83.9013 42.8721 84.3539V84.3539ZM38.1816 88.4063C35.348 91.2819 31.5641 92.882 27.527 92.9115C23.49 92.9411 19.683 91.3969 16.8075 88.5633C13.9319 85.7297 12.3319 81.9459 12.3023 77.9089C12.2725 73.8718 13.8168 70.0648 16.6504 67.1893C19.4841 64.3138 23.268 62.7137 27.3051 62.6839C30.4239 62.6611 33.405 63.5772 35.9259 65.3019C36.6681 65.8096 37.3707 66.3878 38.0246 67.0322C40.9002 69.8658 42.5001 73.6497 42.5298 77.6866C42.5595 81.7239 41.0152 85.5307 38.1816 88.4063V88.4063ZM35.381 60.0684C35.811 59.632 36.7492 59.6046 37.8911 59.9951C39.2718 60.4674 40.7747 61.4592 42.1231 62.7879C44.8591 65.484 45.8676 68.5497 44.9416 69.4895L42.9753 71.4847C42.9595 71.4452 42.9459 71.4052 42.9296 71.366C42.0695 69.2889 40.815 67.4293 39.2007 65.8385C37.5865 64.2479 35.7086 63.0208 33.6193 62.1913C33.539 62.1595 33.4575 62.1325 33.377 62.102L35.381 60.0684ZM47.7219 59.0563V59.0563C48.241 58.9268 48.7872 58.8029 49.3586 58.6845L49.3585 58.6845C51.422 58.2566 53.8288 57.9078 56.6368 57.7001C56.6926 57.6959 56.7454 57.6894 56.8007 57.6848L56.8006 57.6849C57.9586 57.5909 59.0169 57.4173 59.9845 57.1793C60.0777 57.1565 60.1639 57.1286 60.2553 57.1046C60.4805 57.0452 60.7067 56.9866 60.922 56.9203C62.1322 56.5475 63.1858 56.0687 64.1019 55.5184C64.4409 55.3149 64.7613 55.1015 65.0641 54.8803C65.3667 54.659 65.6517 54.4299 65.92 54.1948C66.0796 54.0548 66.2314 53.9124 66.3795 53.7686C66.8457 53.3157 67.2568 52.8457 67.6171 52.3696C67.626 52.3578 67.6353 52.3462 67.644 52.3344C68.6927 50.9388 69.3181 49.4963 69.6898 48.3041C69.7239 48.1956 69.7554 48.089 69.7852 47.9848C69.8253 47.8237 69.9716 47.2043 70.0581 46.8106C70.0868 46.6794 70.1089 46.5732 70.1182 46.5175C70.1708 46.1998 70.3342 45.9286 70.5613 45.7326C70.8133 45.5149 71.1444 45.3907 71.501 45.4117C71.5854 45.4169 71.6674 45.4326 71.748 45.4532C71.7663 45.4578 71.7845 45.4625 71.8025 45.4677C71.8807 45.4913 71.9568 45.5203 72.0291 45.5575C72.0382 45.5623 72.0466 45.5682 72.0557 45.5733C72.0951 45.5948 72.1344 45.616 72.1715 45.6414C72.1935 45.6565 72.213 45.6753 72.2342 45.6918C72.2525 45.7059 72.271 45.72 72.2886 45.7355C72.3517 45.7899 72.4115 45.8483 72.464 45.9146C72.464 45.9146 72.4641 45.9147 72.4641 45.9148C72.5043 45.9661 72.535 46.0229 72.5669 46.0789C72.682 46.2805 72.7428 46.5064 72.7413 46.7383C72.741 46.8138 72.7385 46.8896 72.7247 46.9649C72.7119 47.0355 72.6933 47.1328 72.6724 47.2391C72.61 47.5582 72.528 47.9584 72.528 47.9584C72.3944 48.534 72.2556 49.076 72.1132 49.5935C70.3094 56.1496 67.8336 58.2108 65.2235 60.3799C64.9305 60.6235 64.6349 60.871 64.3382 61.1254C64.2268 61.2209 64.1155 61.3181 64.0036 61.4168C64.0031 61.4172 64.0024 61.4179 64.0018 61.4184C62.9511 62.3446 61.8837 63.4182 60.8167 64.9779C59.1482 67.4168 58.4968 70.0316 58.3009 72.2635C58.2647 72.6781 58.2394 73.0833 58.2314 73.4673C58.228 73.626 58.2298 73.7766 58.2305 73.9294C58.0123 73.8916 57.7933 73.8556 57.5712 73.8261C56.8943 73.7366 56.2258 73.6946 55.5737 73.6895C55.5889 71.8454 55.849 69.6316 56.6602 67.3505C56.853 66.8087 57.0759 66.2643 57.3354 65.72C57.3808 65.6245 57.4252 65.5291 57.473 65.4335C57.8016 64.7764 58.1791 64.121 58.6207 63.4755C59.2364 62.5755 59.8532 61.8198 60.4615 61.157C61.1581 60.3981 61.8434 59.7624 62.5018 59.1937C60.7864 59.8132 58.8897 60.2017 56.8331 60.3537C55.9657 60.4177 55.1412 60.4955 54.3577 60.5847C53.7144 60.658 53.1057 60.7405 52.517 60.8277C52.0626 60.8949 51.6236 60.9659 51.2001 61.0399C50.7765 61.114 50.3687 61.1911 49.9765 61.2713C49.7291 61.3218 49.4841 61.3729 49.2487 61.4252C49.2139 61.4329 49.1808 61.4409 49.1461 61.4487C48.3563 61.6271 47.6359 61.8152 46.9772 62.0074C46.8641 62.0403 46.7538 62.0732 46.6444 62.1066C46.1363 62.2609 45.6687 62.4172 45.2382 62.5726C44.9642 62.6719 44.7034 62.7702 44.4596 62.8679C44.1022 62.4324 43.7159 62.0052 43.2991 61.5944C43.0296 61.3289 42.752 61.0794 42.4714 60.8383C43.8254 60.2222 45.5505 59.5973 47.7219 59.0563V59.0563ZM59.8307 48.4763C59.8338 48.4734 59.8356 48.47 59.8386 48.4672C59.9074 48.404 59.9683 48.3358 60.0188 48.2625C60.0377 48.2352 60.0486 48.2044 60.065 48.1758C60.0941 48.1251 60.1257 48.0751 60.1467 48.0213C60.1606 47.9861 60.1657 47.9488 60.1759 47.9126C60.1903 47.8629 60.2081 47.814 60.2156 47.7632C60.2215 47.7242 60.2185 47.6848 60.2206 47.6455C60.2232 47.5965 60.2294 47.5476 60.226 47.4987C60.2232 47.4586 60.2117 47.4196 60.205 47.3798C60.1967 47.3325 60.1923 47.2846 60.1787 47.2381C60.1672 47.1992 60.147 47.163 60.1315 47.1253C60.1132 47.0807 60.0984 47.0347 60.0745 46.9925C60.0544 46.9563 60.0259 46.9249 60.0017 46.8908C59.9732 46.8506 59.9482 46.8086 59.9141 46.7717C59.8856 46.7404 59.8489 46.7149 59.8161 46.6863C59.7798 46.6545 59.7479 46.6193 59.7067 46.5911C59.7018 46.5878 59.6967 46.5843 59.6916 46.581L48.3744 39.0768C48.3687 39.073 48.3629 39.0691 48.3574 39.0653C48.3256 39.0435 48.3002 39.0185 48.2715 38.9951C48.2428 38.9717 48.2116 38.9498 48.1861 38.9252C48.1582 38.898 48.1358 38.8684 48.1113 38.8397C48.089 38.8137 48.0641 38.7888 48.0446 38.7617C48.0231 38.7314 48.0071 38.6993 47.989 38.6679C47.9729 38.64 47.9542 38.6129 47.9407 38.5841C47.9253 38.5514 47.9153 38.5174 47.9034 38.4838C47.893 38.4548 47.8801 38.4262 47.8723 38.3966C47.8629 38.362 47.859 38.3269 47.8529 38.2917C47.8481 38.2623 47.8405 38.2331 47.8377 38.2036C47.8345 38.1677 47.8362 38.1319 47.8363 38.0959C47.8362 38.0669 47.8337 38.0378 47.8357 38.0089C47.8383 37.9724 47.8457 37.9368 47.8516 37.9008C47.8561 37.8728 47.858 37.8444 47.8645 37.8169C47.8727 37.7806 47.8858 37.7459 47.8972 37.7108C47.9058 37.6843 47.9119 37.6572 47.9223 37.6314C47.9361 37.5965 47.9543 37.5639 47.9712 37.5305C47.9835 37.5061 47.9937 37.4803 48.0077 37.4568C48.0266 37.4242 48.0502 37.3944 48.0721 37.3638C48.0879 37.3417 48.1016 37.3182 48.1187 37.2973C48.143 37.2678 48.1711 37.242 48.198 37.2149C48.2169 37.1957 48.2338 37.1748 48.254 37.1571C48.2829 37.1317 48.3155 37.1107 48.3468 37.0882C48.3687 37.0725 48.3888 37.0545 48.4119 37.0403C48.4453 37.0197 48.4822 37.0043 48.5178 36.9874C48.5423 36.9754 48.5653 36.9611 48.5908 36.9509C48.6293 36.9359 48.6708 36.9268 48.7115 36.9159C48.7376 36.9088 48.762 36.8986 48.7891 36.8935C48.8346 36.8846 48.8829 36.8825 48.9308 36.8792C48.9558 36.8774 48.9793 36.8722 49.0048 36.8718C49.0746 36.8713 49.1468 36.8777 49.2208 36.8892C49.2263 36.89 49.2311 36.8895 49.2365 36.8904L62.6298 39.13C63.1042 39.2094 63.5443 38.9997 63.8001 38.6469C63.8054 38.6394 63.8129 38.6337 63.818 38.6262C63.8236 38.6183 63.8264 38.6087 63.8317 38.6007C63.9209 38.4646 63.9839 38.3101 64.0116 38.1431C64.0278 38.0453 64.034 37.9443 64.0249 37.8397L63.4526 31.3305L62.8356 24.3127C62.8289 24.2377 62.8298 24.1658 62.8352 24.0958C62.8369 24.0732 62.8412 24.0519 62.8442 24.0299C62.85 23.9837 62.8575 23.9383 62.8683 23.8948C62.8745 23.8708 62.8819 23.8477 62.8892 23.8246C62.9018 23.7851 62.9161 23.7468 62.9325 23.7097C62.9423 23.688 62.9521 23.6662 62.963 23.6451C62.9823 23.6083 63.0038 23.5736 63.0265 23.5396C63.0383 23.5221 63.0492 23.504 63.0618 23.4873C63.0928 23.4463 63.1267 23.4081 63.1627 23.3716C63.1693 23.3647 63.1751 23.3567 63.1821 23.35C63.2256 23.3082 63.2725 23.2702 63.3216 23.2354C63.3369 23.2246 63.3532 23.2159 63.3688 23.2059C63.4041 23.1831 63.44 23.1614 63.4773 23.1424C63.4974 23.1322 63.5183 23.1233 63.5389 23.1141C63.5741 23.0986 63.6095 23.0845 63.6457 23.0722C63.6677 23.0648 63.6899 23.0578 63.7122 23.0514C63.7497 23.041 63.7879 23.0327 63.8263 23.026C63.8476 23.022 63.8686 23.0174 63.8901 23.0148C63.9362 23.0087 63.9822 23.0062 64.0286 23.0054C64.0427 23.0051 64.0568 23.0035 64.0708 23.0035C64.1311 23.0046 64.1914 23.0101 64.251 23.0203C64.2663 23.0229 64.2814 23.0277 64.2966 23.031C64.3408 23.0402 64.3847 23.0511 64.4279 23.0658C64.4486 23.0727 64.4687 23.0817 64.4892 23.0897C64.5264 23.1048 64.5631 23.1215 64.599 23.1406C64.6199 23.1519 64.6404 23.1636 64.6607 23.1762C64.6753 23.1853 64.6908 23.1921 64.7051 23.2019C64.717 23.21 64.7268 23.2226 64.7385 23.2311C64.7847 23.2656 64.8289 23.3046 64.8709 23.3473C64.8895 23.3658 64.9085 23.3831 64.9262 23.4035C64.9827 23.4691 65.0362 23.5403 65.0824 23.6233C65.0823 23.6234 65.0824 23.6235 65.0824 23.6235L69.7985 32.1043L71.682 35.4911C71.7295 35.5766 71.7855 35.6534 71.8482 35.7218C71.8698 35.7451 71.896 35.7618 71.919 35.7831C71.9624 35.8235 72.0043 35.866 72.0524 35.8989C72.0533 35.8995 72.0542 35.8998 72.055 35.9003C72.0594 35.9033 72.0641 35.9051 72.0684 35.908C72.1322 35.9501 72.1996 35.9844 72.2693 36.0133C72.2915 36.0225 72.3144 36.0299 72.337 36.0378C72.3931 36.0572 72.45 36.0723 72.508 36.0834C72.5307 36.0877 72.5534 36.0931 72.5767 36.0961C72.6559 36.1065 72.7358 36.1114 72.8158 36.106C72.8183 36.1058 72.8207 36.1052 72.8229 36.1049C72.9006 36.099 72.9773 36.0838 73.0531 36.0628C73.0762 36.0565 73.0988 36.0479 73.1216 36.04C73.1788 36.0205 73.2342 35.9963 73.2889 35.9675C73.3108 35.956 73.3328 35.9453 73.3543 35.9323C73.4263 35.8882 73.4963 35.8386 73.5607 35.7774L83.395 26.4136C83.8645 25.9665 84.4727 25.9984 84.902 26.2921C85.1478 26.4603 85.3306 26.7158 85.3994 27.0147C85.4506 27.2378 85.4401 27.4844 85.3347 27.7406L80.1711 40.2997L80.171 40.2999C80.1373 40.382 80.1163 40.4649 80.1014 40.5481C80.097 40.5729 80.0952 40.5974 80.0923 40.6221C80.0851 40.6831 80.0827 40.7435 80.0853 40.8037C80.0863 40.828 80.0864 40.8523 80.0889 40.8764C80.0967 40.9542 80.1104 41.0309 80.1329 41.1048C80.1336 41.1076 80.1339 41.1104 80.1346 41.113C80.1587 41.1896 80.1922 41.2623 80.2306 41.3321C80.2419 41.3528 80.255 41.3721 80.2673 41.392C80.2986 41.442 80.3331 41.4892 80.3715 41.5343C80.3872 41.5527 80.4023 41.5713 80.4192 41.5889C80.4712 41.6433 80.5278 41.6938 80.59 41.7379C80.5943 41.7408 80.5976 41.7446 80.602 41.7476C80.6028 41.7481 80.6035 41.749 80.6044 41.7496C80.653 41.7828 80.7085 41.8069 80.7623 41.8328C80.79 41.8461 80.8143 41.8642 80.8432 41.8755C80.9292 41.909 81.0209 41.9332 81.1171 41.9465C81.1176 41.9467 81.118 41.9469 81.1186 41.9469L94.5711 43.7975C94.6651 43.8105 94.7512 43.8344 94.8329 43.8635C94.858 43.8726 94.8809 43.8839 94.9051 43.8944C94.9602 43.9182 95.0127 43.9453 95.0616 43.976C95.0737 43.9837 95.089 43.9883 95.1008 43.9964C95.1151 44.0062 95.127 44.0181 95.1409 44.0286C95.1599 44.0428 95.1783 44.0577 95.1963 44.073C95.2272 44.0996 95.2561 44.1279 95.2836 44.1572C95.2986 44.1732 95.3143 44.1887 95.3281 44.2053C95.3574 44.2405 95.3837 44.2777 95.4086 44.3158C95.4169 44.3286 95.4268 44.3406 95.4347 44.3537C95.4658 44.4058 95.4928 44.4599 95.5155 44.5159C95.5207 44.5284 95.5239 44.5415 95.5285 44.554C95.5448 44.5983 95.5594 44.6428 95.5708 44.6886C95.5759 44.7091 95.5791 44.7299 95.5831 44.7507C95.5907 44.7895 95.5969 44.8285 95.6009 44.8681C95.6031 44.8906 95.6045 44.9133 95.6055 44.936C95.6073 44.9748 95.607 45.0137 95.6052 45.0526C95.6042 45.0747 95.6034 45.0967 95.6014 45.1186C95.5969 45.161 95.5898 45.2031 95.5812 45.245C95.5775 45.2625 95.5755 45.2803 95.571 45.2977C95.5564 45.3563 95.538 45.4139 95.5145 45.4698C95.5112 45.4781 95.5062 45.4856 95.5026 45.4936C95.4816 45.541 95.4577 45.5872 95.4302 45.6318C95.4192 45.6492 95.4065 45.6657 95.3946 45.6827C95.3711 45.7166 95.3464 45.7495 95.3188 45.7809C95.3032 45.7985 95.2867 45.8155 95.2699 45.8324C95.2413 45.8613 95.2107 45.8884 95.1785 45.9147C95.1597 45.9298 95.1408 45.9451 95.1205 45.9593C95.084 45.9853 95.0443 46.0087 95.0035 46.0309C94.984 46.0416 94.9657 46.0533 94.9452 46.0632C94.8821 46.0934 94.8154 46.1203 94.7431 46.1415V46.1415L81.7045 49.9347C81.4214 50.017 81.1961 50.1912 81.0462 50.4125C80.9963 50.4862 80.9548 50.5651 80.9221 50.6477C80.8245 50.8952 80.8084 51.1748 80.8908 51.4417C80.9184 51.5307 80.957 51.6181 81.0073 51.7025L87.948 63.3739C87.9525 63.3815 87.9548 63.3895 87.9593 63.3972C87.9944 63.459 88.0258 63.5211 88.0492 63.5831C88.0594 63.6102 88.0637 63.6372 88.0718 63.6643C88.0846 63.7069 88.0996 63.7497 88.1074 63.792C88.1128 63.8227 88.1126 63.853 88.1155 63.8836C88.1193 63.9217 88.1256 63.96 88.1255 63.9975C88.1254 64.0295 88.1199 64.0603 88.1169 64.0919C88.114 64.1268 88.1134 64.1624 88.1072 64.1964C88.1014 64.2282 88.0905 64.2583 88.0821 64.2896C88.0733 64.3217 88.0671 64.3546 88.0557 64.3859C88.0443 64.4165 88.0286 64.445 88.0149 64.4746C88.0013 64.5041 87.99 64.5344 87.9741 64.5626C87.9579 64.5914 87.9377 64.6174 87.9194 64.6447C87.9015 64.6711 87.8856 64.699 87.8658 64.7241C87.8455 64.75 87.8214 64.7728 87.7989 64.7969C87.7774 64.8203 87.7575 64.8452 87.7342 64.8668C87.7102 64.8893 87.683 64.9082 87.6572 64.9288C87.6323 64.9485 87.6089 64.9701 87.5823 64.9881C87.5553 65.0064 87.5258 65.0209 87.4973 65.0371C87.4694 65.0531 87.4427 65.0707 87.4135 65.0846C87.3843 65.0984 87.3531 65.1078 87.3227 65.1193C87.2923 65.1308 87.2628 65.1443 87.2314 65.1533C87.2004 65.1621 87.1681 65.1663 87.1362 65.1725C87.1039 65.1791 87.0719 65.1877 87.0388 65.1913C87.0069 65.1948 86.9739 65.1931 86.9413 65.1939C86.9074 65.1948 86.8737 65.1978 86.8393 65.1955C86.8067 65.1935 86.7736 65.1855 86.7408 65.1805C86.7059 65.1749 86.6711 65.1719 86.636 65.1629C86.6033 65.1547 86.5707 65.1402 86.538 65.1288C86.5027 65.1164 86.4673 65.1065 86.4322 65.0904C86.3999 65.0755 86.3681 65.0542 86.3359 65.0359C86.3038 65.0178 86.2713 65.0032 86.2394 64.9814C86.2338 64.9776 86.2283 64.9738 86.2226 64.9697L75.1273 57.1409C75.1224 57.1374 75.1174 57.134 75.1125 57.1306C75.071 57.1023 75.0264 57.0851 74.9833 57.0627C74.9451 57.0428 74.9084 57.0179 74.8691 57.0026C74.8212 56.9839 74.7719 56.9756 74.723 56.9633C74.6838 56.9536 74.6452 56.9389 74.6055 56.9333C74.5552 56.926 74.5051 56.9287 74.455 56.928C74.4161 56.9275 74.3771 56.9219 74.3387 56.9251C74.2877 56.9293 74.2387 56.9431 74.1889 56.9537C74.1523 56.9614 74.1144 56.9644 74.0788 56.9755C74.0289 56.991 73.9826 57.0156 73.9351 57.0375C73.9023 57.0526 73.8674 57.0629 73.8359 57.081C73.7886 57.108 73.7467 57.144 73.7034 57.1774C73.676 57.1985 73.6457 57.2151 73.62 57.2386C73.5755 57.2795 73.5385 57.3293 73.5002 57.3773C73.4813 57.401 73.4587 57.4201 73.4416 57.4454C73.3899 57.5214 73.3461 57.6053 73.3118 57.696C73.3115 57.6968 73.3109 57.6973 73.3106 57.6983L72.6101 59.5528L68.513 70.4014C68.4781 70.4942 68.433 70.5755 68.3837 70.6511C68.3694 70.6731 68.3537 70.693 68.3384 70.7135C68.2986 70.767 68.2555 70.8157 68.2094 70.8595C68.1928 70.8752 68.1773 70.8918 68.1601 70.9063C68.097 70.9595 68.0303 71.0062 67.9596 71.0434C67.9499 71.0485 67.9394 71.0514 67.9297 71.0564C67.8667 71.0869 67.8015 71.1113 67.7349 71.1302C67.7119 71.1366 67.6893 71.142 67.666 71.1469C67.6062 71.1602 67.5453 71.1688 67.484 71.1729C67.4649 71.1742 67.446 71.1771 67.4267 71.1774C67.3481 71.1791 67.2693 71.174 67.1917 71.1611C67.1757 71.1584 67.1604 71.1534 67.1447 71.1502C67.0822 71.1373 67.0207 71.1198 66.9609 71.0979C66.9384 71.0896 66.9168 71.0808 66.8948 71.0713C66.836 71.0457 66.7794 71.0154 66.7252 70.9808C66.7146 70.9741 66.7026 70.9702 66.6924 70.9632C66.6892 70.961 66.6867 70.958 66.6837 70.9559C66.6213 70.9123 66.5631 70.8625 66.5099 70.8068C66.4973 70.7939 66.4872 70.7785 66.4753 70.7649C66.436 70.7196 66.3999 70.6714 66.3675 70.619C66.3536 70.5968 66.3416 70.5735 66.329 70.5499C66.3021 70.4988 66.2795 70.4445 66.2599 70.3875C66.2515 70.3629 66.242 70.3393 66.2351 70.3134C66.2123 70.2298 66.1951 70.1423 66.1896 70.0474L65.725 62.1445C65.9134 61.9858 66.1027 61.8279 66.2937 61.6691C67.7489 60.4599 69.2529 59.2102 70.6312 57.1861C72.157 54.9457 73.2783 52.1339 74.1602 48.3375L74.1652 48.3161L74.1696 48.2945C74.1757 48.2647 74.3198 47.561 74.3736 47.2632C74.5263 46.4217 74.3106 45.5524 73.7815 44.8794L73.7804 44.8779L73.7794 44.8766C73.5911 44.6381 73.3685 44.4302 73.1176 44.2586C72.6682 43.9511 72.1438 43.7715 71.6007 43.7391C70.0653 43.6482 68.7187 44.723 68.4658 46.2397C68.4362 46.4054 68.2385 47.2578 68.1661 47.5525C67.7655 48.9412 66.918 50.9387 65.1524 52.6263C63.073 54.6139 60.1663 55.7588 56.5132 56.029C54.3323 56.1902 52.3833 56.4372 50.6322 56.7398L59.8307 48.4763ZM62.1546 77.1121C62.1911 77.1359 62.2271 77.1601 62.2623 77.1842C63.2034 77.8281 63.7159 78.5529 63.6385 79.138L63.2562 82.0302C63.1949 81.993 63.1356 81.9534 63.0737 81.917C61.1359 80.7775 59.0143 80.0489 56.7675 79.7519C54.5208 79.4549 52.2826 79.6068 50.1153 80.2036C50.0603 80.2187 50.0066 80.2372 49.9519 80.2527L50.3318 77.3786C50.4121 76.7714 51.1446 76.1841 52.2912 75.808C53.6776 75.3531 55.4747 75.2393 57.3516 75.4873C59.2284 75.7355 60.9341 76.3126 62.1546 77.1121V77.1121ZM69.0466 104.904C70.186 102.966 70.9145 100.844 71.2116 98.5977C71.5088 96.3511 71.3569 94.1129 70.7598 91.9454C70.1836 89.8525 69.2189 87.9138 67.8926 86.1833C66.9951 85.0124 65.9597 83.9802 64.806 83.0919L65.2996 79.3577C65.4714 78.0592 64.6805 76.7639 63.0729 75.7105C62.1915 75.1331 61.1081 74.6579 59.9092 74.3122C59.8466 72.0191 60.2195 68.8182 62.1995 65.9241C62.8442 64.9817 63.4847 64.2401 64.1313 63.5915L64.5166 70.1459C64.5696 71.046 65.0177 71.8479 65.7461 72.3463C66.4797 72.8482 67.4237 72.9887 68.2714 72.7219C69.1055 72.4595 69.7649 71.8296 70.0805 70.9937L74.6617 58.8632L85.2564 66.339C85.2685 66.3476 85.2807 66.3562 85.2931 66.3647C85.8708 66.7599 86.5618 66.9343 87.2385 66.8557C87.8461 66.785 88.4306 66.5117 88.8845 66.0858C89.3386 65.6594 89.6486 65.093 89.7569 64.4907C89.8792 63.8111 89.7515 63.1289 89.3881 62.5175L82.7604 51.3726L95.2108 47.7505C96.2916 47.4361 97.0721 46.5574 97.2478 45.4574C97.4247 44.3501 96.9534 43.2337 96.0468 42.6135C95.6772 42.3607 95.2576 42.2006 94.7994 42.1375L81.9535 40.3705L86.8844 28.3779C87.1526 27.7255 87.1786 27.0094 86.9577 26.3611C86.7591 25.7785 86.3651 25.263 85.848 24.9093C85.3309 24.5555 84.7074 24.3749 84.0927 24.401C83.4083 24.43 82.7501 24.7139 82.2394 25.2002L72.8487 34.1416L66.5468 22.8092C66.3219 22.405 66.0207 22.0719 65.6511 21.8191C64.7445 21.1988 63.5334 21.1641 62.5654 21.7302C61.6038 22.2926 61.0677 23.3385 61.1663 24.4597L62.3018 37.3764L49.5128 35.2378C48.8113 35.1206 48.1292 35.2489 47.5402 35.609C47.018 35.9283 46.6023 36.4223 46.3696 37.0002C46.1371 37.5776 46.094 38.2215 46.2484 38.8133C46.4204 39.4725 46.8334 40.0533 47.4111 40.4486C47.4235 40.4571 47.4363 40.4656 47.4487 40.4737L58.2551 47.639L48.6092 56.3046C48.2953 56.5867 48.0547 56.925 47.8914 57.294C44.9002 57.9957 42.6471 58.8613 40.9765 59.6992C40.1273 59.1354 39.2652 58.6945 38.4333 58.4099C36.6146 57.7879 35.1068 57.9592 34.1874 58.8923L31.584 61.5344C30.1881 61.1771 28.7525 60.9977 27.2927 61.0084C25.1125 61.0245 22.9901 61.4538 20.9842 62.2842C18.9072 63.1445 17.0475 64.399 15.4569 66.0132C13.8664 67.6274 12.6392 69.5053 11.8096 71.5948C11.0086 73.6125 10.6106 75.741 10.6267 77.9213C10.6426 80.1015 11.0719 82.2238 11.9025 84.2295C12.7626 86.3065 14.0172 88.1663 15.6314 89.7569C16.3535 90.4685 17.1283 91.1073 17.9512 91.6703C18.968 92.3659 20.0583 92.9459 21.2128 93.4042C23.2307 94.2052 25.3591 94.6031 27.5393 94.5872C29.7195 94.5711 31.8419 94.142 33.8478 93.3114C35.8123 92.4977 37.5793 91.3271 39.1114 89.8372C38.524 91.2219 38.1222 92.6797 37.9216 94.1961C37.6247 96.4428 37.7765 98.681 38.3734 100.848C38.9496 102.941 39.9144 104.88 41.2406 106.61C42.331 108.033 43.6207 109.256 45.0848 110.258C45.4016 110.475 45.7269 110.681 46.0596 110.877C47.9975 112.016 50.1191 112.745 52.3659 113.042C54.6126 113.339 56.8506 113.187 59.0181 112.59C61.111 112.014 63.0497 111.049 64.7804 109.723C66.5106 108.397 67.9462 106.775 69.0466 104.904V104.904Z" fill="#000055"/>
<path fill-rule="evenodd" clip-rule="evenodd" d="M31.7891 66.7631C31.9927 65.9793 31.5222 65.179 30.7383 64.9756C30.5255 64.9204 30.3082 64.8696 30.0925 64.8251C29.2994 64.6615 28.5239 65.1715 28.3602 65.9646C28.237 66.5613 28.4953 67.148 28.9685 67.4718C29.1243 67.5784 29.3034 67.6566 29.4996 67.6971C29.6672 67.7315 29.836 67.7709 30.0016 67.8139C30.7855 68.0174 31.5857 67.5468 31.7891 66.7631" fill="#F2F2F2"/>
<path fill-rule="evenodd" clip-rule="evenodd" d="M25.3515 64.7159C22.539 65.1614 19.9926 66.4725 17.9875 68.5071C17.4301 69.0728 16.9223 69.6899 16.4777 70.3414C16.0218 71.0098 16.1933 71.921 16.861 72.3778L16.8627 72.3789C17.5315 72.8352 18.4437 72.663 18.9 71.994C19.246 71.487 19.6418 71.0064 20.0762 70.5656C21.6385 68.9803 23.6213 67.959 25.8103 67.6121C26.6102 67.4855 27.1557 66.7345 27.0291 65.9346C26.9023 65.1348 26.1513 64.5892 25.3515 64.7159" fill="#F2F2F2"/>
</svg>
