<svg width="104" height="108" viewBox="0 0 104 108" fill="none" xmlns="http://www.w3.org/2000/svg">
<path fill-rule="evenodd" clip-rule="evenodd" d="M13.9629 81.717C11.9846 80.108 11.5856 77.1073 13.0548 74.8865L26.9176 54.0152C25.1352 51.2279 24.9605 47.531 26.7044 44.6785L31.1824 37.4397C30.4152 35.0795 30.8402 32.4431 32.432 30.4861C34.235 28.2694 37.0938 27.392 39.7584 27.9681C40.6716 25.9839 41.83 24.1251 43.2209 22.415C46.0433 18.9449 49.7301 16.2442 53.8892 14.5992L53.9181 14.5851C54.0911 14.505 54.2657 14.4393 54.4429 14.387C56.9684 13.4538 59.6101 12.9142 62.3005 12.7825C62.4951 12.7607 62.6898 12.7542 62.8838 12.7625C69.1512 12.5948 75.2657 14.671 80.1179 18.6176C81.8165 19.9992 83.3346 21.5846 84.6303 23.3304C84.713 23.434 84.7903 23.5419 84.8611 23.6526C91.7624 33.2534 91.3796 46.3379 83.9156 55.5146C82.5247 57.2247 80.9407 58.7373 79.1842 60.0354C80.2915 62.5272 80.0145 65.5046 78.2114 67.7214C76.6197 69.6784 74.1249 70.6316 71.6579 70.3614L65.497 76.2062C63.0495 78.5044 59.3909 79.0891 56.2988 77.9124L38.6935 95.7311C36.811 97.6253 33.7927 97.8458 31.8163 96.2383L13.9629 81.717Z" fill="#F2F2F2"/>
<path fill-rule="evenodd" clip-rule="evenodd" d="M77.9765 43.7977C78.0611 43.0749 78.184 42.3095 78.3586 41.4951C78.8058 39.4089 79.36 37.5147 79.849 35.8432C80.954 32.0654 81.8267 29.0709 80.925 26.0529C79.8613 24.6247 78.6211 23.3308 77.2147 22.1869C74.9495 20.3444 72.3917 19.0009 69.6122 18.1936C68.0777 17.7477 66.5122 17.4814 64.9315 17.3834C66.0266 18.4291 67.04 19.5416 67.9642 20.719C68.3377 20.3609 68.885 20.2067 69.4136 20.3723C70.0312 20.5656 70.6459 20.7926 71.2408 21.0471C71.9853 21.3656 72.3307 22.2273 72.0123 22.9718C71.6937 23.7163 70.8321 24.0616 70.0875 23.7432C70.0748 23.7376 70.0616 23.7332 70.0488 23.7277C70.1971 23.9708 70.3482 24.2118 70.4897 24.459C72.2934 27.6118 73.4856 30.9772 74.0329 34.4623C74.5823 37.9596 74.4562 41.4105 73.6583 44.7194C73.6272 44.848 73.5883 44.9732 73.5554 45.1011C74.7469 44.8476 75.8877 44.5381 76.9645 44.1705C77.3113 44.052 77.6466 43.9265 77.9765 43.7977" fill="#FF78C8"/>
<path fill-rule="evenodd" clip-rule="evenodd" d="M79.8522 53.1891L79.603 52.9434C79.5769 52.9178 79.5524 52.8904 79.53 52.8614C79.4378 52.7431 77.706 50.443 77.8408 45.6362C77.7291 45.676 77.6195 45.7174 77.506 45.7562C76.0871 46.2407 74.5816 46.6285 73.0114 46.9216C72.1295 49.5003 70.8365 51.8887 69.1404 54.0399C68.8829 54.3665 68.6164 54.6861 68.3424 54.9988L69.4538 55.9027C69.7458 55.5437 70.2735 55.4895 70.6324 55.7814L73.5486 58.1534C73.6041 58.1245 73.6608 58.0989 73.7163 58.0695C76.0505 56.8311 78.1089 55.1885 79.8522 53.1891" fill="#FF78C8"/>
<path fill-rule="evenodd" clip-rule="evenodd" d="M61.4456 45.706C61.0758 42.4775 58.5044 38.9885 56.004 35.6012C54.0847 33.0013 52.1144 30.3284 51.0823 27.6923C50.6619 27.7794 50.2108 27.6837 49.8601 27.3984C49.8225 27.3678 49.7864 27.3353 49.7512 27.3004C49.1765 26.7301 49.1727 25.802 49.7432 25.2269C49.9482 25.0204 50.1584 24.8204 50.3712 24.624C50.321 23.4762 50.5405 22.3766 51.0187 21.3508C49.4476 22.4707 48.0294 23.7948 46.7905 25.318C44.948 27.5833 43.6045 30.1413 42.7971 32.9207C42.7797 32.9811 42.7661 33.0418 42.7492 33.102L47.84 37.2426C48.1989 37.5346 48.2532 38.0622 47.961 38.4213L55.7614 44.7658C57.5861 45.2026 59.4845 45.52 61.4456 45.706" fill="#FF78C8"/>
<path fill-rule="evenodd" clip-rule="evenodd" d="M79.997 41.8462C79.9112 42.2455 79.8406 42.6297 79.7798 43.003C82.2485 41.7724 84.0705 40.2229 85.0287 38.5032C85.078 38.4026 85.1839 38.1156 85.1659 37.852C85.1467 37.4852 85.1196 37.118 85.0815 36.7505C84.8157 34.168 84.0979 31.6946 82.957 29.3845C82.8374 31.595 82.1781 33.8491 81.457 36.3138C80.9526 38.0377 80.4312 39.8205 79.997 41.8462" fill="#FF78C8"/>
<path fill-rule="evenodd" clip-rule="evenodd" d="M58.5425 47.0279L60.9539 48.9893C61.1842 48.4749 61.345 47.9362 61.4279 47.3853C60.4522 47.2958 59.4891 47.1776 58.5425 47.0279" fill="#FF78C8"/>
<path fill-rule="evenodd" clip-rule="evenodd" d="M79.8757 49.4417C80.2226 50.8525 80.7122 51.6275 80.8297 51.8L80.9114 51.8804C82.464 49.8003 83.6179 47.4939 84.3397 45.0086C84.6992 43.7711 84.9406 42.513 85.0742 41.2434C84.4777 41.8835 83.7768 42.4899 82.9732 43.0572C81.971 43.7648 80.8237 44.4002 79.5518 44.9593C79.4194 46.9322 79.6262 48.4268 79.8757 49.4417" fill="#FF78C8"/>
<path fill-rule="evenodd" clip-rule="evenodd" d="M71.1183 47.2236C68.5649 47.5643 65.8672 47.6617 63.0996 47.5082C62.9806 48.3993 62.7052 49.2658 62.2878 50.0744L67.0412 53.9407C67.3106 53.635 67.5724 53.3225 67.8247 53.0025C69.2186 51.2344 70.3161 49.2892 71.1183 47.2236" fill="#FF78C8"/>
<path fill-rule="evenodd" clip-rule="evenodd" d="M52.1701 23.1588C53.3623 22.2991 54.6474 21.5737 56.0201 20.9996C58.3171 20.0387 60.748 19.5294 63.2453 19.4861C64.0548 19.4721 64.7226 20.117 64.7365 20.9267C64.7506 21.7364 64.1057 22.404 63.2961 22.418C61.1719 22.4549 59.1046 22.8877 57.1517 23.7047C55.429 24.4254 53.8645 25.4201 52.4871 26.6637C53.372 29.2121 55.3906 31.9491 57.3521 34.6063C60.0599 38.2743 62.842 42.0552 63.1368 45.8277C65.6071 45.9674 68.0423 45.9045 70.3783 45.626C70.8356 45.5714 71.2854 45.5066 71.7311 45.4368C72.7254 42.0694 72.9603 38.4321 72.3777 34.7223C71.8619 31.4394 70.7375 28.2663 69.0353 25.2913C67.3255 22.3029 65.096 19.6409 62.4137 17.3685C62.0609 17.3877 61.7077 17.415 61.3543 17.4515C59.4487 17.6476 57.6035 18.0927 55.838 18.7677C55.6502 18.8617 54.5433 19.4423 53.5753 20.5135C52.8404 21.3263 52.3778 22.2122 52.1701 23.1588" fill="#FF78C8"/>
<path fill-rule="evenodd" clip-rule="evenodd" d="M65.5974 57.672C65.2845 57.9314 64.8386 57.9249 64.5347 57.6778C64.4926 57.6435 64.4536 57.6048 64.4178 57.5616C64.1226 57.2054 64.1719 56.6772 64.5282 56.3818C65.4258 55.638 66.2672 54.8195 67.0412 53.9407L62.2878 50.0744C62.0914 50.4549 61.8673 50.8238 61.6091 51.1746C61.3347 51.5471 60.8103 51.6267 60.4377 51.3527C60.4266 51.3444 60.4157 51.336 60.4051 51.3274C60.0606 51.0472 59.9934 50.5426 60.2596 50.1812C60.5363 49.8051 60.7676 49.4053 60.9539 48.9895L58.5425 47.0281C56.3422 46.68 54.2261 46.1705 52.2181 45.5037C52.1187 45.4708 52.0299 45.4212 51.9533 45.3589C51.6911 45.1456 51.5741 44.7846 51.687 44.4446C51.8329 44.0055 52.307 43.7678 52.746 43.9135C53.7239 44.2382 54.732 44.5195 55.7613 44.766L47.9608 38.4214C47.6688 38.7804 47.1413 38.8346 46.7824 38.5427L40.0796 33.0908C38.8068 32.0556 36.9772 32.1896 36.0013 33.3894C35.0254 34.5892 35.2671 36.4076 36.5399 37.4428L37.1436 37.9339L37.145 37.935L37.1453 37.9353L69.9584 64.6242L69.9597 64.6253L70.5638 65.1166C71.8365 66.1518 73.666 66.018 74.6419 64.8182C75.6177 63.6184 75.3762 61.7998 74.1035 60.7646L69.5751 57.0814C69.2162 56.7895 69.1617 56.2619 69.4537 55.9029L68.3423 54.999C67.4985 55.9624 66.5791 56.8587 65.5974 57.672" fill="#FF78C8"/>
<path fill-rule="evenodd" clip-rule="evenodd" d="M72.0122 22.9717C72.3306 22.2273 71.9853 21.3655 71.2409 21.0471C70.6461 20.7926 70.0314 20.5656 69.4137 20.3721C68.8851 20.2068 68.3377 20.3609 67.9642 20.7188C67.7918 20.8841 67.6527 21.089 67.5764 21.3332C67.3916 21.9231 67.5984 22.5418 68.0504 22.9095C68.1905 23.0234 68.3543 23.1133 68.5374 23.1707C69.0483 23.3305 69.5563 23.5184 70.049 23.7277C70.0617 23.7332 70.0748 23.7377 70.0876 23.7431C70.832 24.0616 71.6939 23.7162 72.0122 22.9717" fill="#F2F2F2"/>
<path fill-rule="evenodd" clip-rule="evenodd" d="M52.4869 26.6636C53.8644 25.42 55.4289 24.4253 57.1516 23.7047C59.1045 22.8876 61.1717 22.4548 63.2961 22.418C64.1057 22.4039 64.7506 21.7364 64.7365 20.9265C64.7225 20.1169 64.0547 19.472 63.2451 19.486C60.748 19.5293 58.317 20.0385 56.02 20.9995C54.6474 21.5737 53.3622 22.299 52.17 23.1587C51.5439 23.6102 50.9426 24.0971 50.3711 24.6241C50.1582 24.8205 49.948 25.0204 49.743 25.227C49.1726 25.802 49.1762 26.7303 49.751 27.3005C49.7861 27.3355 49.8223 27.3679 49.86 27.3985C50.2107 27.6838 50.6617 27.7796 51.0822 27.6924C51.3544 27.6362 51.6142 27.5047 51.8244 27.2926C52.0397 27.0756 52.2614 26.8672 52.4869 26.6636" fill="#F2F2F2"/>
<path fill-rule="evenodd" clip-rule="evenodd" d="M62.3338 72.8651L64.3946 70.9101C65.9479 69.4364 67.5011 67.9627 69.0546 66.4893C69.1104 66.4368 69.1344 66.3797 69.1318 66.3085C69.1271 66.1813 69.0409 66.0375 68.9013 65.924L36.0881 39.2349L36.088 39.2348C35.9483 39.1212 35.7905 39.0658 35.6658 39.0871C35.5953 39.0989 35.5439 39.1345 35.5044 39.1988L33.7157 42.0906C32.6865 43.7545 31.6572 45.4184 30.628 47.0822C30.1351 47.8886 29.9674 48.9002 30.158 49.927C30.3502 50.9623 30.8818 51.8787 31.6546 52.5075L56.8101 72.968L56.8105 72.9683C57.5831 73.5967 58.5884 73.9303 59.6412 73.9077C60.6855 73.8852 61.6419 73.515 62.3338 72.8651" fill="#FFF6B8"/>
<path fill-rule="evenodd" clip-rule="evenodd" d="M36.1461 91.7629L37.2558 90.6398C38.7445 89.1334 40.233 87.6266 41.7217 86.1201L35.6299 86.7471L36.1461 91.7629Z" fill="#FFF6B8"/>
<path fill-rule="evenodd" clip-rule="evenodd" d="M30.8267 56.4453C28.8353 59.4435 26.8441 62.4417 24.8527 65.44L31.6802 64.7373L30.8267 56.4453Z" fill="#FFF6B8"/>
<path fill-rule="evenodd" clip-rule="evenodd" d="M44.3708 73.7972L51.7264 73.0401L43.6138 66.4417L44.3708 73.7972Z" fill="#FFF6B8"/>
<path fill-rule="evenodd" clip-rule="evenodd" d="M33.3469 64.5656L40.4133 63.8383L32.6196 57.4993L33.3469 64.5656Z" fill="#FFF6B8"/>
<path fill-rule="evenodd" clip-rule="evenodd" d="M33.5187 66.2325L34.4027 74.8231L42.7042 73.9684L41.8201 65.3781L33.5187 66.2325Z" fill="#FFF6B8"/>
<path fill-rule="evenodd" clip-rule="evenodd" d="M17.0461 78.294L23.5455 83.5804L22.9392 77.6874L17.0461 78.294Z" fill="#FFF6B8"/>
<path fill-rule="evenodd" clip-rule="evenodd" d="M22.1045 69.5776L17.4629 76.5664L22.7676 76.0204L22.1045 69.5776Z" fill="#FFF6B8"/>
<path fill-rule="evenodd" clip-rule="evenodd" d="M28.3592 87.4954L34.5398 92.5225L33.9631 86.9185L28.3592 87.4954Z" fill="#FFF6B8"/>
<path fill-rule="evenodd" clip-rule="evenodd" d="M35.4585 85.0803L43.5746 84.2449C43.6313 84.1877 43.6878 84.1306 43.7442 84.0732L42.8758 75.6354L34.5744 76.4897L35.4585 85.0803Z" fill="#FFF6B8"/>
<path fill-rule="evenodd" clip-rule="evenodd" d="M24.6057 77.5158L25.3838 85.0755L26.5206 86.0002L33.7912 85.2518L32.9073 76.6613L24.6057 77.5158Z" fill="#FFF6B8"/>
<path fill-rule="evenodd" clip-rule="evenodd" d="M44.5425 75.4637L45.2696 82.5293C47.8876 79.8796 50.5056 77.23 53.1235 74.5806L44.5425 75.4637Z" fill="#FFF6B8"/>
<path fill-rule="evenodd" clip-rule="evenodd" d="M23.6516 67.2481C23.622 67.2928 23.5924 67.3373 23.5628 67.382L24.4342 75.8491L32.7355 74.9946L31.8516 66.4041L23.6516 67.2481Z" fill="#FFF6B8"/>
<path fill-rule="evenodd" clip-rule="evenodd" d="M70.5639 65.1164L69.9599 64.6251L69.9585 64.624L37.1453 37.935L37.145 37.9347L37.1438 37.9337L36.5399 37.4425C35.2671 36.4073 35.0255 34.5891 36.0015 33.3892C36.9773 32.1894 38.8068 32.0554 40.0796 33.0906L46.7826 38.5425C47.1415 38.8345 47.6691 38.7802 47.961 38.4212C48.253 38.0622 48.1987 37.5346 47.8398 37.2427L42.749 33.102C42.7659 33.0419 42.7796 32.9811 42.797 32.9207C43.6043 30.1414 44.9479 27.5832 46.7904 25.318C48.0293 23.7948 49.4475 22.4708 51.0186 21.3509C50.5405 22.3765 50.3209 23.4762 50.3712 24.624C50.9426 24.0971 51.544 23.61 52.17 23.1586C52.3779 22.2121 52.8405 21.3261 53.5752 20.5132C54.5432 19.442 55.6501 18.8615 55.8381 18.7675C57.6035 18.0925 59.4488 17.6475 61.3541 17.4514C61.7076 17.4149 62.0608 17.3875 62.4137 17.3683C65.0961 19.6408 67.3254 22.3026 69.0353 25.2911C70.7375 28.2662 71.862 31.4393 72.3776 34.7221C72.9604 38.4319 72.7254 42.0693 71.731 45.4366C71.2854 45.5065 70.8356 45.5713 70.3782 45.6259C68.0422 45.9042 65.6072 45.9673 63.1367 45.8274C62.8419 42.055 60.0597 38.2742 57.352 34.6062C55.3905 31.9488 53.372 29.2121 52.487 26.6635C52.2614 26.8671 52.0398 27.0755 51.8245 27.2925C51.6142 27.5046 51.3544 27.636 51.0823 27.6923C52.1143 30.3284 54.0847 33.0013 56.0039 35.6011C58.5043 38.9885 61.0757 42.4774 61.4455 45.7059C59.4844 45.5199 57.5859 45.2026 55.7613 44.7658C54.732 44.5193 53.7241 44.2381 52.7462 43.9133C52.3071 43.7676 51.833 44.0053 51.687 44.4443C51.5742 44.7845 51.6911 45.1454 51.9534 45.3587C52.0301 45.421 52.1188 45.4706 52.2182 45.5035C54.2262 46.1703 56.3423 46.6798 58.5426 47.028C59.489 47.1776 60.4522 47.2957 61.4279 47.3853C61.345 47.9362 61.1843 48.475 60.9539 48.9892C60.7676 49.405 60.5364 49.805 60.2596 50.1809C59.9935 50.5425 60.0608 51.047 60.4052 51.3272C60.4158 51.3358 60.4267 51.3443 60.4378 51.3525C60.8104 51.6266 61.3349 51.5469 61.6092 51.1743C61.8673 50.8235 62.0915 50.4547 62.2878 50.0741C62.7052 49.2656 62.9807 48.3991 63.0996 47.5079C65.8672 47.6614 68.565 47.5641 71.1183 47.2233C70.3161 49.2889 69.2187 51.2342 67.8246 53.0022C67.5724 53.3222 67.3106 53.6347 67.0413 53.9405C66.2673 54.8194 65.4259 55.6379 64.5283 56.3817C64.172 56.677 64.1226 57.2051 64.4179 57.5615C64.4537 57.6046 64.4929 57.6432 64.535 57.6775C64.8388 57.9246 65.2846 57.9313 65.5976 57.6718C66.5791 56.8584 67.4986 55.9621 68.3425 54.9988C68.6165 54.6859 68.883 54.3664 69.1405 54.0397C70.8365 51.8885 72.1295 49.5 73.0113 46.9215C74.5815 46.6284 76.0871 46.2404 77.5059 45.7561C77.6195 45.7174 77.7289 45.6759 77.8409 45.6361C77.706 50.443 79.4378 52.7431 79.5299 52.8613C79.5525 52.8903 79.5769 52.9175 79.603 52.9434L79.8523 53.1891C78.109 55.1883 76.0503 56.8309 73.7164 58.0694C73.661 58.0988 73.6041 58.1245 73.5486 58.1534L70.6324 55.7814C70.2734 55.4894 69.7457 55.5436 69.4537 55.9026C69.1618 56.2615 69.2162 56.7892 69.5752 57.0812L74.1036 60.7645C75.3764 61.7997 75.6177 63.6182 74.6419 64.8179C73.666 66.0178 71.8366 66.1516 70.5639 65.1164V65.1164ZM64.3945 70.91L62.3338 72.8651C61.6418 73.5149 60.6856 73.8851 59.6411 73.9075C58.5882 73.9302 57.5831 73.5967 56.8104 72.9682L56.8101 72.968L31.6545 52.5073C30.8818 51.8787 30.3502 50.9622 30.158 49.9268C29.9673 48.9 30.135 47.8884 30.6279 47.0821C31.6573 45.4183 32.6863 43.7544 33.7155 42.0905L35.5042 39.1987C35.5439 39.1344 35.5952 39.0988 35.6659 39.0869C35.7904 39.0657 35.9481 39.121 36.0879 39.2347L36.088 39.2348L68.9013 65.9239C69.0408 66.0374 69.127 66.1813 69.1317 66.3084C69.1342 66.3796 69.1104 66.4366 69.0545 66.4892C67.5011 67.9626 65.9479 69.4362 64.3945 70.91V70.91ZM45.2696 82.5292L44.5424 75.4637L53.1234 74.5806C50.5056 77.2301 47.8875 79.8796 45.2696 82.5292V82.5292ZM28.3591 87.4954L33.9629 86.9185L34.5396 92.5224L28.3591 87.4954ZM17.046 78.2939L22.9389 77.6871L23.5453 83.5802L17.046 78.2939ZM22.7673 76.0205L17.4626 76.5665L22.1042 69.5778L22.7673 76.0205ZM31.6801 64.737L24.8525 65.4398C26.8439 62.4416 28.8352 59.4433 30.8265 56.4451L31.6801 64.737ZM43.6137 66.4415L51.7262 73.0399L44.3708 73.797L43.6137 66.4415ZM40.4133 63.8383L33.3467 64.5656L32.6195 57.4992L40.4133 63.8383ZM42.7039 73.9685L34.4025 74.823L33.5185 66.2324L41.8197 65.378L42.7039 73.9685ZM23.6516 67.2479L31.8516 66.4039L32.7356 74.9944L24.4343 75.8487L23.5628 67.3817C23.5925 67.3371 23.6222 67.2925 23.6516 67.2479V67.2479ZM25.3838 85.0755L24.6058 77.5158L32.9073 76.6612L33.7913 85.2517L26.5207 86.0001L25.3838 85.0755ZM43.5744 84.2448L35.4583 85.0801L34.5741 76.4896L42.8756 75.6352L43.7439 84.0731C43.6875 84.1303 43.631 84.1877 43.5744 84.2448V84.2448ZM37.2557 90.6398L36.146 91.7628L35.6297 86.747L41.7216 86.12C40.233 87.6266 38.7443 89.1332 37.2557 90.6398V90.6398ZM69.6121 18.1934C72.3915 19.0008 74.9495 20.3443 77.2148 22.1868C78.6211 23.3306 79.8614 24.6247 80.925 26.0527C81.8266 29.0707 80.9541 32.0653 79.8489 35.843C79.36 37.5145 78.8057 39.4087 78.3585 41.4949C78.184 42.3094 78.0611 43.0748 77.9765 43.7975C77.6465 43.9264 77.3111 44.0519 76.9644 44.1704C75.8877 44.5379 74.7467 44.8475 73.5553 45.101C73.5882 44.973 73.6272 44.8478 73.6582 44.7192C74.4562 41.4103 74.5823 37.9594 74.033 34.4622C73.4855 30.977 72.2933 27.6116 70.4896 24.4588C70.3481 24.2117 70.197 23.9706 70.0489 23.7277C69.5561 23.5183 69.0482 23.3304 68.5374 23.1705C68.3543 23.1131 68.1905 23.0233 68.0504 22.9093C67.5984 22.5417 67.3916 21.923 67.5762 21.3331C67.6527 21.089 67.7916 20.884 67.9641 20.7188C67.04 19.5415 66.0264 18.4291 64.9314 17.3832C66.5123 17.4813 68.0777 17.7477 69.6121 18.1934V18.1934ZM85.0814 36.7505C85.1195 37.118 85.1466 37.4851 85.1659 37.852C85.1839 38.1157 85.0779 38.4025 85.0286 38.5031C84.0705 40.2229 82.2484 41.7724 79.7797 43.0029C79.8405 42.6297 79.9112 42.2455 79.9969 41.8462C80.4311 39.8204 80.9525 38.0376 81.457 36.3137C82.1781 33.849 82.8373 31.595 82.957 29.3845C84.0979 31.6946 84.8156 34.1679 85.0814 36.7505V36.7505ZM82.9731 43.0569C83.7766 42.4896 84.4775 41.8832 85.0741 41.2431C84.9405 42.5127 84.699 43.7708 84.3397 45.0084C83.6179 47.4937 82.464 49.8001 80.9114 51.8802L80.8297 51.7998C80.7122 51.6273 80.2225 50.8523 79.8757 49.4415C79.6262 48.4266 79.4194 46.932 79.5518 44.9591C80.8235 44.3999 81.971 43.7646 82.9731 43.0569V43.0569ZM75.9417 65.8753C77.5006 63.9587 77.1502 61.0829 75.1607 59.4647L74.9528 59.2956C77.5188 57.8606 79.7714 55.9733 81.646 53.6684C83.6308 51.2283 85.0784 48.472 85.9488 45.4759C86.6603 43.0264 86.9575 40.5047 86.8454 37.9622C86.8455 37.9513 86.8442 37.9398 86.8443 37.9289C86.845 37.8386 86.8426 37.7469 86.8332 37.6531C86.8307 37.6315 86.8241 37.6117 86.8202 37.5907C86.8013 37.2537 86.7831 36.9167 86.7483 36.579C86.4386 33.5686 85.5655 30.6929 84.1532 28.0314C82.691 25.2753 80.7122 22.8717 78.2721 20.887C75.8319 18.9022 73.0755 17.4545 70.0794 16.5843C67.6783 15.8868 65.2079 15.5892 62.7168 15.6829C62.6821 15.6827 62.6479 15.682 62.6136 15.6861C62.1371 15.7062 61.6601 15.7356 61.1824 15.7846C58.1723 16.0944 55.2964 16.9676 52.6348 18.3796C49.8789 19.8419 47.4752 21.8207 45.4905 24.2608C43.6158 26.5657 42.227 29.1556 41.3447 31.96L41.1367 31.7909C39.1472 30.1727 36.2603 30.4154 34.7014 32.332C33.4184 33.9094 33.4315 36.1353 34.5846 37.7763C34.3867 37.9209 34.2126 38.1003 34.0783 38.3185L32.2902 41.2092C31.2613 42.873 30.2321 44.537 29.2005 46.2045C28.4891 47.3682 28.2439 48.7986 28.5103 50.2328C28.7735 51.65 29.5081 52.9119 30.5781 53.7905C30.5301 53.8631 30.4818 53.9357 30.4337 54.0081L30.1155 54.487C25.2422 61.8243 20.3689 69.1618 15.4947 76.5004C14.8454 77.4817 14.9833 78.7761 15.8084 79.4472L15.8089 79.4476L33.6619 93.9686L33.6621 93.9688C34.4866 94.6394 35.7818 94.511 36.6125 93.6749L38.4477 91.8176C44.0269 86.171 49.6063 80.5246 55.1849 74.8779C55.381 74.6796 55.577 74.4812 55.7729 74.283C56.8508 75.1517 58.2357 75.6139 59.6769 75.583C61.1356 75.5516 62.4865 75.0202 63.4837 74.0836L65.5477 72.1256C67.1009 70.6521 68.6542 69.1786 70.2057 67.7066C70.3931 67.5301 70.534 67.3227 70.6354 67.0987C72.477 67.8933 74.6587 67.4527 75.9417 65.8753V65.8753Z" fill="#000055"/>
</svg>
