<svg width="93" height="73" viewBox="0 0 93 73" fill="none" xmlns="http://www.w3.org/2000/svg">
<path fill-rule="evenodd" clip-rule="evenodd" d="M34.3186 72.3394C33.5147 72.3394 32.7485 72.0864 32.1023 71.6078C31.4546 71.1281 30.9887 70.4667 30.7552 69.6951L23.6371 46.1919C23.423 45.4844 22.9105 44.906 22.234 44.608L3.47172 36.3457C2.37375 35.8623 1.46616 35.0706 0.846939 34.0563C0.227874 33.042 -0.0612704 31.8728 0.010822 30.6751C0.0829144 29.4774 0.510043 28.3514 1.24616 27.4188C1.98228 26.4861 2.97824 25.8092 4.12629 25.4609C4.12629 25.4609 86.26 0.576584 87.6496 0.158138L88.0099 0.0665111C88.2431 0.0223254 88.4811 0 88.7167 0C89.4056 0 90.0769 0.189766 90.6575 0.548523C91.3352 0.966969 91.87 1.60603 92.1634 2.34742C92.4562 3.08866 92.5029 3.92074 92.2944 4.69019C92.2944 4.69019 76.5034 62.3947 75.9967 64.115C75.5031 65.7917 74.2972 67.1436 72.6885 67.8249C71.9657 68.1309 71.2028 68.2861 70.4206 68.2861C69.485 68.2861 68.5507 68.0554 67.7189 67.6191L53.3953 60.1055C52.5102 59.6412 51.4349 59.7407 50.6502 60.3598L36.2524 71.7172L35.6249 72.1033C35.255 72.2422 34.8634 72.3214 34.4605 72.3366C34.4147 72.3385 34.3667 72.3394 34.3186 72.3394" fill="#F2F2F2"/>
<path fill-rule="evenodd" clip-rule="evenodd" d="M5.45049 29.8256V29.8256C4.6767 30.0605 4.57639 30.7447 4.56414 30.9487C4.55174 31.153 4.56926 31.8446 5.31018 32.1708L26.301 41.4146L34.9519 36.0514L14.5639 27.0613L5.45049 29.8256Z" fill="#FFF6B8"/>
<path fill-rule="evenodd" clip-rule="evenodd" d="M40.3476 48.0258L40.2881 48.079L69.8379 63.5795C70.1723 63.755 70.5632 63.7714 70.9097 63.6244C71.2554 63.4779 71.5148 63.1871 71.621 62.8266C72.1052 61.182 73.0726 57.8846 73.9875 54.7561L58.4735 47.2136L47.3257 41.7935L40.3484 48.0252C40.3481 48.0253 40.3478 48.0255 40.3476 48.0258" fill="#FFF6B8"/>
<path fill-rule="evenodd" clip-rule="evenodd" d="M52.5117 37.5366C52.5784 37.6129 52.6492 37.6883 52.7224 37.7625C52.7506 37.7912 52.777 37.8204 52.8059 37.8487C52.9104 37.9501 53.0202 38.0498 53.1366 38.147C53.1565 38.1635 53.1783 38.1791 53.1985 38.1955C53.2969 38.2759 53.3991 38.3546 53.5055 38.4315C53.5483 38.4625 53.5931 38.4924 53.6369 38.5228C53.7264 38.5847 53.8182 38.6455 53.9126 38.7048C53.9622 38.7359 54.0123 38.7669 54.0631 38.7972C54.1622 38.8566 54.2645 38.9141 54.3687 38.9707C54.4159 38.9963 54.4621 39.0227 54.5103 39.0476C54.6633 39.1272 54.8199 39.2045 54.9824 39.2776C56.5141 39.9673 58.3417 40.3317 60.2668 40.3317C62.2028 40.3317 64.0307 39.9577 65.5426 39.2757C65.8934 39.1174 66.2325 38.9481 66.5458 38.7566C67.5052 38.1712 68.1951 37.4821 68.5778 36.7438C68.8074 36.3005 68.9263 35.8398 68.9263 35.3728C68.9263 34.439 68.4508 33.5295 67.5655 32.7381C67.2702 32.4742 66.9295 32.2233 66.5458 31.9892C64.8817 30.9734 62.6518 30.4141 60.2668 30.4141C60.2017 30.4141 60.1294 30.4167 60.0622 30.4176L52.3362 37.3182C52.3636 37.3537 52.3895 37.3897 52.4182 37.4249C52.4489 37.4624 52.4794 37.4997 52.5117 37.5366" fill="#FF78C8"/>
<path fill-rule="evenodd" clip-rule="evenodd" d="M67.419 30.5587C68.7018 31.3417 69.6246 32.3032 70.136 33.3661C70.443 34.004 70.6019 34.6782 70.6019 35.3726C70.6019 35.8356 70.5312 36.2897 70.3934 36.7298C70.3242 36.95 70.2383 37.1666 70.136 37.3791C70.0849 37.4856 70.0297 37.5908 69.9703 37.6949C69.4363 38.6328 68.5736 39.4821 67.419 40.1869C65.4956 41.3608 62.9556 42.0073 60.267 42.0073C58.1064 42.0073 56.0409 41.5917 54.2946 40.8055C52.9245 40.1886 51.8311 39.3821 51.0788 38.4411L48.6765 40.5869L74.4462 53.1157L81.3187 27.7536C81.1917 27.7112 81.0683 27.6648 80.9445 27.6189C80.8993 27.6022 80.8528 27.587 80.8083 27.5699C80.6161 27.496 80.428 27.4183 80.2442 27.3369C80.197 27.316 80.1521 27.2933 80.1054 27.2719C79.9699 27.2096 79.8361 27.1464 79.7056 27.0802C79.6421 27.0477 79.5808 27.0141 79.5186 26.9809C79.4079 26.9219 79.2986 26.8619 79.1921 26.7998C79.1279 26.7628 79.0651 26.7248 79.0028 26.6867C78.9003 26.624 78.8001 26.5598 78.7017 26.4944C78.6431 26.4555 78.5843 26.4167 78.5271 26.3767C78.4242 26.305 78.3249 26.2309 78.227 26.156C78.1803 26.1202 78.1322 26.0854 78.0867 26.0492C77.946 25.9369 77.8098 25.8222 77.6806 25.7039C76.4654 24.5899 75.823 23.2675 75.823 21.8791C75.823 21.6763 75.8381 21.476 75.8651 21.2782C75.8664 21.2684 75.8668 21.2588 75.8682 21.2492C75.8955 21.0583 75.9366 20.8703 75.9881 20.6847C75.9924 20.6687 75.9957 20.6526 76.0005 20.6368C76.0524 20.4565 76.1169 20.279 76.1907 20.1042C76.1991 20.0842 76.2067 20.0644 76.2152 20.0446C76.2902 19.8737 76.3761 19.7061 76.4712 19.5413C76.484 19.5191 76.496 19.4968 76.5091 19.4749C76.6054 19.3131 76.7118 19.1546 76.8268 18.9994C76.8437 18.9765 76.8603 18.9536 76.8777 18.9308C76.9944 18.7776 77.1202 18.6281 77.2543 18.4821C77.275 18.4594 77.296 18.4368 77.317 18.4145C77.4535 18.27 77.598 18.1292 77.7507 17.9925C77.7746 17.9711 77.7988 17.9498 77.8229 17.9286C77.9784 17.7928 78.1414 17.661 78.3125 17.5334C78.3384 17.5142 78.3648 17.4953 78.391 17.476C78.5654 17.3491 78.7468 17.2261 78.9361 17.1081C78.9626 17.0916 78.9897 17.0756 79.0166 17.0593C79.2102 16.9412 79.4102 16.8274 79.618 16.7192C79.6434 16.706 79.6694 16.6934 79.695 16.6804C79.9082 16.5716 80.1276 16.4674 80.3545 16.3695C80.3762 16.3602 80.3987 16.3514 80.4204 16.3423C80.6545 16.2429 80.8947 16.1489 81.1423 16.0618C81.1569 16.0567 81.1721 16.0522 81.1869 16.0469C81.4438 15.9576 81.7069 15.8744 81.9772 15.799L81.9863 15.7967C82.2578 15.7212 82.5361 15.6533 82.8198 15.5925C82.832 15.5899 82.8438 15.5869 82.8561 15.5843C83.1327 15.5257 83.4158 15.4754 83.703 15.4316C83.7266 15.4278 83.7494 15.4238 83.7728 15.4202C84.0534 15.3787 84.3392 15.3454 84.6288 15.3184C84.6497 15.3165 84.6695 15.313 84.6903 15.3111L87.1536 6.22095L61.8569 28.8147C63.946 29.0177 65.8798 29.6192 67.419 30.5587" fill="#FFF6B8"/>
<path fill-rule="evenodd" clip-rule="evenodd" d="M84.2194 17.0498C82.461 17.2853 80.865 17.8386 79.6402 18.6482C78.2593 19.5608 77.4985 20.7084 77.4985 21.8792C77.4985 23.024 78.2133 23.9194 78.8128 24.4688C79.5625 25.1558 80.5701 25.724 81.7579 26.1336L84.2194 17.0498Z" fill="#FF78C8"/>
<path fill-rule="evenodd" clip-rule="evenodd" d="M40.2501 45.8665L85.3149 5.61694C82.1709 6.56903 77.2214 8.06824 71.4172 9.8273C71.4328 9.91179 71.4417 9.9966 71.4525 10.0814C71.4582 10.1268 71.4671 10.1719 71.4714 10.2174C71.4844 10.3546 71.4914 10.4921 71.4914 10.6296C71.4914 12.4812 70.361 14.1908 68.3085 15.4437C66.385 16.6176 63.845 17.2643 61.1565 17.2643C60.787 17.2643 60.4207 17.2508 60.0577 17.2265C59.9366 17.2182 59.8191 17.202 59.6991 17.1913C59.4588 17.1697 59.2185 17.1488 58.9824 17.1168C58.8418 17.0976 58.7052 17.0708 58.5663 17.048C58.3557 17.0136 58.1449 16.9804 57.9388 16.9376C57.7936 16.9075 57.6532 16.8706 57.5106 16.8365C57.3168 16.7903 57.1232 16.7448 56.9343 16.6913C56.7908 16.6506 56.6522 16.604 56.5117 16.5592C56.3315 16.5017 56.1517 16.4441 55.9771 16.38C55.8385 16.3289 55.7047 16.2731 55.5698 16.2181C55.4023 16.1497 55.2362 16.0806 55.075 16.0058C54.9435 15.9452 54.8168 15.8806 54.69 15.8158C54.5354 15.7367 54.3832 15.6564 54.2356 15.5716C54.1136 15.5014 53.9954 15.4285 53.8784 15.3542C53.8026 15.3063 53.7206 15.2631 53.6469 15.2135L44.7809 17.901C44.7899 17.9077 44.7974 17.9151 44.8065 17.9218C44.9795 18.0517 45.1431 18.186 45.2989 18.3237C45.3352 18.3556 45.3698 18.3883 45.4051 18.4207C45.5405 18.5447 45.6695 18.6714 45.7907 18.801C45.8112 18.823 45.8335 18.8443 45.8537 18.8664C45.9871 19.0133 46.1099 19.1638 46.225 19.317C46.2529 19.3537 46.2791 19.3909 46.3057 19.4281C46.407 19.5695 46.5017 19.7129 46.5873 19.8591C46.598 19.8776 46.6105 19.8954 46.6212 19.914C46.7129 20.0751 46.7922 20.2391 46.8645 20.4052C46.882 20.4457 46.8986 20.4864 46.9149 20.5272C46.9791 20.6864 47.0364 20.847 47.0825 21.0103C47.0857 21.0218 47.0902 21.0329 47.0935 21.0444C47.1405 21.217 47.1743 21.392 47.2008 21.5683C47.2073 21.6114 47.2129 21.6543 47.218 21.6976C47.2397 21.8762 47.2546 22.0557 47.2546 22.2373C47.2546 22.4687 47.2369 22.698 47.202 22.9242C46.975 24.3959 46.0191 25.7478 44.4456 26.8112C44.3245 26.8929 44.1999 26.973 44.0715 27.0513C42.1481 28.2253 39.6081 28.8719 36.9196 28.8719C34.2463 28.8719 31.7172 28.2316 29.7978 27.0692C29.6147 26.9582 29.4415 26.8423 29.273 26.7244C29.2374 26.6994 29.2014 26.6744 29.1664 26.6492C29.0053 26.5327 28.8505 26.4137 28.7037 26.291C28.6788 26.2703 28.6553 26.2489 28.6307 26.2278C28.498 26.1141 28.3713 25.998 28.2509 25.8796C28.2296 25.8585 28.207 25.838 28.1862 25.8169C28.0574 25.6872 27.9374 25.5541 27.8237 25.4189C27.7986 25.3893 27.7744 25.3594 27.7501 25.3293C27.6374 25.1903 27.5298 25.0495 27.4329 24.9053C27.4306 24.9017 27.4288 24.8983 27.4264 24.8948C27.3315 24.7529 27.2468 24.6083 27.1676 24.4619C27.1507 24.4306 27.1333 24.3994 27.1171 24.3678C27.0417 24.2216 26.9733 24.0735 26.9137 23.9233C26.9033 23.8969 26.8944 23.8703 26.8847 23.8438C26.8321 23.7045 26.7864 23.5638 26.7478 23.4216C26.7433 23.4052 26.7361 23.3892 26.732 23.3725L17.0249 26.3154L36.6782 34.9815L58.9613 21.1672C59.3546 20.9233 59.8712 21.0446 60.1149 21.4379C60.3586 21.8312 60.2376 22.3477 59.8442 22.5914L37.7134 36.3113L38.7091 40.0619L40.2501 45.8665Z" fill="#FFF6B8"/>
<path fill-rule="evenodd" clip-rule="evenodd" d="M69.7973 10.3179L55.8745 14.538C57.3776 15.2152 59.2184 15.5882 61.1563 15.5882C63.5411 15.5882 65.771 15.029 67.4353 14.0132C67.6271 13.896 67.8082 13.7749 67.9784 13.6498C69.1684 12.7752 69.8156 11.7188 69.8156 10.6293C69.8156 10.5258 69.8094 10.4219 69.7973 10.3179" fill="#FF78C8"/>
<path fill-rule="evenodd" clip-rule="evenodd" d="M28.3386 22.8852C28.5803 23.9014 29.3865 24.8606 30.6659 25.6357C31.704 26.2645 32.9609 26.7168 34.3367 26.9676C35.1621 27.1181 36.03 27.196 36.9195 27.196C39.3043 27.196 41.5343 26.6364 43.1985 25.6208C44.5416 24.801 45.3568 23.7785 45.5394 22.7014C45.5656 22.5475 45.5788 22.3926 45.5788 22.2369C45.5788 21.5236 45.305 20.829 44.7648 20.1731C44.2605 19.5604 43.5329 19.0021 42.6484 18.5474L28.3386 22.8852Z" fill="#FF78C8"/>
<path fill-rule="evenodd" clip-rule="evenodd" d="M38.8485 47.118L36.2246 37.2339L27.3557 42.7323L34.1932 65.3096L38.0105 48.0778C38.0107 48.0771 38.0113 48.0764 38.0114 48.0755C38.0286 47.9991 38.0589 47.9282 38.0956 47.8609C38.1065 47.8408 38.1193 47.8226 38.1317 47.8034C38.1643 47.754 38.2012 47.7088 38.2435 47.6671C38.2536 47.6571 38.2597 47.6439 38.2703 47.6341L38.8485 47.118Z" fill="#FFF6B8"/>
<path fill-rule="evenodd" clip-rule="evenodd" d="M84.6904 15.3113C84.6695 15.3132 84.6496 15.3168 84.6288 15.3186C84.3391 15.3456 84.0535 15.3789 83.7729 15.4205C83.7495 15.424 83.7265 15.4281 83.7031 15.4316C83.4157 15.4757 83.1327 15.5259 82.8561 15.5845C82.8439 15.587 82.8321 15.5901 82.8199 15.5926C82.536 15.6535 82.2578 15.7214 81.9864 15.7969L81.9772 15.7991C81.707 15.8746 81.4439 15.9578 81.1868 16.0471C81.1721 16.0523 81.1569 16.0569 81.1422 16.062C80.8948 16.149 80.6546 16.2431 80.4205 16.3423C80.3986 16.3516 80.3763 16.3605 80.3545 16.3696C80.1275 16.4676 79.9081 16.5718 79.6949 16.6806C79.6693 16.6936 79.6433 16.7062 79.6179 16.7194C79.4101 16.8274 79.2101 16.9414 79.0165 17.0594C78.9897 17.0758 78.9627 17.0916 78.9362 17.1084C78.7469 17.2263 78.5653 17.3493 78.3909 17.4763C78.3647 17.4955 78.3383 17.5144 78.3125 17.5336C78.1414 17.6611 77.9785 17.793 77.823 17.9288C77.7988 17.9501 77.7746 17.9711 77.7506 17.9927C77.598 18.1294 77.4534 18.2702 77.317 18.4147C77.296 18.437 77.2751 18.4597 77.2543 18.4823C77.1202 18.6284 76.9943 18.7777 76.8776 18.931C76.8604 18.9536 76.8438 18.9767 76.8267 18.9997C76.7118 19.1549 76.6055 19.3132 76.5091 19.475C76.496 19.497 76.4839 19.5194 76.4711 19.5414C76.3762 19.7063 76.2901 19.8739 76.2153 20.0446C76.2066 20.0645 76.199 20.0845 76.1908 20.1045C76.1168 20.2792 76.0523 20.4567 76.0004 20.637C75.9957 20.6528 75.9923 20.669 75.988 20.6848C75.9367 20.8703 75.8954 21.0584 75.8683 21.2494C75.8669 21.2589 75.8664 21.2686 75.865 21.2783C75.8381 21.4762 75.823 21.6765 75.823 21.8792C75.823 23.2675 76.4653 24.5902 77.6805 25.704C77.8098 25.8224 77.9461 25.9371 78.0866 26.0494C78.1321 26.0857 78.1804 26.1204 78.227 26.156C78.3249 26.2311 78.4242 26.305 78.5272 26.377C78.5842 26.417 78.643 26.4557 78.7018 26.4946C78.8002 26.5601 78.9002 26.6243 79.0027 26.6869C79.0652 26.725 79.1279 26.7629 79.192 26.8001C79.2986 26.8621 79.4079 26.9221 79.5186 26.9812C79.5808 27.0142 79.6421 27.048 79.7056 27.0802C79.836 27.1466 79.97 27.2098 80.1055 27.272C80.1521 27.2934 80.1971 27.3162 80.2441 27.337C80.4281 27.4185 80.6162 27.4962 80.8084 27.57C80.8529 27.5872 80.8994 27.6022 80.9445 27.6191C81.0684 27.665 81.1918 27.7112 81.3188 27.7539L74.4463 53.116L48.6766 40.5869L51.0789 38.4412C51.8311 39.3823 52.9244 40.1888 54.2945 40.8055C56.041 41.5919 58.1063 42.0074 60.267 42.0074C62.9557 42.0074 65.4955 41.3609 67.4191 40.1869C68.5736 39.4821 69.4362 38.633 69.9703 37.6952C70.0296 37.591 70.0849 37.4857 70.1361 37.3794C70.2383 37.1668 70.3243 36.9501 70.3933 36.7299C70.5313 36.2898 70.602 35.8358 70.602 35.3727C70.602 34.6784 70.4431 34.004 70.1361 33.3664C69.6245 32.3034 68.7018 31.3417 67.4191 30.5589C65.8798 29.6194 63.9459 29.0177 61.8569 28.8149L87.1536 6.22102L84.6904 15.3113ZM81.7578 26.1335C80.57 25.7239 79.5625 25.1557 78.8127 24.4686C78.2132 23.9191 77.4984 23.0239 77.4984 21.8791C77.4984 20.7083 78.2592 19.5607 79.6401 18.648C80.8649 17.8385 82.4609 17.285 84.2193 17.0497L81.7578 26.1335ZM71.621 62.8266C71.515 63.1871 71.2556 63.478 70.9097 63.6245C70.5632 63.7713 70.1723 63.755 69.8379 63.5795L40.2882 48.079L40.3476 48.0258C40.3478 48.0255 40.3481 48.0254 40.3484 48.0252L47.3257 41.7935L58.4735 47.2136L73.9875 54.7562C73.0726 57.8847 72.1052 61.182 71.621 62.8266V62.8266ZM27.3557 42.7324L36.2247 37.2339L38.8484 47.1181L38.2704 47.6342C38.2598 47.6439 38.2535 47.6571 38.2435 47.6672C38.2013 47.7089 38.1642 47.754 38.1317 47.8035C38.1193 47.8225 38.1064 47.841 38.0956 47.861C38.059 47.9283 38.0286 47.9991 38.0114 48.0756C38.0112 48.0765 38.0106 48.0771 38.0105 48.078L34.1931 65.3097L27.3557 42.7324ZM4.56427 30.9488C4.57652 30.7448 4.67667 30.0606 5.45047 29.8257L14.564 27.0614L34.9521 36.0515L26.3011 41.4148L5.31016 32.171C4.56939 31.8449 4.55187 31.1531 4.56427 30.9488V30.9488ZM60.267 30.4139C62.6519 30.4139 64.8817 30.9733 66.546 31.9891C66.9296 32.2234 67.2704 32.4741 67.5656 32.738C68.4508 33.5296 68.9263 34.4389 68.9263 35.3727C68.9263 35.8396 68.8076 36.3006 68.5778 36.7437C68.1952 37.4821 67.5052 38.1711 66.546 38.7567C66.2325 38.948 65.8935 39.1174 65.5426 39.2756C64.0307 39.9577 62.2028 40.3317 60.267 40.3317C58.3418 40.3317 56.5143 39.9672 54.9824 39.2776C54.8199 39.2044 54.6633 39.127 54.5103 39.0477C54.4621 39.0225 54.416 38.9963 54.3688 38.9706C54.2646 38.914 54.1624 38.8565 54.0632 38.7971C54.0123 38.7667 53.9624 38.7359 53.9126 38.7049C53.8182 38.6455 53.7264 38.5846 53.637 38.5229C53.5931 38.4925 53.5483 38.4624 53.5055 38.4315C53.3992 38.3546 53.2971 38.2757 53.1985 38.1954C53.1784 38.179 53.1565 38.1633 53.1368 38.1469C53.0204 38.0497 52.9106 37.95 52.8061 37.8486C52.777 37.8204 52.7506 37.7911 52.7226 37.7626C52.6492 37.6881 52.5784 37.6129 52.5117 37.5365C52.4795 37.4996 52.4489 37.4623 52.4184 37.4249C52.3896 37.3895 52.3637 37.3537 52.3362 37.3181L60.0622 30.4177C60.1295 30.4167 60.2017 30.4139 60.267 30.4139V30.4139ZM26.7318 23.3723C26.736 23.3891 26.7431 23.4051 26.7478 23.4216C26.7864 23.5638 26.8321 23.7044 26.8845 23.8437C26.8945 23.8702 26.9033 23.8968 26.9137 23.9232C26.9734 24.0734 27.0416 24.2215 27.1169 24.3677C27.1334 24.3993 27.1506 24.4305 27.1676 24.4618C27.2467 24.6081 27.3314 24.7528 27.4264 24.8947C27.4287 24.8982 27.4306 24.9016 27.4329 24.9052C27.5298 25.0494 27.6374 25.1902 27.75 25.3292C27.7744 25.3593 27.7985 25.3892 27.8236 25.4188C27.9372 25.554 28.0574 25.687 28.1861 25.8168C28.207 25.8379 28.2295 25.8584 28.2509 25.8795C28.3712 25.9979 28.498 26.114 28.6306 26.2277C28.6552 26.2487 28.6788 26.2701 28.7037 26.2909C28.8504 26.4136 29.0051 26.5326 29.1662 26.6491C29.2014 26.6743 29.2372 26.6993 29.273 26.7242C29.4416 26.8422 29.6147 26.958 29.7977 27.0691C31.7171 28.2315 34.2463 28.8718 36.9195 28.8718C39.6081 28.8718 42.1481 28.2252 44.0715 27.0512C44.1997 26.9729 44.3245 26.8928 44.4455 26.8111C46.0189 25.7477 46.9749 24.3957 47.2019 22.9243C47.2369 22.6979 47.2544 22.4686 47.2544 22.2372C47.2544 22.0556 47.2396 21.8761 47.218 21.6975C47.2129 21.6542 47.2072 21.6113 47.2006 21.5682C47.1743 21.3919 47.1405 21.2169 47.0934 21.0445C47.0903 21.0328 47.0856 21.0217 47.0825 21.0102C47.0365 20.8469 46.9791 20.6863 46.9149 20.5271C46.8985 20.4863 46.882 20.4455 46.8645 20.4051C46.7923 20.239 46.7127 20.075 46.6211 19.9139C46.6106 19.8953 46.598 19.8775 46.5872 19.859C46.5017 19.7128 46.4069 19.5694 46.3056 19.428C46.2789 19.3908 46.2527 19.3536 46.225 19.3169C46.1098 19.1637 45.987 19.0132 45.8535 18.8663C45.8334 18.8442 45.8112 18.8229 45.7907 18.8009C45.6695 18.6713 45.5403 18.5446 45.405 18.4206C45.3698 18.3882 45.3351 18.3555 45.299 18.3235C45.143 18.1859 44.9794 18.0516 44.8064 17.9217C44.7974 17.915 44.79 17.9076 44.7808 17.9009L53.6469 15.2133C53.7204 15.263 53.8024 15.3062 53.8784 15.3541C53.9955 15.4284 54.1135 15.5012 54.2355 15.5715C54.3832 15.6563 54.5353 15.7366 54.6899 15.8157C54.8167 15.8805 54.9435 15.9451 55.075 16.0057C55.2362 16.0805 55.4023 16.1496 55.5697 16.218C55.7046 16.273 55.8384 16.3288 55.9772 16.3798C56.1517 16.444 56.3314 16.5015 56.5116 16.5591C56.652 16.6039 56.7906 16.6505 56.9344 16.6912C57.123 16.7446 57.3167 16.7902 57.5105 16.8364C57.6531 16.8705 57.7936 16.9074 57.9387 16.9375C58.1447 16.9803 58.3557 17.0135 58.5661 17.0479C58.7052 17.0707 58.8416 17.0975 58.9824 17.1167C59.2184 17.1487 59.4588 17.1696 59.6991 17.1912C59.819 17.2018 59.9367 17.2181 60.0576 17.2263C60.4205 17.2507 60.7869 17.2642 61.1563 17.2642C63.845 17.2642 66.385 16.6175 68.3084 15.4437C70.3609 14.1907 71.4913 12.4811 71.4913 10.6295C71.4913 10.492 71.4843 10.3545 71.4713 10.2173C71.467 10.1718 71.4581 10.1267 71.4524 10.0813C71.4417 9.99648 71.4327 9.91168 71.4172 9.82718C77.2213 8.06813 82.1707 6.56891 85.3147 5.61683L40.25 45.8664L38.7089 40.0618L37.7133 36.3111L59.8441 22.5913C60.2374 22.3475 60.3587 21.8311 60.1148 21.4378C59.8711 21.0445 59.3545 20.9232 58.9613 21.1672L36.6781 34.9814L17.0249 26.3153L26.7318 23.3723ZM42.6484 18.5474C43.5329 19.0023 44.2606 19.5604 44.765 20.1731C45.3049 20.8292 45.5789 21.5237 45.5789 22.2371C45.5789 22.3928 45.5657 22.5477 45.5395 22.7016C45.3567 23.7785 44.5415 24.8012 43.1985 25.6208C41.5344 26.6366 39.3044 27.196 36.9194 27.196C36.0301 27.196 35.1621 27.1182 34.3367 26.9678C32.961 26.7168 31.704 26.2646 30.6658 25.6359C29.3865 24.8608 28.5803 23.9015 28.3386 22.8854L42.6484 18.5474ZM69.7973 10.3179C69.8095 10.422 69.8157 10.5258 69.8157 10.6294C69.8157 11.7189 69.1684 12.7753 67.9784 13.6498C67.8081 13.775 67.627 13.896 67.4353 14.0133C65.7711 15.0291 63.5412 15.5883 61.1562 15.5883C59.2183 15.5883 57.3775 15.2153 55.8746 14.5381L69.7973 10.3179ZM89.1405 3.00349C88.9581 2.89078 88.7469 2.86396 88.5461 2.90194C88.5353 2.9052 80.5792 5.2996 70.143 8.46252H70.1429L53.5536 13.4908H53.5534L42.4786 16.848L27.1812 21.4852L14.3747 25.3678H14.3745L4.96419 28.2223H4.96404C3.7794 28.5819 2.96576 29.6124 2.8915 30.8482C2.81708 32.0845 3.50142 33.2056 4.63489 33.7046L25.677 42.9709L33.5171 68.8586C33.6243 69.2129 33.9509 69.4535 34.3187 69.4535C34.3294 69.4535 34.3399 69.4533 34.3508 69.4529C34.5329 69.4459 34.701 69.3792 34.8367 69.2722C34.8381 69.2713 34.8394 69.2721 34.8408 69.271L51.6143 55.9125L69.0596 65.0634C69.4866 65.2875 69.953 65.4002 70.4207 65.4002C70.808 65.4002 71.196 65.323 71.5632 65.1675C72.3729 64.8245 72.9799 64.1439 73.2284 63.2999C73.7481 61.5349 74.8239 57.8674 75.7945 54.5472C75.7954 54.5441 75.7954 54.541 75.7963 54.5379C75.7969 54.5356 75.7983 54.5334 75.7988 54.5313L83.149 27.4064L86.1519 16.3243L89.5091 3.93542C89.606 3.57744 89.4562 3.19838 89.1405 3.00349V3.00349Z" fill="#000055"/>
</svg>
