<svg width="99" height="112" viewBox="0 0 99 112" fill="none" xmlns="http://www.w3.org/2000/svg">
<path fill-rule="evenodd" clip-rule="evenodd" d="M58.8607 103.06C39.291 107.973 19.3733 96.0487 14.4605 76.4789C9.54779 56.9098 21.4718 36.9921 41.0415 32.0793C43.4115 31.4843 45.8386 31.1301 48.287 31.0207L49.889 14.4618C50.1676 11.5887 51.977 9.0694 54.6107 7.88663L67.9106 1.9189L68.0085 1.8809C68.1299 1.83062 68.2388 1.78697 68.3503 1.74794C68.4759 1.70379 68.5984 1.66663 68.7221 1.63142C68.7249 1.63041 68.7823 1.61057 68.7823 1.61057L69.0799 1.53538L69.104 1.53219C69.2485 1.50073 69.3965 1.47347 69.552 1.45057L69.6916 1.42975L69.7191 1.4283C69.8273 1.41503 69.9364 1.40492 70.0484 1.3971L70.1043 1.3893L70.2449 1.38646C72.3655 1.30199 74.3894 2.2637 75.6648 3.96305L75.6967 4.00618C75.8054 4.15393 75.8981 4.2918 75.987 4.4346L76.0489 4.53527C76.1255 4.66293 76.1997 4.80048 76.2708 4.94135C76.2898 4.97863 76.3066 5.01197 76.322 5.04342C76.3489 5.09518 76.3736 5.14637 76.3972 5.19895C76.4369 5.28746 76.4719 5.37474 76.5043 5.46251C76.5426 5.55648 76.5738 5.63703 76.6017 5.71796C76.6412 5.82937 76.6754 5.94241 76.7082 6.05631C76.7321 6.13198 76.7538 6.206 76.7727 6.28133L76.7957 6.37291L76.8072 6.43396C76.8303 6.54133 76.8483 6.63622 76.8647 6.73187C76.8815 6.81732 76.8968 6.90619 76.9081 6.99413C76.9184 7.05982 76.9287 7.16641 76.9371 7.27315C76.9497 7.40937 76.9585 7.51634 76.9624 7.6223C76.9624 7.6223 76.9648 7.76812 76.9639 7.81471C76.9824 10.5411 75.3021 12.9746 72.7569 13.9233L62.4918 18.5283L61.1171 32.7369C73.1388 36.5966 82.3457 46.3298 85.4411 58.6597C90.3539 78.2294 78.43 98.147 58.8607 103.06" fill="#F2F2F2"/>
<path fill-rule="evenodd" clip-rule="evenodd" d="M50.8862 56.5647C53.993 55.7847 57.1553 57.6778 57.9352 60.7846C58.7152 63.8914 56.822 67.0536 53.7151 67.8335C50.6083 68.6135 47.446 66.7205 46.6661 63.6136C45.8861 60.5068 47.7793 57.3446 50.8862 56.5647M36.4924 43.5679C35.8559 43.925 35.2259 44.3128 34.62 44.72C34.4751 44.8176 34.3191 44.8857 34.1591 44.9259C33.5765 45.0722 32.9396 44.8489 32.585 44.3217C32.1333 43.6498 32.3117 42.7388 32.9837 42.2868C33.6548 41.8355 34.3525 41.4061 35.0576 41.0106C35.7633 40.6146 36.6575 40.8655 37.0536 41.5717C37.4499 42.278 37.1986 43.1716 36.4924 43.5679M64.0815 53.68C64.2216 52.2898 64.8792 51.1664 65.933 50.5167C66.9868 49.8669 68.2858 49.7839 69.5908 50.283C70.8173 50.7521 71.9124 51.6913 72.6748 52.9276C73.4372 54.1638 73.7843 55.5642 73.6526 56.8708C73.5126 58.261 72.855 59.3844 71.8012 60.034C71.4745 60.2354 71.1242 60.3823 70.7576 60.4744C69.9414 60.6793 69.0438 60.6121 68.1434 60.2678C66.9169 59.7987 65.8217 58.8596 65.0592 57.6232C64.2971 56.3868 63.9497 54.9864 64.0815 53.68M30.8148 47.8076C28.4134 50.1413 26.4722 52.8657 25.0454 55.9047C23.6057 58.9709 22.7514 62.2281 22.506 65.5856C22.4588 66.2329 21.998 66.7512 21.4011 66.9011C21.2533 66.9382 21.0971 66.9528 20.9369 66.941C20.1294 66.8821 19.5224 66.1796 19.5815 65.3721C19.8529 61.6553 20.7982 58.0507 22.3909 54.6585C23.9687 51.2982 26.1153 48.2858 28.7712 45.7047C29.3521 45.1404 30.2803 45.1537 30.8446 45.7344C31.409 46.3151 31.3957 47.2433 30.8148 47.8076M30.6741 41.9821C27.3679 44.4753 24.6082 47.5491 22.4713 51.1185C20.3344 54.6877 18.9285 58.5722 18.2927 62.6641C17.6343 66.8999 17.8343 71.1739 18.8872 75.3679C19.9401 79.5619 21.7825 83.4238 24.3635 86.8464C26.8565 90.1526 29.9305 92.9125 33.4999 95.0492C37.0693 97.1861 40.9536 98.5919 45.0454 99.228C49.2811 99.8862 53.5554 99.6861 57.7493 98.6333C61.9433 97.5804 65.8052 95.738 69.2277 93.1572C72.5338 90.6639 75.2937 87.5901 77.4304 84.0207C79.5675 80.4514 80.9734 76.5669 81.6093 72.4752C82.2675 68.2394 82.0674 63.9653 81.0145 59.7713C79.9617 55.5773 78.1193 51.7156 75.5385 48.2929C73.0454 44.9865 69.9714 42.2267 66.4019 40.09C63.7256 38.4877 60.8721 37.2966 57.887 36.5327L57.4562 40.9854C57.6473 41.1041 57.833 41.2282 58.0062 41.3629C59.2291 42.3139 59.854 43.5428 59.7653 44.8228C59.6769 46.1028 58.8889 47.2337 57.5465 48.0074C57.0153 48.3135 56.4194 48.5491 55.7824 48.709C54.9379 48.921 54.0208 49.0004 53.0853 48.9355C51.4439 48.822 49.9202 48.2774 48.7944 47.4019C47.5712 46.4508 46.9465 45.2222 47.0349 43.942C47.1236 42.6619 47.9116 41.5311 49.2539 40.7575C49.5661 40.5775 49.9008 40.4225 50.2528 40.2922L50.7115 35.5508C47.8464 35.4833 44.9812 35.7957 42.1526 36.5058C37.9587 37.5587 34.0967 39.4012 30.6741 41.9821" fill="#66DFFF"/>
<path fill-rule="evenodd" clip-rule="evenodd" d="M35.0577 41.0106C34.3526 41.4061 33.6549 41.8356 32.9837 42.287C32.3117 42.7388 32.1334 43.6498 32.5851 44.3217C32.9397 44.8489 33.5765 45.0722 34.159 44.926C34.3192 44.8858 34.4752 44.8177 34.6201 44.7202C35.226 44.3128 35.856 43.925 36.4925 43.5679C37.1987 43.1717 37.45 42.278 37.0536 41.5719C36.6574 40.8655 35.7634 40.6146 35.0577 41.0106" fill="#F2F2F2"/>
<path fill-rule="evenodd" clip-rule="evenodd" d="M28.7714 45.7049C26.1154 48.286 23.9688 51.2984 22.391 54.6587C20.7984 58.0509 19.853 61.6554 19.5816 65.3721C19.5225 66.1796 20.1295 66.8822 20.937 66.9412C21.0972 66.9529 21.2534 66.9383 21.4012 66.9012C21.9981 66.7514 22.4589 66.233 22.5061 65.5858C22.7515 62.2283 23.6058 58.9711 25.0455 55.9049C26.4723 52.8659 28.4136 50.1415 30.815 47.8078C31.3958 47.2435 31.4091 46.3152 30.8447 45.7344C30.2804 45.1539 29.3522 45.1406 28.7714 45.7049" fill="#F2F2F2"/>
<path fill-rule="evenodd" clip-rule="evenodd" d="M71.152 9.6836C71.09 9.70603 71.0314 9.73433 70.9661 9.75071C70.7637 9.80153 70.5622 9.80928 70.3646 9.79639C70.5622 9.80928 70.7637 9.80153 70.9661 9.75071C71.0314 9.73433 71.09 9.70603 71.152 9.6836" fill="#FFF6B8"/>
<path fill-rule="evenodd" clip-rule="evenodd" d="M71.7593 6.38052L71.7593 6.38037C71.6839 6.31591 71.6044 6.2565 71.5204 6.20431L71.5203 6.20435C71.6044 6.2565 71.6839 6.31591 71.7593 6.38052" fill="#FFF6B8"/>
<path fill-rule="evenodd" clip-rule="evenodd" d="M70.299 5.92488V5.92488C70.2148 5.93333 70.1306 5.94213 70.0461 5.9619C70.1306 5.94213 70.2148 5.93333 70.299 5.92488" fill="#FFF6B8"/>
<path fill-rule="evenodd" clip-rule="evenodd" d="M72.4128 7.58107C72.4129 7.58088 72.4129 7.58073 72.4128 7.58057C72.4043 7.52233 72.4012 7.46434 72.3872 7.40603L72.3871 7.40588C72.401 7.46453 72.4044 7.52263 72.4128 7.58107" fill="#FFF6B8"/>
<path fill-rule="evenodd" clip-rule="evenodd" d="M71.4592 6.16809V6.16809C71.375 6.11982 71.287 6.07841 71.1963 6.04312L71.1963 6.04297C71.287 6.07841 71.375 6.11982 71.4592 6.16809" fill="#FFF6B8"/>
<path fill-rule="evenodd" clip-rule="evenodd" d="M72.0111 6.64152L72.0109 6.6414C71.9493 6.56482 71.8841 6.4914 71.8125 6.4255L71.8125 6.42535C71.8841 6.4914 71.9495 6.56478 72.0111 6.64152" fill="#FFF6B8"/>
<path fill-rule="evenodd" clip-rule="evenodd" d="M72.3295 7.23317L72.3294 7.23272C72.3061 7.16432 72.2863 7.0941 72.2562 7.02997L72.256 7.02986C72.2863 7.0941 72.3062 7.16462 72.3295 7.23317" fill="#FFF6B8"/>
<path fill-rule="evenodd" clip-rule="evenodd" d="M72.18 6.89763C72.18 6.89748 72.1798 6.89737 72.1798 6.89721C72.142 6.83102 72.1061 6.76353 72.0614 6.70308L72.0614 6.70293C72.1062 6.76369 72.1422 6.83128 72.18 6.89763" fill="#FFF6B8"/>
<path fill-rule="evenodd" clip-rule="evenodd" d="M54.7973 13.5693C54.6766 13.7936 54.5863 14.0342 54.5161 14.282C54.5016 14.3329 54.4818 14.3822 54.4696 14.4342C54.434 14.5858 54.4082 14.741 54.3929 14.8984L54.1887 17.0084L51.5494 44.2927C51.4646 45.17 51.9816 45.9589 52.7592 46.2731C52.9283 46.3413 53.1053 46.3948 53.296 46.4133C53.5236 46.4351 53.7459 46.417 53.956 46.3643C54.5952 46.2038 55.1139 45.7216 55.3229 45.0862C55.3671 44.952 55.4025 44.8133 55.4167 44.6668L57.2677 25.5323L58.2405 15.476L66.0205 11.9858L68.4916 10.8773C67.763 10.3949 67.2027 9.65367 66.9737 8.74151C66.8543 8.26589 66.8364 7.78843 66.9042 7.3312L56.464 12.015C55.7418 12.3392 55.1611 12.8924 54.7973 13.5693" fill="#FFF6B8"/>
<path fill-rule="evenodd" clip-rule="evenodd" d="M68.8171 6.85593C68.9791 6.58556 69.2121 6.3613 69.4892 6.19437C69.2121 6.3613 68.9791 6.58556 68.8171 6.85593" fill="#FFF6B8"/>
<path fill-rule="evenodd" clip-rule="evenodd" d="M71.1236 6.01554V6.01554C71.0327 5.98432 70.9391 5.96133 70.8437 5.94373L70.8437 5.94358C70.9391 5.96133 71.0327 5.98432 71.1236 6.01554" fill="#FFF6B8"/>
<path fill-rule="evenodd" clip-rule="evenodd" d="M72.4376 7.83787C72.4378 7.83768 72.4377 7.83753 72.4377 7.83738C72.4377 7.8255 72.44 7.81403 72.4396 7.80211L72.4395 7.80196C72.44 7.81403 72.4377 7.82584 72.4376 7.83787" fill="#FFF6B8"/>
<path fill-rule="evenodd" clip-rule="evenodd" d="M70.7352 5.92691L70.7351 5.92695C70.6428 5.91531 70.5496 5.90986 70.4551 5.91161C70.5496 5.90986 70.643 5.91527 70.7352 5.92691" fill="#FFF6B8"/>
<path fill-rule="evenodd" clip-rule="evenodd" d="M71.1522 9.68342L71.152 9.68346L71.1522 9.68342C71.9375 9.39932 72.4464 8.65501 72.4374 7.83774L72.4374 7.83759C72.4374 7.82559 72.4397 7.81382 72.4394 7.80175C72.4371 7.72832 72.4233 7.6544 72.4126 7.58022L72.4125 7.58007C72.4042 7.52191 72.4008 7.46408 72.387 7.4057C72.3853 7.39829 72.3854 7.39074 72.3836 7.38322C72.3702 7.33014 72.3465 7.2832 72.3292 7.23237C72.306 7.16404 72.2861 7.09374 72.256 7.0297L72.2558 7.02909C72.2557 7.02864 72.2556 7.02834 72.2554 7.02808C72.2415 6.99816 72.2232 6.9719 72.2078 6.94299C72.1993 6.92691 72.1887 6.91248 72.1798 6.89681C72.1421 6.83067 72.1061 6.76313 72.0615 6.70256C72.0455 6.68099 72.0272 6.66176 72.0103 6.64075C71.949 6.56407 71.8839 6.49107 71.8123 6.42511C71.7949 6.40919 71.7766 6.39492 71.7587 6.37974C71.6836 6.31548 71.6043 6.25626 71.5206 6.20422C71.5001 6.19131 71.4796 6.17952 71.4585 6.16755C71.3745 6.11957 71.2869 6.07811 71.1963 6.04282C71.1717 6.03333 71.1479 6.02365 71.1229 6.01506C71.0324 5.9839 70.9389 5.96102 70.8438 5.94333C70.8177 5.93854 70.7922 5.93198 70.7657 5.92825C70.7555 5.92683 70.7448 5.92774 70.7344 5.92651C70.6425 5.91491 70.5493 5.90936 70.4552 5.91126C70.4355 5.91158 70.4164 5.909 70.3967 5.91011C70.364 5.91176 70.3309 5.92119 70.2984 5.92457C70.2143 5.93289 70.1303 5.94166 70.0463 5.96148C70.0378 5.96345 70.0295 5.96297 70.0214 5.965C70.0196 5.96546 70.018 5.96538 70.0162 5.96584C69.9642 5.9789 69.9181 6.00229 69.868 6.01934C69.8517 6.02552 69.835 6.03114 69.8186 6.03717L69.8183 6.03725C69.702 6.08019 69.5925 6.1323 69.4894 6.19449C69.2122 6.36141 68.9791 6.58552 68.8172 6.85604C68.5609 7.28436 68.4676 7.81065 68.5989 8.33334C68.8104 9.17587 69.5421 9.74235 70.3648 9.79621C70.5624 9.8091 70.7639 9.80135 70.9663 9.75054C71.0316 9.73415 71.0902 9.70586 71.1522 9.68342" fill="#F2F2F2"/>
<path fill-rule="evenodd" clip-rule="evenodd" d="M50.8863 56.5647C47.7795 57.3447 45.8862 60.5068 46.6662 63.6137C47.4461 66.7205 50.6084 68.6135 53.7152 67.8336C56.8221 67.0536 58.7153 63.8914 57.9353 60.7846C57.1554 57.6778 53.9931 55.7848 50.8863 56.5647" fill="#000055"/>
<path fill-rule="evenodd" clip-rule="evenodd" d="M68.1433 60.2679C69.0438 60.6122 69.9414 60.6794 70.7575 60.4745C71.1242 60.3824 71.4745 60.2355 71.801 60.0342C72.8549 59.3845 73.5125 58.2611 73.6526 56.8709C73.7843 55.5645 73.4371 54.1641 72.6747 52.9278C71.9124 51.6915 70.8173 50.7522 69.5907 50.2833C68.2857 49.7842 66.9868 49.867 65.9328 50.5168C64.8791 51.1667 64.2215 52.2901 64.0815 53.6801C63.9497 54.9866 64.297 56.3871 65.0591 57.6234C65.8215 58.8597 66.9168 59.799 68.1433 60.2679" fill="#000055"/>
<path fill-rule="evenodd" clip-rule="evenodd" d="M72.3869 7.40595V7.40595C72.4008 7.46399 72.404 7.52171 72.4124 7.57968L72.4125 7.57983C72.4186 7.62273 72.4225 7.66555 72.4279 7.70815C72.4321 7.73939 72.4384 7.77075 72.4393 7.80184L72.4393 7.80199C72.4396 7.81391 72.4373 7.8252 72.4374 7.837L72.4374 7.83715C72.4375 7.83746 72.4374 7.83749 72.4374 7.83764C72.4417 8.24641 72.3169 8.63677 72.0927 8.96048C72.0898 8.96439 72.0863 8.96767 72.0836 8.97154C72.0298 9.04819 71.9709 9.12165 71.9062 9.19C71.8988 9.19794 71.8894 9.20445 71.8819 9.21225C71.8203 9.27518 71.7558 9.33567 71.6855 9.39022C71.6652 9.40588 71.6415 9.4179 71.6204 9.43311C71.5597 9.47615 71.4992 9.51964 71.4332 9.55603C71.3441 9.60526 71.2502 9.648 71.1521 9.68352C71.0901 9.70595 71.0315 9.73425 70.9664 9.75059C70.7638 9.80144 70.5624 9.80916 70.3648 9.79612C69.542 9.74229 68.8104 9.17593 68.5989 8.3334C68.4677 7.81071 68.5608 7.2843 68.817 6.85599C68.9792 6.58558 69.2121 6.36135 69.4892 6.19443C69.5926 6.13236 69.7019 6.08014 69.8182 6.03719L69.8185 6.03712C69.8349 6.03124 69.8517 6.02558 69.8679 6.01928C69.918 6.00239 69.9641 5.97899 70.0162 5.96589C70.0179 5.96548 70.0197 5.96551 70.0213 5.9651C70.0297 5.96298 70.0378 5.96335 70.0461 5.96143C70.1304 5.94172 70.2142 5.93299 70.2981 5.92456C70.2987 5.9244 70.2994 5.92422 70.3001 5.92421C70.3323 5.92076 70.3645 5.91171 70.3966 5.91021C70.4163 5.9091 70.4355 5.91164 70.4552 5.91116C70.5492 5.90946 70.6424 5.915 70.7341 5.9265C70.7446 5.92788 70.7554 5.92693 70.7656 5.92834C70.7921 5.93208 70.8176 5.93848 70.8439 5.94353C70.9388 5.96111 71.0323 5.984 71.1227 6.01501C71.1432 6.02217 71.1629 6.03001 71.1828 6.03781C71.1874 6.03953 71.1918 6.04115 71.1962 6.04291L71.1963 6.04306C71.2868 6.0782 71.3745 6.11948 71.4585 6.1676C71.4688 6.17365 71.4791 6.17969 71.4895 6.18589C71.4998 6.19193 71.5102 6.19779 71.5206 6.20413C71.6042 6.2562 71.6834 6.31527 71.7587 6.37965L71.7588 6.3798C71.7659 6.38585 71.7728 6.39178 71.7801 6.39779C71.7909 6.40673 71.802 6.41563 71.8122 6.42536C71.8837 6.49102 71.9488 6.5642 72.0101 6.64055C72.0152 6.64694 72.0205 6.65313 72.0257 6.65933C72.0378 6.67357 72.0501 6.68759 72.0614 6.70265L72.0614 6.7028C72.1059 6.76307 72.1417 6.8305 72.1794 6.89634C72.1883 6.91231 72.1989 6.92659 72.2075 6.94268C72.2157 6.95786 72.224 6.97274 72.2326 6.98751C72.2406 7.0007 72.2487 7.01385 72.2554 7.02814C72.2555 7.02844 72.2556 7.02874 72.2557 7.02904L72.2557 7.02919L72.2558 7.02964L72.256 7.0296L72.256 7.02975C72.286 7.09383 72.3058 7.16368 72.329 7.23187L72.3291 7.23232C72.3464 7.28329 72.3703 7.33019 72.3836 7.38327C72.3854 7.39064 72.3851 7.39824 72.3869 7.40579L72.3869 7.40595ZM66.0205 11.9857L58.2404 15.4761L57.2677 25.5322L55.4166 44.6667C55.4024 44.8134 55.3672 44.9518 55.3229 45.0862C55.14 45.642 54.7201 46.0807 54.1898 46.2893C54.114 46.319 54.0359 46.3441 53.956 46.3641C53.7458 46.4169 53.5236 46.4351 53.2961 46.4133C53.1054 46.3948 52.9282 46.3413 52.7591 46.273C51.9815 45.9589 51.4647 45.17 51.5493 44.2926L54.1887 17.0083L54.3928 14.8983C54.4081 14.7409 54.434 14.5859 54.4695 14.434C54.4818 14.3821 54.5016 14.333 54.5161 14.2819C54.5862 14.0342 54.6766 13.7937 54.7972 13.5693C55.161 12.8925 55.7418 12.3392 56.4639 12.0149L66.9041 7.33124C66.8364 7.78848 66.8542 8.26578 66.9737 8.74155C67.2026 9.65371 67.7629 10.3949 68.4918 10.8773L66.0205 11.9857ZM66.4021 40.0897C69.9715 42.2266 73.0454 44.9864 75.5385 48.2926C78.1193 51.7153 79.9617 55.5771 81.0146 59.7711C82.0674 63.965 82.2675 68.2393 81.6093 72.4751C80.9734 76.5667 79.5675 80.4511 77.4306 84.0206C75.2937 87.5898 72.5339 90.6637 69.2277 93.157C65.8052 95.7379 61.9434 97.5803 57.7494 98.6332C53.5555 99.686 49.2812 99.8861 45.0454 99.2278C40.9536 98.5918 37.0693 97.1858 33.4999 95.0491C29.9305 92.9122 26.8566 90.1524 24.3635 86.8463C21.7826 83.4237 19.9401 79.5617 18.8873 75.3678C17.8344 71.1738 17.6343 66.8996 18.2927 62.6638C18.9285 58.5721 20.3345 54.6876 22.4714 51.1182C24.6083 47.549 27.368 44.475 30.6742 41.982C34.0968 39.4009 37.9588 37.5584 42.1526 36.5056C44.9813 35.7955 47.8464 35.483 50.7115 35.5505L50.2529 40.2921C49.901 40.4222 49.5662 40.5774 49.2539 40.7573C47.9117 41.5309 47.1237 42.6618 47.0352 43.9419C46.9465 45.222 47.5714 46.4505 48.7944 47.4016C49.9202 48.2771 51.4439 48.8219 53.0853 48.9352C54.0208 49.0001 54.938 48.9209 55.7825 48.7089C56.4195 48.549 57.0153 48.3132 57.5467 48.007C58.889 47.2335 59.677 46.1027 59.7654 44.8226C59.854 43.5427 59.2292 42.3138 58.0063 41.3628C57.833 41.2279 57.6473 41.104 57.4562 40.9852L57.887 36.5324C60.8721 37.2963 63.7257 38.4876 66.4021 40.0897V40.0897ZM73.9787 6.87679C73.9576 6.80199 73.9364 6.72741 73.911 6.65512C73.8946 6.6081 73.8753 6.56292 73.8569 6.51702C73.8371 6.467 73.8203 6.41655 73.7983 6.36709C73.7901 6.34931 73.7802 6.33277 73.7721 6.315C73.7578 6.2847 73.7421 6.25554 73.7271 6.22574C73.6872 6.14673 73.646 6.06853 73.6009 5.99337C73.5901 5.97578 73.5792 5.95853 73.5683 5.94113C73.5123 5.85143 73.4539 5.7638 73.3907 5.68008C73.3892 5.6782 73.3879 5.67614 73.3863 5.67415C72.673 4.72325 71.5343 4.18237 70.3441 4.23468C70.3393 4.23476 70.3347 4.2348 70.3298 4.23507C70.215 4.24007 70.0995 4.25116 69.9838 4.2676C69.9788 4.26835 69.9741 4.26858 69.9693 4.2693C69.8525 4.28664 69.7356 4.30879 69.6191 4.33804C69.6171 4.33854 69.6152 4.33918 69.6133 4.33967C69.6116 4.34008 69.6098 4.34038 69.6083 4.34076C69.583 4.3471 69.5596 4.35634 69.5346 4.3631C69.454 4.38525 69.3743 4.40894 69.2965 4.43583C69.225 4.46079 69.156 4.49011 69.0869 4.51913C69.0638 4.52893 69.0395 4.53678 69.0165 4.54703L68.9582 4.57333C68.941 4.58117 68.9233 4.58833 68.9062 4.59647L55.7784 10.486C54.0749 11.2509 52.9053 12.8796 52.7252 14.7364L50.8733 33.8792C47.8172 33.796 44.761 34.1234 41.7447 34.8806C37.3322 35.9883 33.2679 37.9274 29.6654 40.6442C26.186 43.2678 23.2819 46.5024 21.0336 50.2577C18.7855 54.0131 17.3062 58.1006 16.6369 62.4065C15.944 66.8651 16.1543 71.3632 17.2621 75.7759C18.3698 80.1884 20.309 84.2524 23.0257 87.8552C25.6493 91.3344 28.8838 94.2385 32.6391 96.4868C36.3945 98.7349 40.4821 100.214 44.7881 100.884C49.2466 101.577 53.7448 101.366 58.1573 100.258C62.57 99.1506 66.6341 97.2115 70.2365 94.4949C73.716 91.8712 76.62 88.6366 78.8683 84.8813C81.1165 81.1258 82.5958 77.0383 83.2651 72.7325C83.9579 68.2738 83.7477 63.7757 82.64 59.3632C81.5322 54.9505 79.593 50.8865 76.8763 47.2838C74.2527 43.8046 71.0182 40.9004 67.2627 38.6521C64.3719 36.9215 61.2825 35.6515 58.0497 34.8508L59.8146 16.6064L71.6859 11.2808C73.1652 10.7654 74.1269 9.35719 74.1142 7.82743C74.114 7.79487 74.1158 7.76196 74.1148 7.72929C74.1127 7.66973 74.1058 7.61006 74.1007 7.55013C74.0954 7.48768 74.0918 7.42545 74.0831 7.36289C74.0771 7.31965 74.0675 7.27634 74.0598 7.23318C74.0462 7.15619 74.033 7.07912 74.0141 7.00216C74.0119 6.99329 74.0111 6.98423 74.0088 6.97536C74.0004 6.94152 73.9881 6.91006 73.9787 6.87679V6.87679Z" fill="#000055"/>
</svg>
